<?xml version="1.0" encoding="UTF-8" ?>
<!DOCTYPE svg PUBLIC "-//W3C//DTD SVG 1.1//EN" "http://www.w3.org/Graphics/SVG/1.1/DTD/svg11.dtd">
<svg width="512pt" height="512pt" viewBox="0 0 512 512" version="1.1" xmlns="http://www.w3.org/2000/svg">
<g id="#ebcc8fff">
<path fill="#ebcc8f" opacity="1.00" d=" M 234.53 1.92 C 269.69 -0.97 305.51 3.26 338.85 14.84 C 343.42 16.26 345.26 22.47 342.33 26.20 C 340.16 29.43 335.74 29.94 332.37 28.45 C 283.01 11.75 228.19 11.92 178.87 28.67 C 175.44 30.11 171.08 28.91 169.25 25.58 C 166.92 21.87 168.75 16.37 172.92 14.92 C 192.80 8.00 213.58 3.77 234.53 1.92 Z" />
<path fill="#ebcc8f" opacity="1.00" d=" M 389.35 112.04 C 391.55 114.77 393.93 117.37 396.47 119.79 C 397.57 120.79 398.70 121.77 399.87 122.71 C 388.11 134.61 376.20 146.38 364.40 158.24 C 361.05 154.52 357.51 150.96 353.78 147.61 C 365.64 135.76 377.51 123.91 389.35 112.04 Z" />
<path fill="#ebcc8f" opacity="1.00" d=" M 122.08 113.05 C 122.31 112.85 122.76 112.45 122.98 112.24 C 134.66 124.16 146.55 135.88 158.34 147.69 C 154.63 151.07 151.08 154.61 147.70 158.32 C 135.90 146.44 123.99 134.67 112.21 122.76 L 113.03 122.13 C 113.93 121.41 114.81 120.67 115.67 119.92 C 117.94 117.76 120.01 115.40 122.08 113.05 Z" />
<path fill="#ebcc8f" opacity="1.00" d=" M 19.41 168.63 C 25.37 166.30 31.50 173.25 28.66 178.94 C 11.90 228.23 11.78 283.03 28.45 332.36 C 29.92 335.70 29.45 340.07 26.29 342.27 C 22.59 345.26 16.31 343.49 14.87 338.92 C -3.07 287.17 -3.53 229.61 13.35 177.52 C 14.39 174.07 15.47 169.77 19.41 168.63 Z" />
<path fill="#ebcc8f" opacity="1.00" d=" M 487.50 168.73 C 491.19 167.21 495.87 169.25 497.13 173.08 C 515.56 226.28 515.55 285.65 497.15 338.86 C 495.71 343.45 489.46 345.27 485.74 342.29 C 482.57 340.12 482.05 335.76 483.53 332.42 C 500.22 283.06 500.09 228.24 483.34 178.92 C 481.62 175.09 483.49 170.15 487.50 168.73 Z" />
<path fill="#ebcc8f" opacity="1.00" d=" M 147.71 353.67 C 151.08 357.38 154.63 360.93 158.35 364.30 C 146.56 376.12 134.67 387.84 122.98 399.76 C 122.76 399.55 122.31 399.15 122.08 398.94 C 119.07 395.43 115.86 392.06 112.20 389.22 C 124.01 377.35 135.89 365.54 147.71 353.67 Z" />
<path fill="#ebcc8f" opacity="1.00" d=" M 359.64 358.63 C 361.27 357.05 362.87 355.44 364.39 353.76 C 374.04 363.41 383.69 373.05 393.34 382.71 C 395.58 384.97 398.03 387.06 399.88 389.68 C 395.84 392.51 392.40 396.09 389.31 399.92 C 377.43 388.01 365.51 376.13 353.63 364.22 C 355.65 362.37 357.65 360.51 359.64 358.63 Z" />
<path fill="#ebcc8f" opacity="1.00" d=" M 172.40 483.47 C 174.67 482.22 177.30 482.75 179.62 483.54 C 228.97 500.21 283.77 500.09 333.09 483.34 C 336.52 481.87 340.88 483.06 342.73 486.39 C 345.11 490.15 343.18 495.75 338.91 497.13 C 285.71 515.62 226.32 515.49 173.10 497.13 C 167.06 495.31 166.64 485.94 172.40 483.47 Z" />
</g>
<g id="#3b3b68ff">
<path fill="#3b3b68" opacity="1.00" d=" M 57.91 10.17 C 65.21 8.39 72.78 8.25 80.24 8.87 C 70.96 18.30 63.85 30.02 60.88 42.99 C 53.91 47.14 47.96 53.73 46.80 62.01 C 44.59 73.29 51.20 85.11 61.55 89.79 C 45.42 90.54 31.56 104.00 29.35 119.84 C 19.46 110.38 12.10 98.10 9.65 84.55 C 6.84 69.97 9.25 54.43 16.51 41.46 C 25.16 25.89 40.50 14.11 57.91 10.17 Z" />
<path fill="#3b3b68" opacity="1.00" d=" M 394.80 26.81 C 408.37 13.20 428.27 6.69 447.30 8.87 C 438.06 18.36 430.79 29.94 427.93 42.99 C 420.96 47.14 415.04 53.74 413.86 62.01 C 411.65 73.30 418.29 85.18 428.69 89.82 C 412.57 90.44 398.60 103.94 396.47 119.79 C 393.93 117.37 391.55 114.77 389.35 112.04 C 380.80 101.29 375.84 87.72 375.60 73.97 C 375.08 56.49 382.20 38.94 394.80 26.81 Z" />
<path fill="#3b3b68" opacity="1.00" d=" M 58.96 377.00 C 65.95 375.41 73.15 375.39 80.26 375.91 C 71.03 385.39 63.72 396.97 60.91 410.03 C 53.92 414.18 47.97 420.79 46.79 429.08 C 44.59 440.34 51.18 452.07 61.45 456.85 C 45.36 457.67 31.58 471.08 29.36 486.89 C 19.81 477.79 12.65 466.04 9.95 453.06 C 6.93 439.07 8.67 424.05 15.12 411.25 C 23.52 393.98 40.15 380.94 58.96 377.00 Z" />
<path fill="#3b3b68" opacity="1.00" d=" M 400.18 388.94 C 413.50 378.81 430.57 374.05 447.22 375.91 C 438.10 385.49 430.65 397.02 428.03 410.16 L 427.55 410.41 C 419.37 414.88 413.44 423.57 413.48 433.04 C 413.15 443.11 419.54 452.58 428.52 456.86 C 417.98 457.47 408.03 463.42 402.18 472.15 C 399.09 476.52 397.54 481.71 396.41 486.88 C 385.90 476.89 378.35 463.60 376.30 449.16 C 373.59 431.87 378.42 413.60 389.31 399.92 C 392.40 396.09 395.84 392.51 399.88 389.68 C 399.96 389.50 400.11 389.12 400.18 388.94 Z" />
</g>
<g id="#45467aff">
<path fill="#45467a" opacity="1.00" d=" M 80.24 8.87 C 97.71 10.76 113.99 20.58 124.29 34.74 C 133.95 47.89 138.28 64.87 135.98 81.02 C 134.51 92.74 129.53 103.92 122.08 113.05 C 120.01 115.40 117.94 117.76 115.67 119.92 C 113.61 104.18 99.89 90.42 83.79 89.82 C 90.50 86.40 95.97 80.32 97.81 72.93 C 100.67 63.01 96.53 51.75 88.26 45.69 C 80.53 39.72 69.68 39.07 60.88 42.99 C 63.85 30.02 70.96 18.30 80.24 8.87 Z" />
<path fill="#45467a" opacity="1.00" d=" M 447.30 8.87 C 464.73 10.76 480.96 20.54 491.28 34.63 C 501.19 48.08 505.54 65.54 502.91 82.05 C 500.84 96.42 493.58 109.95 482.82 119.68 C 480.45 104.09 466.93 90.32 450.82 89.83 C 459.75 85.49 466.02 76.02 465.78 66.00 C 465.73 54.20 456.63 43.24 445.03 41.06 C 439.28 39.67 433.33 40.86 427.93 42.99 C 430.79 29.94 438.06 18.36 447.30 8.87 Z" />
<path fill="#45467a" opacity="1.00" d=" M 80.26 375.91 C 91.88 377.26 103.03 381.96 112.20 389.22 C 115.86 392.06 119.07 395.43 122.08 398.94 C 133.24 412.46 138.47 430.70 135.99 448.06 C 134.18 462.91 126.63 476.75 115.73 486.90 C 113.49 471.23 99.90 457.48 83.79 456.88 C 90.53 453.46 96.01 447.32 97.84 439.90 C 100.73 429.73 96.27 418.21 87.60 412.29 C 79.93 406.72 69.46 406.31 60.91 410.03 C 63.72 396.97 71.03 385.39 80.26 375.91 Z" />
<path fill="#45467a" opacity="1.00" d=" M 447.22 375.91 C 462.05 377.57 476.13 384.78 486.28 395.70 C 499.59 409.65 505.95 429.93 502.92 448.99 C 500.94 463.49 493.45 476.92 482.83 486.90 C 480.52 471.26 466.97 457.38 450.81 456.92 C 459.10 452.82 465.20 444.41 465.73 435.07 C 466.57 423.98 459.30 412.99 448.87 409.23 C 442.17 406.71 434.48 407.08 428.03 410.16 C 430.65 397.02 438.10 385.49 447.22 375.91 Z" />
</g>
<g id="#f9e0c8ff">
<path fill="#f9e0c8" opacity="1.00" d=" M 60.88 42.99 C 69.68 39.07 80.53 39.72 88.26 45.69 C 96.53 51.75 100.67 63.01 97.81 72.93 C 95.97 80.32 90.50 86.40 83.79 89.82 C 79.31 91.62 74.47 92.44 69.64 92.07 L 69.07 91.97 C 60.53 77.31 57.11 59.65 60.88 42.99 Z" />
<path fill="#f9e0c8" opacity="1.00" d=" M 427.93 42.99 C 433.33 40.86 439.28 39.67 445.03 41.06 C 456.63 43.24 465.73 54.20 465.78 66.00 C 466.02 76.02 459.75 85.49 450.82 89.83 C 446.32 91.58 441.48 92.45 436.65 92.06 L 436.05 91.95 C 433.07 85.98 430.07 79.94 428.50 73.41 C 425.89 63.49 425.82 53.02 427.93 42.99 Z" />
<path fill="#f9e0c8" opacity="1.00" d=" M 60.91 410.03 C 69.46 406.31 79.93 406.72 87.60 412.29 C 96.27 418.21 100.73 429.73 97.84 439.90 C 96.01 447.32 90.53 453.46 83.79 456.88 C 79.30 458.67 74.47 459.56 69.63 459.17 L 69.01 459.06 C 64.89 451.19 61.29 442.91 60.08 434.05 C 58.73 426.07 59.29 417.92 60.91 410.03 Z" />
<path fill="#f9e0c8" opacity="1.00" d=" M 428.03 410.16 C 434.48 407.08 442.17 406.71 448.87 409.23 C 459.30 412.99 466.57 423.98 465.73 435.07 C 465.20 444.41 459.10 452.82 450.81 456.92 C 446.36 458.72 441.53 459.55 436.73 459.15 L 436.12 459.05 C 432.07 451.14 428.28 442.92 427.18 434.02 C 425.83 426.19 426.57 418.24 427.55 410.41 L 428.03 410.16 Z" />
</g>
<g id="#f6cdafff">
<path fill="#f6cdaf" opacity="1.00" d=" M 46.80 62.01 C 47.96 53.73 53.91 47.14 60.88 42.99 C 57.11 59.65 60.53 77.31 69.07 91.97 C 66.52 91.39 64.03 90.61 61.55 89.79 C 51.20 85.11 44.59 73.29 46.80 62.01 Z" />
<path fill="#f6cdaf" opacity="1.00" d=" M 413.86 62.01 C 415.04 53.74 420.96 47.14 427.93 42.99 C 425.82 53.02 425.89 63.49 428.50 73.41 C 430.07 79.94 433.07 85.98 436.05 91.95 C 433.57 91.34 431.13 90.58 428.69 89.82 C 418.29 85.18 411.65 73.30 413.86 62.01 Z" />
<path fill="#f6cdaf" opacity="1.00" d=" M 46.79 429.08 C 47.97 420.79 53.92 414.18 60.91 410.03 C 59.29 417.92 58.73 426.07 60.08 434.05 C 61.29 442.91 64.89 451.19 69.01 459.06 C 66.45 458.46 63.94 457.66 61.45 456.85 C 51.18 452.07 44.59 440.34 46.79 429.08 Z" />
<path fill="#f6cdaf" opacity="1.00" d=" M 413.48 433.04 C 413.44 423.57 419.37 414.88 427.55 410.41 C 426.57 418.24 425.83 426.19 427.18 434.02 C 428.28 442.92 432.07 451.14 436.12 459.05 C 433.54 458.46 431.02 457.67 428.52 456.86 C 419.54 452.58 413.15 443.11 413.48 433.04 Z" />
</g>
<g id="#7bd26fff">
<path fill="#7bd26f" opacity="1.00" d=" M 29.35 119.84 C 31.56 104.00 45.42 90.54 61.55 89.79 C 64.03 90.61 66.52 91.39 69.07 91.97 L 69.64 92.07 C 74.43 99.80 80.98 106.36 88.40 111.58 C 95.79 116.76 104.39 119.79 113.03 122.13 L 112.21 122.76 C 98.74 133.35 80.96 138.40 63.95 135.94 C 51.12 134.29 38.92 128.52 29.35 119.84 Z" />
<path fill="#7bd26f" opacity="1.00" d=" M 154.76 192.22 C 164.63 192.44 174.54 193.72 183.94 196.84 C 198.12 201.36 210.97 209.89 220.57 221.28 L 221.02 221.81 C 220.99 236.80 225.43 251.25 229.87 265.40 C 221.23 252.27 211.88 239.45 200.31 228.71 C 199.21 227.78 198.06 226.84 196.68 226.38 C 191.41 224.93 185.57 230.92 187.82 236.12 C 189.70 240.04 193.39 242.61 196.20 245.82 C 208.94 259.81 219.84 275.78 226.56 293.56 C 209.30 291.71 190.90 285.20 181.04 270.00 C 168.84 251.59 170.29 228.49 163.71 208.11 C 161.94 202.22 158.52 197.02 154.76 192.22 Z" />
<path fill="#7bd26f" opacity="1.00" d=" M 303.97 227.90 C 306.33 226.73 309.05 225.47 311.73 226.34 C 315.23 227.42 317.51 231.26 316.80 234.86 C 316.33 238.23 313.03 239.96 310.42 241.56 C 291.54 251.67 275.39 267.07 264.82 285.73 C 260.95 292.40 257.80 299.46 255.09 306.67 C 251.10 302.33 247.67 297.53 244.20 292.78 C 247.73 284.09 252.65 276.07 257.72 268.21 C 263.08 261.78 268.14 255.04 274.29 249.31 C 283.26 241.00 293.18 233.69 303.97 227.90 Z" />
</g>
<g id="#8de46dff">
<path fill="#8de46d" opacity="1.00" d=" M 69.64 92.07 C 74.47 92.44 79.31 91.62 83.79 89.82 C 99.89 90.42 113.61 104.18 115.67 119.92 C 114.81 120.67 113.93 121.41 113.03 122.13 C 104.39 119.79 95.79 116.76 88.40 111.58 C 80.98 106.36 74.43 99.80 69.64 92.07 Z" />
<path fill="#8de46d" opacity="1.00" d=" M 296.38 209.45 C 314.81 198.87 337.21 196.73 357.78 201.22 C 353.00 204.96 348.59 209.27 345.59 214.59 C 335.89 231.25 332.35 251.05 320.42 266.48 C 313.92 275.10 304.45 281.39 293.96 283.95 C 284.47 286.59 274.54 286.13 264.82 285.73 C 275.39 267.07 291.54 251.67 310.42 241.56 C 313.03 239.96 316.33 238.23 316.80 234.86 C 317.51 231.26 315.23 227.42 311.73 226.34 C 309.05 225.47 306.33 226.73 303.97 227.90 C 293.18 233.69 283.26 241.00 274.29 249.31 C 268.14 255.04 263.08 261.78 257.72 268.21 C 260.86 244.15 274.99 221.36 296.38 209.45 Z" />
<path fill="#8de46d" opacity="1.00" d=" M 221.02 221.81 C 234.74 238.21 240.18 260.51 237.91 281.55 C 235.02 276.27 232.34 270.89 229.87 265.40 C 225.43 251.25 220.99 236.80 221.02 221.81 Z" />
</g>
<g id="#f6c54eff">
<path fill="#f6c54e" opacity="1.00" d=" M 396.47 119.79 C 398.60 103.94 412.57 90.44 428.69 89.82 C 431.13 90.58 433.57 91.34 436.05 91.95 L 436.65 92.06 C 442.32 101.22 450.41 108.83 459.72 114.21 C 466.00 117.91 473.03 120.06 479.98 122.10 C 467.30 132.54 450.46 137.77 434.10 136.27 C 421.69 135.21 409.61 130.47 399.87 122.71 C 398.70 121.77 397.57 120.79 396.47 119.79 Z" />
</g>
<g id="#f8d767ff">
<path fill="#f8d767" opacity="1.00" d=" M 436.65 92.06 C 441.48 92.45 446.32 91.58 450.82 89.83 C 466.93 90.32 480.45 104.09 482.82 119.68 L 482.88 119.94 C 481.93 120.68 480.99 121.45 479.98 122.10 C 473.03 120.06 466.00 117.91 459.72 114.21 C 450.41 108.83 442.32 101.22 436.65 92.06 Z" />
</g>
<g id="#abe5faff">
<path fill="#abe5fa" opacity="1.00" d=" M 238.94 111.19 C 247.91 110.07 256.96 110.14 265.99 110.27 C 263.70 110.45 261.35 111.02 259.81 112.84 C 245.26 128.48 233.98 147.24 227.49 167.63 C 221.70 184.86 219.87 203.18 220.57 221.28 C 210.97 209.89 198.12 201.36 183.94 196.84 C 174.54 193.72 164.63 192.44 154.76 192.22 C 158.52 197.02 161.94 202.22 163.71 208.11 C 170.29 228.49 168.84 251.59 181.04 270.00 C 190.90 285.20 209.30 291.71 226.56 293.56 C 234.34 313.32 237.22 334.89 235.57 356.02 C 235.33 359.40 235.22 363.57 238.40 365.69 C 242.48 369.02 249.57 366.39 250.11 361.03 C 251.49 350.34 251.07 339.49 250.23 328.78 C 250.04 321.40 252.61 314.30 254.83 307.37 C 258.07 310.42 261.14 313.64 264.26 316.81 C 287.15 339.36 317.75 353.95 349.71 357.41 C 353.02 357.80 356.33 358.20 359.64 358.63 C 357.65 360.51 355.65 362.37 353.63 364.22 C 331.46 384.39 302.87 397.38 273.09 400.78 C 231.95 405.87 188.98 392.24 158.35 364.30 C 154.63 360.93 151.08 357.38 147.71 353.67 C 125.69 329.46 112.30 297.62 110.42 264.95 C 107.87 226.30 121.58 186.92 147.70 158.32 C 151.08 154.61 154.63 151.07 158.34 147.69 C 180.55 127.54 209.15 114.62 238.94 111.19 Z" />
</g>
<g id="#d1effdff">
<path fill="#d1effd" opacity="1.00" d=" M 259.81 112.84 C 261.35 111.02 263.70 110.45 265.99 110.27 C 298.32 112.56 329.77 125.78 353.78 147.61 C 357.51 150.96 361.05 154.52 364.40 158.24 C 393.67 190.35 407.26 235.98 400.14 278.86 C 395.87 306.61 383.18 332.92 364.39 353.76 C 362.87 355.44 361.27 357.05 359.64 358.63 C 356.33 358.20 353.02 357.80 349.71 357.41 C 317.75 353.95 287.15 339.36 264.26 316.81 C 261.14 313.64 258.07 310.42 254.83 307.37 C 254.90 307.20 255.03 306.84 255.09 306.67 C 257.80 299.46 260.95 292.40 264.82 285.73 C 274.54 286.13 284.47 286.59 293.96 283.95 C 304.45 281.39 313.92 275.10 320.42 266.48 C 332.35 251.05 335.89 231.25 345.59 214.59 C 348.59 209.27 353.00 204.96 357.78 201.22 C 337.21 196.73 314.81 198.87 296.38 209.45 C 274.99 221.36 260.86 244.15 257.72 268.21 C 252.65 276.07 247.73 284.09 244.20 292.78 C 243.96 293.37 243.46 294.56 243.21 295.16 C 241.66 290.54 239.86 286.01 237.91 281.55 C 240.18 260.51 234.74 238.21 221.02 221.81 L 220.57 221.28 C 219.87 203.18 221.70 184.86 227.49 167.63 C 233.98 147.24 245.26 128.48 259.81 112.84 Z" />
</g>
<g id="#6bbc72ff">
<path fill="#6bbc72" opacity="1.00" d=" M 187.82 236.12 C 185.57 230.92 191.41 224.93 196.68 226.38 C 198.06 226.84 199.21 227.78 200.31 228.71 C 211.88 239.45 221.23 252.27 229.87 265.40 C 232.34 270.89 235.02 276.27 237.91 281.55 C 239.86 286.01 241.66 290.54 243.21 295.16 C 243.46 294.56 243.96 293.37 244.20 292.78 C 247.67 297.53 251.10 302.33 255.09 306.67 C 255.03 306.84 254.90 307.20 254.83 307.37 C 252.61 314.30 250.04 321.40 250.23 328.78 C 251.07 339.49 251.49 350.34 250.11 361.03 C 249.57 366.39 242.48 369.02 238.40 365.69 C 235.22 363.57 235.33 359.40 235.57 356.02 C 237.22 334.89 234.34 313.32 226.56 293.56 C 219.84 275.78 208.94 259.81 196.20 245.82 C 193.39 242.61 189.70 240.04 187.82 236.12 Z" />
</g>
<g id="#d95a60ff">
<path fill="#d95a60" opacity="1.00" d=" M 29.36 486.89 C 31.58 471.08 45.36 457.67 61.45 456.85 C 63.94 457.66 66.45 458.46 69.01 459.06 L 69.63 459.17 C 75.68 468.98 84.55 477.02 94.71 482.42 C 100.37 485.50 106.62 487.19 112.64 489.37 C 99.25 500.38 81.17 505.43 64.02 503.01 C 51.16 501.39 38.92 495.61 29.36 486.89 Z" />
</g>
<g id="#ed6d75ff">
<path fill="#ed6d75" opacity="1.00" d=" M 69.63 459.17 C 74.47 459.56 79.30 458.67 83.79 456.88 C 99.90 457.48 113.49 471.23 115.73 486.90 C 114.78 487.75 113.82 488.60 112.86 489.45 L 112.64 489.37 C 106.62 487.19 100.37 485.50 94.71 482.42 C 84.55 477.02 75.68 468.98 69.63 459.17 Z" />
</g>
<g id="#4a8ff2ff">
<path fill="#4a8ff2" opacity="1.00" d=" M 402.18 472.15 C 408.03 463.42 417.98 457.47 428.52 456.86 C 431.02 457.67 433.54 458.46 436.12 459.05 L 436.73 459.15 C 441.23 466.77 447.74 472.99 454.82 478.20 C 462.28 483.62 471.14 486.47 479.77 489.45 C 466.48 500.07 448.93 505.31 432.01 503.12 C 418.81 501.66 406.21 495.81 396.41 486.88 C 397.54 481.71 399.09 476.52 402.18 472.15 Z" />
</g>
<g id="#5da0f8ff">
<path fill="#5da0f8" opacity="1.00" d=" M 436.73 459.15 C 441.53 459.55 446.36 458.72 450.81 456.92 C 466.97 457.38 480.52 471.26 482.83 486.90 C 481.81 487.74 480.79 488.60 479.77 489.45 C 471.14 486.47 462.28 483.62 454.82 478.20 C 447.74 472.99 441.23 466.77 436.73 459.15 Z" />
</g>
</svg>
