<?xml version="1.0" encoding="UTF-8" ?>
<!DOCTYPE svg PUBLIC "-//W3C//DTD SVG 1.1//EN" "http://www.w3.org/Graphics/SVG/1.1/DTD/svg11.dtd">
<svg width="512pt" height="512pt" viewBox="0 0 512 512" version="1.1" xmlns="http://www.w3.org/2000/svg">
<g id="#525f7dff">
<path fill="#525f7d" opacity="1.00" d=" M 382.96 14.02 C 386.41 12.28 390.22 8.66 394.29 10.72 C 405.95 17.26 417.39 24.17 429.03 30.74 C 423.67 30.79 419.45 34.40 414.96 36.83 C 318.16 92.71 221.37 148.63 124.54 204.49 C 117.72 208.35 113.50 216.17 113.82 223.98 C 113.94 303.87 114.50 383.76 114.41 463.65 C 102.69 456.62 90.77 449.93 79.02 442.96 C 78.57 362.98 78.35 282.99 78.16 203.00 C 77.99 195.36 82.13 187.54 88.90 183.81 C 186.92 127.22 284.95 70.63 382.96 14.02 Z" />
<path fill="#525f7d" opacity="1.00" d=" M 401.53 146.75 C 403.58 145.65 405.62 144.49 407.44 143.02 C 407.28 158.37 407.51 173.72 407.33 189.07 C 405.37 189.75 403.59 190.80 401.88 191.95 C 387.27 200.28 372.73 208.76 358.16 217.15 C 355.55 218.75 352.76 220.04 350.37 221.98 C 350.70 206.60 350.12 191.20 350.56 175.83 C 353.02 175.17 354.99 173.47 357.23 172.34 C 371.98 163.79 386.79 155.33 401.53 146.75 Z" />
<path fill="#525f7d" opacity="1.00" d=" M 289.93 405.16 C 299.06 399.79 308.24 394.52 317.43 389.26 L 316.31 390.37 C 324.56 395.33 333.92 399.21 340.13 406.85 C 343.99 411.47 345.84 417.66 344.90 423.63 C 343.45 427.61 341.64 431.58 338.66 434.67 C 332.72 441.09 324.50 444.58 317.18 449.12 C 306.72 454.87 296.85 462.14 285.14 465.21 C 268.76 469.60 251.07 469.32 234.91 464.09 C 225.93 461.25 218.19 455.73 210.00 451.26 C 219.05 445.98 228.14 440.79 237.19 435.53 C 243.67 440.54 251.87 443.04 260.03 442.96 C 268.07 443.28 276.43 441.79 283.24 437.31 C 286.71 435.02 289.81 431.40 289.87 427.05 C 290.05 419.76 289.87 412.46 289.93 405.16 Z" />
</g>
<g id="#1f2941ff">
<path fill="#1f2941" opacity="1.00" d=" M 414.96 36.83 C 419.45 34.40 423.67 30.79 429.03 30.74 C 431.65 32.12 433.22 35.05 432.98 37.99 C 432.90 118.44 433.44 198.90 433.75 279.35 C 356.78 323.86 279.68 368.15 202.74 412.72 C 173.28 429.67 143.90 446.75 114.41 463.65 C 114.50 383.76 113.94 303.87 113.82 223.98 C 113.50 216.17 117.72 208.35 124.54 204.49 C 221.37 148.63 318.16 92.71 414.96 36.83 M 129.43 209.44 C 125.30 211.64 122.50 216.31 122.68 221.01 C 122.95 296.03 123.02 371.05 123.30 446.07 C 223.79 388.04 324.32 330.07 424.73 271.90 C 424.43 194.41 424.30 116.92 424.05 39.43 C 325.83 96.08 227.66 152.81 129.43 209.44 Z" />
<path fill="#1f2941" opacity="1.00" d=" M 338.66 434.67 C 341.64 431.58 343.45 427.61 344.90 423.63 C 345.26 430.06 345.00 436.52 345.06 442.96 C 345.29 451.87 338.69 459.21 331.63 463.77 C 321.73 469.86 311.57 475.51 301.58 481.44 C 287.07 490.11 269.58 492.47 252.97 490.99 C 242.03 490.01 231.15 486.95 221.70 481.26 C 211.22 475.04 200.45 469.28 190.14 462.76 C 196.73 458.87 203.39 455.10 210.00 451.26 C 218.19 455.73 225.93 461.25 234.91 464.09 C 251.07 469.32 268.76 469.60 285.14 465.21 C 296.85 462.14 306.72 454.87 317.18 449.12 C 324.50 444.58 332.72 441.09 338.66 434.67 Z" />
</g>
<g id="#f6f5fcff">
<path fill="#f6f5fc" opacity="1.00" d=" M 129.43 209.44 C 227.66 152.81 325.83 96.08 424.05 39.43 C 424.30 116.92 424.43 194.41 424.73 271.90 C 324.32 330.07 223.79 388.04 123.30 446.07 C 123.02 371.05 122.95 296.03 122.68 221.01 C 122.50 216.31 125.30 211.64 129.43 209.44 M 349.95 107.18 C 349.77 122.54 349.94 137.91 350.02 153.27 C 368.55 142.80 386.87 131.97 405.37 121.44 C 406.21 120.77 407.84 120.36 407.64 118.98 C 407.67 103.98 407.62 88.97 407.66 73.96 C 388.37 84.93 369.21 96.16 349.95 107.18 M 401.53 146.75 C 386.79 155.33 371.98 163.79 357.23 172.34 C 354.99 173.47 353.02 175.17 350.56 175.83 C 350.12 191.20 350.70 206.60 350.37 221.98 C 352.76 220.04 355.55 218.75 358.16 217.15 C 372.73 208.76 387.27 200.28 401.88 191.95 C 403.59 190.80 405.37 189.75 407.33 189.07 C 407.51 173.72 407.28 158.37 407.44 143.02 C 405.62 144.49 403.58 145.65 401.53 146.75 M 271.34 178.49 C 270.14 178.87 269.08 179.56 267.99 180.17 C 245.42 193.23 222.82 206.25 200.23 219.28 C 195.20 222.24 191.98 228.14 192.32 233.99 C 192.41 252.02 192.43 270.05 192.51 288.07 C 192.46 289.98 192.97 292.18 194.77 293.18 C 197.49 294.84 200.29 296.38 202.98 298.09 C 204.98 299.49 207.49 298.50 209.37 297.38 C 232.01 284.38 254.58 271.26 277.21 258.25 C 282.35 255.51 285.89 249.87 285.89 244.02 C 285.88 225.98 285.78 207.93 285.76 189.88 C 285.73 187.85 285.69 185.46 283.98 184.04 C 281.96 182.66 279.68 181.69 277.60 180.39 C 275.70 179.33 273.67 177.70 271.34 178.49 M 350.40 244.68 C 350.11 260.08 350.45 275.49 350.38 290.89 C 369.52 279.93 388.67 268.97 407.68 257.77 C 407.59 242.48 407.65 227.18 407.65 211.88 C 388.43 222.57 369.59 233.93 350.40 244.68 M 197.23 334.32 C 193.00 336.40 190.67 340.70 188.67 344.75 C 179.87 350.38 170.56 355.24 161.62 360.68 C 159.52 362.05 158.14 364.51 158.12 367.03 C 157.86 369.04 160.08 369.65 161.36 370.61 C 163.61 371.71 166.07 374.43 168.66 372.55 C 176.70 368.01 184.64 363.31 192.64 358.71 C 195.32 356.50 198.04 360.61 200.96 359.26 C 206.50 357.58 209.36 352.04 211.69 347.19 C 213.67 343.70 212.50 338.91 208.80 337.11 C 205.29 335.32 201.27 331.93 197.23 334.32 Z" />
<path fill="#f6f5fc" opacity="1.00" d=" M 228.15 231.37 C 238.31 231.59 248.46 232.01 258.62 232.21 C 248.60 244.30 238.55 256.39 228.22 268.21 C 228.26 255.93 228.21 243.65 228.15 231.37 Z" />
<path fill="#f6f5fc" opacity="1.00" d=" M 202.74 412.72 C 279.68 368.15 356.78 323.86 433.75 279.35 C 433.89 288.91 433.80 298.47 433.88 308.03 C 434.37 316.26 429.88 324.70 422.58 328.62 C 387.52 348.82 352.52 369.13 317.43 389.26 C 308.24 394.52 299.06 399.79 289.93 405.16 C 289.87 412.46 290.05 419.76 289.87 427.05 C 289.81 431.40 286.71 435.02 283.24 437.31 C 276.43 441.79 268.07 443.28 260.03 442.96 C 251.87 443.04 243.67 440.54 237.19 435.53 C 228.14 440.79 219.05 445.98 210.00 451.26 C 203.39 455.10 196.73 458.87 190.14 462.76 C 168.55 475.28 146.92 487.73 125.30 500.20 C 122.90 501.68 119.69 502.79 117.12 501.05 C 105.66 494.47 94.29 487.76 82.85 481.14 C 80.57 480.02 78.84 477.63 79.06 475.01 C 79.00 464.33 79.10 453.65 79.02 442.96 C 90.77 449.93 102.69 456.62 114.41 463.65 C 143.90 446.75 173.28 429.67 202.74 412.72 Z" />
</g>
<g id="#f8d27bff">
<path fill="#f8d27b" opacity="1.00" d=" M 349.95 107.18 C 369.21 96.16 388.37 84.93 407.66 73.96 C 407.62 88.97 407.67 103.98 407.64 118.98 C 407.84 120.36 406.21 120.77 405.37 121.44 C 386.87 131.97 368.55 142.80 350.02 153.27 C 349.94 137.91 349.77 122.54 349.95 107.18 Z" />
</g>
<g id="#d04764ff">
<path fill="#d04764" opacity="1.00" d=" M 271.34 178.49 C 273.67 177.70 275.70 179.33 277.60 180.39 C 279.68 181.69 281.96 182.66 283.98 184.04 C 285.69 185.46 285.73 187.85 285.76 189.88 C 285.78 207.93 285.88 225.98 285.89 244.02 C 285.89 249.87 282.35 255.51 277.21 258.25 C 254.58 271.26 232.01 284.38 209.37 297.38 C 207.49 298.50 204.98 299.49 202.98 298.09 C 200.29 296.38 197.49 294.84 194.77 293.18 C 192.97 292.18 192.46 289.98 192.51 288.07 C 192.43 270.05 192.41 252.02 192.32 233.99 C 191.98 228.14 195.20 222.24 200.23 219.28 C 222.82 206.25 245.42 193.23 267.99 180.17 C 269.08 179.56 270.14 178.87 271.34 178.49 M 228.15 231.37 C 228.21 243.65 228.26 255.93 228.22 268.21 C 238.55 256.39 248.60 244.30 258.62 232.21 C 248.46 232.01 238.31 231.59 228.15 231.37 Z" />
</g>
<g id="#89d16fff">
<path fill="#89d16f" opacity="1.00" d=" M 350.40 244.68 C 369.59 233.93 388.43 222.57 407.65 211.88 C 407.65 227.18 407.59 242.48 407.68 257.77 C 388.67 268.97 369.52 279.93 350.38 290.89 C 350.45 275.49 350.11 260.08 350.40 244.68 Z" />
<path fill="#89d16f" opacity="1.00" d=" M 197.23 334.32 C 201.27 331.93 205.29 335.32 208.80 337.11 C 212.50 338.91 213.67 343.70 211.69 347.19 C 209.36 352.04 206.50 357.58 200.96 359.26 C 198.04 360.61 195.32 356.50 192.64 358.71 C 184.64 363.31 176.70 368.01 168.66 372.55 C 166.07 374.43 163.61 371.71 161.36 370.61 C 160.08 369.65 157.86 369.04 158.12 367.03 C 158.14 364.51 159.52 362.05 161.62 360.68 C 170.56 355.24 179.87 350.38 188.67 344.75 C 190.67 340.70 193.00 336.40 197.23 334.32 Z" />
</g>
</svg>
