<?xml version="1.0" encoding="UTF-8" ?>
<!DOCTYPE svg PUBLIC "-//W3C//DTD SVG 1.1//EN" "http://www.w3.org/Graphics/SVG/1.1/DTD/svg11.dtd">
<svg width="512pt" height="512pt" viewBox="0 0 512 512" version="1.1" xmlns="http://www.w3.org/2000/svg">
<g id="#e06460ff">
<path fill="#e06460" opacity="1.00" d=" M 260.66 39.97 C 274.20 32.40 287.55 24.50 301.00 16.79 C 304.80 18.94 308.48 21.30 312.39 23.25 C 310.77 24.27 309.16 25.32 307.56 26.36 C 307.51 26.39 307.40 26.45 307.35 26.48 C 300.69 29.35 294.29 32.92 288.54 37.35 C 288.49 37.38 288.40 37.44 288.35 37.47 C 283.16 39.79 277.83 42.15 273.66 46.12 C 268.70 45.67 264.82 42.35 260.66 39.97 Z" />
<path fill="#e06460" opacity="1.00" d=" M 104.11 130.15 C 115.03 123.98 125.78 117.51 136.77 111.46 C 140.24 113.88 143.81 116.14 147.39 118.39 C 137.43 124.49 127.13 129.99 117.16 136.07 C 115.00 137.37 112.69 138.40 110.36 139.34 C 106.84 137.04 103.08 135.17 99.34 133.27 C 100.84 132.09 102.45 131.08 104.11 130.15 Z" />
<path fill="#e06460" opacity="1.00" d=" M 114.01 259.94 C 117.41 257.49 121.23 255.70 124.79 253.51 C 147.87 258.64 171.00 263.56 194.04 268.83 C 190.70 270.92 187.36 273.00 183.88 274.85 C 182.42 275.96 180.64 275.06 179.08 274.80 C 175.42 273.86 171.75 272.98 168.07 272.11 C 160.76 276.38 153.31 280.45 146.14 284.95 C 147.69 288.03 150.11 290.58 151.87 293.54 C 148.07 295.65 144.38 297.93 140.55 299.96 C 131.82 286.54 122.63 273.42 114.01 259.94 M 130.18 263.14 C 133.79 268.08 137.36 273.06 140.97 278.00 C 145.97 275.09 151.03 272.29 155.94 269.24 C 147.37 267.14 138.81 264.98 130.18 263.14 Z" />
</g>
<g id="#cc5550ff">
<path fill="#cc5550" opacity="1.00" d=" M 307.56 26.36 C 309.16 25.32 310.77 24.27 312.39 23.25 C 312.91 45.47 312.52 67.72 312.77 89.95 C 246.09 128.54 179.37 167.07 112.60 205.51 C 111.89 186.37 112.30 167.19 112.12 148.04 C 111.84 145.15 112.98 141.41 110.36 139.34 C 112.69 138.40 115.00 137.37 117.16 136.07 C 127.13 129.99 137.43 124.49 147.39 118.39 C 150.58 118.60 153.08 116.20 155.76 114.83 C 191.50 94.19 227.19 73.48 262.98 52.92 C 266.64 50.82 270.50 48.98 273.66 46.12 C 277.83 42.15 283.16 39.79 288.35 37.47 C 288.40 37.44 288.49 37.38 288.54 37.35 C 294.29 32.92 300.69 29.35 307.35 26.48 L 307.47 26.42 L 307.56 26.36 M 274.50 60.76 C 274.38 70.49 274.49 80.22 274.54 89.96 C 273.62 89.53 271.79 88.69 270.88 88.27 C 267.60 90.11 264.34 91.97 261.16 93.96 C 261.07 86.97 261.25 79.96 260.97 72.97 C 259.71 72.21 258.46 71.45 257.20 70.70 C 255.26 71.87 253.20 72.86 251.44 74.30 C 250.37 77.50 251.62 81.14 250.35 84.38 C 250.30 83.93 250.20 83.03 250.16 82.58 L 248.38 82.70 C 246.18 81.40 243.75 79.85 241.07 80.56 C 235.43 81.83 230.71 85.72 227.22 90.19 C 222.63 96.21 219.63 104.16 221.46 111.75 C 222.06 114.49 224.47 116.11 226.80 117.32 C 229.00 119.28 232.13 120.07 234.97 119.14 C 241.84 117.10 247.27 111.65 250.56 105.42 C 252.13 106.27 253.70 107.13 255.27 108.00 L 255.24 107.64 C 261.78 103.96 268.20 100.08 274.77 96.44 C 274.80 95.03 274.81 93.62 274.78 92.22 C 275.89 92.89 277.01 93.53 278.15 94.14 C 278.52 83.81 277.81 73.43 278.47 63.12 C 278.20 73.49 278.50 83.87 278.40 94.24 C 285.43 90.27 292.40 86.19 299.38 82.13 C 299.38 80.21 299.39 78.30 299.43 76.38 C 298.07 75.74 296.84 74.41 295.31 74.37 C 291.58 76.10 288.20 78.52 284.55 80.42 C 284.54 79.74 284.53 78.37 284.52 77.69 C 288.73 75.19 293.04 72.85 297.20 70.26 C 297.18 68.44 297.18 66.61 297.18 64.79 C 295.87 64.03 294.55 63.27 293.23 62.52 C 290.36 64.24 287.47 65.91 284.54 67.52 C 284.54 66.93 284.55 65.76 284.55 65.17 C 289.35 62.50 294.14 59.80 298.84 56.93 C 298.81 55.05 298.80 53.18 298.80 51.30 C 297.54 50.51 296.28 49.73 295.02 48.95 C 288.15 52.84 281.36 56.86 274.50 60.76 M 209.63 101.90 C 208.52 101.29 207.40 100.69 206.28 100.10 C 199.12 104.35 191.86 108.46 184.64 112.63 C 181.64 113.79 183.06 117.39 182.90 119.84 C 184.35 120.56 185.80 121.30 187.24 122.05 L 187.19 121.51 C 188.65 120.66 190.12 119.82 191.61 119.01 C 191.45 125.95 191.41 132.90 191.69 139.85 C 192.91 140.74 194.06 141.73 195.12 142.82 C 194.99 134.60 195.88 126.22 194.80 118.11 L 194.33 117.66 C 194.60 117.57 195.15 117.39 195.42 117.30 C 195.56 125.53 195.06 133.78 195.88 141.98 C 197.80 140.83 199.73 139.69 201.66 138.55 C 201.67 130.09 201.56 121.64 201.64 113.18 C 204.39 111.61 207.13 110.03 209.93 108.54 C 209.74 115.04 209.84 121.55 209.92 128.05 C 209.69 130.02 212.12 130.37 213.29 131.33 C 213.64 121.06 213.20 110.78 213.47 100.51 L 213.79 100.33 C 213.42 110.78 213.83 121.23 213.63 131.68 C 215.76 130.46 217.89 129.23 220.01 127.98 C 220.04 117.59 219.87 107.20 219.99 96.81 C 218.68 96.03 217.37 95.25 216.07 94.48 C 213.10 96.16 209.00 97.66 209.63 101.90 M 164.97 124.00 C 162.58 125.58 159.56 126.52 157.81 128.87 C 157.61 138.60 157.78 148.35 157.83 158.08 C 157.58 160.09 159.99 160.43 161.20 161.35 C 161.64 151.09 161.22 140.82 161.38 130.55 L 161.75 130.35 C 161.34 140.81 161.84 151.28 161.55 161.75 C 163.68 160.52 165.81 159.29 167.92 158.04 C 167.90 155.10 167.90 152.17 167.94 149.24 C 169.73 148.26 171.51 147.27 173.31 146.31 C 175.10 148.18 176.97 149.98 178.89 151.71 C 181.16 150.41 183.42 149.11 185.68 147.80 C 183.67 145.64 181.64 143.49 179.63 141.33 C 183.50 136.78 186.42 130.54 184.52 124.52 C 183.63 121.81 180.44 120.69 177.89 121.68 C 178.70 121.26 179.50 120.81 180.27 120.31 C 174.84 117.42 169.55 121.37 164.97 124.00 M 136.47 140.49 C 132.41 153.13 128.65 165.86 124.43 178.44 C 125.80 179.32 127.17 180.20 128.54 181.08 L 128.67 180.62 C 131.07 179.04 134.87 178.35 135.42 175.05 C 136.04 173.08 136.56 171.09 137.13 169.11 C 141.34 166.53 145.65 164.13 150.19 162.23 C 150.30 163.24 150.42 164.24 150.54 165.26 C 150.95 165.71 151.78 166.62 152.19 167.07 C 154.42 165.87 156.62 164.61 158.79 163.30 C 154.74 155.27 150.66 147.27 146.68 139.21 C 145.41 138.43 144.15 137.64 142.89 136.85 C 140.72 138.00 138.57 139.22 136.47 140.49 Z" />
<path fill="#cc5550" opacity="1.00" d=" M 250.25 84.98 C 250.42 85.00 250.74 85.04 250.91 85.05 C 250.94 91.78 251.46 98.55 250.65 105.24 C 249.85 104.79 248.26 103.88 247.46 103.43 C 245.98 102.62 244.47 101.86 242.98 101.10 C 240.39 105.39 236.72 109.00 231.83 110.47 C 230.05 104.94 231.81 98.79 235.55 94.49 C 238.24 91.19 242.46 88.86 246.79 90.19 C 247.94 88.45 249.11 86.73 250.25 84.98 Z" />
<path fill="#cc5550" opacity="1.00" d=" M 167.80 132.80 C 170.25 131.28 172.76 129.87 175.31 128.51 C 175.00 133.32 171.94 137.07 167.91 139.43 C 167.87 137.22 167.84 135.01 167.80 132.80 Z" />
</g>
<g id="#9e433fc0">
<path fill="#9e433f" opacity="0.75" d=" M 307.35 26.48 C 307.40 26.45 307.51 26.39 307.56 26.36 L 307.47 26.42 L 307.35 26.48 Z" />
<path fill="#9e433f" opacity="0.75" d=" M 288.35 37.47 C 288.40 37.44 288.49 37.38 288.54 37.35 C 288.49 37.38 288.40 37.44 288.35 37.47 Z" />
</g>
<g id="#bd514dff">
<path fill="#bd514d" opacity="1.00" d=" M 136.69 111.40 C 178.06 87.68 219.25 63.62 260.66 39.97 C 264.82 42.35 268.70 45.67 273.66 46.12 C 270.50 48.98 266.64 50.82 262.98 52.92 C 227.19 73.48 191.50 94.19 155.76 114.83 C 153.08 116.20 150.58 118.60 147.39 118.39 C 143.81 116.14 140.24 113.88 136.77 111.46 L 136.69 111.40 Z" />
</g>
<g id="#b2b0afff">
<path fill="#b2b0af" opacity="1.00" d=" M 274.50 60.76 C 281.36 56.86 288.15 52.84 295.02 48.95 C 296.28 49.73 297.54 50.51 298.80 51.30 C 292.07 55.32 285.20 59.10 278.47 63.12 C 277.81 73.43 278.52 83.81 278.15 94.14 C 277.01 93.53 275.89 92.89 274.78 92.22 C 274.73 91.86 274.62 91.14 274.56 90.78 C 270.09 93.27 265.71 95.90 261.21 98.33 C 261.19 96.88 261.17 95.42 261.16 93.96 C 264.34 91.97 267.60 90.11 270.88 88.27 C 271.79 88.69 273.62 89.53 274.54 89.96 C 274.49 80.22 274.38 70.49 274.50 60.76 Z" />
<path fill="#b2b0af" opacity="1.00" d=" M 284.54 67.52 C 287.47 65.91 290.36 64.24 293.23 62.52 C 294.55 63.27 295.87 64.03 297.18 64.79 C 293.06 67.35 288.85 69.79 284.54 72.02 C 284.53 70.52 284.53 69.02 284.54 67.52 Z" />
<path fill="#b2b0af" opacity="1.00" d=" M 251.44 74.30 C 253.20 72.86 255.26 71.87 257.20 70.70 C 258.46 71.45 259.71 72.21 260.97 72.97 C 259.08 74.14 257.11 75.22 255.38 76.63 C 254.66 78.64 254.97 80.87 254.89 82.97 C 255.13 91.19 254.64 99.42 255.24 107.64 L 255.27 108.00 C 253.70 107.13 252.13 106.27 250.56 105.42 L 250.65 105.24 C 251.46 98.55 250.94 91.78 250.91 85.05 C 250.74 85.04 250.42 85.00 250.25 84.98 L 250.35 84.38 C 251.62 81.14 250.37 77.50 251.44 74.30 Z" />
<path fill="#b2b0af" opacity="1.00" d=" M 295.31 74.37 C 296.84 74.41 298.07 75.74 299.43 76.38 C 294.55 79.31 289.66 82.24 284.60 84.86 C 284.58 83.38 284.56 81.90 284.55 80.42 C 288.20 78.52 291.58 76.10 295.31 74.37 Z" />
<path fill="#b2b0af" opacity="1.00" d=" M 227.22 90.19 C 230.71 85.72 235.43 81.83 241.07 80.56 C 243.75 79.85 246.18 81.40 248.38 82.70 C 240.69 82.59 234.26 88.00 230.08 93.98 C 225.57 100.66 222.82 109.75 226.80 117.32 C 224.47 116.11 222.06 114.49 221.46 111.75 C 219.63 104.16 222.63 96.21 227.22 90.19 Z" />
<path fill="#b2b0af" opacity="1.00" d=" M 209.63 101.90 C 209.00 97.66 213.10 96.16 216.07 94.48 C 217.37 95.25 218.68 96.03 219.99 96.81 C 217.94 98.02 215.87 99.19 213.79 100.33 L 213.47 100.51 C 213.20 110.78 213.64 121.06 213.29 131.33 C 212.12 130.37 209.69 130.02 209.92 128.05 C 209.84 121.55 209.74 115.04 209.93 108.54 C 210.07 106.53 210.23 104.52 210.38 102.51 C 202.39 106.88 194.57 111.56 186.67 116.08 C 186.83 117.89 187.01 119.70 187.19 121.51 L 187.24 122.05 C 185.80 121.30 184.35 120.56 182.90 119.84 C 183.06 117.39 181.64 113.79 184.64 112.63 C 191.86 108.46 199.12 104.35 206.28 100.10 C 207.40 100.69 208.52 101.29 209.63 101.90 Z" />
<path fill="#b2b0af" opacity="1.00" d=" M 231.83 110.47 C 236.72 109.00 240.39 105.39 242.98 101.10 C 244.47 101.86 245.98 102.62 247.46 103.43 C 244.30 106.63 241.76 111.12 237.04 112.14 C 235.07 112.85 233.29 111.63 231.83 110.47 Z" />
<path fill="#b2b0af" opacity="1.00" d=" M 191.61 119.01 C 192.29 118.67 193.65 118.00 194.33 117.66 L 194.80 118.11 C 195.88 126.22 194.99 134.60 195.12 142.82 C 194.06 141.73 192.91 140.74 191.69 139.85 C 191.41 132.90 191.45 125.95 191.61 119.01 Z" />
<path fill="#b2b0af" opacity="1.00" d=" M 164.97 124.00 C 169.55 121.37 174.84 117.42 180.27 120.31 C 179.50 120.81 178.70 121.26 177.89 121.68 C 172.23 124.03 167.16 127.51 161.75 130.35 L 161.38 130.55 C 161.22 140.82 161.64 151.09 161.20 161.35 C 159.99 160.43 157.58 160.09 157.83 158.08 C 157.78 148.35 157.61 138.60 157.81 128.87 C 159.56 126.52 162.58 125.58 164.97 124.00 Z" />
<path fill="#b2b0af" opacity="1.00" d=" M 175.31 128.51 C 177.03 128.47 178.88 128.92 178.85 131.01 C 179.55 137.62 172.95 141.18 167.92 143.64 C 167.91 142.23 167.91 140.83 167.91 139.43 C 171.94 137.07 175.00 133.32 175.31 128.51 Z" />
<path fill="#b2b0af" opacity="1.00" d=" M 136.47 140.49 C 138.57 139.22 140.72 138.00 142.89 136.85 C 144.15 137.64 145.41 138.43 146.68 139.21 C 143.93 140.85 140.12 141.98 139.50 145.61 C 135.98 157.31 132.07 168.88 128.67 180.62 L 128.54 181.08 C 127.17 180.20 125.80 179.32 124.43 178.44 C 128.65 165.86 132.41 153.13 136.47 140.49 Z" />
<path fill="#b2b0af" opacity="1.00" d=" M 142.28 151.55 C 142.73 150.43 143.18 149.30 143.63 148.19 C 145.14 151.29 146.55 154.43 147.87 157.61 C 145.08 159.30 142.24 160.92 139.24 162.21 C 139.70 160.59 140.17 158.98 140.65 157.37 C 141.83 156.65 143.01 155.93 144.19 155.21 C 143.55 153.99 142.92 152.77 142.28 151.55 Z" />
<path fill="#b2b0af" opacity="1.00" d=" M 477.89 225.62 C 479.33 225.09 480.76 224.49 482.15 223.80 C 483.74 224.19 485.34 224.59 486.93 225.02 C 487.94 226.63 490.11 226.61 491.12 225.00 C 492.63 224.64 494.14 224.29 495.67 223.97 C 491.59 228.84 487.17 233.41 482.90 238.11 C 477.91 240.86 471.99 240.11 466.92 238.04 C 467.89 236.66 468.88 235.29 469.91 233.95 C 470.50 233.21 471.09 232.46 471.68 231.71 C 474.24 232.29 475.92 230.09 475.81 227.70 C 476.49 227.00 477.19 226.31 477.89 225.62 Z" />
<path fill="#b2b0af" opacity="1.00" d=" M 486.41 334.44 C 493.55 330.46 500.43 326.00 507.77 322.39 L 507.98 322.29 C 508.04 325.59 508.04 328.90 508.07 332.20 C 494.87 339.93 481.59 347.52 468.34 355.18 C 433.87 375.07 399.41 394.97 364.93 414.86 C 345.02 426.24 325.30 437.98 305.25 449.11 C 305.47 442.60 306.09 435.73 303.36 429.60 C 301.46 425.15 296.93 421.83 292.01 421.93 C 284.78 421.85 278.39 426.06 273.22 430.72 C 262.18 441.56 254.30 457.14 256.36 472.92 C 256.90 477.82 259.98 482.05 264.37 484.24 C 264.45 484.28 264.60 484.37 264.67 484.42 C 265.22 484.59 266.32 484.95 266.87 485.13 C 268.68 486.76 271.18 486.68 273.04 485.18 L 273.78 484.89 C 274.35 484.67 275.50 484.23 276.07 484.00 C 278.21 482.38 280.61 481.13 283.21 480.41 L 283.40 480.34 L 283.54 480.24 C 285.60 478.68 287.86 477.44 290.22 476.38 C 290.29 476.34 290.43 476.26 290.51 476.21 C 298.81 470.85 307.43 465.92 316.23 461.40 C 316.30 461.36 316.45 461.28 316.52 461.23 C 318.64 459.75 320.88 458.47 323.21 457.37 C 323.29 457.33 323.43 457.25 323.50 457.21 C 325.62 455.71 327.89 454.45 330.26 453.39 C 330.32 453.35 330.45 453.28 330.51 453.24 C 336.45 449.14 342.78 445.63 349.23 442.40 C 349.30 442.36 349.45 442.27 349.52 442.23 C 351.64 440.73 353.91 439.48 356.27 438.41 C 356.33 438.37 356.45 438.30 356.51 438.27 C 366.86 431.45 377.92 425.77 388.56 419.43 C 393.47 416.73 398.13 413.57 403.27 411.32 L 403.31 411.31 C 403.37 411.26 403.49 411.18 403.56 411.14 C 405.63 409.61 407.83 408.26 410.23 407.30 L 410.26 407.29 C 410.33 407.25 410.46 407.17 410.53 407.13 C 412.07 406.17 413.62 405.25 415.22 404.39 C 415.30 404.35 415.44 404.26 415.51 404.22 C 417.63 402.74 419.89 401.48 422.23 400.39 C 422.30 400.34 422.44 400.26 422.52 400.22 C 424.63 398.74 426.87 397.46 429.21 396.37 C 429.29 396.33 429.43 396.25 429.51 396.20 C 431.63 394.69 433.94 393.47 436.33 392.44 C 436.38 392.41 436.48 392.35 436.54 392.32 C 438.63 390.77 440.78 389.25 443.24 388.31 L 443.27 388.29 C 443.33 388.25 443.46 388.17 443.52 388.13 C 447.17 385.47 451.14 383.31 455.23 381.40 C 455.30 381.35 455.44 381.27 455.52 381.23 C 457.63 379.74 459.89 378.47 462.25 377.40 C 462.31 377.36 462.44 377.29 462.50 377.25 C 469.05 373.00 475.77 368.84 482.83 365.53 C 483.30 365.43 484.23 365.24 484.69 365.15 C 484.64 367.87 484.65 370.60 484.70 373.33 C 417.64 412.08 350.44 450.59 283.35 489.27 C 277.82 492.55 271.67 495.56 265.06 495.14 C 260.28 494.96 256.25 492.14 252.15 490.02 L 252.11 489.91 C 250.72 485.31 248.33 480.90 248.21 476.02 C 247.85 463.99 251.02 451.81 257.42 441.60 C 263.34 431.67 270.74 422.21 280.98 416.45 C 286.74 412.95 293.64 411.51 300.31 412.61 C 303.25 414.19 306.31 415.86 308.26 418.66 C 311.84 423.36 312.63 429.40 313.05 435.11 C 360.66 407.71 408.21 380.20 455.80 352.77 C 465.57 345.97 476.17 340.48 486.41 334.44 Z" />
</g>
<g id="#ffffffff">
<path fill="#ffffff" opacity="1.00" d=" M 278.47 63.12 C 285.20 59.10 292.07 55.32 298.80 51.30 C 298.80 53.18 298.81 55.05 298.84 56.93 C 294.14 59.80 289.35 62.50 284.55 65.17 C 284.55 65.76 284.54 66.93 284.54 67.52 C 284.53 69.02 284.53 70.52 284.54 72.02 C 288.85 69.79 293.06 67.35 297.18 64.79 C 297.18 66.61 297.18 68.44 297.20 70.26 C 293.04 72.85 288.73 75.19 284.52 77.69 C 284.53 78.37 284.54 79.74 284.55 80.42 C 284.56 81.90 284.58 83.38 284.60 84.86 C 289.66 82.24 294.55 79.31 299.43 76.38 C 299.39 78.30 299.38 80.21 299.38 82.13 C 292.40 86.19 285.43 90.27 278.40 94.24 C 278.50 83.87 278.20 73.49 278.47 63.12 Z" />
<path fill="#ffffff" opacity="1.00" d=" M 260.97 72.97 C 261.25 79.96 261.07 86.97 261.16 93.96 C 261.17 95.42 261.19 96.88 261.21 98.33 C 265.71 95.90 270.09 93.27 274.56 90.78 C 274.62 91.14 274.73 91.86 274.78 92.22 C 274.81 93.62 274.80 95.03 274.77 96.44 C 268.20 100.08 261.78 103.96 255.24 107.64 C 254.64 99.42 255.13 91.19 254.89 82.97 C 254.97 80.87 254.66 78.64 255.38 76.63 C 257.11 75.22 259.08 74.14 260.97 72.97 Z" />
<path fill="#ffffff" opacity="1.00" d=" M 230.08 93.98 C 234.26 88.00 240.69 82.59 248.38 82.70 L 250.16 82.58 C 250.20 83.03 250.30 83.93 250.35 84.38 L 250.25 84.98 C 249.11 86.73 247.94 88.45 246.79 90.19 C 242.46 88.86 238.24 91.19 235.55 94.49 C 231.81 98.79 230.05 104.94 231.83 110.47 C 233.29 111.63 235.07 112.85 237.04 112.14 C 241.76 111.12 244.30 106.63 247.46 103.43 C 248.26 103.88 249.85 104.79 250.65 105.24 L 250.56 105.42 C 247.27 111.65 241.84 117.10 234.97 119.14 C 232.13 120.07 229.00 119.28 226.80 117.32 C 222.82 109.75 225.57 100.66 230.08 93.98 Z" />
<path fill="#ffffff" opacity="1.00" d=" M 213.79 100.33 C 215.87 99.19 217.94 98.02 219.99 96.81 C 219.87 107.20 220.04 117.59 220.01 127.98 C 217.89 129.23 215.76 130.46 213.63 131.68 C 213.83 121.23 213.42 110.78 213.79 100.33 Z" />
<path fill="#ffffff" opacity="1.00" d=" M 186.67 116.08 C 194.57 111.56 202.39 106.88 210.38 102.51 C 210.23 104.52 210.07 106.53 209.93 108.54 C 207.13 110.03 204.39 111.61 201.64 113.18 C 201.56 121.64 201.67 130.09 201.66 138.55 C 199.73 139.69 197.80 140.83 195.88 141.98 C 195.06 133.78 195.56 125.53 195.42 117.30 C 195.15 117.39 194.60 117.57 194.33 117.66 C 193.65 118.00 192.29 118.67 191.61 119.01 C 190.12 119.82 188.65 120.66 187.19 121.51 C 187.01 119.70 186.83 117.89 186.67 116.08 Z" />
<path fill="#ffffff" opacity="1.00" d=" M 161.75 130.35 C 167.16 127.51 172.23 124.03 177.89 121.68 C 180.44 120.69 183.63 121.81 184.52 124.52 C 186.42 130.54 183.50 136.78 179.63 141.33 C 181.64 143.49 183.67 145.64 185.68 147.80 C 183.42 149.11 181.16 150.41 178.89 151.71 C 176.97 149.98 175.10 148.18 173.31 146.31 C 171.51 147.27 169.73 148.26 167.94 149.24 C 167.90 152.17 167.90 155.10 167.92 158.04 C 165.81 159.29 163.68 160.52 161.55 161.75 C 161.84 151.28 161.34 140.81 161.75 130.35 M 167.80 132.80 C 167.84 135.01 167.87 137.22 167.91 139.43 C 167.91 140.83 167.91 142.23 167.92 143.64 C 172.95 141.18 179.55 137.62 178.85 131.01 C 178.88 128.92 177.03 128.47 175.31 128.51 C 172.76 129.87 170.25 131.28 167.80 132.80 Z" />
<path fill="#ffffff" opacity="1.00" d=" M 139.50 145.61 C 140.12 141.98 143.93 140.85 146.68 139.21 C 150.66 147.27 154.74 155.27 158.79 163.30 C 156.62 164.61 154.42 165.87 152.19 167.07 C 151.78 166.62 150.95 165.71 150.54 165.26 C 150.42 164.24 150.30 163.24 150.19 162.23 C 145.65 164.13 141.34 166.53 137.13 169.11 C 136.56 171.09 136.04 173.08 135.42 175.05 C 134.87 178.35 131.07 179.04 128.67 180.62 C 132.07 168.88 135.98 157.31 139.50 145.61 M 142.28 151.55 C 141.72 153.49 141.17 155.42 140.65 157.37 C 140.17 158.98 139.70 160.59 139.24 162.21 C 142.24 160.92 145.08 159.30 147.87 157.61 C 146.55 154.43 145.14 151.29 143.63 148.19 C 143.18 149.30 142.73 150.43 142.28 151.55 Z" />
</g>
<g id="#b54b46ff">
<path fill="#b54b46" opacity="1.00" d=" M 99.34 133.27 C 103.08 135.17 106.84 137.04 110.36 139.34 C 112.98 141.41 111.84 145.15 112.12 148.04 C 112.30 167.19 111.89 186.37 112.60 205.51 L 112.63 206.01 C 107.76 205.36 104.09 201.57 99.70 199.63 C 99.43 177.51 99.79 155.38 99.34 133.27 Z" />
</g>
<g id="#cb7471ff">
<path fill="#cb7471" opacity="1.00" d=" M 142.28 151.55 C 142.92 152.77 143.55 153.99 144.19 155.21 C 143.01 155.93 141.83 156.65 140.65 157.37 C 141.17 155.42 141.72 153.49 142.28 151.55 Z" />
</g>
<g id="#e9e8e6ff">
<path fill="#e9e8e6" opacity="1.00" d=" M 53.03 269.93 C 113.92 234.59 174.98 199.55 235.92 164.28 C 292.79 197.25 349.59 230.36 406.46 263.34 C 406.84 263.10 407.60 262.64 407.99 262.40 C 407.94 262.78 407.83 263.54 407.78 263.92 C 404.41 265.27 402.47 268.47 400.05 270.98 C 395.19 276.26 390.43 281.64 385.43 286.79 C 382.74 287.91 380.03 289.01 377.53 290.52 C 336.19 314.70 294.48 338.24 253.21 362.52 C 256.42 364.34 259.43 366.68 263.02 367.72 C 264.20 367.47 265.29 366.92 266.37 366.39 C 296.77 348.77 327.24 331.25 357.68 313.67 C 362.16 310.96 366.68 308.29 371.41 306.00 C 368.66 313.43 365.57 320.73 362.90 328.19 C 362.14 329.87 361.40 331.56 360.70 333.27 C 360.42 333.95 359.87 335.33 359.60 336.01 C 357.11 336.94 354.68 338.02 352.40 339.39 C 329.31 352.89 305.97 365.96 283.00 379.65 C 285.74 381.36 288.38 383.30 291.38 384.56 C 293.10 385.53 294.81 384.12 296.35 383.43 C 320.37 369.33 344.62 355.65 368.68 341.61 C 372.18 339.43 376.47 338.10 378.90 334.56 L 379.03 334.39 C 384.95 332.45 390.77 330.23 396.69 328.27 C 403.53 327.04 407.07 320.63 411.71 316.19 C 420.18 312.30 428.17 307.40 436.06 302.46 C 433.57 300.85 431.06 299.26 428.56 297.67 C 432.60 293.33 436.41 288.78 440.75 284.73 C 441.10 284.38 441.48 284.04 441.86 283.72 C 463.61 296.96 485.97 309.22 507.77 322.39 C 500.43 326.00 493.55 330.46 486.41 334.44 C 476.17 340.48 465.57 345.97 455.80 352.77 C 408.21 380.20 360.66 407.71 313.05 435.11 C 312.63 429.40 311.84 423.36 308.26 418.66 C 306.31 415.86 303.25 414.19 300.31 412.61 C 283.90 402.64 267.15 393.25 250.59 383.51 C 189.59 348.10 128.64 312.59 67.62 277.22 C 62.90 274.51 58.25 271.58 53.03 269.93 M 244.58 195.70 C 220.49 209.89 196.06 223.52 172.01 237.77 C 175.19 239.90 178.51 241.80 181.95 243.49 C 206.21 229.61 230.36 215.50 254.66 201.66 C 255.96 200.88 257.17 199.96 258.37 199.04 C 255.27 197.28 252.32 195.20 249.02 193.83 C 247.37 193.92 246.00 194.96 244.58 195.70 M 270.32 215.24 C 248.06 227.99 225.94 240.97 203.64 253.64 C 202.53 253.91 201.63 255.32 203.04 255.94 C 205.69 257.66 208.42 259.32 211.33 260.59 C 213.05 260.11 214.53 259.03 216.08 258.18 C 240.04 244.26 264.07 230.46 288.07 216.61 C 285.00 214.41 281.83 211.99 278.13 211.05 C 275.31 212.00 272.89 213.79 270.32 215.24 M 265.33 252.37 C 234.96 270.06 204.44 287.48 174.04 305.13 C 170.83 306.95 167.45 308.54 164.60 310.91 C 167.66 312.91 170.87 314.68 174.08 316.44 C 192.83 306.31 211.03 295.17 229.57 284.66 C 256.04 269.38 282.51 254.13 308.96 238.84 C 311.61 237.19 314.64 236.09 316.99 233.99 C 315.17 231.00 311.00 229.84 308.02 227.96 C 293.63 235.81 279.63 244.35 265.33 252.37 M 337.28 245.44 C 326.50 251.06 316.18 257.57 305.57 263.52 C 276.83 280.08 248.13 296.71 219.37 313.23 C 211.09 318.24 202.43 322.65 194.38 328.00 C 197.32 330.14 200.37 332.19 203.76 333.53 C 206.07 332.78 208.09 331.39 210.18 330.20 C 255.41 304.03 300.69 277.93 345.96 251.82 C 347.38 251.27 346.49 249.85 345.43 249.56 C 342.81 248.02 340.24 246.22 337.28 245.44 M 114.01 259.94 C 122.63 273.42 131.82 286.54 140.55 299.96 C 144.38 297.93 148.07 295.65 151.87 293.54 C 150.11 290.58 147.69 288.03 146.14 284.95 C 153.31 280.45 160.76 276.38 168.07 272.11 C 171.75 272.98 175.42 273.86 179.08 274.80 C 180.64 275.06 182.42 275.96 183.88 274.85 C 187.36 273.00 190.70 270.92 194.04 268.83 C 171.00 263.56 147.87 258.64 124.79 253.51 C 121.23 255.70 117.41 257.49 114.01 259.94 M 367.23 262.33 C 320.62 288.97 274.25 316.03 227.67 342.72 C 226.35 343.51 225.17 344.48 223.99 345.46 C 227.00 347.24 229.89 349.33 233.19 350.54 C 236.25 350.08 238.74 347.85 241.44 346.45 C 282.40 322.74 323.43 299.17 364.40 275.48 C 368.51 273.05 372.87 271.00 376.64 268.04 C 373.73 265.77 370.48 264.03 367.23 262.33 M 314.54 395.55 C 313.48 395.82 312.51 397.32 313.97 397.86 C 316.68 399.54 319.55 400.96 322.29 402.61 C 360.09 381.05 397.67 359.08 435.44 337.45 C 445.53 331.39 456.00 325.94 465.88 319.56 C 462.65 317.64 459.38 315.77 456.05 314.03 C 408.75 340.98 361.75 368.44 314.54 395.55 Z" />
<path fill="#e9e8e6" opacity="1.00" d=" M 466.16 199.24 C 467.98 196.53 470.39 193.96 473.53 192.80 C 471.56 195.16 469.44 197.76 469.23 200.96 C 468.87 204.40 470.07 207.72 471.50 210.78 C 474.16 215.24 478.13 218.80 482.76 221.13 C 488.31 223.85 495.50 223.57 499.79 218.71 C 498.80 220.74 497.31 222.44 495.67 223.97 C 494.14 224.29 492.63 224.64 491.12 225.00 C 489.71 224.74 488.32 224.74 486.93 225.02 C 485.34 224.59 483.74 224.19 482.15 223.80 C 481.07 223.21 479.99 222.63 478.91 222.08 C 475.45 219.81 473.07 216.22 469.42 214.24 C 469.88 213.06 469.66 211.99 468.78 211.01 C 468.61 210.72 468.27 210.14 468.10 209.85 C 467.97 209.41 467.71 208.52 467.58 208.07 C 467.47 207.78 467.24 207.19 467.13 206.90 C 466.67 204.37 466.31 201.81 466.16 199.24 Z" />
<path fill="#e9e8e6" opacity="1.00" d=" M 130.18 263.14 C 138.81 264.98 147.37 267.14 155.94 269.24 C 151.03 272.29 145.97 275.09 140.97 278.00 C 137.36 273.06 133.79 268.08 130.18 263.14 Z" />
<path fill="#e9e8e6" opacity="1.00" d=" M 364.93 414.86 C 399.41 394.97 433.87 375.07 468.34 355.18 C 473.89 358.38 479.47 361.54 484.94 364.88 L 482.83 365.53 C 475.77 368.84 469.05 373.00 462.50 377.25 C 462.44 377.29 462.31 377.36 462.25 377.40 C 459.89 378.47 457.63 379.74 455.52 381.23 C 455.44 381.27 455.30 381.35 455.23 381.40 C 451.14 383.31 447.17 385.47 443.52 388.13 L 443.24 388.31 C 440.78 389.25 438.63 390.77 436.54 392.32 C 436.48 392.35 436.38 392.41 436.33 392.44 C 433.94 393.47 431.63 394.69 429.51 396.20 C 429.43 396.25 429.29 396.33 429.21 396.37 C 426.87 397.46 424.63 398.74 422.52 400.22 C 422.44 400.26 422.30 400.34 422.23 400.39 C 419.89 401.48 417.63 402.74 415.51 404.22 C 415.44 404.26 415.30 404.35 415.22 404.39 C 413.62 405.25 412.07 406.17 410.53 407.13 L 410.23 407.30 C 407.83 408.26 405.63 409.61 403.56 411.14 L 403.27 411.32 C 398.13 413.57 393.47 416.73 388.56 419.43 C 377.92 425.77 366.86 431.45 356.51 438.27 C 356.45 438.30 356.33 438.37 356.27 438.41 C 353.91 439.48 351.64 440.73 349.52 442.23 C 349.45 442.27 349.30 442.36 349.23 442.40 C 342.78 445.63 336.45 449.14 330.51 453.24 C 330.45 453.28 330.32 453.35 330.26 453.39 C 327.89 454.45 325.62 455.71 323.50 457.21 C 323.43 457.25 323.29 457.33 323.21 457.37 C 320.88 458.47 318.64 459.75 316.52 461.23 C 316.45 461.28 316.30 461.36 316.23 461.40 C 307.43 465.92 298.81 470.85 290.51 476.21 C 290.43 476.26 290.29 476.34 290.22 476.38 C 287.86 477.44 285.60 478.68 283.54 480.24 C 283.45 480.28 283.29 480.37 283.21 480.41 C 280.61 481.13 278.21 482.38 276.07 484.00 C 275.50 484.23 274.35 484.67 273.78 484.89 L 273.04 485.18 C 271.00 484.76 268.91 484.71 266.87 485.13 C 266.32 484.95 265.22 484.59 264.67 484.42 L 264.37 484.24 C 259.98 482.05 256.90 477.82 256.36 472.92 C 254.30 457.14 262.18 441.56 273.22 430.72 C 284.09 436.50 294.50 443.10 305.25 449.11 C 325.30 437.98 345.02 426.24 364.93 414.86 M 256.41 467.64 C 258.01 470.19 260.94 471.25 263.58 472.37 C 261.93 469.87 259.04 468.76 256.41 467.64 M 264.18 472.23 C 264.06 473.78 266.37 475.17 267.80 474.81 C 267.98 473.23 265.60 471.76 264.18 472.23 M 268.53 474.66 C 269.99 477.31 273.04 478.22 275.64 479.35 C 273.94 476.93 271.15 475.76 268.53 474.66 Z" />
</g>
<g id="#f8d869ff">
<path fill="#f8d869" opacity="1.00" d=" M 477.07 189.70 C 479.41 185.14 485.10 183.48 489.86 184.65 C 499.28 186.70 507.58 195.18 508.03 205.03 C 508.27 208.69 506.10 211.84 503.48 214.15 C 498.93 215.84 493.99 215.82 489.52 213.90 C 485.05 211.39 480.96 208.03 478.36 203.55 C 475.62 199.40 475.51 194.31 477.07 189.70 Z" />
<path fill="#f8d869" opacity="1.00" d=" M 371.41 306.00 C 371.83 304.86 372.26 303.72 372.72 302.59 C 372.00 306.83 373.11 311.06 374.91 314.89 C 371.37 319.71 367.23 324.07 362.90 328.19 C 365.57 320.73 368.66 313.43 371.41 306.00 Z" />
</g>
<g id="#e8c55eff">
<path fill="#e8c55e" opacity="1.00" d=" M 473.53 192.80 C 474.65 191.70 475.88 190.72 477.07 189.70 C 475.51 194.31 475.62 199.40 478.36 203.55 C 475.69 205.56 473.40 208.02 471.50 210.78 C 470.07 207.72 468.87 204.40 469.23 200.96 C 469.44 197.76 471.56 195.16 473.53 192.80 Z" />
<path fill="#e8c55e" opacity="1.00" d=" M 374.91 314.89 L 375.07 314.70 C 377.31 319.35 381.28 322.87 385.71 325.39 C 383.75 328.58 381.23 331.37 379.03 334.39 L 378.90 334.56 C 374.68 335.81 370.52 337.26 366.38 338.73 C 364.54 336.85 362.65 335.02 360.70 333.27 C 361.40 331.56 362.14 329.87 362.90 328.19 C 367.23 324.07 371.37 319.71 374.91 314.89 Z" />
</g>
<g id="#d6d4d2ff">
<path fill="#d6d4d2" opacity="1.00" d=" M 244.58 195.70 C 246.00 194.96 247.37 193.92 249.02 193.83 C 252.32 195.20 255.27 197.28 258.37 199.04 C 257.17 199.96 255.96 200.88 254.66 201.66 C 230.36 215.50 206.21 229.61 181.95 243.49 C 178.51 241.80 175.19 239.90 172.01 237.77 C 196.06 223.52 220.49 209.89 244.58 195.70 Z" />
<path fill="#d6d4d2" opacity="1.00" d=" M 465.34 199.26 C 466.54 201.65 466.17 204.44 467.13 206.90 C 467.24 207.19 467.47 207.78 467.58 208.07 C 466.27 208.87 466.45 209.46 468.10 209.85 C 468.27 210.14 468.61 210.72 468.78 211.01 C 468.51 211.52 467.96 212.52 467.68 213.03 C 467.48 213.35 467.09 214.00 466.89 214.33 C 465.40 216.39 463.66 218.26 461.80 219.99 C 459.37 221.88 457.19 224.07 455.11 226.34 C 453.67 223.20 452.78 219.73 453.26 216.26 C 453.63 214.93 453.77 213.56 453.91 212.20 C 457.75 207.92 462.01 203.97 465.34 199.26 Z" />
<path fill="#d6d4d2" opacity="1.00" d=" M 270.32 215.24 C 272.89 213.79 275.31 212.00 278.13 211.05 C 281.83 211.99 285.00 214.41 288.07 216.61 C 264.07 230.46 240.04 244.26 216.08 258.18 C 214.53 259.03 213.05 260.11 211.33 260.59 C 208.42 259.32 205.69 257.66 203.04 255.94 C 201.63 255.32 202.53 253.91 203.64 253.64 C 225.94 240.97 248.06 227.99 270.32 215.24 Z" />
<path fill="#d6d4d2" opacity="1.00" d=" M 265.33 252.37 C 279.63 244.35 293.63 235.81 308.02 227.96 C 311.00 229.84 315.17 231.00 316.99 233.99 C 314.64 236.09 311.61 237.19 308.96 238.84 C 282.51 254.13 256.04 269.38 229.57 284.66 C 211.03 295.17 192.83 306.31 174.08 316.44 C 170.87 314.68 167.66 312.91 164.60 310.91 C 167.45 308.54 170.83 306.95 174.04 305.13 C 204.44 287.48 234.96 270.06 265.33 252.37 Z" />
<path fill="#d6d4d2" opacity="1.00" d=" M 337.28 245.44 C 340.24 246.22 342.81 248.02 345.43 249.56 C 346.49 249.85 347.38 251.27 345.96 251.82 C 300.69 277.93 255.41 304.03 210.18 330.20 C 208.09 331.39 206.07 332.78 203.76 333.53 C 200.37 332.19 197.32 330.14 194.38 328.00 C 202.43 322.65 211.09 318.24 219.37 313.23 C 248.13 296.71 276.83 280.08 305.57 263.52 C 316.18 257.57 326.50 251.06 337.28 245.44 Z" />
<path fill="#d6d4d2" opacity="1.00" d=" M 367.23 262.33 C 370.48 264.03 373.73 265.77 376.64 268.04 C 372.87 271.00 368.51 273.05 364.40 275.48 C 323.43 299.17 282.40 322.74 241.44 346.45 C 238.74 347.85 236.25 350.08 233.19 350.54 C 229.89 349.33 227.00 347.24 223.99 345.46 C 225.17 344.48 226.35 343.51 227.67 342.72 C 274.25 316.03 320.62 288.97 367.23 262.33 Z" />
<path fill="#d6d4d2" opacity="1.00" d=" M 36.92 274.08 C 41.82 271.30 47.39 269.87 53.03 269.93 C 58.25 271.58 62.90 274.51 67.62 277.22 C 128.64 312.59 189.59 348.10 250.59 383.51 C 267.15 393.25 283.90 402.64 300.31 412.61 C 293.64 411.51 286.74 412.95 280.98 416.45 C 273.59 412.89 266.70 408.43 259.59 404.37 C 205.86 373.10 152.06 341.93 98.22 310.85 C 78.73 299.33 58.96 288.29 39.64 276.50 L 39.34 276.33 C 38.93 276.07 38.12 275.54 37.71 275.27 L 37.58 275.18 L 36.92 274.08 Z" />
<path fill="#d6d4d2" opacity="1.00" d=" M 377.53 290.52 C 380.03 289.01 382.74 287.91 385.43 286.79 C 381.37 292.19 375.48 296.31 372.72 302.59 C 372.26 303.72 371.83 304.86 371.41 306.00 C 366.68 308.29 362.16 310.96 357.68 313.67 C 327.24 331.25 296.77 348.77 266.37 366.39 C 265.29 366.92 264.20 367.47 263.02 367.72 C 259.43 366.68 256.42 364.34 253.21 362.52 C 294.48 338.24 336.19 314.70 377.53 290.52 Z" />
<path fill="#d6d4d2" opacity="1.00" d=" M 411.71 316.19 C 417.24 309.94 422.91 303.81 428.56 297.67 C 431.06 299.26 433.57 300.85 436.06 302.46 C 428.17 307.40 420.18 312.30 411.71 316.19 Z" />
<path fill="#d6d4d2" opacity="1.00" d=" M 13.23 298.57 C 40.18 313.88 66.81 329.79 93.67 345.26 C 147.28 376.32 200.76 407.59 254.36 438.64 C 255.55 439.43 256.47 440.55 257.42 441.60 C 251.02 451.81 247.85 463.99 248.21 476.02 C 248.33 480.90 250.72 485.31 252.11 489.91 C 172.59 443.73 93.12 397.47 13.62 351.26 C 6.84 347.50 3.90 339.35 3.97 331.95 C 3.38 320.18 7.34 308.62 13.23 298.57 Z" />
<path fill="#d6d4d2" opacity="1.00" d=" M 314.54 395.55 C 361.75 368.44 408.75 340.98 456.05 314.03 C 459.38 315.77 462.65 317.64 465.88 319.56 C 456.00 325.94 445.53 331.39 435.44 337.45 C 397.67 359.08 360.09 381.05 322.29 402.61 C 319.55 400.96 316.68 399.54 313.97 397.86 C 312.51 397.32 313.48 395.82 314.54 395.55 Z" />
<path fill="#d6d4d2" opacity="1.00" d=" M 366.38 338.73 C 370.52 337.26 374.68 335.81 378.90 334.56 C 376.47 338.10 372.18 339.43 368.68 341.61 C 344.62 355.65 320.37 369.33 296.35 383.43 C 294.81 384.12 293.10 385.53 291.38 384.56 C 288.38 383.30 285.74 381.36 283.00 379.65 C 305.97 365.96 329.31 352.89 352.40 339.39 C 354.68 338.02 357.11 336.94 359.60 336.01 C 358.86 337.94 358.15 339.87 357.45 341.81 C 360.43 340.81 363.41 339.79 366.38 338.73 Z" />
<path fill="#d6d4d2" opacity="1.00" d=" M 273.22 430.72 C 278.39 426.06 284.78 421.85 292.01 421.93 C 296.93 421.83 301.46 425.15 303.36 429.60 C 306.09 435.73 305.47 442.60 305.25 449.11 C 294.50 443.10 284.09 436.50 273.22 430.72 Z" />
</g>
<g id="#d6b255ff">
<path fill="#d6b255" opacity="1.00" d=" M 471.50 210.78 C 473.40 208.02 475.69 205.56 478.36 203.55 C 480.96 208.03 485.05 211.39 489.52 213.90 C 487.32 216.37 485.07 218.77 482.76 221.13 C 478.13 218.80 474.16 215.24 471.50 210.78 Z" />
<path fill="#d6b255" opacity="1.00" d=" M 385.71 325.39 L 385.93 325.51 C 389.28 327.18 392.97 327.99 396.69 328.27 C 390.77 330.23 384.95 332.45 379.03 334.39 C 381.23 331.37 383.75 328.58 385.71 325.39 Z" />
</g>
<g id="#aeadacc5">
<path fill="#aeadac" opacity="0.77" d=" M 468.10 209.85 C 466.45 209.46 466.27 208.87 467.58 208.07 C 467.71 208.52 467.97 209.41 468.10 209.85 Z" />
</g>
<g id="#c4c2c0ff">
<path fill="#c4c2c0" opacity="1.00" d=" M 466.89 214.33 C 467.09 214.00 467.48 213.35 467.68 213.03 C 468.12 213.33 468.99 213.94 469.42 214.24 C 473.07 216.22 475.45 219.81 478.91 222.08 C 478.52 223.25 478.18 224.43 477.89 225.62 C 477.19 226.31 476.49 227.00 475.81 227.70 C 474.16 228.74 472.73 230.08 471.68 231.71 C 471.09 232.46 470.50 233.21 469.91 233.95 C 468.79 235.25 467.62 236.52 466.43 237.77 C 462.16 235.04 458.13 231.74 455.59 227.26 C 455.47 227.03 455.23 226.57 455.11 226.34 C 457.19 224.07 459.37 221.88 461.80 219.99 C 463.90 218.50 465.74 216.65 466.89 214.33 Z" />
<path fill="#c4c2c0" opacity="1.00" d=" M 13.23 298.57 C 19.17 288.80 26.82 279.73 36.92 274.08 L 37.58 275.18 C 37.61 275.23 37.67 275.33 37.70 275.38 L 37.71 275.27 C 38.12 275.54 38.93 276.07 39.34 276.33 C 39.41 276.38 39.54 276.48 39.61 276.53 L 39.64 276.50 C 58.96 288.29 78.73 299.33 98.22 310.85 C 152.06 341.93 205.86 373.10 259.59 404.37 C 266.70 408.43 273.59 412.89 280.98 416.45 C 270.74 422.21 263.34 431.67 257.42 441.60 C 256.47 440.55 255.55 439.43 254.36 438.64 C 200.76 407.59 147.28 376.32 93.67 345.26 C 66.81 329.79 40.18 313.88 13.23 298.57 Z" />
</g>
<g id="#5898daff">
<path fill="#5898da" opacity="1.00" d=" M 453.39 212.70 C 453.36 213.59 453.29 215.37 453.26 216.26 C 452.78 219.73 453.67 223.20 455.11 226.34 C 455.23 226.57 455.47 227.03 455.59 227.26 C 428.45 256.12 402.25 285.87 375.07 314.70 L 374.91 314.89 C 373.11 311.06 372.00 306.83 372.72 302.59 C 375.48 296.31 381.37 292.19 385.43 286.79 C 390.43 281.64 395.19 276.26 400.05 270.98 C 402.47 268.47 404.41 265.27 407.78 263.92 C 407.83 263.54 407.94 262.78 407.99 262.40 C 423.00 245.73 438.23 229.25 453.39 212.70 Z" />
</g>
<g id="#c7a24dff">
<path fill="#c7a24d" opacity="1.00" d=" M 489.52 213.90 C 493.99 215.82 498.93 215.84 503.48 214.15 C 502.19 215.63 501.01 217.19 499.79 218.71 C 495.50 223.57 488.31 223.85 482.76 221.13 C 485.07 218.77 487.32 216.37 489.52 213.90 Z" />
</g>
<g id="#434240ff">
<path fill="#434240" opacity="1.00" d=" M 461.80 219.99 C 463.66 218.26 465.40 216.39 466.89 214.33 C 465.74 216.65 463.90 218.50 461.80 219.99 Z" />
<path fill="#434240" opacity="1.00" d=" M 478.91 222.08 C 479.99 222.63 481.07 223.21 482.15 223.80 C 480.76 224.49 479.33 225.09 477.89 225.62 C 478.18 224.43 478.52 223.25 478.91 222.08 Z" />
<path fill="#434240" opacity="1.00" d=" M 471.68 231.71 C 472.73 230.08 474.16 228.74 475.81 227.70 C 475.92 230.09 474.24 232.29 471.68 231.71 Z" />
<path fill="#434240" opacity="1.00" d=" M 360.70 333.27 C 362.65 335.02 364.54 336.85 366.38 338.73 C 363.41 339.79 360.43 340.81 357.45 341.81 C 358.15 339.87 358.86 337.94 359.60 336.01 C 359.87 335.33 360.42 333.95 360.70 333.27 Z" />
</g>
<g id="#a09f9ed0">
<path fill="#a09f9e" opacity="0.82" d=" M 486.93 225.02 C 488.32 224.74 489.71 224.74 491.12 225.00 C 490.11 226.61 487.94 226.63 486.93 225.02 Z" />
</g>
<g id="#3172caff">
<path fill="#3172ca" opacity="1.00" d=" M 375.07 314.70 C 402.25 285.87 428.45 256.12 455.59 227.26 C 458.13 231.74 462.16 235.04 466.43 237.77 C 449.21 255.80 432.77 274.56 415.75 292.78 C 405.97 303.84 395.71 314.46 385.93 325.51 L 385.71 325.39 C 381.28 322.87 377.31 319.35 375.07 314.70 Z" />
</g>
<g id="#2d6ab0ff">
<path fill="#2d6ab0" opacity="1.00" d=" M 466.43 237.77 C 467.62 236.52 468.79 235.25 469.91 233.95 C 468.88 235.29 467.89 236.66 466.92 238.04 C 471.99 240.11 477.91 240.86 482.90 238.11 C 469.23 253.55 455.09 268.58 441.23 283.86 C 440.92 283.49 440.29 282.75 439.98 282.38 L 440.75 284.73 C 436.41 288.78 432.60 293.33 428.56 297.67 C 422.91 303.81 417.24 309.94 411.71 316.19 C 407.07 320.63 403.53 327.04 396.69 328.27 C 392.97 327.99 389.28 327.18 385.93 325.51 C 395.71 314.46 405.97 303.84 415.75 292.78 C 432.77 274.56 449.21 255.80 466.43 237.77 Z" />
</g>
<g id="#9c9b99ca">
<path fill="#9c9b99" opacity="0.79" d=" M 37.58 275.18 L 37.71 275.27 L 37.70 275.38 C 37.67 275.33 37.61 275.23 37.58 275.18 Z" />
</g>
<g id="#918f8eba">
<path fill="#918f8e" opacity="0.73" d=" M 39.34 276.33 L 39.64 276.50 L 39.61 276.53 C 39.54 276.48 39.41 276.38 39.34 276.33 Z" />
</g>
<g id="#918f8fc1">
<path fill="#918f8f" opacity="0.76" d=" M 462.25 377.40 C 462.31 377.36 462.44 377.29 462.50 377.25 C 462.44 377.29 462.31 377.36 462.25 377.40 Z" />
<path fill="#918f8f" opacity="0.76" d=" M 429.21 396.37 C 429.29 396.33 429.43 396.25 429.51 396.20 C 429.43 396.25 429.29 396.33 429.21 396.37 Z" />
<path fill="#918f8f" opacity="0.76" d=" M 422.23 400.39 C 422.30 400.34 422.44 400.26 422.52 400.22 C 422.44 400.26 422.30 400.34 422.23 400.39 Z" />
<path fill="#918f8f" opacity="0.76" d=" M 356.27 438.41 C 356.33 438.37 356.45 438.30 356.51 438.27 C 356.45 438.30 356.33 438.37 356.27 438.41 Z" />
<path fill="#918f8f" opacity="0.76" d=" M 323.21 457.37 C 323.29 457.33 323.43 457.25 323.50 457.21 C 323.43 457.25 323.29 457.33 323.21 457.37 Z" />
<path fill="#918f8f" opacity="0.76" d=" M 290.22 476.38 C 290.29 476.34 290.43 476.26 290.51 476.21 C 290.43 476.26 290.29 476.34 290.22 476.38 Z" />
<path fill="#918f8f" opacity="0.76" d=" M 283.21 480.41 C 283.29 480.37 283.45 480.28 283.54 480.24 L 283.40 480.34 L 283.21 480.41 Z" />
</g>
<g id="#918f8fc0">
<path fill="#918f8f" opacity="0.75" d=" M 455.23 381.40 C 455.30 381.35 455.44 381.27 455.52 381.23 C 455.44 381.27 455.30 381.35 455.23 381.40 Z" />
<path fill="#918f8f" opacity="0.75" d=" M 415.22 404.39 C 415.30 404.35 415.44 404.26 415.51 404.22 C 415.44 404.26 415.30 404.35 415.22 404.39 Z" />
<path fill="#918f8f" opacity="0.75" d=" M 349.23 442.40 C 349.30 442.36 349.45 442.27 349.52 442.23 C 349.45 442.27 349.30 442.36 349.23 442.40 Z" />
<path fill="#918f8f" opacity="0.75" d=" M 316.23 461.40 C 316.30 461.36 316.45 461.28 316.52 461.23 C 316.45 461.28 316.30 461.36 316.23 461.40 Z" />
</g>
<g id="#8f8e8ec4">
<path fill="#8f8e8e" opacity="0.77" d=" M 443.24 388.31 L 443.52 388.13 C 443.46 388.17 443.33 388.25 443.27 388.29 L 443.24 388.31 Z" />
<path fill="#8f8e8e" opacity="0.77" d=" M 410.23 407.30 L 410.53 407.13 C 410.46 407.17 410.33 407.25 410.26 407.29 L 410.23 407.30 Z" />
<path fill="#8f8e8e" opacity="0.77" d=" M 403.27 411.32 L 403.56 411.14 C 403.49 411.18 403.37 411.26 403.31 411.31 L 403.27 411.32 Z" />
</g>
<g id="#8f8f8ec2">
<path fill="#8f8f8e" opacity="0.76" d=" M 436.33 392.44 C 436.38 392.41 436.48 392.35 436.54 392.32 C 436.48 392.35 436.38 392.41 436.33 392.44 Z" />
<path fill="#8f8f8e" opacity="0.76" d=" M 330.26 453.39 C 330.32 453.35 330.45 453.28 330.51 453.24 C 330.45 453.28 330.32 453.35 330.26 453.39 Z" />
</g>
<g id="#c9c8c7dd">
<path fill="#c9c8c7" opacity="0.87" d=" M 256.41 467.64 C 259.04 468.76 261.93 469.87 263.58 472.37 C 260.94 471.25 258.01 470.19 256.41 467.64 Z" />
<path fill="#c9c8c7" opacity="0.87" d=" M 268.53 474.66 C 271.15 475.76 273.94 476.93 275.64 479.35 C 273.04 478.22 269.99 477.31 268.53 474.66 Z" />
</g>
<g id="#c9c9c7dd">
<path fill="#c9c9c7" opacity="0.87" d=" M 264.18 472.23 C 265.60 471.76 267.98 473.23 267.80 474.81 C 266.37 475.17 264.06 473.78 264.18 472.23 Z" />
</g>
<g id="#918f8ec0">
<path fill="#918f8e" opacity="0.75" d=" M 264.37 484.24 L 264.67 484.42 C 264.60 484.37 264.45 484.28 264.37 484.24 Z" />
</g>
<g id="#999998c5">
<path fill="#999998" opacity="0.77" d=" M 273.78 484.89 C 274.35 484.67 275.50 484.23 276.07 484.00 C 275.50 484.23 274.35 484.67 273.78 484.89 Z" />
</g>
<g id="#929190ca">
<path fill="#929190" opacity="0.79" d=" M 266.87 485.13 C 268.91 484.71 271.00 484.76 273.04 485.18 C 271.18 486.68 268.68 486.76 266.87 485.13 Z" />
</g>
</svg>
