<?xml version="1.0" encoding="UTF-8" ?>
<!DOCTYPE svg PUBLIC "-//W3C//DTD SVG 1.1//EN" "http://www.w3.org/Graphics/SVG/1.1/DTD/svg11.dtd">
<svg width="512pt" height="512pt" viewBox="0 0 512 512" version="1.1" xmlns="http://www.w3.org/2000/svg">
<g id="#6e89e7ff">
<path fill="#6e89e7" opacity="1.00" d=" M 303.38 22.40 C 307.24 20.10 312.41 18.98 316.37 21.66 C 328.72 28.89 341.01 36.23 353.37 43.44 C 349.85 43.86 346.21 44.26 343.07 46.05 C 263.04 92.34 183.00 138.63 102.96 184.92 C 97.59 188.01 91.99 191.01 87.79 195.68 C 79.07 205.32 72.88 217.84 72.86 231.03 C 72.81 240.04 72.86 249.06 72.94 258.07 L 72.93 258.37 C 59.42 250.39 45.83 242.53 32.32 234.54 C 32.15 226.71 32.30 218.88 32.24 211.06 C 31.37 191.29 42.75 171.37 60.41 162.35 C 141.40 115.71 222.39 69.05 303.38 22.40 M 71.83 176.82 C 70.23 184.82 64.15 192.35 55.88 193.94 C 63.45 196.61 71.29 202.39 71.80 211.10 C 72.57 202.66 79.20 196.04 87.19 193.93 C 79.41 191.89 72.87 184.88 71.83 176.82 Z" />
</g>
<g id="#94aaf8ff">
<path fill="#94aaf8" opacity="1.00" d=" M 343.07 46.05 C 346.21 44.26 349.85 43.86 353.37 43.44 C 358.13 45.65 361.47 50.36 361.46 55.70 C 361.69 67.67 361.55 79.66 361.51 91.65 C 356.96 94.41 352.34 97.07 347.69 99.66 C 260.77 149.62 174.03 199.89 87.16 249.96 C 82.40 252.62 77.67 255.35 72.94 258.07 C 72.86 249.06 72.81 240.04 72.86 231.03 C 72.88 217.84 79.07 205.32 87.79 195.68 C 91.99 191.01 97.59 188.01 102.96 184.92 C 183.00 138.63 263.04 92.34 343.07 46.05 M 341.45 70.54 C 302.54 92.89 263.82 115.58 224.94 138.00 C 221.23 139.88 218.64 143.83 218.59 148.01 C 218.53 149.73 219.93 152.02 221.94 151.31 C 225.21 149.96 228.11 147.87 231.21 146.18 C 267.29 125.31 303.34 104.36 339.42 83.47 C 343.13 81.45 345.78 77.33 345.55 73.05 C 345.55 70.98 343.32 69.26 341.45 70.54 M 166.19 168.31 C 158.55 170.46 154.14 178.56 153.65 186.07 C 153.49 188.95 153.89 192.81 157.00 194.01 C 161.01 195.08 164.95 192.48 167.35 189.43 C 171.11 184.59 174.28 178.31 172.89 172.03 C 172.40 168.97 169.04 167.23 166.19 168.31 M 132.34 187.46 C 124.80 190.57 120.74 199.29 121.19 207.14 C 121.26 209.81 122.88 212.99 125.91 212.98 C 131.23 213.09 135.03 208.59 137.45 204.37 C 139.96 199.89 142.06 194.23 139.82 189.23 C 138.53 186.38 134.84 186.33 132.34 187.46 M 99.33 206.39 C 92.36 209.57 88.59 217.56 88.64 224.97 C 88.66 227.54 89.56 230.82 92.40 231.54 C 95.92 232.20 99.40 230.26 101.65 227.65 C 105.01 223.82 107.53 219.06 108.19 213.96 C 108.44 211.24 108.20 207.90 105.78 206.17 C 103.80 204.93 101.32 205.53 99.33 206.39 Z" />
</g>
<g id="#ffffffff">
<path fill="#ffffff" opacity="1.00" d=" M 341.45 70.54 C 343.32 69.26 345.55 70.98 345.55 73.05 C 345.78 77.33 343.13 81.45 339.42 83.47 C 303.34 104.36 267.29 125.31 231.21 146.18 C 228.11 147.87 225.21 149.96 221.94 151.31 C 219.93 152.02 218.53 149.73 218.59 148.01 C 218.64 143.83 221.23 139.88 224.94 138.00 C 263.82 115.58 302.54 92.89 341.45 70.54 Z" />
<path fill="#ffffff" opacity="1.00" d=" M 87.16 249.96 C 174.03 199.89 260.77 149.62 347.69 99.66 C 347.87 123.99 347.95 148.32 347.96 172.65 C 332.48 170.39 317.02 176.01 304.00 184.04 C 281.86 197.97 264.65 218.62 251.75 241.16 C 246.74 243.02 242.30 246.05 237.65 248.63 C 224.80 256.13 211.96 263.65 199.06 271.08 C 194.39 273.63 190.98 278.65 191.01 284.05 C 190.96 286.17 192.81 288.31 195.01 288.17 C 197.84 287.81 200.27 286.18 202.70 284.81 C 210.22 280.26 217.88 275.95 225.45 271.50 C 230.71 268.52 235.79 265.17 241.38 262.82 C 237.11 273.37 233.94 284.38 232.05 295.61 C 221.00 301.08 210.77 308.02 199.91 313.85 C 194.91 316.29 191.01 321.32 191.06 327.04 C 190.88 329.47 193.02 332.14 195.61 331.57 C 200.13 330.28 203.82 327.17 207.93 325.00 C 215.46 320.88 222.56 315.95 230.44 312.47 C 230.23 321.27 231.08 330.14 233.67 338.58 C 196.33 359.89 159.28 381.73 122.00 403.15 C 117.48 405.70 114.07 410.60 114.23 415.91 C 114.27 417.98 115.75 420.23 118.03 420.16 C 121.39 419.85 124.18 417.68 127.03 416.08 C 164.38 394.24 201.99 372.84 239.23 350.84 C 242.80 356.45 247.63 361.32 253.49 364.51 C 258.85 367.39 264.30 370.12 269.66 373.01 C 215.40 404.31 161.10 435.56 106.82 466.84 C 102.95 468.98 99.30 471.79 94.92 472.77 C 92.07 473.51 88.89 471.82 88.14 468.94 C 87.09 465.05 87.55 460.96 87.46 456.98 C 87.42 388.22 86.93 319.46 86.85 250.70 L 87.16 249.96 M 325.35 153.47 C 283.12 177.78 241.07 202.45 198.90 226.87 C 194.56 228.93 191.96 233.40 191.08 237.97 C 190.70 240.06 191.21 242.67 193.34 243.63 C 195.43 244.47 197.58 243.30 199.41 242.36 C 240.95 218.23 282.47 194.04 324.03 169.93 C 328.70 167.20 332.35 161.84 331.67 156.28 C 331.29 153.27 327.84 152.06 325.35 153.47 M 134.23 258.12 C 125.88 285.53 117.84 313.04 109.63 340.50 C 109.13 343.04 108.37 347.81 111.93 348.27 C 114.95 347.21 117.80 344.85 118.48 341.59 C 120.30 334.73 122.19 327.90 124.04 321.05 C 135.14 314.39 146.40 307.97 157.50 301.30 C 159.59 306.07 161.19 311.06 163.44 315.76 C 165.13 318.09 168.37 316.75 169.88 314.92 C 172.54 312.57 173.05 308.48 171.51 305.38 C 163.15 287.12 154.82 268.85 146.51 250.58 C 146.12 248.99 144.33 248.93 143.00 249.21 C 138.75 250.41 135.18 253.70 134.23 258.12 Z" />
<path fill="#ffffff" opacity="1.00" d=" M 166.19 168.31 C 169.04 167.23 172.40 168.97 172.89 172.03 C 174.28 178.31 171.11 184.59 167.35 189.43 C 164.95 192.48 161.01 195.08 157.00 194.01 C 153.89 192.81 153.49 188.95 153.65 186.07 C 154.14 178.56 158.55 170.46 166.19 168.31 Z" />
<path fill="#ffffff" opacity="1.00" d=" M 71.83 176.82 C 72.87 184.88 79.41 191.89 87.19 193.93 C 79.20 196.04 72.57 202.66 71.80 211.10 C 71.29 202.39 63.45 196.61 55.88 193.94 C 64.15 192.35 70.23 184.82 71.83 176.82 Z" />
<path fill="#ffffff" opacity="1.00" d=" M 132.34 187.46 C 134.84 186.33 138.53 186.38 139.82 189.23 C 142.06 194.23 139.96 199.89 137.45 204.37 C 135.03 208.59 131.23 213.09 125.91 212.98 C 122.88 212.99 121.26 209.81 121.19 207.14 C 120.74 199.29 124.80 190.57 132.34 187.46 Z" />
<path fill="#ffffff" opacity="1.00" d=" M 99.33 206.39 C 101.32 205.53 103.80 204.93 105.78 206.17 C 108.20 207.90 108.44 211.24 108.19 213.96 C 107.53 219.06 105.01 223.82 101.65 227.65 C 99.40 230.26 95.92 232.20 92.40 231.54 C 89.56 230.82 88.66 227.54 88.64 224.97 C 88.59 217.56 92.36 209.57 99.33 206.39 Z" />
<path fill="#ffffff" opacity="1.00" d=" M 324.54 220.55 C 334.28 213.83 345.89 208.81 357.97 209.88 C 358.18 210.22 358.60 210.91 358.81 211.26 C 359.70 212.92 360.59 214.59 361.36 216.31 C 354.34 219.83 347.64 223.91 340.83 227.80 C 326.86 235.81 312.84 243.73 298.97 251.92 C 296.93 253.13 294.72 254.01 292.43 254.65 C 300.83 241.40 311.58 229.48 324.54 220.55 Z" />
<path fill="#ffffff" opacity="1.00" d=" M 350.31 238.23 C 355.12 235.48 359.82 232.51 364.92 230.33 C 365.84 239.84 364.77 249.45 362.58 258.72 C 356.60 261.03 351.31 264.69 345.72 267.75 C 323.57 280.67 301.18 293.18 279.06 306.15 C 276.88 307.38 274.58 308.36 272.27 309.32 C 273.36 298.48 276.12 287.82 280.37 277.80 C 283.73 276.53 286.95 274.92 290.01 273.04 C 310.08 261.39 330.23 249.88 350.31 238.23 Z" />
<path fill="#ffffff" opacity="1.00" d=" M 140.79 263.94 C 145.44 273.72 149.93 283.58 154.58 293.36 C 145.78 298.71 136.89 303.91 128.02 309.14 C 132.28 294.07 136.53 279.00 140.79 263.94 Z" />
<path fill="#ffffff" opacity="1.00" d=" M 340.03 287.08 C 345.32 284.05 350.40 280.60 356.11 278.37 C 348.79 295.49 338.25 311.38 324.61 324.12 C 322.00 324.77 319.44 325.69 317.16 327.13 C 310.70 331.09 304.07 334.76 297.49 338.51 C 295.56 339.54 294.07 341.14 292.75 342.84 C 288.42 344.04 283.91 344.55 279.43 344.31 L 278.31 344.18 C 275.36 338.41 273.17 332.27 272.36 325.81 C 279.52 322.31 286.26 318.04 293.22 314.16 C 308.78 305.05 324.41 296.08 340.03 287.08 Z" />
<path fill="#ffffff" opacity="1.00" d=" M 347.86 357.70 C 347.87 356.43 348.50 355.86 349.77 355.98 C 349.96 357.46 349.32 358.03 347.86 357.70 Z" />
</g>
<g id="#e4e7efff">
<path fill="#e4e7ef" opacity="1.00" d=" M 347.69 99.66 C 352.34 97.07 356.96 94.41 361.51 91.65 C 361.81 120.28 361.81 148.92 361.93 177.56 C 357.62 175.07 352.86 173.42 347.96 172.65 C 347.95 148.32 347.87 123.99 347.69 99.66 Z" />
<path fill="#e4e7ef" opacity="1.00" d=" M 72.92 258.84 C 77.56 256.12 82.30 253.57 86.85 250.70 C 86.93 319.46 87.42 388.22 87.46 456.98 C 87.55 460.96 87.09 465.05 88.14 468.94 C 88.89 471.82 92.07 473.51 94.92 472.77 C 99.30 471.79 102.95 468.98 106.82 466.84 C 161.10 435.56 215.40 404.31 269.66 373.01 C 274.60 376.62 280.13 379.53 286.14 380.83 C 223.28 416.87 160.80 453.57 98.03 489.76 C 94.64 491.56 90.88 492.86 87.01 492.88 C 83.59 492.93 80.59 491.13 77.63 489.67 C 72.30 480.65 74.14 469.97 73.80 460.02 C 73.42 446.35 73.57 432.68 73.48 419.01 C 73.39 365.62 73.01 312.23 72.92 258.84 Z" />
<path fill="#e4e7ef" opacity="1.00" d=" M 366.75 337.34 C 367.16 336.15 367.92 335.22 369.03 334.55 L 369.53 334.39 C 369.90 335.81 368.35 338.02 366.82 337.83 L 366.75 337.34 Z" />
</g>
<g id="#e9e7faff">
<path fill="#e9e7fa" opacity="1.00" d=" M 325.35 153.47 C 327.84 152.06 331.29 153.27 331.67 156.28 C 332.35 161.84 328.70 167.20 324.03 169.93 C 282.47 194.04 240.95 218.23 199.41 242.36 C 197.58 243.30 195.43 244.47 193.34 243.63 C 191.21 242.67 190.70 240.06 191.08 237.97 C 191.96 233.40 194.56 228.93 198.90 226.87 C 241.07 202.45 283.12 177.78 325.35 153.47 Z" />
<path fill="#e9e7fa" opacity="1.00" d=" M 340.83 227.80 C 347.64 223.91 354.34 219.83 361.36 216.31 C 363.24 220.77 364.36 225.53 364.92 230.33 C 359.82 232.51 355.12 235.48 350.31 238.23 C 330.23 249.88 310.08 261.39 290.01 273.04 C 286.95 274.92 283.73 276.53 280.37 277.80 C 283.51 269.71 287.72 262.09 292.25 254.70 L 292.43 254.65 C 294.72 254.01 296.93 253.13 298.97 251.92 C 312.84 243.73 326.86 235.81 340.83 227.80 Z" />
<path fill="#e9e7fa" opacity="1.00" d=" M 237.65 248.63 C 242.30 246.05 246.74 243.02 251.75 241.16 C 247.87 248.17 244.32 255.36 241.38 262.82 C 235.79 265.17 230.71 268.52 225.45 271.50 C 217.88 275.95 210.22 280.26 202.70 284.81 C 200.27 286.18 197.84 287.81 195.01 288.17 C 192.81 288.31 190.96 286.17 191.01 284.05 C 190.98 278.65 194.39 273.63 199.06 271.08 C 211.96 263.65 224.80 256.13 237.65 248.63 Z" />
<path fill="#e9e7fa" opacity="1.00" d=" M 345.72 267.75 C 351.31 264.69 356.60 261.03 362.58 258.72 C 361.01 265.45 358.79 272.01 356.11 278.37 C 350.40 280.60 345.32 284.05 340.03 287.08 C 324.41 296.08 308.78 305.05 293.22 314.16 C 286.26 318.04 279.52 322.31 272.36 325.81 C 271.75 320.37 272.07 314.88 272.03 309.42 L 272.27 309.32 C 274.58 308.36 276.88 307.38 279.06 306.15 C 301.18 293.18 323.57 280.67 345.72 267.75 Z" />
<path fill="#e9e7fa" opacity="1.00" d=" M 199.91 313.85 C 210.77 308.02 221.00 301.08 232.05 295.61 C 231.15 301.19 230.58 306.82 230.44 312.47 C 222.56 315.95 215.46 320.88 207.93 325.00 C 203.82 327.17 200.13 330.28 195.61 331.57 C 193.02 332.14 190.88 329.47 191.06 327.04 C 191.01 321.32 194.91 316.29 199.91 313.85 Z" />
<path fill="#e9e7fa" opacity="1.00" d=" M 317.16 327.13 C 319.44 325.69 322.00 324.77 324.61 324.12 C 315.68 332.75 304.93 339.86 292.75 342.84 C 294.07 341.14 295.56 339.54 297.49 338.51 C 304.07 334.76 310.70 331.09 317.16 327.13 Z" />
<path fill="#e9e7fa" opacity="1.00" d=" M 122.00 403.15 C 159.28 381.73 196.33 359.89 233.67 338.58 C 235.04 342.86 236.86 347.01 239.23 350.84 C 201.99 372.84 164.38 394.24 127.03 416.08 C 124.18 417.68 121.39 419.85 118.03 420.16 C 115.75 420.23 114.27 417.98 114.23 415.91 C 114.07 410.60 117.48 405.70 122.00 403.15 Z" />
</g>
<g id="#1f2941ff">
<path fill="#1f2941" opacity="1.00" d=" M 304.00 184.04 C 317.02 176.01 332.48 170.39 347.96 172.65 C 352.86 173.42 357.62 175.07 361.93 177.56 C 367.19 180.79 372.71 183.62 377.78 187.17 C 371.91 186.13 365.97 184.90 359.97 185.45 C 346.45 186.39 333.93 192.47 322.68 199.69 C 299.22 215.12 281.51 238.06 269.02 262.97 C 257.36 286.70 250.54 313.56 253.86 340.07 C 255.37 352.38 260.51 364.45 269.66 373.01 C 264.30 370.12 258.85 367.39 253.49 364.51 C 247.63 361.32 242.80 356.45 239.23 350.84 C 236.86 347.01 235.04 342.86 233.67 338.58 C 231.08 330.14 230.23 321.27 230.44 312.47 C 230.58 306.82 231.15 301.19 232.05 295.61 C 233.94 284.38 237.11 273.37 241.38 262.82 C 244.32 255.36 247.87 248.17 251.75 241.16 C 264.65 218.62 281.86 197.97 304.00 184.04 Z" />
<path fill="#1f2941" opacity="1.00" d=" M 358.15 209.68 C 368.35 210.84 377.59 217.89 381.58 227.33 C 387.49 240.72 386.60 256.00 383.61 270.00 C 377.61 295.94 363.58 320.01 344.07 338.11 C 332.92 348.06 319.39 356.95 304.01 357.62 C 293.74 358.21 283.69 352.86 278.11 344.29 L 279.43 344.31 C 283.91 344.55 288.42 344.04 292.75 342.84 C 304.93 339.86 315.68 332.75 324.61 324.12 C 338.25 311.38 348.79 295.49 356.11 278.37 C 358.79 272.01 361.01 265.45 362.58 258.72 C 364.77 249.45 365.84 239.84 364.92 230.33 C 364.36 225.53 363.24 220.77 361.36 216.31 C 360.59 214.59 359.70 212.92 358.81 211.26 L 358.15 209.68 Z" />
<path fill="#1f2941" opacity="1.00" d=" M 72.94 258.07 C 77.67 255.35 82.40 252.62 87.16 249.96 L 86.85 250.70 C 82.30 253.57 77.56 256.12 72.92 258.84 L 72.93 258.37 L 72.94 258.07 Z" />
</g>
<g id="#4f5b73ff">
<path fill="#4f5b73" opacity="1.00" d=" M 322.68 199.69 C 333.93 192.47 346.45 186.39 359.97 185.45 C 365.97 184.90 371.91 186.13 377.78 187.17 C 388.61 191.69 397.27 200.81 401.23 211.86 C 409.66 234.17 405.86 258.86 398.67 280.96 C 397.91 282.27 398.54 283.62 398.56 284.99 L 397.54 284.60 C 396.49 286.79 395.81 289.14 394.85 291.38 C 389.89 303.21 383.79 314.56 376.60 325.19 C 375.28 327.09 373.96 328.99 372.76 330.96 C 372.50 331.37 371.99 332.18 371.73 332.59 C 371.70 332.63 371.65 332.71 371.62 332.75 C 371.10 333.16 370.05 333.98 369.53 334.39 L 369.03 334.55 C 367.92 335.22 367.16 336.15 366.75 337.34 L 366.82 337.83 L 366.95 338.77 C 366.74 338.96 366.31 339.36 366.09 339.56 C 363.75 341.59 361.65 343.89 359.95 346.49 C 357.22 350.01 353.78 352.89 350.64 356.04 L 349.77 355.98 C 348.50 355.86 347.87 356.43 347.86 357.70 L 347.84 358.61 C 335.21 369.04 320.77 378.51 304.30 381.07 C 298.46 381.53 292.57 381.90 286.76 380.96 L 286.14 380.83 C 280.13 379.53 274.60 376.62 269.66 373.01 C 260.51 364.45 255.37 352.38 253.86 340.07 C 250.54 313.56 257.36 286.70 269.02 262.97 C 281.51 238.06 299.22 215.12 322.68 199.69 M 324.54 220.55 C 311.58 229.48 300.83 241.40 292.43 254.65 L 292.25 254.70 C 287.72 262.09 283.51 269.71 280.37 277.80 C 276.12 287.82 273.36 298.48 272.27 309.32 L 272.03 309.42 C 272.07 314.88 271.75 320.37 272.36 325.81 C 273.17 332.27 275.36 338.41 278.31 344.18 L 279.43 344.31 L 278.11 344.29 C 283.69 352.86 293.74 358.21 304.01 357.62 C 319.39 356.95 332.92 348.06 344.07 338.11 C 363.58 320.01 377.61 295.94 383.61 270.00 C 386.60 256.00 387.49 240.72 381.58 227.33 C 377.59 217.89 368.35 210.84 358.15 209.68 L 358.81 211.26 C 358.60 210.91 358.18 210.22 357.97 209.88 C 345.89 208.81 334.28 213.83 324.54 220.55 Z" />
</g>
<g id="#cacee0ff">
<path fill="#cacee0" opacity="1.00" d=" M 32.32 234.54 C 45.83 242.53 59.42 250.39 72.93 258.37 L 72.92 258.84 C 73.01 312.23 73.39 365.62 73.48 419.01 C 73.57 432.68 73.42 446.35 73.80 460.02 C 74.14 469.97 72.30 480.65 77.63 489.67 C 66.30 482.94 54.94 476.26 43.58 469.57 C 41.09 468.06 38.35 466.73 36.61 464.30 C 33.99 460.79 33.45 456.24 33.25 451.99 C 32.92 403.32 33.21 354.64 32.67 305.98 C 32.54 282.16 32.24 258.35 32.32 234.54 Z" />
<path fill="#cacee0" opacity="1.00" d=" M 359.95 346.49 C 361.65 343.89 363.75 341.59 366.09 339.56 C 364.18 341.98 362.18 344.35 359.95 346.49 Z" />
</g>
<g id="#e25d72ff">
<path fill="#e25d72" opacity="1.00" d=" M 134.23 258.12 C 135.18 253.70 138.75 250.41 143.00 249.21 C 144.33 248.93 146.12 248.99 146.51 250.58 C 154.82 268.85 163.15 287.12 171.51 305.38 C 173.05 308.48 172.54 312.57 169.88 314.92 C 168.37 316.75 165.13 318.09 163.44 315.76 C 161.19 311.06 159.59 306.07 157.50 301.30 C 146.40 307.97 135.14 314.39 124.04 321.05 C 122.19 327.90 120.30 334.73 118.48 341.59 C 117.80 344.85 114.95 347.21 111.93 348.27 C 108.37 347.81 109.13 343.04 109.63 340.50 C 117.84 313.04 125.88 285.53 134.23 258.12 M 140.79 263.94 C 136.53 279.00 132.28 294.07 128.02 309.14 C 136.89 303.91 145.78 298.71 154.58 293.36 C 149.93 283.58 145.44 273.72 140.79 263.94 Z" />
</g>
<g id="#94e46dff">
<path fill="#94e46d" opacity="1.00" d=" M 397.54 284.60 C 398.40 284.90 399.18 285.34 399.89 285.93 C 402.20 290.75 405.40 295.41 405.26 300.99 C 406.62 310.90 401.22 320.57 393.63 326.62 C 388.19 331.23 380.66 332.75 373.76 331.11 L 372.76 330.96 C 373.96 328.99 375.28 327.09 376.60 325.19 C 388.32 324.57 397.78 313.49 397.48 301.93 C 397.59 298.23 396.36 294.69 394.85 291.38 C 395.81 289.14 396.49 286.79 397.54 284.60 Z" />
</g>
<g id="#8bd36fff">
<path fill="#8bd36f" opacity="1.00" d=" M 399.89 285.93 C 400.10 285.56 400.52 284.80 400.74 284.42 C 423.30 294.66 446.34 303.89 469.04 313.85 C 473.76 316.23 476.81 321.03 478.23 326.00 C 481.92 338.82 475.82 353.60 464.44 360.42 C 458.79 363.81 451.58 364.21 445.52 361.73 C 427.65 354.15 409.74 346.66 391.84 339.14 C 385.78 336.55 379.61 334.18 373.76 331.11 C 380.66 332.75 388.19 331.23 393.63 326.62 C 401.22 320.57 406.62 310.90 405.26 300.99 C 405.40 295.41 402.20 290.75 399.89 285.93 Z" />
</g>
<g id="#f3f1fbff">
<path fill="#f3f1fb" opacity="1.00" d=" M 376.60 325.19 C 383.79 314.56 389.89 303.21 394.85 291.38 C 396.36 294.69 397.59 298.23 397.48 301.93 C 397.78 313.49 388.32 324.57 376.60 325.19 Z" />
</g>
<g id="#75777fa9">
<path fill="#75777f" opacity="0.66" d=" M 371.62 332.75 C 371.65 332.71 371.70 332.63 371.73 332.59 C 371.70 332.63 371.65 332.71 371.62 332.75 Z" />
</g>
<g id="#5d6470bc">
<path fill="#5d6470" opacity="0.74" d=" M 286.76 380.96 C 292.57 381.90 298.46 381.53 304.30 381.07 C 300.37 382.53 296.12 381.91 292.03 382.02 C 290.20 382.11 288.43 381.64 286.76 380.96 Z" />
</g>
</svg>
