<svg viewBox="0 0 160 160" xmlns="http://www.w3.org/2000/svg"><g fill="#202124" opacity=".1"><path d="m121.46 70.45h-36.92c-14.38 0-26.03 11.66-26.03 26.03 0 14.38 11.66 26.03 26.03 26.03h32.64l9.62 8.62c1.42 1.27 3.68.27 3.68-1.64v-8.59c9.93-3.67 17.01-13.22 17.01-24.42 0-14.38-11.65-26.03-26.03-26.03z"/><path d="m37.06 47.61 47.04-.58 21.55 15.96h4.58c-1.31-13.15-12.47-23.7-25.96-23.7h-36.92c-14.38 0-26.03 11.66-26.03 26.03 0 11.2 7.08 20.75 17.01 24.42v8.59c0 1.91 2.26 2.92 3.68 1.64l7.88-8.56.61-3.81-15.43-17.17 1.99-22.83z"/></g><path d="m116.75 66.79h-36.92c-14.38 0-26.03 11.66-26.03 26.03 0 14.38 11.66 26.03 26.03 26.03h32.64l9.62 8.62c1.42 1.27 3.68.27 3.68-1.64v-8.59c9.93-3.67 17.01-13.22 17.01-24.42 0-14.38-11.65-26.03-26.03-26.03z" fill="#4180f8"/><g fill="#fff"><circle cx="103.44" cy="92.92" r="4.3"/><circle cx="115.89" cy="92.92" r="4.3"/><path d="m91 88.62c-2.37 0-4.3 1.92-4.3 4.3s1.92 4.3 4.3 4.3 4.29-1.92 4.29-4.3-1.92-4.3-4.29-4.3z"/><path d="m78.56 88.62c-2.37 0-4.29 1.92-4.29 4.3s1.92 4.3 4.29 4.3 4.3-1.92 4.3-4.3-1.92-4.3-4.3-4.3z"/></g><path d="m79.56 35.63h-36.92c-14.38 0-26.03 11.66-26.03 26.03 0 11.2 7.08 20.75 17.01 24.42v8.59c0 1.91 2.26 2.92 3.68 1.64l9.62-8.62h3.49l.15-.75c1.46-7.33 5.6-13.58 11.24-17.87h-20.96c-1.7 0-3.08-1.38-3.08-3.08s1.38-3.08 3.08-3.08l64.24.04h.47c.02-.43.03-.87.03-1.3 0-14.38-11.66-26.03-26.03-26.03zm1.4 19.72h-40.11c-1.7 0-3.08-1.38-3.08-3.08s1.38-3.08 3.08-3.08h40.11c1.7 0 3.08 1.38 3.08 3.08s-1.38 3.08-3.08 3.08z" fill="#fcbd00"/></svg>