<?xml version="1.0" encoding="UTF-8" ?>
<!DOCTYPE svg PUBLIC "-//W3C//DTD SVG 1.1//EN" "http://www.w3.org/Graphics/SVG/1.1/DTD/svg11.dtd">
<svg width="512pt" height="512pt" viewBox="0 0 512 512" version="1.1" xmlns="http://www.w3.org/2000/svg">
<g id="#e69847ff">
<path fill="#e69847" opacity="1.00" d=" M 320.00 16.00 C 341.33 16.00 362.67 16.00 384.00 16.00 C 384.00 22.65 384.00 29.30 384.00 35.95 C 395.49 39.04 406.60 43.54 416.86 49.58 C 421.74 44.93 426.36 40.03 431.22 35.37 C 446.37 50.50 461.52 65.62 476.63 80.79 C 471.97 85.62 467.12 90.29 462.44 95.11 C 468.42 105.41 472.95 116.51 476.05 128.00 C 482.70 128.00 489.35 128.00 496.00 128.00 C 496.00 149.33 496.00 170.67 496.00 192.00 C 489.35 192.00 482.70 192.00 476.05 192.00 C 472.95 203.50 468.40 214.59 462.44 224.91 C 467.13 229.72 471.98 234.38 476.65 239.23 C 461.55 254.35 446.23 269.26 431.15 284.41 C 426.46 279.63 421.67 274.93 416.94 270.19 C 406.63 276.20 395.52 280.82 383.97 283.80 C 383.97 290.53 383.95 297.25 383.98 303.98 C 373.73 303.96 363.48 303.95 353.23 303.99 C 342.15 304.02 331.07 303.99 319.99 304.01 C 319.98 297.32 320.03 290.63 319.96 283.94 C 308.49 280.85 297.44 276.30 287.16 270.35 C 282.29 274.94 277.73 279.84 272.88 284.45 C 257.61 269.50 242.51 254.36 227.53 239.11 C 232.16 234.27 237.05 229.70 241.64 224.82 C 235.61 214.57 231.16 203.48 228.02 192.03 C 221.34 191.98 214.67 192.01 207.99 192.01 C 208.00 170.67 208.00 149.33 207.99 127.99 C 214.68 127.99 221.36 128.02 228.04 127.96 C 231.14 116.49 235.67 105.41 241.67 95.14 C 237.06 90.28 232.16 85.71 227.54 80.86 C 237.88 70.12 248.66 59.81 259.04 49.11 C 263.64 44.55 268.09 39.84 272.85 35.45 C 277.68 40.05 282.25 44.92 287.11 49.49 C 293.36 46.08 299.72 42.82 306.40 40.30 C 310.87 38.65 315.42 37.26 320.00 35.95 C 320.00 29.30 320.00 22.65 320.00 16.00 M 319.23 87.27 C 299.99 95.82 284.48 112.38 277.23 132.15 C 269.42 152.74 270.77 176.48 280.83 196.06 C 290.65 215.70 309.01 230.79 330.14 236.73 C 355.21 244.07 384.00 238.11 403.59 220.69 C 422.55 205.26 433.06 180.29 431.72 155.98 C 430.89 140.43 425.50 125.15 416.22 112.63 C 404.84 97.09 387.63 85.97 368.78 81.97 C 352.26 78.34 334.64 80.30 319.23 87.27 Z" />
</g>
<g id="#97be3aff">
<path fill="#97be3a" opacity="1.00" d=" M 72.81 52.89 C 84.69 39.70 102.25 31.95 120.00 31.97 C 120.00 37.31 120.00 42.64 120.00 47.97 C 104.04 47.98 88.40 56.40 79.78 69.87 C 73.74 78.89 71.48 89.95 71.99 100.69 C 75.47 97.27 78.90 93.81 82.33 90.35 C 86.13 94.10 89.93 97.85 93.65 101.67 C 85.62 109.65 77.67 117.73 69.60 125.67 C 66.65 128.73 61.28 128.73 58.36 125.62 C 50.32 117.66 42.37 109.62 34.35 101.65 C 38.12 97.88 41.88 94.11 45.65 90.35 C 49.11 93.79 52.58 97.23 56.01 100.71 C 55.02 83.37 60.87 65.62 72.81 52.89 Z" />
<path fill="#97be3a" opacity="1.00" d=" M 442.45 386.29 C 445.36 383.27 450.64 383.29 453.56 386.29 C 461.66 394.23 469.60 402.34 477.66 410.32 C 473.90 414.11 470.12 417.88 466.34 421.65 C 462.91 418.19 459.45 414.75 456.02 411.30 C 456.65 425.58 453.11 440.17 444.86 451.95 C 433.26 469.25 412.84 480.11 392.00 480.03 C 392.00 474.69 392.00 469.36 392.00 464.03 C 407.71 464.01 423.14 455.87 431.80 442.73 C 438.13 433.60 440.52 422.28 440.01 411.30 C 436.57 414.76 433.11 418.21 429.65 421.65 C 425.90 417.87 422.15 414.08 418.35 410.35 C 426.40 402.35 434.38 394.27 442.45 386.29 Z" />
</g>
<g id="#f2cd6fff">
<path fill="#f2cd6f" opacity="1.00" d=" M 141.25 84.17 C 171.44 49.10 218.43 29.04 264.66 32.30 C 257.53 34.30 250.05 34.61 242.94 36.71 C 209.95 44.80 180.15 64.57 159.45 91.43 C 141.79 114.22 130.99 142.18 128.57 170.90 C 124.69 213.53 140.04 257.44 169.68 288.32 C 191.03 310.85 206.85 338.40 216.07 368.00 C 208.05 368.02 200.04 367.96 192.02 368.02 C 188.80 357.74 184.93 347.65 180.11 338.02 C 174.17 325.68 166.81 314.03 158.41 303.22 C 150.92 293.27 141.62 284.85 134.25 274.81 C 121.30 257.51 112.06 237.41 107.51 216.28 C 104.68 203.07 103.48 189.49 104.19 176.00 C 105.80 142.38 119.15 109.53 141.25 84.17 Z" />
</g>
<g id="#f9da96ff">
<path fill="#f9da96" opacity="1.00" d=" M 264.66 32.30 C 278.87 32.50 292.92 35.91 306.40 40.30 C 299.72 42.82 293.36 46.08 287.11 49.49 C 282.25 44.92 277.68 40.05 272.85 35.45 C 268.09 39.84 263.64 44.55 259.04 49.11 C 248.66 59.81 237.88 70.12 227.54 80.86 C 232.16 85.71 237.06 90.28 241.67 95.14 C 235.67 105.41 231.14 116.49 228.04 127.96 C 221.36 128.02 214.68 127.99 207.99 127.99 C 208.00 149.33 208.00 170.67 207.99 192.01 C 214.67 192.01 221.34 191.98 228.02 192.03 C 231.16 203.48 235.61 214.57 241.64 224.82 C 237.05 229.70 232.16 234.27 227.53 239.11 C 242.51 254.36 257.61 269.50 272.88 284.45 C 277.73 279.84 282.29 274.94 287.16 270.35 C 297.44 276.30 308.49 280.85 319.96 283.94 C 320.03 290.63 319.98 297.32 319.99 304.01 C 331.07 303.99 342.15 304.02 353.23 303.99 C 338.47 323.12 327.25 344.91 320.13 367.99 C 286.88 368.02 253.63 367.98 220.39 368.01 C 218.95 368.01 217.51 368.01 216.07 368.00 C 206.85 338.40 191.03 310.85 169.68 288.32 C 140.04 257.44 124.69 213.53 128.57 170.90 C 130.99 142.18 141.79 114.22 159.45 91.43 C 180.15 64.57 209.95 44.80 242.94 36.71 C 250.05 34.61 257.53 34.30 264.66 32.30 Z" />
<path fill="#f9da96" opacity="1.00" d=" M 319.23 87.27 C 334.64 80.30 352.26 78.34 368.78 81.97 C 389.36 104.54 402.75 133.55 406.75 163.82 C 409.21 182.74 408.30 202.18 403.59 220.69 C 384.00 238.11 355.21 244.07 330.14 236.73 C 309.01 230.79 290.65 215.70 280.83 196.06 C 270.77 176.48 269.42 152.74 277.23 132.15 C 284.48 112.38 299.99 95.82 319.23 87.27 Z" />
</g>
<g id="#285ec3ff">
<path fill="#285ec3" opacity="1.00" d=" M 88.00 176.00 C 93.40 176.00 98.79 176.00 104.19 176.00 C 103.48 189.49 104.68 203.07 107.51 216.28 C 91.98 217.25 77.20 225.44 67.72 237.70 C 58.70 249.29 54.46 264.52 56.43 279.09 C 58.18 293.17 65.55 306.46 76.60 315.37 C 89.07 325.66 106.16 330.11 122.06 327.06 C 136.74 324.45 150.16 315.64 158.41 303.22 C 166.81 314.03 174.17 325.68 180.11 338.02 L 180.61 339.13 C 174.66 344.99 168.79 350.94 162.87 356.84 C 160.22 354.17 157.57 351.51 154.93 348.84 C 148.91 351.98 142.67 354.75 136.09 356.49 C 135.90 360.32 135.97 364.15 135.98 367.98 C 119.99 367.96 104.00 367.97 88.01 367.98 C 88.03 364.15 88.09 360.32 87.91 356.49 C 81.35 354.72 75.12 351.94 69.14 348.76 C 66.48 351.45 63.83 354.13 61.15 356.79 C 49.84 345.48 38.54 334.17 27.22 322.87 C 29.91 320.23 32.56 317.56 35.22 314.90 C 32.01 308.92 29.24 302.67 27.52 296.10 C 23.69 295.90 19.85 295.97 16.02 295.98 C 16.04 279.99 16.03 264.00 16.02 248.02 C 19.85 248.03 23.68 248.10 27.51 247.91 C 29.22 241.33 31.96 235.06 35.16 229.08 C 32.50 226.41 29.84 223.75 27.17 221.10 C 38.62 209.86 49.73 198.31 61.08 186.97 C 63.90 189.54 66.52 192.32 69.25 194.99 C 75.14 191.59 81.53 189.18 88.00 187.13 C 87.99 183.42 88.00 179.71 88.00 176.00 Z" />
</g>
<g id="#ffffffff">
<path fill="#ffffff" opacity="1.00" d=" M 67.72 237.70 C 77.20 225.44 91.98 217.25 107.51 216.28 C 112.06 237.41 121.30 257.51 134.25 274.81 C 141.62 284.85 150.92 293.27 158.41 303.22 C 150.16 315.64 136.74 324.45 122.06 327.06 C 106.16 330.11 89.07 325.66 76.60 315.37 C 65.55 306.46 58.18 293.17 56.43 279.09 C 54.46 264.52 58.70 249.29 67.72 237.70 Z" />
</g>
<g id="#9eb1d0ff">
<path fill="#9eb1d0" opacity="1.00" d=" M 176.05 385.04 C 175.19 376.14 183.08 367.73 192.02 368.02 C 200.04 367.96 208.05 368.02 216.07 368.00 C 217.51 368.01 218.95 368.01 220.39 368.01 C 216.39 369.77 212.29 372.09 210.14 376.07 C 207.33 380.89 207.55 386.98 209.98 391.91 C 251.37 392.09 292.76 391.76 334.15 392.06 C 331.82 395.83 328.13 398.47 324.01 399.98 C 328.10 401.55 331.88 404.12 334.12 407.98 C 292.75 408.16 251.38 407.96 210.01 408.08 C 207.44 413.02 207.50 418.97 210.01 423.92 C 251.39 424.06 292.78 423.81 334.17 424.03 C 331.84 427.82 328.13 430.47 324.00 431.99 C 328.10 433.52 331.85 436.11 334.10 439.95 C 292.74 440.22 251.38 439.91 210.02 440.10 C 207.21 445.59 207.29 452.74 211.30 457.63 C 214.92 462.46 221.14 464.52 227.01 464.34 C 250.02 464.08 273.05 464.60 296.05 464.06 C 295.92 472.17 292.81 480.22 287.15 486.07 C 280.77 492.91 271.30 496.45 262.01 496.01 C 253.18 495.69 243.90 497.20 235.57 493.48 C 223.89 488.71 215.93 476.59 215.92 463.99 C 207.61 463.93 199.29 464.10 190.98 463.92 C 182.08 463.60 174.67 454.70 176.16 445.87 C 176.86 439.06 182.29 433.57 188.83 431.99 C 182.31 430.39 176.85 424.92 176.16 418.12 C 174.87 409.88 180.77 401.76 188.83 399.99 C 181.93 398.33 176.32 392.25 176.05 385.04 Z" />
</g>
<g id="#c4cfe6ff">
<path fill="#c4cfe6" opacity="1.00" d=" M 220.39 368.01 C 253.63 367.98 286.88 368.02 320.13 367.99 C 328.64 367.54 336.45 375.54 336.03 384.01 C 336.26 386.84 335.23 389.50 334.15 392.06 C 292.76 391.76 251.37 392.09 209.98 391.91 C 207.55 386.98 207.33 380.89 210.14 376.07 C 212.29 372.09 216.39 369.77 220.39 368.01 Z" />
<path fill="#c4cfe6" opacity="1.00" d=" M 210.01 408.08 C 251.38 407.96 292.75 408.16 334.12 407.98 C 336.75 412.94 336.65 419.04 334.17 424.03 C 292.78 423.81 251.39 424.06 210.01 423.92 C 207.50 418.97 207.44 413.02 210.01 408.08 Z" />
<path fill="#c4cfe6" opacity="1.00" d=" M 210.02 440.10 C 251.38 439.91 292.74 440.22 334.10 439.95 C 336.76 445.07 336.88 451.66 333.66 456.57 C 330.89 460.76 326.18 464.01 321.03 463.99 C 312.70 464.07 304.37 463.90 296.05 464.06 C 273.05 464.60 250.02 464.08 227.01 464.34 C 221.14 464.52 214.92 462.46 211.30 457.63 C 207.29 452.74 207.21 445.59 210.02 440.10 Z" />
</g>
</svg>
