<?xml version="1.0" encoding="UTF-8" ?>
<!DOCTYPE svg PUBLIC "-//W3C//DTD SVG 1.1//EN" "http://www.w3.org/Graphics/SVG/1.1/DTD/svg11.dtd">
<svg width="512pt" height="512pt" viewBox="0 0 512 512" version="1.1" xmlns="http://www.w3.org/2000/svg">
<g id="#a9bfd7ff">
<path fill="#a9bfd7" opacity="1.00" d=" M 39.69 17.72 C 44.96 11.69 52.86 7.60 60.97 7.98 C 66.04 8.04 71.12 7.92 76.19 8.09 C 68.44 10.31 60.99 14.80 56.95 21.98 C 53.51 27.32 52.65 33.78 52.75 40.00 C 52.92 59.04 52.64 78.07 52.92 97.10 C 46.11 97.04 39.31 97.05 32.51 96.97 C 32.32 77.32 32.46 57.68 32.44 38.03 C 32.43 30.69 34.66 23.19 39.69 17.72 Z" />
</g>
<g id="#c8d9eaff">
<path fill="#c8d9ea" opacity="1.00" d=" M 76.19 8.09 C 209.47 7.87 342.76 8.08 476.05 7.99 C 490.50 7.77 503.61 20.51 504.00 34.92 C 504.00 47.64 504.00 60.35 503.99 73.06 C 470.00 73.40 436.00 73.11 402.00 73.21 C 338.33 73.21 274.67 73.21 211.00 73.21 C 206.05 73.27 201.07 72.78 196.15 73.41 C 194.36 73.46 193.37 75.10 192.39 76.36 C 188.24 82.26 185.12 88.90 180.36 94.36 C 177.34 97.96 172.18 97.25 167.99 97.41 C 129.64 97.05 91.27 97.66 52.92 97.10 C 52.64 78.07 52.92 59.04 52.75 40.00 C 52.65 33.78 53.51 27.32 56.95 21.98 C 60.99 14.80 68.44 10.31 76.19 8.09 M 81.33 45.27 C 75.45 47.19 74.64 56.04 79.82 59.22 C 84.29 62.63 91.53 59.50 92.17 53.95 C 93.43 48.11 86.76 42.75 81.33 45.27 M 107.41 45.41 C 101.77 47.68 101.25 56.53 106.59 59.43 C 111.65 62.98 119.47 58.34 118.72 52.18 C 118.70 46.71 112.22 42.98 107.41 45.41 M 134.32 45.25 C 128.47 47.16 127.50 56.10 132.80 59.24 C 137.57 62.89 145.33 59.00 145.20 52.98 C 145.75 47.43 139.38 42.97 134.32 45.25 Z" />
</g>
<g id="#8aa6c2ff">
<path fill="#8aa6c2" opacity="1.00" d=" M 81.33 45.27 C 86.76 42.75 93.43 48.11 92.17 53.95 C 91.53 59.50 84.29 62.63 79.82 59.22 C 74.64 56.04 75.45 47.19 81.33 45.27 Z" />
<path fill="#8aa6c2" opacity="1.00" d=" M 107.41 45.41 C 112.22 42.98 118.70 46.71 118.72 52.18 C 119.47 58.34 111.65 62.98 106.59 59.43 C 101.25 56.53 101.77 47.68 107.41 45.41 Z" />
<path fill="#8aa6c2" opacity="1.00" d=" M 134.32 45.25 C 139.38 42.97 145.75 47.43 145.20 52.98 C 145.33 59.00 137.57 62.89 132.80 59.24 C 127.50 56.10 128.47 47.16 134.32 45.25 Z" />
<path fill="#8aa6c2" opacity="1.00" d=" M 59.17 150.15 C 61.65 146.19 66.98 146.89 71.00 146.69 C 77.07 146.99 83.40 145.90 89.29 147.77 C 94.26 150.41 93.38 157.03 95.63 161.46 C 96.88 162.51 98.78 163.12 100.25 162.14 C 104.23 160.42 107.86 156.36 112.55 157.48 C 116.64 158.99 119.31 162.71 122.40 165.60 C 125.74 169.24 130.02 172.22 132.26 176.73 C 134.04 181.34 129.99 185.25 128.15 189.11 C 126.95 190.71 127.17 192.91 128.53 194.35 C 132.21 195.97 136.47 196.00 139.97 198.07 C 142.61 199.72 143.03 203.09 143.14 205.93 C 143.30 211.30 143.26 216.68 143.17 222.06 C 143.03 224.96 142.90 228.41 140.39 230.35 C 136.84 232.76 132.28 232.66 128.48 234.51 C 127.70 235.38 127.07 236.63 127.37 237.83 C 128.72 242.03 132.59 245.30 132.71 249.90 C 132.28 254.15 128.54 256.91 125.80 259.81 C 121.75 263.45 118.47 268.07 113.69 270.83 C 109.08 273.17 104.93 268.92 101.03 267.03 C 99.36 265.80 96.97 265.91 95.54 267.46 C 93.91 271.11 93.90 275.36 91.82 278.83 C 89.95 281.72 86.16 281.86 83.07 281.96 C 77.37 281.97 71.66 282.12 65.96 281.85 C 63.24 281.75 60.12 280.83 58.91 278.14 C 57.10 274.03 56.89 269.28 54.05 265.62 C 50.19 266.47 46.96 268.75 43.49 270.48 C 39.72 272.45 35.78 269.83 32.78 267.66 C 28.96 263.33 24.69 259.43 20.70 255.27 C 18.55 253.09 17.28 249.60 18.70 246.69 C 20.14 243.59 22.23 240.85 24.08 237.99 C 23.55 236.77 23.08 235.52 22.65 234.26 C 17.50 232.78 10.14 233.05 8.16 226.87 C 7.74 220.93 8.14 214.96 7.99 209.01 C 8.12 205.57 7.20 201.55 9.93 198.85 C 13.20 195.54 18.30 195.85 22.50 194.63 C 22.99 193.36 23.52 192.11 24.11 190.88 C 21.49 186.20 15.71 180.99 19.29 175.30 C 23.35 170.26 28.42 166.12 32.74 161.30 C 35.57 159.22 39.17 156.36 42.86 158.03 C 46.57 159.74 49.95 162.22 53.98 163.20 C 57.11 159.45 56.98 154.33 59.17 150.15 M 69.35 181.43 C 56.49 183.74 45.66 194.20 42.89 206.97 C 39.36 221.34 46.78 237.38 59.96 244.05 C 73.34 251.40 91.43 247.88 101.12 236.11 C 109.62 226.37 111.48 211.64 105.90 200.03 C 99.71 186.51 83.93 178.46 69.35 181.43 Z" />
<path fill="#8aa6c2" opacity="1.00" d=" M 241.73 474.93 C 240.35 470.42 244.11 464.89 248.93 465.00 C 254.30 464.95 259.67 465.02 265.04 465.00 C 269.40 465.02 273.76 465.00 278.13 464.99 C 293.83 465.00 309.53 465.02 325.24 464.98 C 329.16 465.00 333.09 465.00 337.01 465.00 C 341.36 465.02 345.71 464.99 350.06 464.98 C 365.80 465.02 381.53 465.01 397.27 464.98 C 401.19 465.00 405.10 465.00 409.02 465.00 C 413.36 465.01 417.70 464.99 422.04 464.98 C 437.79 465.01 453.53 465.03 469.28 464.97 C 474.85 465.05 480.43 464.92 486.01 465.02 C 491.24 465.26 494.70 471.78 492.29 476.35 C 491.09 479.13 488.15 481.22 485.07 481.01 C 406.35 480.98 327.64 481.02 248.93 480.99 C 245.51 481.06 242.47 478.15 241.73 474.93 Z" />
</g>
<g id="#edfafeff">
<path fill="#edfafe" opacity="1.00" d=" M 192.39 76.36 C 193.37 75.10 194.36 73.46 196.15 73.41 C 201.07 72.78 206.05 73.27 211.00 73.21 C 274.67 73.21 338.33 73.21 402.00 73.21 C 436.00 73.11 470.00 73.40 503.99 73.06 C 504.00 184.05 504.01 295.05 503.99 406.04 C 504.23 416.85 497.82 427.43 488.10 432.18 C 482.35 435.25 475.70 435.48 469.33 435.23 C 469.07 390.47 469.29 345.70 469.23 300.94 C 469.10 298.23 468.91 295.17 466.83 293.17 C 464.55 290.85 461.05 290.92 458.05 290.80 C 447.67 290.79 437.30 290.97 426.93 290.72 C 422.30 290.90 417.31 289.99 412.97 292.01 C 409.12 294.17 409.10 299.09 409.10 302.95 C 409.18 347.05 409.26 391.15 409.06 435.25 C 405.14 435.27 401.21 435.27 397.29 435.25 C 397.11 414.50 397.21 393.75 397.24 373.00 C 397.13 368.22 397.79 363.26 396.26 358.65 C 394.80 355.03 390.52 354.24 387.05 354.25 C 376.36 354.18 365.65 354.50 354.96 354.07 C 350.41 354.20 345.54 353.38 341.25 355.26 C 337.69 357.04 337.05 361.36 337.09 364.93 C 337.13 388.37 337.26 411.81 337.04 435.25 C 333.11 435.27 329.18 435.27 325.25 435.25 C 325.08 423.82 325.21 412.39 325.23 400.97 C 325.08 397.88 325.28 394.32 323.06 391.88 C 320.81 389.37 317.17 389.33 314.06 389.25 C 303.70 389.26 293.34 389.51 282.98 389.07 C 278.64 389.16 274.09 388.50 269.90 389.93 C 266.32 391.32 264.91 395.35 265.05 398.93 C 264.99 411.02 265.16 423.12 265.04 435.22 C 247.27 435.29 229.51 435.30 211.75 435.22 C 211.49 429.89 211.46 424.56 211.86 419.24 C 218.45 416.30 225.23 412.96 229.52 406.89 C 233.65 401.13 236.15 394.13 236.10 387.00 C 236.22 375.72 230.01 364.50 220.16 358.90 C 217.46 357.44 214.70 356.06 211.92 354.74 C 210.95 338.45 212.46 322.07 211.23 305.80 C 210.25 298.78 204.22 292.58 197.03 292.09 C 191.07 291.69 185.05 291.64 179.11 292.39 C 172.99 294.50 167.98 300.13 167.77 306.78 C 167.12 310.37 168.24 315.36 164.33 317.33 C 144.70 329.29 122.00 336.20 99.03 337.08 C 83.65 337.32 68.27 337.08 52.90 337.22 C 52.69 317.15 53.01 297.07 52.72 276.99 C 52.65 273.16 53.24 269.36 54.05 265.62 C 56.89 269.28 57.10 274.03 58.91 278.14 C 60.12 280.83 63.24 281.75 65.96 281.85 C 71.66 282.12 77.37 281.97 83.07 281.96 C 86.16 281.86 89.95 281.72 91.82 278.83 C 93.90 275.36 93.91 271.11 95.54 267.46 C 96.97 265.91 99.36 265.80 101.03 267.03 C 104.93 268.92 109.08 273.17 113.69 270.83 C 118.47 268.07 121.75 263.45 125.80 259.81 C 128.54 256.91 132.28 254.15 132.71 249.90 C 132.59 245.30 128.72 242.03 127.37 237.83 C 127.07 236.63 127.70 235.38 128.48 234.51 C 132.28 232.66 136.84 232.76 140.39 230.35 C 142.90 228.41 143.03 224.96 143.17 222.06 C 143.26 216.68 143.30 211.30 143.14 205.93 C 143.03 203.09 142.61 199.72 139.97 198.07 C 136.47 196.00 132.21 195.97 128.53 194.35 C 127.17 192.91 126.95 190.71 128.15 189.11 C 129.99 185.25 134.04 181.34 132.26 176.73 C 130.02 172.22 125.74 169.24 122.40 165.60 C 119.31 162.71 116.64 158.99 112.55 157.48 C 107.86 156.36 104.23 160.42 100.25 162.14 C 98.78 163.12 96.88 162.51 95.63 161.46 C 93.38 157.03 94.26 150.41 89.29 147.77 C 83.40 145.90 77.07 146.99 71.00 146.69 C 66.98 146.89 61.65 146.19 59.17 150.15 C 56.98 154.33 57.11 159.45 53.98 163.20 C 53.22 159.52 52.67 155.77 52.73 152.00 C 53.00 133.71 52.68 115.40 52.92 97.10 C 91.27 97.66 129.64 97.05 167.99 97.41 C 172.18 97.25 177.34 97.96 180.36 94.36 C 185.12 88.90 188.24 82.26 192.39 76.36 M 161.57 120.56 C 158.42 122.02 156.96 125.60 157.11 128.92 C 157.12 164.97 157.11 201.03 157.12 237.08 C 156.92 240.64 158.80 244.44 162.32 245.62 C 165.78 246.51 169.41 246.05 172.94 246.14 C 238.65 245.99 304.36 246.12 370.06 246.08 C 372.46 246.04 375.10 245.73 376.89 243.95 C 379.19 242.01 379.45 238.81 379.47 236.01 C 379.42 203.01 379.44 170.00 379.46 137.00 C 379.37 133.06 379.84 129.04 378.95 125.17 C 377.97 121.79 374.48 119.71 371.06 119.83 C 304.66 119.62 238.25 120.03 171.85 119.62 C 168.43 119.74 164.81 119.20 161.57 120.56 M 263.23 254.29 C 259.66 257.08 260.21 262.03 260.24 266.04 C 229.49 265.72 198.72 266.05 167.96 265.88 C 164.26 265.67 159.99 266.60 158.26 270.28 C 155.09 275.50 160.02 282.50 165.95 281.88 C 197.38 281.96 228.81 281.92 260.24 281.90 C 260.22 285.92 259.64 290.95 263.33 293.66 C 267.64 297.42 275.30 294.83 276.23 289.14 C 276.45 286.77 276.81 284.42 277.01 282.05 C 308.02 281.72 339.05 282.02 370.07 281.92 C 372.66 281.87 375.52 281.43 377.32 279.36 C 381.01 275.60 379.56 268.28 374.44 266.60 C 369.74 265.37 364.80 266.03 360.00 265.91 C 332.34 265.86 304.67 266.03 277.01 265.83 C 276.82 263.60 276.84 261.35 276.38 259.15 C 275.60 253.26 267.67 250.32 263.23 254.29 Z" />
<path fill="#edfafe" opacity="1.00" d=" M 72.30 197.28 C 81.47 195.23 91.25 202.06 92.72 211.30 C 94.98 221.70 85.71 232.43 75.10 231.80 C 65.83 231.72 57.77 223.32 58.14 214.05 C 58.20 206.03 64.42 198.71 72.30 197.28 Z" />
</g>
<g id="#d1e5f1ff">
<path fill="#d1e5f1" opacity="1.00" d=" M 32.51 96.97 C 39.31 97.05 46.11 97.04 52.92 97.10 C 52.68 115.40 53.00 133.71 52.73 152.00 C 52.67 155.77 53.22 159.52 53.98 163.20 C 49.95 162.22 46.57 159.74 42.86 158.03 C 39.17 156.36 35.57 159.22 32.74 161.30 C 32.33 139.86 32.80 118.41 32.51 96.97 Z" />
<path fill="#d1e5f1" opacity="1.00" d=" M 43.49 270.48 C 46.96 268.75 50.19 266.47 54.05 265.62 C 53.24 269.36 52.65 273.16 52.72 276.99 C 53.01 297.07 52.69 317.15 52.90 337.22 C 46.15 337.43 39.40 337.51 32.66 337.15 C 32.62 313.99 32.38 290.81 32.78 267.66 C 35.78 269.83 39.72 272.45 43.49 270.48 Z" />
</g>
<g id="#e56863ff">
<path fill="#e56863" opacity="1.00" d=" M 161.57 120.56 C 164.81 119.20 168.43 119.74 171.85 119.62 C 169.26 122.50 166.87 125.88 167.07 129.95 C 167.06 161.29 167.11 192.65 167.07 224.00 C 167.11 228.93 166.64 233.90 167.37 238.80 C 167.79 242.07 170.73 244.04 172.94 246.14 C 169.41 246.05 165.78 246.51 162.32 245.62 C 158.80 244.44 156.92 240.64 157.12 237.08 C 157.11 201.03 157.12 164.97 157.11 128.92 C 156.96 125.60 158.42 122.02 161.57 120.56 Z" />
<path fill="#e56863" opacity="1.00" d=" M 167.77 306.78 C 167.98 300.13 172.99 294.50 179.11 292.39 C 180.55 300.19 179.78 308.13 179.89 316.01 C 179.93 362.69 179.89 409.37 179.90 456.05 C 179.71 463.27 185.22 470.12 192.22 471.64 C 198.14 472.53 204.16 472.03 210.12 471.95 C 208.78 477.10 203.89 480.70 198.91 481.90 C 193.93 482.18 188.94 481.90 183.96 482.03 C 175.96 482.80 168.52 475.91 167.68 468.12 C 167.91 442.34 168.10 416.53 167.73 390.75 C 167.40 365.84 167.71 340.92 167.55 316.01 C 167.54 312.93 167.54 309.85 167.77 306.78 Z" />
<path fill="#e56863" opacity="1.00" d=" M 7.97 358.94 C 7.77 351.71 12.25 345.14 17.92 341.01 C 18.11 360.68 17.80 380.37 18.04 400.03 C 18.41 407.58 22.59 415.06 29.38 418.61 C 34.74 421.54 41.00 421.94 46.98 421.95 C 64.06 421.86 81.13 421.90 98.21 421.91 C 98.13 426.63 98.15 431.36 98.10 436.08 C 81.39 436.39 64.68 435.96 47.97 436.24 C 41.03 436.65 34.07 436.90 27.13 436.40 C 17.45 435.10 9.14 426.75 8.02 417.04 C 7.95 397.67 8.05 378.31 7.97 358.94 Z" />
</g>
<g id="#ed736eff">
<path fill="#ed736e" opacity="1.00" d=" M 171.85 119.62 C 238.25 120.03 304.66 119.62 371.06 119.83 C 374.48 119.71 377.97 121.79 378.95 125.17 C 379.84 129.04 379.37 133.06 379.46 137.00 C 379.44 170.00 379.42 203.01 379.47 236.01 C 379.45 238.81 379.19 242.01 376.89 243.95 C 375.10 245.73 372.46 246.04 370.06 246.08 C 304.36 246.12 238.65 245.99 172.94 246.14 C 170.73 244.04 167.79 242.07 167.37 238.80 C 166.64 233.90 167.11 228.93 167.07 224.00 C 167.11 192.65 167.06 161.29 167.07 129.95 C 166.87 125.88 169.26 122.50 171.85 119.62 M 252.36 153.34 C 248.45 154.14 245.96 158.09 246.22 161.96 C 246.19 175.98 246.18 190.02 246.23 204.04 C 246.04 207.62 248.16 211.25 251.67 212.33 C 254.71 213.48 257.81 211.96 260.47 210.55 C 273.05 203.73 285.76 197.14 298.34 190.31 C 301.67 188.68 303.95 184.87 302.95 181.15 C 302.38 178.08 299.67 176.19 297.10 174.83 C 284.71 168.27 272.32 161.68 259.97 155.05 C 257.65 153.86 255.03 152.62 252.36 153.34 Z" />
<path fill="#ed736e" opacity="1.00" d=" M 179.11 292.39 C 185.05 291.64 191.07 291.69 197.03 292.09 C 204.22 292.58 210.25 298.78 211.23 305.80 C 211.53 331.78 211.35 357.78 211.28 383.76 C 210.78 411.90 211.79 440.04 211.35 468.18 C 211.18 469.42 211.00 470.67 210.84 471.93 L 210.12 471.95 C 204.16 472.03 198.14 472.53 192.22 471.64 C 185.22 470.12 179.71 463.27 179.90 456.05 C 179.89 409.37 179.93 362.69 179.89 316.01 C 179.78 308.13 180.55 300.19 179.11 292.39 Z" />
<path fill="#ed736e" opacity="1.00" d=" M 17.92 341.01 C 20.49 339.73 23.03 338.21 25.91 337.79 C 49.99 337.56 74.09 337.37 98.18 337.54 C 98.43 365.66 98.35 393.79 98.21 421.91 C 81.13 421.90 64.06 421.86 46.98 421.95 C 41.00 421.94 34.74 421.54 29.38 418.61 C 22.59 415.06 18.41 407.58 18.04 400.03 C 17.80 380.37 18.11 360.68 17.92 341.01 Z" />
</g>
<g id="#ffffffff">
<path fill="#ffffff" opacity="1.00" d=" M 252.36 153.34 C 255.03 152.62 257.65 153.86 259.97 155.05 C 272.32 161.68 284.71 168.27 297.10 174.83 C 299.67 176.19 302.38 178.08 302.95 181.15 C 303.95 184.87 301.67 188.68 298.34 190.31 C 285.76 197.14 273.05 203.73 260.47 210.55 C 257.81 211.96 254.71 213.48 251.67 212.33 C 248.16 211.25 246.04 207.62 246.23 204.04 C 246.18 190.02 246.19 175.98 246.22 161.96 C 245.96 158.09 248.45 154.14 252.36 153.34 Z" />
</g>
<g id="#4d729bff">
<path fill="#4d729b" opacity="1.00" d=" M 69.35 181.43 C 83.93 178.46 99.71 186.51 105.90 200.03 C 111.48 211.64 109.62 226.37 101.12 236.11 C 91.43 247.88 73.34 251.40 59.96 244.05 C 46.78 237.38 39.36 221.34 42.89 206.97 C 45.66 194.20 56.49 183.74 69.35 181.43 M 72.30 197.28 C 64.42 198.71 58.20 206.03 58.14 214.05 C 57.77 223.32 65.83 231.72 75.10 231.80 C 85.71 232.43 94.98 221.70 92.72 211.30 C 91.25 202.06 81.47 195.23 72.30 197.28 Z" />
<path fill="#4d729b" opacity="1.00" d=" M 61.92 446.93 C 63.70 443.79 67.84 444.09 70.95 443.89 C 79.97 443.93 88.98 444.02 98.00 443.99 C 98.10 461.35 98.01 478.71 98.05 496.08 C 98.56 500.37 94.39 504.57 90.09 504.03 C 83.41 503.99 76.73 504.03 70.06 503.97 C 67.26 488.71 64.75 473.39 61.76 458.17 C 61.24 454.49 60.27 450.46 61.92 446.93 Z" />
</g>
<g id="#6464f6ff">
<path fill="#6464f6" opacity="1.00" d=" M 263.23 254.29 C 267.67 250.32 275.60 253.26 276.38 259.15 C 276.23 269.15 276.54 279.15 276.23 289.14 C 275.30 294.83 267.64 297.42 263.33 293.66 C 259.64 290.95 260.22 285.92 260.24 281.90 C 260.40 276.61 260.40 271.33 260.24 266.04 C 260.21 262.03 259.66 257.08 263.23 254.29 Z" />
</g>
<g id="#a7a7f9ff">
<path fill="#a7a7f9" opacity="1.00" d=" M 276.38 259.15 C 276.84 261.35 276.82 263.60 277.01 265.83 C 304.67 266.03 332.34 265.86 360.00 265.91 C 364.80 266.03 369.74 265.37 374.44 266.60 C 379.56 268.28 381.01 275.60 377.32 279.36 C 375.52 281.43 372.66 281.87 370.07 281.92 C 339.05 282.02 308.02 281.72 277.01 282.05 C 276.81 284.42 276.45 286.77 276.23 289.14 C 276.54 279.15 276.23 269.15 276.38 259.15 Z" />
<path fill="#a7a7f9" opacity="1.00" d=" M 158.26 270.28 C 159.99 266.60 164.26 265.67 167.96 265.88 C 198.72 266.05 229.49 265.72 260.24 266.04 C 260.40 271.33 260.40 276.61 260.24 281.90 C 228.81 281.92 197.38 281.96 165.95 281.88 C 160.02 282.50 155.09 275.50 158.26 270.28 Z" />
</g>
<g id="#9fc86eff">
<path fill="#9fc86e" opacity="1.00" d=" M 412.97 292.01 C 417.31 289.99 422.30 290.90 426.93 290.72 C 424.07 293.79 421.88 297.62 422.10 301.96 C 422.09 356.30 422.21 410.64 422.04 464.98 C 417.70 464.99 413.36 465.01 409.02 465.00 C 409.05 455.08 408.96 445.16 409.06 435.25 C 409.26 391.15 409.18 347.05 409.10 302.95 C 409.10 299.09 409.12 294.17 412.97 292.01 Z" />
</g>
<g id="#a9d27bff">
<path fill="#a9d27b" opacity="1.00" d=" M 426.93 290.72 C 437.30 290.97 447.67 290.79 458.05 290.80 C 461.05 290.92 464.55 290.85 466.83 293.17 C 468.91 295.17 469.10 298.23 469.23 300.94 C 469.29 345.70 469.07 390.47 469.33 435.23 C 469.39 445.15 469.48 455.06 469.28 464.97 C 453.53 465.03 437.79 465.01 422.04 464.98 C 422.21 410.64 422.09 356.30 422.10 301.96 C 421.88 297.62 424.07 293.79 426.93 290.72 Z" />
</g>
<g id="#89cff7ff">
<path fill="#89cff7" opacity="1.00" d=" M 211.23 305.80 C 212.46 322.07 210.95 338.45 211.92 354.74 C 214.70 356.06 217.46 357.44 220.16 358.90 C 230.01 364.50 236.22 375.72 236.10 387.00 C 236.15 394.13 233.65 401.13 229.52 406.89 C 226.48 404.44 223.25 402.23 220.32 399.67 C 215.60 395.57 213.15 389.57 211.28 383.76 C 211.35 357.78 211.53 331.78 211.23 305.80 Z" />
<path fill="#89cff7" opacity="1.00" d=" M 164.33 317.33 C 168.24 315.36 167.12 310.37 167.77 306.78 C 167.54 309.85 167.54 312.93 167.55 316.01 C 167.71 340.92 167.40 365.84 167.73 390.75 C 165.88 396.86 163.18 402.99 158.36 407.36 C 150.21 415.05 139.05 418.30 128.29 420.24 C 118.37 422.03 108.26 422.11 98.21 421.91 C 98.35 393.79 98.43 365.66 98.18 337.54 C 74.09 337.37 49.99 337.56 25.91 337.79 C 28.11 337.21 30.39 337.02 32.66 337.15 C 39.40 337.51 46.15 337.43 52.90 337.22 C 68.27 337.08 83.65 337.32 99.03 337.08 C 122.00 336.20 144.70 329.29 164.33 317.33 Z" />
<path fill="#89cff7" opacity="1.00" d=" M 354.96 354.07 C 365.65 354.50 376.36 354.18 387.05 354.25 C 390.52 354.24 394.80 355.03 396.26 358.65 C 397.79 363.26 397.13 368.22 397.24 373.00 C 397.21 393.75 397.11 414.50 397.29 435.25 C 397.33 445.16 397.35 455.07 397.27 464.98 C 381.53 465.01 365.80 465.02 350.06 464.98 C 350.28 436.65 350.08 408.32 350.16 380.00 C 350.26 374.07 349.70 368.10 350.38 362.19 C 350.67 358.94 352.97 356.46 354.96 354.07 Z" />
</g>
<g id="#73c5eeff">
<path fill="#73c5ee" opacity="1.00" d=" M 341.25 355.26 C 345.54 353.38 350.41 354.20 354.96 354.07 C 352.97 356.46 350.67 358.94 350.38 362.19 C 349.70 368.10 350.26 374.07 350.16 380.00 C 350.08 408.32 350.28 436.65 350.06 464.98 C 345.71 464.99 341.36 465.02 337.01 465.00 C 337.03 455.08 336.97 445.16 337.04 435.25 C 337.26 411.81 337.13 388.37 337.09 364.93 C 337.05 361.36 337.69 357.04 341.25 355.26 Z" />
<path fill="#73c5ee" opacity="1.00" d=" M 211.28 383.76 C 213.15 389.57 215.60 395.57 220.32 399.67 C 223.25 402.23 226.48 404.44 229.52 406.89 C 225.23 412.96 218.45 416.30 211.86 419.24 C 211.46 424.56 211.49 429.89 211.75 435.22 C 211.55 446.20 212.33 457.25 211.35 468.18 C 211.79 440.04 210.78 411.90 211.28 383.76 Z" />
<path fill="#73c5ee" opacity="1.00" d=" M 158.36 407.36 C 163.18 402.99 165.88 396.86 167.73 390.75 C 168.10 416.53 167.91 442.34 167.68 468.12 C 167.15 465.06 167.31 461.95 167.33 458.87 C 146.84 445.35 122.55 438.03 98.09 436.95 L 98.10 436.08 C 98.15 431.36 98.13 426.63 98.21 421.91 C 108.26 422.11 118.37 422.03 128.29 420.24 C 139.05 418.30 150.21 415.05 158.36 407.36 Z" />
</g>
<g id="#f9dc4bff">
<path fill="#f9dc4b" opacity="1.00" d=" M 269.90 389.93 C 274.09 388.50 278.64 389.16 282.98 389.07 C 280.48 391.83 278.14 395.08 278.31 399.00 C 278.16 420.99 278.61 443.00 278.13 464.99 C 273.76 465.00 269.40 465.02 265.04 465.00 C 265.00 455.08 265.00 445.15 265.04 435.22 C 265.16 423.12 264.99 411.02 265.05 398.93 C 264.91 395.35 266.32 391.32 269.90 389.93 Z" />
</g>
<g id="#fbea71ff">
<path fill="#fbea71" opacity="1.00" d=" M 282.98 389.07 C 293.34 389.51 303.70 389.26 314.06 389.25 C 317.17 389.33 320.81 389.37 323.06 391.88 C 325.28 394.32 325.08 397.88 325.23 400.97 C 325.21 412.39 325.08 423.82 325.25 435.25 C 325.28 445.16 325.29 455.07 325.24 464.98 C 309.53 465.02 293.83 465.00 278.13 464.99 C 278.61 443.00 278.16 420.99 278.31 399.00 C 278.14 395.08 280.48 391.83 282.98 389.07 Z" />
</g>
<g id="#456e95ff">
<path fill="#456e95" opacity="1.00" d=" M 27.13 436.40 C 34.07 436.90 41.03 436.65 47.97 436.24 C 64.68 435.96 81.39 436.39 98.10 436.08 L 98.09 436.95 C 98.04 439.29 98.06 441.64 98.00 443.99 C 88.98 444.02 79.97 443.93 70.95 443.89 C 67.84 444.09 63.70 443.79 61.92 446.93 C 60.27 450.46 61.24 454.49 61.76 458.17 C 64.75 473.39 67.26 488.71 70.06 503.97 C 65.78 503.55 60.44 505.49 57.14 501.86 C 55.57 500.48 55.01 498.41 54.61 496.44 C 50.96 476.65 47.72 456.77 43.86 437.02 C 38.31 436.61 32.55 437.76 27.13 436.40 Z" />
</g>
</svg>
