<?xml version="1.0" encoding="UTF-8" ?>
<!DOCTYPE svg PUBLIC "-//W3C//DTD SVG 1.1//EN" "http://www.w3.org/Graphics/SVG/1.1/DTD/svg11.dtd">
<svg width="512pt" height="512pt" viewBox="0 0 512 512" version="1.1" xmlns="http://www.w3.org/2000/svg">
<g id="#f4dd76fc">
<path fill="#f4dd76" opacity="1.00" d=" M 250.03 34.07 C 250.96 27.02 263.05 25.82 264.01 32.99 C 264.00 38.30 264.03 43.62 263.99 48.94 C 263.12 50.86 261.16 53.20 258.82 53.07 C 257.62 52.98 256.42 52.97 255.22 53.03 C 246.89 51.08 250.78 40.03 250.03 34.07 Z" />
</g>
<g id="#bfa84ec7">
<path fill="#bfa84e" opacity="0.78" d=" M 264.01 32.99 C 265.22 35.24 266.50 46.96 263.99 48.94 C 264.03 43.62 264.00 38.30 264.01 32.99 Z" />
</g>
<g id="#877a428c">
<path fill="#877a42" opacity="0.55" d=" M 348.22 46.96 C 348.29 45.13 352.68 45.14 352.82 46.92 C 351.28 47.02 349.75 47.03 348.22 46.96 Z" />
</g>
<g id="#756b3c78">
<path fill="#756b3c" opacity="0.47" d=" M 159.18 47.94 C 158.95 46.17 163.05 46.17 162.82 47.94 C 161.60 48.02 160.39 48.03 159.18 47.94 Z" />
</g>
<g id="#f3db75fb">
<path fill="#f3db75" opacity="1.00" d=" M 339.94 61.19 C 342.09 56.39 342.57 48.73 348.22 46.96 C 349.75 47.03 351.28 47.02 352.82 46.92 C 361.03 48.57 357.22 59.07 354.48 64.37 C 353.56 71.67 340.93 73.56 339.92 65.82 C 340.02 64.28 340.03 62.73 339.94 61.19 Z" />
<path fill="#f3db75" opacity="1.00" d=" M 158.12 66.94 C 155.66 61.16 150.20 49.98 159.18 47.94 C 160.39 48.03 161.60 48.02 162.82 47.94 C 168.86 49.05 170.07 57.21 172.06 62.19 C 171.97 63.73 171.97 65.28 172.08 66.82 C 171.33 73.62 159.79 73.80 158.12 66.94 Z" />
</g>
<g id="#64592d68">
<path fill="#64592d" opacity="0.41" d=" M 255.22 53.03 C 256.42 52.97 257.62 52.98 258.82 53.07 C 259.06 54.85 254.91 54.83 255.22 53.03 Z" />
</g>
<g id="#92875396">
<path fill="#928753" opacity="0.59" d=" M 339.92 65.82 C 338.14 65.67 338.14 61.32 339.94 61.19 C 340.03 62.73 340.02 64.28 339.92 65.82 Z" />
</g>
<g id="#a99443b0">
<path fill="#a99443" opacity="0.69" d=" M 172.06 62.19 C 173.85 62.32 173.85 66.67 172.08 66.82 C 171.97 65.28 171.97 63.73 172.06 62.19 Z" />
</g>
<g id="#a39b75a5">
<path fill="#a39b75" opacity="0.65" d=" M 247.91 69.76 C 249.45 69.60 252.53 69.28 254.07 69.12 C 252.53 69.28 249.45 69.60 247.91 69.76 Z" />
</g>
<g id="#faeeb3fe">
<path fill="#faeeb3" opacity="1.00" d=" M 254.07 69.12 C 255.35 69.11 256.64 69.11 257.93 69.12 C 259.47 69.28 262.55 69.59 264.09 69.75 C 270.72 70.30 277.19 72.19 283.27 74.85 C 283.90 76.69 282.86 78.35 282.09 79.95 C 281.60 79.76 280.61 79.38 280.11 79.19 C 255.35 65.50 220.81 76.42 208.67 101.92 C 203.90 110.24 204.14 120.80 206.05 129.92 C 206.91 135.77 214.77 132.37 218.86 132.89 C 239.88 116.08 261.77 100.20 285.82 87.96 C 287.22 87.16 288.74 86.42 289.51 84.91 C 292.18 86.83 294.60 89.08 296.54 91.74 C 273.19 104.74 249.74 117.87 228.91 134.87 C 216.69 142.74 210.41 156.38 200.97 166.98 C 199.70 168.49 198.93 170.29 198.80 172.27 C 197.94 170.77 197.11 169.26 196.27 167.77 C 195.60 166.43 194.94 165.09 194.25 163.77 C 193.58 162.10 192.96 160.41 192.31 158.74 C 192.16 158.34 191.88 157.55 191.73 157.15 C 191.61 156.80 191.35 156.10 191.23 155.74 C 189.22 148.65 188.76 141.33 188.91 134.00 C 188.86 101.87 216.17 72.83 247.91 69.76 C 249.45 69.60 252.53 69.28 254.07 69.12 Z" />
</g>
<g id="#a39b76a6">
<path fill="#a39b76" opacity="0.65" d=" M 257.93 69.12 C 259.47 69.28 262.55 69.59 264.09 69.75 C 262.55 69.59 259.47 69.28 257.93 69.12 Z" />
</g>
<g id="#fdf6d3ff">
<path fill="#fdf6d3" opacity="1.00" d=" M 208.67 101.92 C 220.81 76.42 255.35 65.50 280.11 79.19 C 267.05 87.01 253.60 94.34 241.50 103.64 C 230.77 104.17 219.94 104.38 209.22 103.78 C 209.08 103.32 208.81 102.39 208.67 101.92 Z" />
</g>
<g id="#f3dd7efa">
<path fill="#f3dd7e" opacity="0.98" d=" M 283.27 74.85 C 291.70 78.44 299.22 84.14 305.41 90.86 C 304.18 93.62 302.39 96.13 301.65 99.09 C 301.24 98.38 300.80 97.68 300.36 96.99 C 299.20 95.17 297.91 93.42 296.54 91.74 C 294.60 89.08 292.18 86.83 289.51 84.91 C 287.20 83.02 284.70 81.38 282.09 79.95 C 282.86 78.35 283.90 76.69 283.27 74.85 Z" />
</g>
<g id="#fcf3c3ff">
<path fill="#fcf3c3" opacity="1.00" d=" M 280.11 79.19 C 280.61 79.38 281.60 79.76 282.09 79.95 C 284.70 81.38 287.20 83.02 289.51 84.91 C 288.74 86.42 287.22 87.16 285.82 87.96 C 261.77 100.20 239.88 116.08 218.86 132.89 C 214.77 132.37 206.91 135.77 206.05 129.92 C 204.14 120.80 203.90 110.24 208.67 101.92 C 208.81 102.39 209.08 103.32 209.22 103.78 C 219.94 104.38 230.77 104.17 241.50 103.64 C 253.60 94.34 267.05 87.01 280.11 79.19 Z" />
</g>
<g id="#eec05cff">
<path fill="#eec05c" opacity="1.00" d=" M 305.41 90.86 C 307.53 93.09 309.62 95.38 311.34 97.94 C 308.40 104.43 304.30 110.30 306.99 117.84 C 299.56 124.78 292.37 131.99 285.29 139.29 C 270.28 160.48 260.76 186.40 239.61 202.64 C 233.32 205.52 226.04 204.66 219.67 207.16 C 218.76 204.77 217.71 202.43 216.59 200.13 C 216.87 199.52 217.42 198.31 217.69 197.71 C 226.56 195.56 235.56 193.88 244.32 191.31 C 251.60 188.15 254.63 180.04 258.95 174.00 C 265.32 163.35 271.75 152.75 278.09 142.10 C 283.16 134.60 290.19 128.59 294.85 120.77 C 298.12 116.14 306.17 113.70 304.86 106.93 C 304.39 105.22 303.71 103.58 302.98 101.97 C 302.55 101.00 302.10 100.04 301.65 99.09 C 302.39 96.13 304.18 93.62 305.41 90.86 Z" />
</g>
<g id="#faeba3ff">
<path fill="#faeba3" opacity="1.00" d=" M 296.54 91.74 C 297.91 93.42 299.20 95.17 300.36 96.99 C 299.37 100.34 295.58 101.26 292.98 102.94 C 271.52 114.05 250.96 126.98 231.90 141.84 C 222.48 154.20 212.93 166.48 203.82 179.07 C 203.32 178.43 202.83 177.79 202.33 177.17 C 201.30 175.82 200.28 174.47 199.26 173.11 L 198.80 172.27 C 198.93 170.29 199.70 168.49 200.97 166.98 C 210.41 156.38 216.69 142.74 228.91 134.87 C 249.74 117.87 273.19 104.74 296.54 91.74 Z" />
</g>
<g id="#f9e692ff">
<path fill="#f9e692" opacity="1.00" d=" M 300.36 96.99 C 300.80 97.68 301.24 98.38 301.65 99.09 C 302.10 100.04 302.55 101.00 302.98 101.97 C 285.77 119.31 261.89 127.62 243.43 143.43 C 234.09 156.05 224.31 168.33 215.08 181.03 C 213.56 183.37 210.97 184.56 208.71 186.03 C 207.62 184.38 206.51 182.74 205.33 181.16 C 204.95 180.63 204.19 179.59 203.82 179.07 C 212.93 166.48 222.48 154.20 231.90 141.84 C 250.96 126.98 271.52 114.05 292.98 102.94 C 295.58 101.26 299.37 100.34 300.36 96.99 Z" />
</g>
<g id="#e39d48ff">
<path fill="#e39d48" opacity="1.00" d=" M 311.34 97.94 C 313.24 100.77 314.86 103.78 316.41 106.82 C 313.87 114.93 307.41 121.37 306.12 129.96 C 291.95 140.68 285.17 157.43 276.29 172.24 C 269.61 183.69 260.95 195.60 262.60 209.63 C 269.64 215.86 279.40 215.94 288.18 217.66 C 271.80 218.42 255.40 217.81 239.01 218.02 C 239.50 216.49 239.90 214.93 240.45 213.42 C 253.54 204.14 259.83 188.56 268.60 175.64 C 279.55 157.95 288.40 138.36 304.78 124.80 C 307.17 123.23 307.19 120.40 306.99 117.84 C 304.30 110.30 308.40 104.43 311.34 97.94 Z" />
</g>
<g id="#f7e182ff">
<path fill="#f7e182" opacity="1.00" d=" M 243.43 143.43 C 261.89 127.62 285.77 119.31 302.98 101.97 C 303.71 103.58 304.39 105.22 304.86 106.93 C 293.00 114.57 284.86 126.92 271.83 132.77 C 251.13 143.36 241.59 165.98 226.83 182.84 C 222.64 186.83 214.84 186.35 211.70 190.99 C 211.11 190.02 210.52 189.05 209.93 188.09 C 209.62 187.58 209.02 186.54 208.71 186.03 C 210.97 184.56 213.56 183.37 215.08 181.03 C 224.31 168.33 234.09 156.05 243.43 143.43 Z" />
</g>
<g id="#f6da72ff">
<path fill="#f6da72" opacity="1.00" d=" M 271.83 132.77 C 284.86 126.92 293.00 114.57 304.86 106.93 C 306.17 113.70 298.12 116.14 294.85 120.77 C 274.24 136.42 259.48 157.70 244.14 178.21 C 238.46 189.61 221.87 187.78 214.59 196.12 C 213.68 194.38 212.70 192.67 211.70 190.99 C 214.84 186.35 222.64 186.83 226.83 182.84 C 241.59 165.98 251.13 143.36 271.83 132.77 Z" />
</g>
<g id="#d2803bff">
<path fill="#d2803b" opacity="1.00" d=" M 316.41 106.82 C 317.93 109.74 319.26 112.75 320.35 115.86 C 308.44 138.72 293.82 160.09 282.03 183.00 C 278.09 191.78 285.22 202.56 294.17 203.41 C 292.91 206.17 291.78 208.99 290.89 211.89 C 284.29 207.77 274.20 206.67 272.37 197.64 C 272.00 187.93 276.98 179.10 282.23 171.27 C 289.16 160.14 294.22 147.77 302.78 137.73 C 304.62 135.51 305.40 132.70 306.12 129.96 C 307.41 121.37 313.87 114.93 316.41 106.82 Z" />
</g>
<g id="#c66e34fe">
<path fill="#c66e34" opacity="1.00" d=" M 320.35 115.86 C 321.33 118.71 321.93 121.69 322.40 124.67 C 311.74 144.65 299.85 164.03 289.17 183.98 C 290.55 188.91 292.65 193.91 296.82 197.14 C 295.91 199.22 295.09 201.34 294.17 203.41 C 285.22 202.56 278.09 191.78 282.03 183.00 C 293.82 160.09 308.44 138.72 320.35 115.86 Z" />
</g>
<g id="#ebaf50ff">
<path fill="#ebaf50" opacity="1.00" d=" M 285.29 139.29 C 292.37 131.99 299.56 124.78 306.99 117.84 C 307.19 120.40 307.17 123.23 304.78 124.80 C 288.40 138.36 279.55 157.95 268.60 175.64 C 259.83 188.56 253.54 204.14 240.45 213.42 C 239.90 214.93 239.50 216.49 239.01 218.02 C 233.70 218.03 228.41 218.09 223.11 217.93 C 221.94 214.34 220.71 210.78 219.67 207.16 C 226.04 204.66 233.32 205.52 239.61 202.64 C 260.76 186.40 270.28 160.48 285.29 139.29 Z" />
</g>
<g id="#f4d363ff">
<path fill="#f4d363" opacity="1.00" d=" M 244.14 178.21 C 259.48 157.70 274.24 136.42 294.85 120.77 C 290.19 128.59 283.16 134.60 278.09 142.10 C 271.75 152.75 265.32 163.35 258.95 174.00 C 254.63 180.04 251.60 188.15 244.32 191.31 C 235.56 193.88 226.56 195.56 217.69 197.71 C 217.42 198.31 216.87 199.52 216.59 200.13 C 215.92 198.79 215.24 197.46 214.59 196.12 C 221.87 187.78 238.46 189.61 244.14 178.21 Z" />
</g>
<g id="#ba5b2fff">
<path fill="#ba5b2f" opacity="1.00" d=" M 322.40 124.67 C 322.74 126.41 323.00 128.15 323.26 129.90 C 322.68 131.28 322.40 133.28 324.05 134.06 C 323.94 135.72 323.66 137.36 323.01 138.90 C 313.97 152.89 306.84 167.98 298.15 182.19 C 296.19 184.87 299.12 187.82 301.16 189.47 C 299.91 192.13 298.32 194.61 296.82 197.14 C 292.65 193.91 290.55 188.91 289.17 183.98 C 299.85 164.03 311.74 144.65 322.40 124.67 Z" />
</g>
<g id="#dd8e41ff">
<path fill="#dd8e41" opacity="1.00" d=" M 276.29 172.24 C 285.17 157.43 291.95 140.68 306.12 129.96 C 305.40 132.70 304.62 135.51 302.78 137.73 C 294.22 147.77 289.16 160.14 282.23 171.27 C 276.98 179.10 272.00 187.93 272.37 197.64 C 274.20 206.67 284.29 207.77 290.89 211.89 C 289.97 213.67 290.07 216.92 288.18 217.66 C 279.40 215.94 269.64 215.86 262.60 209.63 C 260.95 195.60 269.61 183.69 276.29 172.24 Z" />
</g>
<g id="#4b2e135d">
<path fill="#4b2e13" opacity="0.36" d=" M 323.26 129.90 C 324.31 131.03 324.48 132.63 324.05 134.06 C 322.40 133.28 322.68 131.28 323.26 129.90 Z" />
</g>
<g id="#595959ff">
<path fill="#595959" opacity="1.00" d=" M 60.17 137.23 C 70.00 131.98 81.39 134.49 92.00 134.01 C 92.00 141.33 92.00 148.65 92.00 155.97 C 86.92 156.31 81.62 155.11 76.68 156.68 C 70.56 157.86 65.62 162.42 64.75 168.73 C 62.97 246.74 64.54 324.93 63.98 403.00 C 57.65 402.99 51.34 403.00 45.02 403.00 C 44.80 321.58 45.37 240.16 44.74 158.75 C 45.92 149.58 51.69 141.16 60.17 137.23 Z" />
</g>
<g id="#555555ff">
<path fill="#555555" opacity="1.00" d=" M 92.00 134.01 C 124.30 133.97 156.61 134.01 188.91 134.00 C 188.76 141.33 189.22 148.65 191.23 155.74 C 158.15 156.30 125.07 155.89 92.00 155.97 C 92.00 148.65 92.00 141.33 92.00 134.01 Z" />
</g>
<g id="#312f2fff">
<path fill="#312f2f" opacity="1.00" d=" M 324.05 134.06 C 328.72 133.97 333.39 134.00 338.08 134.02 C 336.39 141.44 333.13 148.42 331.87 155.94 C 328.24 155.96 324.64 155.99 321.02 155.96 C 322.48 150.37 323.00 144.66 323.01 138.90 C 323.66 137.36 323.94 135.72 324.05 134.06 Z" />
</g>
<g id="#474647ff">
<path fill="#474647" opacity="1.00" d=" M 338.08 134.02 C 374.08 134.59 410.24 132.78 446.15 134.92 C 447.78 145.25 446.83 155.76 446.93 166.17 C 446.35 165.39 445.77 164.61 445.20 163.83 C 442.59 158.22 435.79 155.96 429.99 156.06 C 398.92 156.02 367.84 155.79 336.78 156.20 C 335.14 156.10 333.50 156.01 331.87 155.94 C 333.13 148.42 336.39 141.44 338.08 134.02 Z" />
</g>
<g id="#3e3c3eff">
<path fill="#3e3c3e" opacity="1.00" d=" M 446.15 134.92 C 449.33 135.69 452.44 136.93 455.03 138.98 C 455.21 225.21 454.52 311.50 455.37 397.69 C 459.65 403.62 454.44 410.53 448.03 410.15 C 447.45 329.70 449.04 249.15 447.24 168.77 C 447.16 168.12 447.01 166.82 446.93 166.17 C 446.83 155.76 447.78 145.25 446.15 134.92 Z" />
</g>
<g id="#ac4b30ff">
<path fill="#ac4b30" opacity="1.00" d=" M 298.15 182.19 C 306.84 167.98 313.97 152.89 323.01 138.90 C 323.00 144.66 322.48 150.37 321.02 155.96 C 317.19 167.73 309.73 177.65 302.76 187.69 C 302.36 188.14 301.56 189.02 301.16 189.47 C 299.12 187.82 296.19 184.87 298.15 182.19 Z" />
</g>
<g id="#353435ff">
<path fill="#353435" opacity="1.00" d=" M 455.03 138.98 C 456.56 140.09 457.93 141.39 459.24 142.75 C 458.77 227.12 458.98 311.52 459.13 395.89 C 461.00 400.91 465.97 411.05 458.11 412.13 C 454.77 412.94 451.38 413.43 448.02 414.08 C 448.00 412.77 448.00 411.45 448.03 410.15 C 454.44 410.53 459.65 403.62 455.37 397.69 C 454.52 311.50 455.21 225.21 455.03 138.98 Z" />
</g>
<g id="#2c2a2cff">
<path fill="#2c2a2c" opacity="1.00" d=" M 459.24 142.75 C 461.05 144.49 462.76 146.36 464.01 148.55 C 461.64 225.23 463.70 302.21 462.98 379.00 C 463.50 387.01 460.77 396.67 466.73 403.33 C 467.09 404.29 467.46 405.26 467.84 406.24 C 467.92 408.78 467.98 411.34 468.01 413.91 C 462.73 418.10 454.37 415.92 448.01 417.05 C 448.01 416.31 448.02 414.83 448.02 414.08 C 451.38 413.43 454.77 412.94 458.11 412.13 C 465.97 411.05 461.00 400.91 459.13 395.89 C 458.98 311.52 458.77 227.12 459.24 142.75 Z" />
</g>
<g id="#1e1e1eff">
<path fill="#1e1e1e" opacity="1.00" d=" M 462.98 379.00 C 463.70 302.21 461.64 225.23 464.01 148.55 C 465.90 151.26 466.78 154.49 467.40 157.69 C 466.28 239.55 467.64 321.46 466.73 403.33 C 460.77 396.67 463.50 387.01 462.98 379.00 Z" />
</g>
<g id="#586eaaff">
<path fill="#586eaa" opacity="1.00" d=" M 76.68 156.68 C 81.62 155.11 86.92 156.31 92.00 155.97 C 125.07 155.89 158.15 156.30 191.23 155.74 C 191.35 156.10 191.61 156.80 191.73 157.15 C 153.39 156.57 115.02 157.55 76.68 156.68 Z" />
</g>
<g id="#354aafff">
<path fill="#354aaf" opacity="1.00" d=" M 321.02 155.96 C 324.64 155.99 328.24 155.96 331.87 155.94 C 333.50 156.01 335.14 156.10 336.78 156.20 C 342.53 157.16 348.37 156.83 354.18 157.08 C 338.20 162.15 323.65 172.77 312.84 185.89 C 309.47 186.47 306.09 186.97 302.76 187.69 C 309.73 177.65 317.19 167.73 321.02 155.96 Z" />
</g>
<g id="#3d5ab9ff">
<path fill="#3d5ab9" opacity="1.00" d=" M 336.78 156.20 C 367.84 155.79 398.92 156.02 429.99 156.06 C 435.79 155.96 442.59 158.22 445.20 163.83 C 417.55 164.44 389.73 163.85 362.22 162.26 C 348.04 166.81 333.78 173.70 323.70 184.83 C 320.09 185.22 316.45 185.58 312.84 185.89 C 323.65 172.77 338.20 162.15 354.18 157.08 C 348.37 156.83 342.53 157.16 336.78 156.20 Z" />
</g>
<g id="#415ab9ff">
<path fill="#415ab9" opacity="1.00" d=" M 64.75 168.73 C 65.62 162.42 70.56 157.86 76.68 156.68 C 115.02 157.55 153.39 156.57 191.73 157.15 C 191.88 157.55 192.16 158.34 192.31 158.74 C 161.25 159.45 130.16 158.62 99.12 159.13 C 89.44 163.20 78.33 167.23 73.12 177.12 C 70.18 182.69 67.68 188.47 65.17 194.24 C 64.98 185.73 65.15 177.23 64.75 168.73 Z" />
</g>
<g id="#212121ea">
<path fill="#212121" opacity="0.92" d=" M 467.40 157.69 C 468.70 240.46 467.81 323.41 467.84 406.24 C 467.46 405.26 467.09 404.29 466.73 403.33 C 467.64 321.46 466.28 239.55 467.40 157.69 Z" />
</g>
<g id="#404040b9">
<path fill="#404040" opacity="0.73" d=" M 44.01 412.01 C 44.48 327.60 43.02 243.09 44.74 158.75 C 45.37 240.16 44.80 321.58 45.02 403.00 C 44.99 405.96 45.00 408.99 45.00 411.99 L 44.01 412.01 Z" />
</g>
<g id="#4a67c2ff">
<path fill="#4a67c2" opacity="1.00" d=" M 73.12 177.12 C 78.33 167.23 89.44 163.20 99.12 159.13 C 130.16 158.62 161.25 159.45 192.31 158.74 C 192.96 160.41 193.58 162.10 194.25 163.77 C 163.17 164.36 132.06 163.73 100.98 164.07 C 81.61 169.90 69.25 189.68 67.08 209.01 C 67.34 265.63 65.95 322.33 68.17 378.88 C 71.73 396.76 81.54 413.97 97.10 423.92 C 103.28 425.40 110.38 426.04 116.51 424.10 C 119.15 426.62 121.76 429.20 124.21 431.93 C 114.23 431.92 104.26 432.22 94.29 431.87 C 83.11 425.33 73.23 416.00 69.82 403.15 C 68.29 399.01 66.72 394.88 65.17 390.76 C 64.89 325.25 64.89 259.74 65.17 194.24 C 67.68 188.47 70.18 182.69 73.12 177.12 Z" />
</g>
<g id="#4265c5ff">
<path fill="#4265c5" opacity="1.00" d=" M 362.22 162.26 C 389.73 163.85 417.55 164.44 445.20 163.83 C 445.77 164.61 446.35 165.39 446.93 166.17 C 447.01 166.82 447.16 168.12 447.24 168.77 C 447.15 170.52 447.05 172.27 446.97 174.03 C 417.72 172.04 388.38 170.46 359.14 169.16 C 349.08 172.25 339.53 178.09 331.68 184.89 C 330.15 184.95 328.62 184.98 327.10 185.00 C 326.25 184.95 324.55 184.87 323.70 184.83 C 333.78 173.70 348.04 166.81 362.22 162.26 Z" />
</g>
<g id="#5270c8ff">
<path fill="#5270c8" opacity="1.00" d=" M 67.08 209.01 C 69.25 189.68 81.61 169.90 100.98 164.07 C 132.06 163.73 163.17 164.36 194.25 163.77 C 194.94 165.09 195.60 166.43 196.27 167.77 C 164.86 168.46 133.41 167.54 102.03 168.19 C 85.47 174.53 75.36 190.96 70.31 207.20 C 70.02 260.12 68.84 313.15 72.00 366.00 C 69.75 382.28 78.85 397.18 89.04 408.95 C 94.83 413.56 100.87 423.00 109.44 417.03 C 111.84 419.33 114.21 421.69 116.51 424.10 C 110.38 426.04 103.28 425.40 97.10 423.92 C 81.54 413.97 71.73 396.76 68.17 378.88 C 65.95 322.33 67.34 265.63 67.08 209.01 Z" />
</g>
<g id="#5a7bcdff">
<path fill="#5a7bcd" opacity="1.00" d=" M 102.03 168.19 C 133.41 167.54 164.86 168.46 196.27 167.77 C 197.11 169.26 197.94 170.77 198.80 172.27 L 199.26 173.11 C 166.11 175.43 132.69 172.90 99.47 174.37 C 85.19 184.09 72.04 200.50 74.96 219.00 C 76.22 272.30 72.52 325.81 77.03 378.98 C 81.56 392.07 89.81 404.66 101.92 411.93 C 102.03 411.43 102.25 410.43 102.35 409.93 C 104.73 412.27 107.12 414.62 109.44 417.03 C 100.87 423.00 94.83 413.56 89.04 408.95 C 78.85 397.18 69.75 382.28 72.00 366.00 C 68.84 313.15 70.02 260.12 70.31 207.20 C 75.36 190.96 85.47 174.53 102.03 168.19 Z" />
</g>
<g id="#5c6b90ff">
<path fill="#5c6b90" opacity="1.00" d=" M 63.98 403.00 C 64.54 324.93 62.97 246.74 64.75 168.73 C 65.15 177.23 64.98 185.73 65.17 194.24 C 64.89 259.74 64.89 325.25 65.17 390.76 C 65.08 396.16 65.01 401.60 64.99 407.02 L 64.02 406.98 C 64.00 405.65 63.99 404.32 63.98 403.00 Z" />
</g>
<g id="#4871cfff">
<path fill="#4871cf" opacity="1.00" d=" M 331.68 184.89 C 339.53 178.09 349.08 172.25 359.14 169.16 C 388.38 170.46 417.72 172.04 446.97 174.03 C 446.94 176.98 447.01 179.97 447.00 182.94 C 418.39 181.00 389.83 177.51 361.12 176.77 C 353.18 175.20 345.64 180.12 339.73 184.89 C 337.04 184.91 334.36 184.91 331.68 184.89 Z" />
</g>
<g id="#3f5280ff">
<path fill="#3f5280" opacity="1.00" d=" M 447.24 168.77 C 449.04 249.15 447.45 329.70 448.03 410.15 C 448.00 411.45 448.00 412.77 448.02 414.08 C 448.02 414.83 448.01 416.31 448.01 417.05 C 447.96 422.35 448.00 427.68 448.00 432.98 C 398.37 433.05 348.76 432.93 299.14 433.04 C 270.39 432.96 241.65 433.02 212.91 433.00 C 163.27 432.99 113.63 433.02 63.99 432.99 C 63.99 427.64 64.04 422.33 63.99 417.00 C 64.00 415.33 64.00 413.66 63.98 412.00 C 64.00 410.32 64.00 408.65 64.02 406.98 L 64.99 407.02 C 65.20 415.32 64.63 423.64 65.12 431.94 C 74.84 432.09 84.57 432.11 94.29 431.87 C 104.26 432.22 114.23 431.92 124.21 431.93 C 150.23 431.96 176.26 432.24 202.27 431.77 C 227.60 432.15 252.93 432.13 278.26 431.83 C 334.48 432.14 390.72 432.04 446.94 431.90 C 447.04 427.25 447.06 422.63 446.99 417.99 C 446.98 412.64 447.04 407.33 446.98 401.99 C 446.99 396.98 447.04 391.99 446.99 386.99 C 446.99 363.61 447.05 340.22 446.96 316.84 C 447.04 307.83 447.01 298.83 446.95 289.82 C 447.03 279.83 447.02 269.84 447.03 259.85 C 447.01 253.61 447.05 247.37 446.95 241.13 C 446.99 227.44 447.06 213.75 446.98 200.07 C 446.99 197.38 446.99 194.69 446.99 192.01 C 446.97 188.97 447.04 185.97 447.00 182.94 C 447.01 179.97 446.94 176.98 446.97 174.03 C 447.05 172.27 447.15 170.52 447.24 168.77 Z" />
</g>
<g id="#6386d3ff">
<path fill="#6386d3" opacity="1.00" d=" M 199.26 173.11 C 200.28 174.47 201.30 175.82 202.33 177.17 C 168.41 179.32 134.22 177.03 100.28 178.29 C 90.62 185.38 82.42 195.03 78.38 206.41 C 78.25 264.15 75.97 322.10 81.38 379.67 C 83.86 386.98 89.31 392.92 93.67 399.23 C 93.93 399.74 94.44 400.76 94.70 401.27 C 95.40 402.86 96.61 404.15 97.85 405.35 C 99.36 406.87 100.88 408.37 102.35 409.93 C 102.25 410.43 102.03 411.43 101.92 411.93 C 89.81 404.66 81.56 392.07 77.03 378.98 C 72.52 325.81 76.22 272.30 74.96 219.00 C 72.04 200.50 85.19 184.09 99.47 174.37 C 132.69 172.90 166.11 175.43 199.26 173.11 Z" />
</g>
<g id="#4e7cd9ff">
<path fill="#4e7cd9" opacity="1.00" d=" M 339.73 184.89 C 345.64 180.12 353.18 175.20 361.12 176.77 C 389.83 177.51 418.39 181.00 447.00 182.94 C 447.04 185.97 446.97 188.97 446.99 192.01 C 416.58 190.21 386.31 186.57 355.97 183.95 C 353.20 183.24 350.36 183.21 347.95 184.96 C 345.20 184.96 342.46 184.93 339.73 184.89 Z" />
</g>
<g id="#6a8ed7ff">
<path fill="#6a8ed7" opacity="1.00" d=" M 202.33 177.17 C 202.83 177.79 203.32 178.43 203.82 179.07 C 204.19 179.59 204.95 180.63 205.33 181.16 C 171.02 183.25 136.49 181.20 102.13 182.15 C 92.66 187.58 85.89 196.69 81.53 206.54 C 80.54 264.14 79.59 322.15 85.62 379.45 C 88.36 383.17 89.44 389.56 94.06 391.00 L 95.07 391.16 C 94.75 393.87 94.15 396.54 93.67 399.23 C 89.31 392.92 83.86 386.98 81.38 379.67 C 75.97 322.10 78.25 264.15 78.38 206.41 C 82.42 195.03 90.62 185.38 100.28 178.29 C 134.22 177.03 168.41 179.32 202.33 177.17 Z" />
</g>
<g id="#7298ddff">
<path fill="#7298dd" opacity="1.00" d=" M 205.33 181.16 C 206.51 182.74 207.62 184.38 208.71 186.03 C 209.02 186.54 209.62 187.58 209.93 188.09 C 190.25 184.55 170.02 183.71 150.28 187.28 C 134.22 186.90 118.14 186.82 102.09 187.10 C 94.26 190.98 89.77 199.17 85.40 206.41 C 84.68 258.94 83.92 311.58 88.07 364.00 C 89.41 371.05 87.64 380.24 93.91 385.25 C 93.97 387.16 94.01 389.07 94.06 391.00 C 89.44 389.56 88.36 383.17 85.62 379.45 C 79.59 322.15 80.54 264.14 81.53 206.54 C 85.89 196.69 92.66 187.58 102.13 182.15 C 136.49 181.20 171.02 183.25 205.33 181.16 Z" />
</g>
<g id="#5387e4ff">
<path fill="#5387e4" opacity="1.00" d=" M 347.95 184.96 C 350.36 183.21 353.20 183.24 355.97 183.95 C 386.31 186.57 416.58 190.21 446.99 192.01 C 446.99 194.69 446.99 197.38 446.98 200.07 C 430.97 198.25 414.80 198.79 398.79 197.10 C 398.39 197.04 397.59 196.92 397.18 196.85 C 396.15 196.54 395.12 196.23 394.09 195.91 C 392.16 195.05 390.22 194.23 388.19 193.68 C 386.89 193.26 385.56 192.96 384.24 192.64 C 382.22 191.93 380.18 191.29 378.11 190.77 C 376.47 190.29 374.82 189.87 373.16 189.49 C 371.85 189.17 370.53 188.90 369.22 188.67 C 365.21 187.96 361.21 187.19 357.19 186.62 C 354.09 186.24 351.04 186.01 347.94 185.88 L 347.95 184.96 Z" />
</g>
<g id="#f5fbffff">
<path fill="#f5fbff" opacity="1.00" d=" M 150.28 187.28 C 170.02 183.71 190.25 184.55 209.93 188.09 C 210.52 189.05 211.11 190.02 211.70 190.99 C 212.70 192.67 213.68 194.38 214.59 196.12 C 215.24 197.46 215.92 198.79 216.59 200.13 C 217.71 202.43 218.76 204.77 219.67 207.16 C 220.71 210.78 221.94 214.34 223.11 217.93 C 218.64 217.65 213.34 217.40 210.00 220.97 C 209.07 222.16 208.32 223.48 207.82 224.90 C 207.07 226.55 206.60 228.49 207.53 230.19 C 207.77 230.64 208.26 231.53 208.50 231.98 C 208.85 232.53 209.55 233.64 209.89 234.19 C 209.02 237.75 205.65 241.48 207.59 245.23 C 207.84 245.64 208.34 246.46 208.58 246.86 C 208.96 247.40 209.71 248.47 210.08 249.01 C 209.24 252.34 206.04 255.63 207.52 259.21 C 207.89 260.59 208.39 261.99 209.47 262.98 C 211.24 265.50 214.18 266.45 217.04 267.10 C 216.78 271.36 216.46 275.62 215.78 279.84 C 177.65 298.15 139.48 316.46 101.06 334.19 C 100.29 291.98 102.31 249.62 100.04 207.51 C 104.19 196.47 119.62 197.72 128.25 192.21 C 135.52 190.25 142.95 188.99 150.28 187.28 Z" />
</g>
<g id="#8dc1f9ff">
<path fill="#8dc1f9" opacity="1.00" d=" M 312.84 185.89 C 316.45 185.58 320.09 185.22 323.70 184.83 C 324.55 184.87 326.25 184.95 327.10 185.00 C 319.08 197.26 309.80 208.77 302.87 221.70 C 271.97 220.06 240.94 221.48 210.00 220.97 C 213.34 217.40 218.64 217.65 223.11 217.93 C 228.41 218.09 233.70 218.03 239.01 218.02 C 255.40 217.81 271.80 218.42 288.18 217.66 C 290.07 216.92 289.97 213.67 290.89 211.89 C 291.78 208.99 292.91 206.17 294.17 203.41 C 295.09 201.34 295.91 199.22 296.82 197.14 C 298.32 194.61 299.91 192.13 301.16 189.47 C 301.56 189.02 302.36 188.14 302.76 187.69 C 306.09 186.97 309.47 186.47 312.84 185.89 Z" />
</g>
<g id="#a2cefaff">
<path fill="#a2cefa" opacity="1.00" d=" M 327.10 185.00 C 328.62 184.98 330.15 184.95 331.68 184.89 C 334.36 184.91 337.04 184.91 339.73 184.89 C 342.46 184.93 345.20 184.96 347.95 184.96 L 347.94 185.88 C 346.48 185.95 343.56 186.07 342.10 186.14 C 328.65 204.00 316.81 224.33 305.29 244.04 C 304.77 240.75 303.51 237.63 301.12 235.27 C 302.01 234.26 302.87 233.20 303.55 232.03 C 303.78 231.57 304.25 230.64 304.48 230.18 C 305.38 228.46 304.87 226.57 304.14 224.92 C 303.73 223.83 303.31 222.76 302.87 221.70 C 309.80 208.77 319.08 197.26 327.10 185.00 Z" />
</g>
<g id="#b4d9fbff">
<path fill="#b4d9fb" opacity="1.00" d=" M 305.29 244.04 C 316.81 224.33 328.65 204.00 342.10 186.14 C 343.56 186.07 346.48 185.95 347.94 185.88 C 351.04 186.01 354.09 186.24 357.19 186.62 C 356.47 186.80 355.03 187.16 354.31 187.34 C 334.25 214.58 320.44 245.32 303.38 274.36 C 300.52 281.99 295.54 288.12 292.67 295.77 C 285.69 306.32 282.19 318.67 275.25 329.24 C 271.68 325.45 267.45 322.33 263.98 318.44 C 272.61 307.81 278.19 294.17 284.93 281.95 C 289.02 278.12 290.31 272.54 290.10 267.07 C 294.48 267.25 299.73 266.95 302.50 263.00 C 303.29 262.18 304.01 261.28 304.44 260.22 C 305.78 256.05 303.19 252.66 301.81 249.04 C 302.19 248.50 302.96 247.41 303.35 246.87 C 303.63 246.47 304.18 245.67 304.46 245.26 C 304.67 244.96 305.08 244.34 305.29 244.04 Z" />
</g>
<g id="#7aa3e4ff">
<path fill="#7aa3e4" opacity="1.00" d=" M 85.40 206.41 C 89.77 199.17 94.26 190.98 102.09 187.10 C 118.14 186.82 134.22 186.90 150.28 187.28 C 142.95 188.99 135.52 190.25 128.25 192.21 C 119.29 192.19 110.24 191.46 101.33 192.30 C 95.86 196.16 92.04 202.22 89.11 208.11 C 89.82 257.48 86.02 307.35 93.76 356.29 C 94.13 365.93 94.06 375.59 93.91 385.25 C 87.64 380.24 89.41 371.05 88.07 364.00 C 83.92 311.58 84.68 258.94 85.40 206.41 Z" />
</g>
<g id="#c2e1fbff">
<path fill="#c2e1fb" opacity="1.00" d=" M 354.31 187.34 C 355.03 187.16 356.47 186.80 357.19 186.62 C 361.21 187.19 365.21 187.96 369.22 188.67 C 367.84 188.78 366.49 188.96 365.15 189.23 C 355.82 201.46 348.72 215.20 342.12 228.95 C 336.38 235.93 335.02 245.13 329.44 252.17 C 316.07 279.29 302.84 306.55 290.28 334.07 C 287.94 336.11 291.35 340.75 287.27 340.66 C 282.90 337.26 278.61 333.66 275.25 329.24 C 282.19 318.67 285.69 306.32 292.67 295.77 C 295.54 288.12 300.52 281.99 303.38 274.36 C 320.44 245.32 334.25 214.58 354.31 187.34 Z" />
</g>
<g id="#cfebfbff">
<path fill="#cfebfb" opacity="1.00" d=" M 365.15 189.23 C 366.49 188.96 367.84 188.78 369.22 188.67 C 370.53 188.90 371.85 189.17 373.16 189.49 C 367.61 192.81 366.67 200.02 363.56 205.25 C 354.28 221.04 347.91 238.28 339.35 254.44 C 328.91 275.13 319.59 296.32 311.99 318.13 C 332.92 308.38 353.79 298.36 374.73 288.62 C 378.70 262.83 380.41 236.79 382.52 210.79 C 381.82 204.01 380.31 197.25 378.11 190.77 C 380.18 191.29 382.22 191.93 384.24 192.64 C 387.49 229.70 379.68 266.88 376.80 303.87 C 375.60 307.14 376.51 312.19 372.90 313.92 C 333.92 332.25 295.19 351.16 256.04 369.13 C 256.00 349.73 255.91 330.33 256.11 310.93 C 258.76 313.39 261.40 315.89 263.98 318.44 C 267.45 322.33 271.68 325.45 275.25 329.24 C 278.61 333.66 282.90 337.26 287.27 340.66 C 291.35 340.75 287.94 336.11 290.28 334.07 C 302.84 306.55 316.07 279.29 329.44 252.17 C 335.02 245.13 336.38 235.93 342.12 228.95 C 348.72 215.20 355.82 201.46 365.15 189.23 Z" />
</g>
<g id="#d8eefcff">
<path fill="#d8eefc" opacity="1.00" d=" M 363.56 205.25 C 366.67 200.02 367.61 192.81 373.16 189.49 C 374.82 189.87 376.47 190.29 378.11 190.77 C 380.31 197.25 381.82 204.01 382.52 210.79 C 380.41 236.79 378.70 262.83 374.73 288.62 C 353.79 298.36 332.92 308.38 311.99 318.13 C 319.59 296.32 328.91 275.13 339.35 254.44 C 347.91 238.28 354.28 221.04 363.56 205.25 M 374.30 199.10 C 368.78 213.34 362.10 222.83 356.75 237.72 C 351.69 241.10 352.24 248.54 347.60 253.24 C 345.06 262.82 340.07 271.33 337.01 280.16 C 349.70 274.67 361.93 268.06 374.67 262.63 C 378.20 247.06 379.03 230.69 379.49 214.78 C 377.38 209.94 378.76 201.47 374.30 199.10 Z" />
</g>
<g id="#85afebff">
<path fill="#85afeb" opacity="1.00" d=" M 101.33 192.30 C 110.24 191.46 119.29 192.19 128.25 192.21 C 119.62 197.72 104.19 196.47 100.04 207.51 C 99.78 207.73 99.26 208.18 98.99 208.40 C 97.33 209.52 95.04 210.50 94.74 212.75 C 92.84 260.51 94.83 308.47 93.76 356.29 C 86.02 307.35 89.82 257.48 89.11 208.11 C 92.04 202.22 95.86 196.16 101.33 192.30 Z" />
</g>
<g id="#c6e8faff">
<path fill="#c6e8fa" opacity="1.00" d=" M 384.24 192.64 C 385.56 192.96 386.89 193.26 388.19 193.68 C 390.03 221.76 384.43 249.65 383.67 277.69 C 380.78 302.02 379.72 326.66 374.67 350.69 C 368.69 353.69 362.74 357.70 355.74 357.41 C 325.64 352.92 294.61 357.91 266.70 369.69 C 263.29 371.28 259.58 372.02 255.98 372.98 C 255.98 371.69 256.00 370.41 256.04 369.13 C 295.19 351.16 333.92 332.25 372.90 313.92 C 376.51 312.19 375.60 307.14 376.80 303.87 C 379.68 266.88 387.49 229.70 384.24 192.64 Z" />
</g>
<g id="#b9dffaff">
<path fill="#b9dffa" opacity="1.00" d=" M 388.19 193.68 C 390.22 194.23 392.16 195.05 394.09 195.91 C 390.44 251.35 387.35 306.89 379.92 361.96 C 371.96 359.92 363.82 358.81 355.74 357.41 C 362.74 357.70 368.69 353.69 374.67 350.69 C 379.72 326.66 380.78 302.02 383.67 277.69 C 384.43 249.65 390.03 221.76 388.19 193.68 Z" />
</g>
<g id="#acd6faff">
<path fill="#acd6fa" opacity="1.00" d=" M 394.09 195.91 C 395.12 196.23 396.15 196.54 397.18 196.85 C 396.03 251.44 392.60 306.28 386.64 360.68 C 386.43 362.83 384.55 363.25 382.70 363.42 L 381.81 363.21 C 381.34 362.90 380.39 362.27 379.92 361.96 C 387.35 306.89 390.44 251.35 394.09 195.91 Z" />
</g>
<g id="#9fcffaff">
<path fill="#9fcffa" opacity="1.00" d=" M 397.18 196.85 C 397.59 196.92 398.39 197.04 398.79 197.10 C 399.33 197.35 400.40 197.84 400.94 198.09 C 400.89 239.75 398.31 281.36 395.82 322.96 C 394.63 337.40 395.45 351.99 392.69 366.32 C 389.39 365.24 386.07 364.23 382.70 363.42 C 384.55 363.25 386.43 362.83 386.64 360.68 C 392.60 306.28 396.03 251.44 397.18 196.85 Z" />
</g>
<g id="#508ff2ff">
<path fill="#508ff2" opacity="1.00" d=" M 398.79 197.10 C 414.80 198.79 430.97 198.25 446.98 200.07 C 447.06 213.75 446.99 227.44 446.95 241.13 C 444.66 239.03 442.37 236.95 439.98 235.00 C 432.36 228.30 425.46 220.86 418.26 213.74 C 417.97 213.27 417.41 212.33 417.13 211.86 C 416.37 210.49 414.98 209.68 413.70 208.89 L 412.96 208.41 C 412.70 208.19 412.18 207.76 411.92 207.54 C 411.68 205.97 411.58 204.15 410.38 202.98 C 408.71 201.78 406.85 200.87 405.01 199.99 C 403.66 199.32 402.30 198.70 400.94 198.09 C 400.40 197.84 399.33 197.35 398.79 197.10 Z" />
</g>
<g id="#93c7f9ff">
<path fill="#93c7f9" opacity="1.00" d=" M 400.94 198.09 C 402.30 198.70 403.66 199.32 405.01 199.99 C 403.71 256.04 402.69 312.13 398.85 368.08 C 396.70 367.90 394.68 367.08 392.69 366.32 C 395.45 351.99 394.63 337.40 395.82 322.96 C 398.31 281.36 400.89 239.75 400.94 198.09 Z" />
</g>
<g id="#e1f2fdff">
<path fill="#e1f2fd" opacity="1.00" d=" M 374.30 199.10 C 378.76 201.47 377.38 209.94 379.49 214.78 C 379.03 230.69 378.20 247.06 374.67 262.63 C 361.93 268.06 349.70 274.67 337.01 280.16 C 340.07 271.33 345.06 262.82 347.60 253.24 C 352.24 248.54 351.69 241.10 356.75 237.72 C 362.10 222.83 368.78 213.34 374.30 199.10 Z" />
</g>
<g id="#88c2f9ff">
<path fill="#88c2f9" opacity="1.00" d=" M 405.01 199.99 C 406.85 200.87 408.71 201.78 410.38 202.98 C 408.36 203.63 404.78 203.28 407.95 207.99 C 408.68 261.94 405.89 315.78 404.81 369.68 C 399.63 373.24 394.23 370.94 388.80 369.96 C 391.32 373.34 396.25 373.13 399.26 375.96 C 395.25 376.36 391.75 373.64 387.74 374.04 C 390.52 376.94 396.21 376.63 398.06 380.09 C 394.50 380.12 391.31 378.27 387.81 377.92 C 390.02 382.65 403.06 381.23 398.12 387.35 C 393.54 385.71 388.97 384.03 384.30 382.71 L 383.70 382.20 C 382.78 379.15 380.65 376.92 377.34 376.63 C 349.98 369.97 321.04 368.75 293.57 375.52 C 285.83 376.90 278.53 380.37 270.66 380.86 C 305.12 366.11 344.15 365.04 380.22 374.05 C 366.95 368.08 351.35 368.50 337.02 366.97 C 315.45 365.43 294.47 371.31 273.75 376.00 C 307.38 361.22 345.97 361.57 381.23 370.03 C 345.71 358.03 306.21 362.08 270.78 373.02 C 305.92 356.99 347.02 356.57 383.94 367.04 C 383.26 365.74 382.52 364.48 381.81 363.21 L 382.70 363.42 C 386.07 364.23 389.39 365.24 392.69 366.32 C 394.68 367.08 396.70 367.90 398.85 368.08 C 402.69 312.13 403.71 256.04 405.01 199.99 Z" />
</g>
<g id="#7ebbf8ff">
<path fill="#7ebbf8" opacity="1.00" d=" M 407.95 207.99 C 404.78 203.28 408.36 203.63 410.38 202.98 C 411.58 204.15 411.68 205.97 411.92 207.54 C 409.97 266.33 411.21 325.37 411.31 384.25 C 409.63 389.92 402.93 388.99 398.31 388.15 L 398.12 387.35 C 403.06 381.23 390.02 382.65 387.81 377.92 C 391.31 378.27 394.50 380.12 398.06 380.09 C 396.21 376.63 390.52 376.94 387.74 374.04 C 391.75 373.64 395.25 376.36 399.26 375.96 C 396.25 373.13 391.32 373.34 388.80 369.96 C 394.23 370.94 399.63 373.24 404.81 369.68 C 405.89 315.78 408.68 261.94 407.95 207.99 Z" />
</g>
<g id="#e0f3c9ff">
<path fill="#e0f3c9" opacity="1.00" d=" M 98.99 208.40 C 99.26 208.18 99.78 207.73 100.04 207.51 C 102.31 249.62 100.29 291.98 101.06 334.19 C 100.97 341.48 100.96 348.76 100.99 356.06 C 100.96 359.66 100.98 363.31 100.96 366.92 L 100.03 366.98 C 99.25 314.18 101.41 260.89 98.99 208.40 Z" />
</g>
<g id="#84b4d8ff">
<path fill="#84b4d8" opacity="1.00" d=" M 411.31 384.25 C 411.21 325.37 409.97 266.33 411.92 207.54 C 412.18 207.76 412.70 208.19 412.96 208.41 C 410.25 266.89 413.57 325.73 411.31 384.25 Z" />
</g>
<g id="#c5eb7dff">
<path fill="#c5eb7d" opacity="1.00" d=" M 94.74 212.75 C 95.04 210.50 97.33 209.52 98.99 208.40 C 101.41 260.89 99.25 314.18 100.03 366.98 C 99.98 372.31 100.07 377.67 99.87 383.01 C 98.25 382.99 96.63 382.99 95.01 382.99 C 94.80 326.25 95.36 269.49 94.74 212.75 Z" />
</g>
<g id="#485630ff">
<path fill="#485630" opacity="1.00" d=" M 411.31 384.25 C 413.57 325.73 410.25 266.89 412.96 208.41 L 413.70 208.89 C 411.55 271.42 414.48 334.38 412.27 396.80 C 414.25 399.73 414.10 403.74 409.91 404.42 C 404.69 402.27 399.43 400.21 394.13 398.28 C 357.30 386.25 316.48 385.21 279.77 398.26 C 268.61 402.16 255.79 408.74 244.09 402.78 C 229.28 395.84 213.11 392.97 197.17 389.98 C 185.04 388.31 199.80 387.36 202.38 384.00 C 202.99 384.08 204.21 384.23 204.82 384.31 C 212.75 383.94 223.50 392.45 228.41 382.88 C 237.33 384.14 245.03 389.69 253.88 391.17 C 257.51 392.44 254.37 399.55 261.06 396.00 C 271.71 394.56 281.74 389.76 292.26 387.25 C 316.24 381.59 341.22 380.36 365.61 383.90 C 374.02 386.11 382.65 387.43 391.00 389.89 C 393.98 392.27 396.05 389.43 398.31 388.15 C 402.93 388.99 409.63 389.92 411.31 384.25 Z" />
</g>
<g id="#464940ff">
<path fill="#464940" opacity="1.00" d=" M 413.70 208.89 C 414.98 209.68 416.37 210.49 417.13 211.86 C 416.91 274.94 416.93 338.01 417.12 401.09 C 416.42 404.45 413.43 406.39 409.91 404.42 C 414.10 403.74 414.25 399.73 412.27 396.80 C 414.48 334.38 411.55 271.42 413.70 208.89 Z" />
</g>
<g id="#416ba7ff">
<path fill="#416ba7" opacity="1.00" d=" M 417.13 211.86 C 417.41 212.33 417.97 213.27 418.26 213.74 C 417.87 225.47 418.00 237.21 417.98 248.94 C 417.97 257.67 417.95 266.40 418.03 275.14 C 417.96 284.48 417.96 293.82 418.04 303.17 C 418.02 313.21 417.85 323.26 418.10 333.30 C 417.90 351.20 418.00 369.10 418.02 387.00 C 417.97 391.76 417.97 396.55 417.86 401.33 L 417.12 401.09 C 416.93 338.01 416.91 274.94 417.13 211.86 Z" />
</g>
<g id="#98c2c6ff">
<path fill="#98c2c6" opacity="1.00" d=" M 93.76 356.29 C 94.83 308.47 92.84 260.51 94.74 212.75 C 95.36 269.49 94.80 326.25 95.01 382.99 C 95.01 385.70 95.03 388.43 95.07 391.16 L 94.06 391.00 C 94.01 389.07 93.97 387.16 93.91 385.25 C 94.06 375.59 94.13 365.93 93.76 356.29 Z" />
</g>
<g id="#3351baff">
<path fill="#3351ba" opacity="1.00" d=" M 418.26 213.74 C 425.46 220.86 432.36 228.30 439.98 235.00 C 443.58 241.55 433.34 238.46 430.88 242.82 C 426.40 244.60 422.99 248.53 417.98 248.94 C 418.00 237.21 417.87 225.47 418.26 213.74 Z" />
</g>
<g id="#77aff7ff">
<path fill="#77aff7" opacity="1.00" d=" M 210.00 220.97 C 240.94 221.48 271.97 220.06 302.87 221.70 C 303.31 222.76 303.73 223.83 304.14 224.92 C 272.03 225.02 239.93 225.11 207.82 224.90 C 208.32 223.48 209.07 222.16 210.00 220.97 Z" />
</g>
<g id="#619ff6ff">
<path fill="#619ff6" opacity="1.00" d=" M 207.82 224.90 C 239.93 225.11 272.03 225.02 304.14 224.92 C 304.87 226.57 305.38 228.46 304.48 230.18 C 304.30 229.70 303.93 228.74 303.74 228.26 C 275.50 227.61 247.24 228.24 219.00 227.96 C 215.94 229.54 208.12 225.09 207.53 230.19 C 206.60 228.49 207.07 226.55 207.82 224.90 Z" />
</g>
<g id="#4d8ef4ff">
<path fill="#4d8ef4" opacity="1.00" d=" M 207.53 230.19 C 208.12 225.09 215.94 229.54 219.00 227.96 C 247.24 228.24 275.50 227.61 303.74 228.26 C 303.93 228.74 304.30 229.70 304.48 230.18 C 304.25 230.64 303.78 231.57 303.55 232.03 C 276.84 229.63 249.83 231.71 223.00 230.96 C 218.22 231.44 213.00 229.79 208.50 231.98 C 208.26 231.53 207.77 230.64 207.53 230.19 Z" />
</g>
<g id="#3879f3ff">
<path fill="#3879f3" opacity="1.00" d=" M 208.50 231.98 C 213.00 229.79 218.22 231.44 223.00 230.96 C 249.83 231.71 276.84 229.63 303.55 232.03 C 302.87 233.20 302.01 234.26 301.12 235.27 C 280.58 239.43 258.93 235.77 238.00 237.00 C 228.82 235.66 217.96 240.17 209.89 234.19 C 209.55 233.64 208.85 232.53 208.50 231.98 Z" />
<path fill="#3879f3" opacity="1.00" d=" M 208.58 246.86 C 239.88 245.17 271.91 245.60 303.35 246.87 C 302.96 247.41 302.19 248.50 301.81 249.04 C 299.28 250.92 296.52 253.09 293.00 251.96 C 267.66 252.09 242.32 251.93 216.98 252.04 C 214.28 252.28 212.13 250.48 210.08 249.01 C 209.71 248.47 208.96 247.40 208.58 246.86 Z" />
</g>
<g id="#6ba6f6ff">
<path fill="#6ba6f6" opacity="1.00" d=" M 209.89 234.19 C 217.96 240.17 228.82 235.66 238.00 237.00 C 258.93 235.77 280.58 239.43 301.12 235.27 C 303.51 237.63 304.77 240.75 305.29 244.04 C 305.08 244.34 304.67 244.96 304.46 245.26 C 304.29 244.48 303.94 242.90 303.76 242.11 C 271.89 241.91 240.02 241.94 208.16 242.09 C 208.02 242.87 207.73 244.44 207.59 245.23 C 205.65 241.48 209.02 237.75 209.89 234.19 Z" />
</g>
<g id="#365cc7ff">
<path fill="#365cc7" opacity="1.00" d=" M 439.98 235.00 C 442.37 236.95 444.66 239.03 446.95 241.13 C 447.05 247.37 447.01 253.61 447.03 259.85 C 436.71 262.58 427.71 271.31 418.03 275.14 C 417.95 266.40 417.97 257.67 417.98 248.94 C 422.99 248.53 426.40 244.60 430.88 242.82 C 433.34 238.46 443.58 241.55 439.98 235.00 Z" />
</g>
<g id="#4f90f4ff">
<path fill="#4f90f4" opacity="1.00" d=" M 208.16 242.09 C 240.02 241.94 271.89 241.91 303.76 242.11 C 303.94 242.90 304.29 244.48 304.46 245.26 C 304.18 245.67 303.63 246.47 303.35 246.87 C 271.91 245.60 239.88 245.17 208.58 246.86 C 208.34 246.46 207.84 245.64 207.59 245.23 C 207.73 244.44 208.02 242.87 208.16 242.09 Z" />
</g>
<g id="#6fa9f7ff">
<path fill="#6fa9f7" opacity="1.00" d=" M 210.08 249.01 C 212.13 250.48 214.28 252.28 216.98 252.04 C 242.32 251.93 267.66 252.09 293.00 251.96 C 296.52 253.09 299.28 250.92 301.81 249.04 C 303.19 252.66 305.78 256.05 304.44 260.22 L 304.27 259.14 C 304.14 258.37 303.89 256.84 303.76 256.07 C 271.91 255.96 240.05 255.92 208.20 256.09 C 208.03 256.87 207.69 258.43 207.52 259.21 C 206.04 255.63 209.24 252.34 210.08 249.01 Z" />
</g>
<g id="#5696f5ff">
<path fill="#5696f5" opacity="1.00" d=" M 208.20 256.09 C 240.05 255.92 271.91 255.96 303.76 256.07 C 303.89 256.84 304.14 258.37 304.27 259.14 C 272.03 259.00 239.76 258.74 207.52 259.21 C 207.69 258.43 208.03 256.87 208.20 256.09 Z" />
</g>
<g id="#4687f4ff">
<path fill="#4687f4" opacity="1.00" d=" M 207.52 259.21 C 239.76 258.74 272.03 259.00 304.27 259.14 L 304.44 260.22 C 304.01 261.28 303.29 262.18 302.50 263.00 C 271.68 261.42 240.11 261.23 209.47 262.98 C 208.39 261.99 207.89 260.59 207.52 259.21 Z" />
</g>
<g id="#3666d4ff">
<path fill="#3666d4" opacity="1.00" d=" M 418.03 275.14 C 427.71 271.31 436.71 262.58 447.03 259.85 C 447.02 269.84 447.03 279.83 446.95 289.82 C 441.00 296.03 431.35 293.96 425.07 300.07 C 422.89 301.44 420.49 302.40 418.04 303.17 C 417.96 293.82 417.96 284.48 418.03 275.14 Z" />
</g>
<g id="#3675f0ff">
<path fill="#3675f0" opacity="1.00" d=" M 209.47 262.98 C 240.11 261.23 271.68 261.42 302.50 263.00 C 299.73 266.95 294.48 267.25 290.10 267.07 C 283.66 266.98 277.24 267.01 270.81 267.07 C 254.84 266.95 238.87 266.98 222.90 267.01 L 221.93 267.03 C 221.45 267.03 220.51 267.05 220.03 267.05 C 219.28 267.06 217.79 267.09 217.04 267.10 C 214.18 266.45 211.24 265.50 209.47 262.98 Z" />
</g>
<g id="#edf8feff">
<path fill="#edf8fe" opacity="1.00" d=" M 217.04 267.10 C 217.79 267.09 219.28 267.06 220.03 267.05 C 219.35 278.70 217.25 290.18 215.70 301.72 C 177.48 319.84 139.31 338.15 100.99 356.06 C 100.96 348.76 100.97 341.48 101.06 334.19 C 139.48 316.46 177.65 298.15 215.78 279.84 C 216.46 275.62 216.78 271.36 217.04 267.10 Z" />
</g>
<g id="#e5f4fdff">
<path fill="#e5f4fd" opacity="1.00" d=" M 220.03 267.05 C 220.51 267.05 221.45 267.03 221.93 267.03 C 222.00 268.94 222.09 270.86 222.20 272.77 C 221.34 290.53 218.70 308.17 215.71 325.67 C 193.72 336.95 170.65 346.31 148.98 358.04 C 136.14 360.82 123.55 364.54 111.33 369.37 C 107.36 371.55 103.91 369.20 100.96 366.92 C 100.98 363.31 100.96 359.66 100.99 356.06 C 139.31 338.15 177.48 319.84 215.70 301.72 C 217.25 290.18 219.35 278.70 220.03 267.05 Z" />
</g>
<g id="#4f89ecff">
<path fill="#4f89ec" opacity="1.00" d=" M 221.93 267.03 L 222.90 267.01 C 222.95 268.32 223.04 269.63 223.17 270.93 C 236.44 271.25 249.72 270.76 262.99 271.05 C 266.95 269.75 269.61 272.75 272.30 274.81 C 257.41 280.22 240.70 275.10 225.22 277.22 C 225.09 277.67 224.83 278.57 224.70 279.02 C 223.42 277.15 222.86 274.91 222.20 272.77 C 222.09 270.86 222.00 268.94 221.93 267.03 Z" />
</g>
<g id="#4f77d2ff">
<path fill="#4f77d2" opacity="1.00" d=" M 222.90 267.01 C 238.87 266.98 254.84 266.95 270.81 267.07 C 274.86 268.13 281.10 274.19 275.36 277.25 C 274.35 276.42 273.33 275.61 272.30 274.81 C 269.61 272.75 266.95 269.75 262.99 271.05 C 249.72 270.76 236.44 271.25 223.17 270.93 C 223.04 269.63 222.95 268.32 222.90 267.01 Z" />
</g>
<g id="#3759c2ff">
<path fill="#3759c2" opacity="1.00" d=" M 270.81 267.07 C 277.24 267.01 283.66 266.98 290.10 267.07 C 290.31 272.54 289.02 278.12 284.93 281.95 C 283.06 282.52 281.17 283.06 279.23 283.30 C 274.35 284.41 272.53 281.11 275.36 277.25 C 281.10 274.19 274.86 268.13 270.81 267.07 Z" />
</g>
<g id="#dcf0fcff">
<path fill="#dcf0fc" opacity="1.00" d=" M 222.20 272.77 C 222.86 274.91 223.42 277.15 224.70 279.02 C 225.04 279.50 225.73 280.46 226.08 280.94 C 224.24 307.52 221.18 334.00 216.67 360.27 C 194.45 355.52 171.46 354.65 148.98 358.04 C 170.65 346.31 193.72 336.95 215.71 325.67 C 218.70 308.17 221.34 290.53 222.20 272.77 Z" />
</g>
<g id="#3676f0ff">
<path fill="#3676f0" opacity="1.00" d=" M 225.22 277.22 C 240.70 275.10 257.41 280.22 272.30 274.81 C 273.33 275.61 274.35 276.42 275.36 277.25 C 272.53 281.11 274.35 284.41 279.23 283.30 C 276.95 283.55 274.68 283.75 272.41 283.91 C 261.64 282.15 250.66 283.23 239.80 283.06 C 236.19 282.99 232.61 283.03 229.01 282.96 C 228.05 282.26 227.05 281.60 226.08 280.94 C 225.73 280.46 225.04 279.50 224.70 279.02 C 224.83 278.57 225.09 277.67 225.22 277.22 Z" />
</g>
<g id="#cae6fbff">
<path fill="#cae6fb" opacity="1.00" d=" M 226.08 280.94 C 227.05 281.60 228.05 282.26 229.01 282.96 C 230.04 284.27 231.10 285.56 232.17 286.84 C 231.96 312.09 226.84 336.98 224.87 362.09 C 222.13 361.56 219.38 360.89 216.67 360.27 C 221.18 334.00 224.24 307.52 226.08 280.94 Z" />
</g>
<g id="#a5d0faff">
<path fill="#a5d0fa" opacity="1.00" d=" M 279.23 283.30 C 281.17 283.06 283.06 282.52 284.93 281.95 C 278.19 294.17 272.61 307.81 263.98 318.44 C 261.40 315.89 258.76 313.39 256.11 310.93 L 255.86 310.17 C 255.89 305.86 255.97 301.58 256.00 297.29 C 263.45 296.15 270.37 291.52 272.41 283.91 C 274.68 283.75 276.95 283.55 279.23 283.30 Z" />
</g>
<g id="#7cb8f9ff">
<path fill="#7cb8f9" opacity="1.00" d=" M 229.01 282.96 C 232.61 283.03 236.19 282.99 239.80 283.06 C 241.61 291.01 248.14 296.11 256.00 297.29 C 255.97 301.58 255.89 305.86 255.86 310.17 C 254.15 308.53 252.55 306.79 250.88 305.12 C 249.04 303.30 247.10 301.58 245.23 299.81 C 243.24 297.79 241.25 295.79 239.24 293.80 C 236.94 291.42 234.57 289.12 232.17 286.84 C 231.10 285.56 230.04 284.27 229.01 282.96 Z" />
</g>
<g id="#3455beff">
<path fill="#3455be" opacity="1.00" d=" M 239.80 283.06 C 250.66 283.23 261.64 282.15 272.41 283.91 C 270.37 291.52 263.45 296.15 256.00 297.29 C 248.14 296.11 241.61 291.01 239.80 283.06 Z" />
</g>
<g id="#b9ddfbff">
<path fill="#b9ddfb" opacity="1.00" d=" M 232.17 286.84 C 234.57 289.12 236.94 291.42 239.24 293.80 C 236.77 316.49 235.80 339.31 233.02 361.97 C 233.11 363.47 232.38 364.27 230.85 364.35 C 230.42 364.20 229.57 363.90 229.14 363.75 C 227.72 363.18 226.30 362.63 224.87 362.09 C 226.84 336.98 231.96 312.09 232.17 286.84 Z" />
</g>
<g id="#366ee2ff">
<path fill="#366ee2" opacity="1.00" d=" M 425.07 300.07 C 431.35 293.96 441.00 296.03 446.95 289.82 C 447.01 298.83 447.04 307.83 446.96 316.84 C 440.96 318.53 435.88 322.34 430.61 325.50 C 428.66 326.44 425.34 326.61 426.83 329.50 C 423.32 329.11 420.13 330.77 418.10 333.30 C 417.85 323.26 418.02 313.21 418.04 303.17 C 420.49 302.40 422.89 301.44 425.07 300.07 Z" />
</g>
<g id="#a9d4faff">
<path fill="#a9d4fa" opacity="1.00" d=" M 239.24 293.80 C 241.25 295.79 243.24 297.79 245.23 299.81 C 243.59 322.29 242.59 344.84 239.71 367.20 C 236.77 366.19 233.76 365.44 230.85 364.35 C 232.38 364.27 233.11 363.47 233.02 361.97 C 235.80 339.31 236.77 316.49 239.24 293.80 Z" />
</g>
<g id="#9bcbfaff">
<path fill="#9bcbfa" opacity="1.00" d=" M 245.23 299.81 C 247.10 301.58 249.04 303.30 250.88 305.12 C 250.95 326.77 250.02 348.44 247.81 370.00 C 245.01 369.38 242.34 368.30 239.71 367.20 C 242.59 344.84 243.59 322.29 245.23 299.81 Z" />
</g>
<g id="#8dc3f9ff">
<path fill="#8dc3f9" opacity="1.00" d=" M 250.88 305.12 C 252.55 306.79 254.15 308.53 255.86 310.17 L 256.11 310.93 C 255.91 330.33 256.00 349.73 256.04 369.13 C 256.00 370.41 255.98 371.69 255.98 372.98 C 255.93 379.01 255.99 385.05 255.97 391.10 C 255.45 391.12 254.40 391.15 253.88 391.17 C 245.03 389.69 237.33 384.14 228.41 382.88 L 227.94 382.17 C 228.45 382.12 229.48 382.01 229.99 381.96 C 226.44 377.22 220.45 376.08 214.96 375.01 C 184.70 368.51 152.86 370.05 123.36 379.39 C 120.92 380.30 118.40 381.16 115.75 380.99 C 143.08 368.84 174.49 365.84 203.99 370.07 C 211.16 371.10 218.07 373.81 225.39 373.74 C 190.42 362.89 152.59 365.86 117.82 376.10 C 152.33 360.90 192.13 361.38 228.22 370.98 C 210.01 362.83 188.66 363.32 168.99 362.97 C 151.44 362.57 134.66 368.68 117.75 372.00 C 152.51 356.69 192.61 357.35 228.91 367.13 C 228.21 365.62 225.82 363.19 229.14 363.75 C 229.57 363.90 230.42 364.20 230.85 364.35 C 233.76 365.44 236.77 366.19 239.71 367.20 C 242.34 368.30 245.01 369.38 247.81 370.00 C 250.02 348.44 250.95 326.77 250.88 305.12 Z" />
</g>
<g id="#3272f0ff">
<path fill="#3272f0" opacity="1.00" d=" M 430.61 325.50 C 435.88 322.34 440.96 318.53 446.96 316.84 C 447.05 340.22 446.99 363.61 446.99 386.99 C 437.33 386.99 427.67 387.00 418.02 387.00 C 418.00 369.10 417.90 351.20 418.10 333.30 C 420.13 330.77 423.32 329.11 426.83 329.50 C 425.34 326.61 428.66 326.44 430.61 325.50 Z" />
</g>
<g id="#a5d1f8ff">
<path fill="#a5d1f8" opacity="1.00" d=" M 148.98 358.04 C 171.46 354.65 194.45 355.52 216.67 360.27 C 219.38 360.89 222.13 361.56 224.87 362.09 C 226.30 362.63 227.72 363.18 229.14 363.75 C 225.82 363.19 228.21 365.62 228.91 367.13 C 192.61 357.35 152.51 356.69 117.75 372.00 C 134.66 368.68 151.44 362.57 168.99 362.97 C 188.66 363.32 210.01 362.83 228.22 370.98 C 192.13 361.38 152.33 360.90 117.82 376.10 C 152.59 365.86 190.42 362.89 225.39 373.74 C 218.07 373.81 211.16 371.10 203.99 370.07 C 174.49 365.84 143.08 368.84 115.75 380.99 C 118.40 381.16 120.92 380.30 123.36 379.39 C 152.86 370.05 184.70 368.51 214.96 375.01 C 220.45 376.08 226.44 377.22 229.99 381.96 C 229.48 382.01 228.45 382.12 227.94 382.17 C 223.39 381.12 218.89 379.91 214.32 378.96 C 210.34 378.11 206.37 377.19 202.30 376.84 C 198.96 376.40 195.62 376.09 192.27 375.82 C 168.55 373.38 144.17 376.62 121.73 384.69 C 114.63 386.72 103.42 393.25 99.87 383.01 C 100.07 377.67 99.98 372.31 100.03 366.98 L 100.96 366.92 C 103.91 369.20 107.36 371.55 111.33 369.37 C 123.55 364.54 136.14 360.82 148.98 358.04 Z" />
</g>
<g id="#9acdf7ff">
<path fill="#9acdf7" opacity="1.00" d=" M 266.70 369.69 C 294.61 357.91 325.64 352.92 355.74 357.41 C 363.82 358.81 371.96 359.92 379.92 361.96 C 380.39 362.27 381.34 362.90 381.81 363.21 C 382.52 364.48 383.26 365.74 383.94 367.04 C 347.02 356.57 305.92 356.99 270.78 373.02 C 306.21 362.08 345.71 358.03 381.23 370.03 C 345.97 361.57 307.38 361.22 273.75 376.00 C 294.47 371.31 315.45 365.43 337.02 366.97 C 351.35 368.50 366.95 368.08 380.22 374.05 C 344.15 365.04 305.12 366.11 270.66 380.86 C 278.53 380.37 285.83 376.90 293.57 375.52 C 321.04 368.75 349.98 369.97 377.34 376.63 C 380.65 376.92 382.78 379.15 383.70 382.20 C 376.89 380.66 370.18 378.50 363.23 377.71 C 339.25 373.51 314.17 373.89 290.71 380.72 C 284.22 382.15 277.69 383.75 271.70 386.68 C 266.50 388.29 261.57 391.27 255.97 391.10 C 255.99 385.05 255.93 379.01 255.98 372.98 C 259.58 372.02 263.29 371.28 266.70 369.69 Z" />
</g>
<g id="#b2d770ff">
<path fill="#b2d770" opacity="1.00" d=" M 121.73 384.69 C 144.17 376.62 168.55 373.38 192.27 375.82 C 192.19 377.69 191.79 379.50 189.58 379.55 C 181.70 381.12 173.58 380.37 165.70 381.68 C 156.82 382.37 148.00 383.58 139.27 385.33 C 133.42 385.11 127.58 384.87 121.73 384.69 Z" />
</g>
<g id="#85a848ff">
<path fill="#85a848" opacity="1.00" d=" M 290.71 380.72 C 314.17 373.89 339.25 373.51 363.23 377.71 C 339.14 379.74 314.85 379.96 290.71 380.72 Z" />
</g>
<g id="#9ec05dff">
<path fill="#9ec05d" opacity="1.00" d=" M 192.27 375.82 C 195.62 376.09 198.96 376.40 202.30 376.84 C 200.06 382.49 193.81 382.08 188.71 382.33 C 181.04 381.94 173.37 382.03 165.70 381.68 C 173.58 380.37 181.70 381.12 189.58 379.55 C 191.79 379.50 192.19 377.69 192.27 375.82 Z" />
</g>
<g id="#82a049ff">
<path fill="#82a049" opacity="1.00" d=" M 202.30 376.84 C 206.37 377.19 210.34 378.11 214.32 378.96 C 211.53 381.33 208.85 384.52 204.82 384.31 C 204.21 384.23 202.99 384.08 202.38 384.00 C 197.84 383.25 193.23 383.13 188.71 382.33 C 193.81 382.08 200.06 382.49 202.30 376.84 Z" />
</g>
<g id="#76953dff">
<path fill="#76953d" opacity="1.00" d=" M 290.71 380.72 C 314.85 379.96 339.14 379.74 363.23 377.71 C 370.18 378.50 376.89 380.66 383.70 382.20 L 384.30 382.71 C 378.14 383.44 371.56 381.82 365.61 383.90 C 341.22 380.36 316.24 381.59 292.26 387.25 C 285.40 387.05 278.54 387.18 271.70 386.68 C 277.69 383.75 284.22 382.15 290.71 380.72 Z" />
</g>
<g id="#647d37ff">
<path fill="#647d37" opacity="1.00" d=" M 214.32 378.96 C 218.89 379.91 223.39 381.12 227.94 382.17 L 228.41 382.88 C 223.50 392.45 212.75 383.94 204.82 384.31 C 208.85 384.52 211.53 381.33 214.32 378.96 Z" />
</g>
<g id="#5c6f3aff">
<path fill="#5c6f3a" opacity="1.00" d=" M 139.27 385.33 C 148.00 383.58 156.82 382.37 165.70 381.68 C 173.37 382.03 181.04 381.94 188.71 382.33 C 193.23 383.13 197.84 383.25 202.38 384.00 C 199.80 387.36 185.04 388.31 197.17 389.98 C 193.44 389.99 189.78 389.62 186.12 389.09 C 176.42 388.83 166.66 388.52 157.06 390.09 C 155.81 390.02 154.56 389.93 153.32 389.85 C 144.19 388.43 134.92 389.21 125.73 388.72 C 130.19 387.37 134.78 386.56 139.27 385.33 Z" />
</g>
<g id="#97b65eff">
<path fill="#97b65e" opacity="1.00" d=" M 95.01 382.99 C 96.63 382.99 98.25 382.99 99.87 383.01 C 103.42 393.25 114.63 386.72 121.73 384.69 C 127.58 384.87 133.42 385.11 139.27 385.33 C 134.78 386.56 130.19 387.37 125.73 388.72 C 122.88 389.49 120.10 390.48 117.27 391.30 C 109.87 391.01 102.47 390.89 95.07 391.16 C 95.03 388.43 95.01 385.70 95.01 382.99 Z" />
</g>
<g id="#658133ff">
<path fill="#658133" opacity="1.00" d=" M 365.61 383.90 C 371.56 381.82 378.14 383.44 384.30 382.71 C 388.97 384.03 393.54 385.71 398.12 387.35 L 398.31 388.15 C 396.05 389.43 393.98 392.27 391.00 389.89 C 382.65 387.43 374.02 386.11 365.61 383.90 Z" />
</g>
<g id="#627938ff">
<path fill="#627938" opacity="1.00" d=" M 255.97 391.10 C 261.57 391.27 266.50 388.29 271.70 386.68 C 278.54 387.18 285.40 387.05 292.26 387.25 C 281.74 389.76 271.71 394.56 261.06 396.00 C 254.37 399.55 257.51 392.44 253.88 391.17 C 254.40 391.15 255.45 391.12 255.97 391.10 Z" />
</g>
<g id="#2e67e5ff">
<path fill="#2e67e5" opacity="1.00" d=" M 418.02 387.00 C 427.67 387.00 437.33 386.99 446.99 386.99 C 447.04 391.99 446.99 396.98 446.98 401.99 C 437.34 401.28 427.33 403.36 417.86 401.33 C 417.97 396.55 417.97 391.76 418.02 387.00 Z" />
</g>
<g id="#505f37ff">
<path fill="#505f37" opacity="1.00" d=" M 117.27 391.30 C 120.10 390.48 122.88 389.49 125.73 388.72 C 134.92 389.21 144.19 388.43 153.32 389.85 C 134.12 392.37 116.06 399.44 97.85 405.35 C 96.61 404.15 95.40 402.86 94.70 401.27 C 94.78 399.56 94.87 397.86 95.04 396.17 C 102.44 399.96 109.84 392.49 117.27 391.30 Z" />
</g>
<g id="#3959bfff">
<path fill="#3959bf" opacity="1.00" d=" M 157.06 390.09 C 166.66 388.52 176.42 388.83 186.12 389.09 C 182.28 389.88 186.43 392.38 184.90 392.98 C 179.96 394.35 183.83 401.09 187.09 402.74 C 183.19 402.10 184.79 404.65 186.30 406.52 C 190.34 406.87 200.06 410.08 188.17 409.08 C 190.20 410.74 196.96 409.73 200.90 411.10 C 196.41 414.19 203.95 414.23 206.45 414.65 C 216.30 410.34 204.76 423.26 215.00 418.07 C 216.64 417.15 227.33 418.78 222.06 422.00 C 227.63 421.18 233.44 421.71 238.76 423.56 C 251.21 424.02 263.80 424.36 276.08 427.04 C 277.53 429.33 276.52 430.34 273.91 430.27 C 275.10 431.29 276.81 431.33 278.26 431.83 C 252.93 432.13 227.60 432.15 202.27 431.77 C 189.81 430.29 177.85 425.81 165.57 423.41 C 160.98 422.44 159.33 415.47 153.94 417.99 C 158.78 415.53 148.03 414.04 150.90 410.05 C 146.70 409.10 151.83 401.90 152.33 397.85 C 150.51 395.43 156.40 393.67 157.06 390.09 Z" />
</g>
<g id="#3b60c7ff">
<path fill="#3b60c7" opacity="1.00" d=" M 186.12 389.09 C 189.78 389.62 193.44 389.99 197.17 389.98 C 213.11 392.97 229.28 395.84 244.09 402.78 C 244.55 407.76 249.83 405.39 251.60 409.43 C 260.04 411.52 267.49 416.53 276.95 416.07 C 284.30 419.93 292.72 420.28 300.64 422.36 C 301.82 422.70 303.00 423.02 304.20 423.33 C 295.13 426.31 284.83 422.59 276.08 427.04 C 263.80 424.36 251.21 424.02 238.76 423.56 C 233.44 421.71 227.63 421.18 222.06 422.00 C 227.33 418.78 216.64 417.15 215.00 418.07 C 204.76 423.26 216.30 410.34 206.45 414.65 C 203.95 414.23 196.41 414.19 200.90 411.10 C 196.96 409.73 190.20 410.74 188.17 409.08 C 200.06 410.08 190.34 406.87 186.30 406.52 C 184.79 404.65 183.19 402.10 187.09 402.74 C 183.83 401.09 179.96 394.35 184.90 392.98 C 186.43 392.38 182.28 389.88 186.12 389.09 Z" />
</g>
<g id="#376ddfff">
<path fill="#376ddf" opacity="1.00" d=" M 279.77 398.26 C 316.48 385.21 357.30 386.25 394.13 398.28 C 386.72 404.91 374.79 399.45 366.17 404.23 C 362.57 406.24 358.29 405.76 354.31 406.23 C 342.72 406.02 330.92 405.11 319.52 407.45 C 317.20 405.69 302.42 408.58 307.99 403.93 C 304.40 402.73 300.56 402.17 296.86 403.19 C 290.97 402.14 285.81 398.73 279.77 398.26 Z" />
</g>
<g id="#3751b6ff">
<path fill="#3751b6" opacity="1.00" d=" M 97.85 405.35 C 116.06 399.44 134.12 392.37 153.32 389.85 C 154.56 389.93 155.81 390.02 157.06 390.09 C 156.40 393.67 150.51 395.43 152.33 397.85 C 151.83 401.90 146.70 409.10 150.90 410.05 C 148.03 414.04 158.78 415.53 153.94 417.99 C 159.33 415.47 160.98 422.44 165.57 423.41 C 177.85 425.81 189.81 430.29 202.27 431.77 C 176.26 432.24 150.23 431.96 124.21 431.93 C 121.76 429.20 119.15 426.62 116.51 424.10 C 114.21 421.69 111.84 419.33 109.44 417.03 C 107.12 414.62 104.73 412.27 102.35 409.93 C 100.88 408.37 99.36 406.87 97.85 405.35 Z" />
</g>
<g id="#3d58b9ff">
<path fill="#3d58b9" opacity="1.00" d=" M 65.17 390.76 C 66.72 394.88 68.29 399.01 69.82 403.15 C 73.23 416.00 83.11 425.33 94.29 431.87 C 84.57 432.11 74.84 432.09 65.12 431.94 C 64.63 423.64 65.20 415.32 64.99 407.02 C 65.01 401.60 65.08 396.16 65.17 390.76 Z" />
</g>
<g id="#7b9551ff">
<path fill="#7b9551" opacity="1.00" d=" M 95.07 391.16 C 102.47 390.89 109.87 391.01 117.27 391.30 C 109.84 392.49 102.44 399.96 95.04 396.17 C 94.87 397.86 94.78 399.56 94.70 401.27 C 94.44 400.76 93.93 399.74 93.67 399.23 C 94.15 396.54 94.75 393.87 95.07 391.16 Z" />
</g>
<g id="#3766d2ff">
<path fill="#3766d2" opacity="1.00" d=" M 244.09 402.78 C 255.79 408.74 268.61 402.16 279.77 398.26 C 285.81 398.73 290.97 402.14 296.86 403.19 C 300.56 402.17 304.40 402.73 307.99 403.93 C 302.42 408.58 317.20 405.69 319.52 407.45 C 330.92 405.11 342.72 406.02 354.31 406.23 C 349.49 408.49 343.55 408.55 339.11 412.07 C 333.32 413.18 327.23 413.42 321.56 415.47 C 307.66 413.02 328.89 421.51 314.08 418.18 C 309.36 418.61 303.70 417.98 300.64 422.36 C 292.72 420.28 284.30 419.93 276.95 416.07 C 267.49 416.53 260.04 411.52 251.60 409.43 C 249.83 405.39 244.55 407.76 244.09 402.78 Z" />
</g>
<g id="#2d5ed5ff">
<path fill="#2d5ed5" opacity="1.00" d=" M 394.13 398.28 C 399.43 400.21 404.69 402.27 409.91 404.42 C 413.43 406.39 416.42 404.45 417.12 401.09 L 417.86 401.33 C 427.33 403.36 437.34 401.28 446.98 401.99 C 447.04 407.33 446.98 412.64 446.99 417.99 C 399.30 417.26 351.58 417.94 304.20 423.33 C 303.00 423.02 301.82 422.70 300.64 422.36 C 303.70 417.98 309.36 418.61 314.08 418.18 C 328.89 421.51 307.66 413.02 321.56 415.47 C 327.23 413.42 333.32 413.18 339.11 412.07 C 343.55 408.55 349.49 408.49 354.31 406.23 C 358.29 405.76 362.57 406.24 366.17 404.23 C 374.79 399.45 386.72 404.91 394.13 398.28 Z" />
</g>
<g id="#494749ff">
<path fill="#494749" opacity="1.00" d=" M 45.02 403.00 C 51.34 403.00 57.65 402.99 63.98 403.00 C 63.99 404.32 64.00 405.65 64.02 406.98 C 64.00 408.65 64.00 410.32 63.98 412.00 C 57.65 411.99 51.33 412.01 45.00 411.99 C 45.00 408.99 44.99 405.96 45.02 403.00 Z" />
</g>
<g id="#323132fd">
<path fill="#323132" opacity="1.00" d=" M 44.01 412.01 L 45.00 411.99 C 51.33 412.01 57.65 411.99 63.98 412.00 C 64.00 413.66 64.00 415.33 63.99 417.00 C 57.38 417.59 50.32 415.58 43.95 417.92 C 43.95 415.94 43.98 413.97 44.01 412.01 Z" />
</g>
<g id="#1d1c1dff">
<path fill="#1d1c1d" opacity="1.00" d=" M 448.01 417.05 C 454.37 415.92 462.73 418.10 468.01 413.91 C 468.02 419.93 467.98 425.96 468.01 432.00 L 467.98 432.99 C 461.31 433.00 454.66 433.05 448.00 432.98 C 448.00 427.68 447.96 422.35 448.01 417.05 Z" />
</g>
<g id="#1d1d1dfe">
<path fill="#1d1d1d" opacity="1.00" d=" M 43.95 417.92 C 50.32 415.58 57.38 417.59 63.99 417.00 C 64.04 422.33 63.99 427.64 63.99 432.99 C 57.39 432.68 50.58 433.92 44.09 432.32 C 43.98 427.52 43.94 422.70 43.95 417.92 Z" />
</g>
<g id="#2c55c8ff">
<path fill="#2c55c8" opacity="1.00" d=" M 304.20 423.33 C 351.58 417.94 399.30 417.26 446.99 417.99 C 447.06 422.63 447.04 427.25 446.94 431.90 C 390.72 432.04 334.48 432.14 278.26 431.83 C 276.81 431.33 275.10 431.29 273.91 430.27 C 276.52 430.34 277.53 429.33 276.08 427.04 C 284.83 422.59 295.13 426.31 304.20 423.33 Z" />
</g>
<g id="#2a2a2a76">
<path fill="#2a2a2a" opacity="0.46" d=" M 10.68 432.64 C 21.68 431.01 32.99 432.30 44.09 432.32 C 33.00 433.43 21.80 433.23 10.68 432.64 Z" />
</g>
<g id="#575757ff">
<path fill="#575757" opacity="1.00" d=" M 44.09 432.32 C 50.58 433.92 57.39 432.68 63.99 432.99 C 113.63 433.02 163.27 432.99 212.91 433.00 C 216.35 435.16 217.30 439.16 218.48 442.79 C 243.54 443.19 268.62 443.07 293.68 442.86 C 294.28 438.98 295.19 434.82 299.14 433.04 C 348.76 432.93 398.37 433.05 448.00 432.98 C 454.66 433.05 461.31 433.00 467.98 432.99 C 474.02 433.03 480.07 432.93 486.13 432.97 C 486.23 433.41 486.44 434.29 486.54 434.73 C 481.73 438.96 476.30 442.39 471.37 446.47 C 413.30 447.77 355.12 446.54 297.02 447.07 C 275.32 453.11 251.57 448.63 228.98 450.03 C 223.43 452.27 220.38 445.62 214.98 447.07 C 143.71 446.82 72.43 447.21 1.16 446.89 C 0.94 445.18 0.84 443.46 0.70 441.76 C 2.29 437.32 5.99 433.60 10.68 432.64 C 21.80 433.23 33.00 433.43 44.09 432.32 Z" />
</g>
<g id="#2b2a2b81">
<path fill="#2b2a2b" opacity="0.51" d=" M 468.01 432.00 C 479.44 432.29 490.97 431.16 502.32 432.76 L 501.37 432.88 C 499.32 432.98 497.27 433.03 495.23 433.11 C 492.15 433.03 489.17 432.98 486.13 432.97 C 480.07 432.93 474.02 433.03 467.98 432.99 L 468.01 432.00 Z" />
</g>
<g id="#494949ff">
<path fill="#494949" opacity="1.00" d=" M 212.91 433.00 C 241.65 433.02 270.39 432.96 299.14 433.04 C 295.19 434.82 294.28 438.98 293.68 442.86 C 268.62 443.07 243.54 443.19 218.48 442.79 C 217.30 439.16 216.35 435.16 212.91 433.00 Z" />
</g>
<g id="#515151ff">
<path fill="#515151" opacity="1.00" d=" M 486.13 432.97 C 489.17 432.98 492.15 433.03 495.23 433.11 C 487.43 443.29 477.22 454.75 463.98 456.92 C 312.32 457.11 160.64 456.93 8.98 457.01 C 6.53 457.33 4.21 457.01 2.01 456.07 C 1.34 453.58 0.66 451.04 0.00 448.59 L 0.00 442.37 L 0.70 441.76 C 0.84 443.46 0.94 445.18 1.16 446.89 C 72.43 447.21 143.71 446.82 214.98 447.07 C 220.38 445.62 223.43 452.27 228.98 450.03 C 251.57 448.63 275.32 453.11 297.02 447.07 C 355.12 446.54 413.30 447.77 471.37 446.47 C 476.30 442.39 481.73 438.96 486.54 434.73 C 486.44 434.29 486.23 433.41 486.13 432.97 Z" />
</g>
<g id="#4b4a4bff">
<path fill="#4b4a4b" opacity="1.00" d=" M 495.23 433.11 C 497.27 433.03 499.32 432.98 501.37 432.88 C 492.47 446.97 482.65 464.21 463.58 464.65 C 313.74 465.52 163.86 464.67 14.00 465.07 C 10.68 464.98 7.10 465.50 3.95 464.08 C 3.28 461.41 2.69 458.73 2.01 456.07 C 4.21 457.01 6.53 457.33 8.98 457.01 C 160.64 456.93 312.32 457.11 463.98 456.92 C 477.22 454.75 487.43 443.29 495.23 433.11 Z" />
</g>
<g id="#454345ff">
<path fill="#454345" opacity="1.00" d=" M 501.37 432.88 L 502.32 432.76 C 503.35 433.04 504.31 433.47 505.20 434.08 C 498.23 448.81 488.61 469.20 470.03 470.20 C 315.30 469.31 160.46 470.98 5.75 469.36 C 4.87 467.71 4.44 465.87 3.95 464.08 C 7.10 465.50 10.68 464.98 14.00 465.07 C 163.86 464.67 313.74 465.52 463.58 464.65 C 482.65 464.21 492.47 446.97 501.37 432.88 Z" />
</g>
<g id="#3d3c3dff">
<path fill="#3d3c3d" opacity="1.00" d=" M 505.20 434.08 C 506.64 435.05 507.90 436.27 509.08 437.55 C 501.73 449.87 496.39 463.72 485.81 473.80 C 477.34 478.40 467.15 475.99 458.02 476.01 C 308.92 476.11 159.82 475.76 10.73 476.19 C 8.82 474.08 7.17 471.81 5.75 469.36 C 160.46 470.98 315.30 469.31 470.03 470.20 C 488.61 469.20 498.23 448.81 505.20 434.08 Z" />
</g>
<g id="#343234ff">
<path fill="#343234" opacity="1.00" d=" M 485.81 473.80 C 496.39 463.72 501.73 449.87 509.08 437.55 C 510.38 438.65 511.01 440.18 511.21 441.86 C 502.56 455.48 498.42 473.05 484.02 482.00 C 471.04 484.24 458.08 478.38 445.02 478.99 C 301.55 479.27 158.06 478.49 14.62 479.37 C 13.19 478.48 11.87 477.42 10.73 476.19 C 159.82 475.76 308.92 476.11 458.02 476.01 C 467.15 475.99 477.34 478.40 485.81 473.80 Z" />
</g>
<g id="#2b2a2bfe">
<path fill="#2b2a2b" opacity="1.00" d=" M 511.21 441.86 L 512.00 442.04 L 512.00 449.47 C 508.68 458.73 508.83 469.79 500.82 476.83 C 490.86 486.75 475.87 483.76 463.22 483.85 C 456.72 481.56 449.75 482.03 443.00 481.96 C 301.91 482.23 160.82 481.63 19.73 482.25 C 17.87 481.59 16.23 480.48 14.62 479.37 C 158.06 478.49 301.55 479.27 445.02 478.99 C 458.08 478.38 471.04 484.24 484.02 482.00 C 498.42 473.05 502.56 455.48 511.21 441.86 Z" />
</g>
<g id="#232323ff">
<path fill="#232323" opacity="1.00" d=" M 19.73 482.25 C 160.82 481.63 301.91 482.23 443.00 481.96 C 449.75 482.03 456.72 481.56 463.22 483.85 C 321.82 484.23 180.41 483.84 39.00 484.04 C 32.60 483.79 25.83 484.68 19.73 482.25 Z" />
</g>
</svg>
