<?xml version="1.0" encoding="UTF-8" ?>
<!DOCTYPE svg PUBLIC "-//W3C//DTD SVG 1.1//EN" "http://www.w3.org/Graphics/SVG/1.1/DTD/svg11.dtd">
<svg width="512pt" height="512pt" viewBox="0 0 512 512" version="1.1" xmlns="http://www.w3.org/2000/svg">
<g id="#c09ae4ff">
<path fill="#c09ae4" opacity="1.00" d=" M 253.27 0.00 L 258.71 0.00 C 301.44 0.44 344.11 11.61 381.29 32.75 C 421.59 55.24 455.26 89.05 478.38 128.93 C 454.35 170.93 418.23 205.75 375.56 228.53 C 369.23 200.13 352.53 174.19 329.22 156.77 C 308.35 140.92 282.25 132.26 256.07 132.22 C 253.21 132.34 250.37 132.58 247.52 132.87 C 222.54 134.20 198.17 144.00 178.84 159.84 C 157.29 177.43 141.98 202.54 136.41 229.82 C 136.07 228.57 135.19 227.66 134.05 227.09 C 92.34 204.51 57.18 170.06 33.62 128.90 C 35.84 125.36 37.92 121.74 40.25 118.26 C 62.10 83.88 92.41 55.02 127.58 34.51 C 165.55 12.36 209.33 0.43 253.27 0.00 M 252.02 29.23 C 251.36 31.82 251.48 34.69 249.91 36.99 C 247.55 41.24 242.62 43.23 237.93 43.12 C 237.91 45.98 237.71 48.84 238.10 51.68 C 242.08 51.61 246.24 52.92 248.78 56.13 C 251.06 58.66 251.63 62.13 251.78 65.42 C 254.59 65.49 257.41 65.50 260.23 65.42 C 260.27 61.45 261.43 57.23 264.68 54.68 C 267.19 52.32 270.69 51.75 274.01 51.63 C 274.16 48.80 274.14 45.96 274.08 43.12 C 269.61 43.19 264.90 41.44 262.43 37.54 C 260.68 35.14 260.48 32.10 260.13 29.26 C 257.42 29.25 254.72 29.28 252.02 29.23 M 152.79 71.78 C 152.65 75.23 151.97 78.88 149.46 81.45 C 146.93 84.41 142.98 85.59 139.19 85.54 C 138.68 88.36 138.93 91.23 138.95 94.07 C 142.63 94.19 146.53 95.06 149.12 97.88 C 151.87 100.48 152.69 104.34 152.77 107.98 C 155.60 108.02 158.42 108.02 161.25 107.99 C 161.32 104.37 162.13 100.53 164.86 97.94 C 167.43 95.04 171.38 94.20 175.08 94.06 C 175.17 91.29 175.15 88.53 175.10 85.76 C 171.97 85.28 168.58 85.09 166.09 82.87 C 162.60 80.33 161.28 75.94 161.23 71.78 C 158.42 71.71 155.60 71.71 152.79 71.78 M 344.37 81.35 C 341.80 84.57 337.64 85.35 333.79 85.79 C 333.68 88.55 333.68 91.31 333.77 94.06 C 337.27 94.22 340.99 94.94 343.56 97.53 C 346.47 100.10 347.61 104.03 347.47 107.81 C 350.32 108.14 353.20 108.01 356.06 107.97 C 356.13 104.30 357.00 100.41 359.79 97.82 C 362.36 95.01 366.26 94.20 369.92 94.06 C 369.96 91.22 370.04 88.38 369.78 85.54 C 362.09 86.30 355.46 79.38 356.05 71.80 C 353.29 71.70 350.53 71.73 347.77 71.74 C 347.26 75.12 346.92 78.79 344.37 81.35 M 92.23 151.91 C 102.56 162.27 112.86 172.68 123.29 182.93 L 124.00 182.97 C 129.06 177.80 134.68 173.01 139.17 167.36 C 128.69 157.05 118.39 146.55 107.93 136.22 C 102.66 141.41 97.43 146.65 92.23 151.91 M 372.60 167.45 C 377.39 173.13 383.06 178.05 388.19 183.43 C 398.80 173.04 409.24 162.46 419.74 151.95 C 414.53 146.66 409.28 141.40 403.98 136.20 C 393.49 146.59 383.18 157.16 372.60 167.45 Z" />
</g>
<g id="#ffffffff">
<path fill="#ffffff" opacity="1.00" d=" M 252.02 29.23 C 254.72 29.28 257.42 29.25 260.13 29.26 C 260.48 32.10 260.68 35.14 262.43 37.54 C 264.90 41.44 269.61 43.19 274.08 43.12 C 274.14 45.96 274.16 48.80 274.01 51.63 C 270.69 51.75 267.19 52.32 264.68 54.68 C 261.43 57.23 260.27 61.45 260.23 65.42 C 257.41 65.50 254.59 65.49 251.78 65.42 C 251.63 62.13 251.06 58.66 248.78 56.13 C 246.24 52.92 242.08 51.61 238.10 51.68 C 237.71 48.84 237.91 45.98 237.93 43.12 C 242.62 43.23 247.55 41.24 249.91 36.99 C 251.48 34.69 251.36 31.82 252.02 29.23 Z" />
<path fill="#ffffff" opacity="1.00" d=" M 152.79 71.78 C 155.60 71.71 158.42 71.71 161.23 71.78 C 161.28 75.94 162.60 80.33 166.09 82.87 C 168.58 85.09 171.97 85.28 175.10 85.76 C 175.15 88.53 175.17 91.29 175.08 94.06 C 171.38 94.20 167.43 95.04 164.86 97.94 C 162.13 100.53 161.32 104.37 161.25 107.99 C 158.42 108.02 155.60 108.02 152.77 107.98 C 152.69 104.34 151.87 100.48 149.12 97.88 C 146.53 95.06 142.63 94.19 138.95 94.07 C 138.93 91.23 138.68 88.36 139.19 85.54 C 142.98 85.59 146.93 84.41 149.46 81.45 C 151.97 78.88 152.65 75.23 152.79 71.78 Z" />
<path fill="#ffffff" opacity="1.00" d=" M 344.37 81.35 C 346.92 78.79 347.26 75.12 347.77 71.74 C 350.53 71.73 353.29 71.70 356.05 71.80 C 355.46 79.38 362.09 86.30 369.78 85.54 C 370.04 88.38 369.96 91.22 369.92 94.06 C 366.26 94.20 362.36 95.01 359.79 97.82 C 357.00 100.41 356.13 104.30 356.06 107.97 C 353.20 108.01 350.32 108.14 347.47 107.81 C 347.61 104.03 346.47 100.10 343.56 97.53 C 340.99 94.94 337.27 94.22 333.77 94.06 C 333.68 91.31 333.68 88.55 333.79 85.79 C 337.64 85.35 341.80 84.57 344.37 81.35 Z" />
</g>
<g id="#a168d6ff">
<path fill="#a168d6" opacity="1.00" d=" M 0.00 243.35 C 2.24 203.31 13.38 163.61 33.62 128.90 C 57.18 170.06 92.34 204.51 134.05 227.09 C 135.19 227.66 136.07 228.57 136.41 229.82 C 129.66 260.60 135.37 293.98 152.39 320.55 C 155.54 325.63 159.30 330.29 162.85 335.10 C 171.85 347.45 177.33 362.42 178.03 377.72 C 131.03 377.58 84.02 377.73 37.01 377.64 C 34.88 377.63 32.75 377.77 30.63 377.94 C 12.27 344.13 1.87 306.17 0.00 267.77 L 0.00 243.35 M 66.23 244.37 C 66.18 251.79 66.18 259.21 66.23 266.63 C 81.32 266.55 96.41 266.81 111.49 266.50 C 111.43 259.17 111.43 251.83 111.49 244.50 C 96.41 244.19 81.32 244.44 66.23 244.37 M 121.64 329.56 C 111.86 339.42 101.98 349.18 92.21 359.05 C 97.44 364.28 102.68 369.51 107.91 374.75 C 118.07 364.62 128.23 354.48 138.34 344.31 C 138.54 343.99 138.94 343.35 139.13 343.03 C 134.03 337.97 128.92 332.91 123.90 327.77 C 123.06 328.25 122.31 328.85 121.64 329.56 Z" />
<path fill="#a168d6" opacity="1.00" d=" M 478.38 128.93 C 498.50 163.39 509.52 202.78 512.00 242.52 L 512.00 268.65 C 509.87 306.71 499.61 344.35 481.40 377.90 C 458.27 377.36 435.11 377.82 411.97 377.67 C 385.98 377.68 359.99 377.63 334.01 377.69 C 334.93 365.64 338.01 353.66 344.11 343.16 C 347.65 336.62 352.73 331.14 356.90 325.03 C 376.17 297.29 383.07 261.44 375.56 228.53 C 418.23 205.75 454.35 170.93 478.38 128.93 M 400.43 244.58 C 400.56 251.89 400.51 259.21 400.46 266.52 C 415.56 266.91 430.69 266.60 445.80 266.67 C 445.87 259.22 445.87 251.77 445.80 244.32 C 430.68 244.46 415.51 243.96 400.43 244.58 M 372.51 343.26 C 382.88 353.89 393.48 364.30 403.96 374.82 C 409.25 369.61 414.51 364.35 419.72 359.06 C 409.19 348.59 398.84 337.91 388.13 327.64 C 382.94 332.86 377.72 338.06 372.51 343.26 Z" />
</g>
<g id="#fae079ff">
<path fill="#fae079" opacity="1.00" d=" M 247.52 132.87 C 250.37 132.58 253.21 132.34 256.07 132.22 C 255.85 158.16 256.12 184.11 255.95 210.06 C 255.96 212.05 256.12 214.05 256.43 216.02 L 255.95 216.74 C 254.67 218.39 254.03 220.39 253.29 222.31 C 243.15 248.22 232.78 274.05 222.72 299.99 C 222.58 340.79 222.65 381.60 222.69 422.40 C 215.05 422.49 207.40 422.55 199.76 422.36 C 199.61 408.58 199.75 394.79 199.68 381.01 C 199.72 367.76 198.61 354.33 194.50 341.66 C 192.27 334.59 188.30 328.25 185.72 321.31 C 178.52 302.71 174.19 282.96 173.23 263.02 C 171.84 238.48 178.91 214.24 189.14 192.17 C 195.50 178.89 203.31 166.18 213.26 155.27 C 219.70 148.25 227.08 141.93 235.62 137.61 C 239.42 135.63 243.59 134.53 247.52 132.87 Z" />
<path fill="#fae079" opacity="1.00" d=" M 92.23 151.91 C 97.43 146.65 102.66 141.41 107.93 136.22 C 118.39 146.55 128.69 157.05 139.17 167.36 C 134.68 173.01 129.06 177.80 124.00 182.97 L 123.29 182.93 C 112.86 172.68 102.56 162.27 92.23 151.91 Z" />
<path fill="#fae079" opacity="1.00" d=" M 66.23 244.37 C 81.32 244.44 96.41 244.19 111.49 244.50 C 111.43 251.83 111.43 259.17 111.49 266.50 C 96.41 266.81 81.32 266.55 66.23 266.63 C 66.18 259.21 66.18 251.79 66.23 244.37 Z" />
<path fill="#fae079" opacity="1.00" d=" M 121.64 329.56 C 122.31 328.85 123.06 328.25 123.90 327.77 C 128.92 332.91 134.03 337.97 139.13 343.03 C 138.94 343.35 138.54 343.99 138.34 344.31 C 128.23 354.48 118.07 364.62 107.91 374.75 C 102.68 369.51 97.44 364.28 92.21 359.05 C 101.98 349.18 111.86 339.42 121.64 329.56 Z" />
</g>
<g id="#f5c449ff">
<path fill="#f5c449" opacity="1.00" d=" M 256.07 132.22 C 282.25 132.26 308.35 140.92 329.22 156.77 C 352.53 174.19 369.23 200.13 375.56 228.53 C 383.07 261.44 376.17 297.29 356.90 325.03 C 352.73 331.14 347.65 336.62 344.11 343.16 C 338.01 353.66 334.93 365.64 334.01 377.69 C 333.94 392.67 334.09 407.65 333.94 422.62 C 319.12 422.68 304.30 422.64 289.49 422.65 C 289.52 381.75 289.62 340.85 289.44 299.96 C 278.54 271.94 267.30 244.05 256.43 216.02 C 256.12 214.05 255.96 212.05 255.95 210.06 C 256.12 184.11 255.85 158.16 256.07 132.22 Z" />
<path fill="#f5c449" opacity="1.00" d=" M 372.60 167.45 C 383.18 157.16 393.49 146.59 403.98 136.20 C 409.28 141.40 414.53 146.66 419.74 151.95 C 409.24 162.46 398.80 173.04 388.19 183.43 C 383.06 178.05 377.39 173.13 372.60 167.45 Z" />
<path fill="#f5c449" opacity="1.00" d=" M 400.43 244.58 C 415.51 243.96 430.68 244.46 445.80 244.32 C 445.87 251.77 445.87 259.22 445.80 266.67 C 430.69 266.60 415.56 266.91 400.46 266.52 C 400.51 259.21 400.56 251.89 400.43 244.58 Z" />
<path fill="#f5c449" opacity="1.00" d=" M 372.51 343.26 C 377.72 338.06 382.94 332.86 388.13 327.64 C 398.84 337.91 409.19 348.59 419.72 359.06 C 414.51 364.35 409.25 369.61 403.96 374.82 C 393.48 364.30 382.88 353.89 372.51 343.26 Z" />
</g>
<g id="#fdf5baff">
<path fill="#fdf5ba" opacity="1.00" d=" M 178.84 159.84 C 198.17 144.00 222.54 134.20 247.52 132.87 C 243.59 134.53 239.42 135.63 235.62 137.61 C 227.08 141.93 219.70 148.25 213.26 155.27 C 203.31 166.18 195.50 178.89 189.14 192.17 C 178.91 214.24 171.84 238.48 173.23 263.02 C 174.19 282.96 178.52 302.71 185.72 321.31 C 188.30 328.25 192.27 334.59 194.50 341.66 C 198.61 354.33 199.72 367.76 199.68 381.01 C 199.75 394.79 199.61 408.58 199.76 422.36 C 192.57 422.13 185.36 422.34 178.17 422.25 C 178.07 407.40 178.33 392.56 178.03 377.72 C 177.33 362.42 171.85 347.45 162.85 335.10 C 159.30 330.29 155.54 325.63 152.39 320.55 C 135.37 293.98 129.66 260.60 136.41 229.82 C 141.98 202.54 157.29 177.43 178.84 159.84 Z" />
</g>
<g id="#fdf6ecff">
<path fill="#fdf6ec" opacity="1.00" d=" M 253.29 222.31 C 254.03 220.39 254.67 218.39 255.95 216.74 C 256.09 244.48 255.94 272.23 256.00 299.98 C 244.91 299.99 233.81 299.97 222.72 299.99 C 232.78 274.05 243.15 248.22 253.29 222.31 Z" />
<path fill="#fdf6ec" opacity="1.00" d=" M 202.05 468.99 C 199.98 461.00 200.39 452.68 200.46 444.51 C 218.91 444.46 237.37 444.69 255.81 444.40 C 256.22 466.92 255.94 489.47 255.95 512.00 L 252.57 512.00 C 245.36 511.28 238.23 509.50 231.75 506.21 C 217.03 498.95 205.89 484.94 202.05 468.99 Z" />
</g>
<g id="#dbe0efff">
<path fill="#dbe0ef" opacity="1.00" d=" M 255.95 216.74 L 256.43 216.02 C 267.30 244.05 278.54 271.94 289.44 299.96 C 278.29 299.98 267.15 299.96 256.00 299.98 C 255.94 272.23 256.09 244.48 255.95 216.74 Z" />
<path fill="#dbe0ef" opacity="1.00" d=" M 255.81 444.40 C 274.46 444.08 293.14 444.25 311.80 444.31 C 312.37 456.66 311.69 469.54 305.87 480.72 C 297.74 497.52 280.95 509.39 262.52 512.00 L 255.95 512.00 C 255.94 489.47 256.22 466.92 255.81 444.40 Z" />
</g>
<g id="#97cbefff">
<path fill="#97cbef" opacity="1.00" d=" M 222.72 299.99 C 233.81 299.97 244.91 299.99 256.00 299.98 C 255.91 340.79 256.17 381.60 255.87 422.41 C 244.81 422.21 233.74 422.24 222.69 422.40 C 222.65 381.60 222.58 340.79 222.72 299.99 Z" />
</g>
<g id="#7dabeaff">
<path fill="#7dabea" opacity="1.00" d=" M 256.00 299.98 C 267.15 299.96 278.29 299.98 289.44 299.96 C 289.62 340.85 289.52 381.75 289.49 422.65 C 278.28 422.39 267.07 422.82 255.87 422.41 C 256.17 381.60 255.91 340.79 256.00 299.98 Z" />
</g>
<g id="#5740b5ff">
<path fill="#5740b5" opacity="1.00" d=" M 30.63 377.94 C 32.75 377.77 34.88 377.63 37.01 377.64 C 84.02 377.73 131.03 377.58 178.03 377.72 C 178.33 392.56 178.07 407.40 178.17 422.25 C 185.36 422.34 192.57 422.13 199.76 422.36 C 207.40 422.55 215.05 422.49 222.69 422.40 C 233.74 422.24 244.81 422.21 255.87 422.41 C 267.07 422.82 278.28 422.39 289.49 422.65 C 304.30 422.64 319.12 422.68 333.94 422.62 C 334.09 407.65 333.94 392.67 334.01 377.69 C 359.99 377.63 385.98 377.68 411.97 377.67 C 435.11 377.82 458.27 377.36 481.40 377.90 C 461.22 415.39 431.43 447.63 395.72 470.82 C 363.04 492.22 325.33 505.95 286.53 510.42 C 281.91 511.27 277.16 510.97 272.54 512.00 L 262.52 512.00 C 280.95 509.39 297.74 497.52 305.87 480.72 C 311.69 469.54 312.37 456.66 311.80 444.31 C 293.14 444.25 274.46 444.08 255.81 444.40 C 237.37 444.69 218.91 444.46 200.46 444.51 C 200.39 452.68 199.98 461.00 202.05 468.99 C 205.89 484.94 217.03 498.95 231.75 506.21 C 238.23 509.50 245.36 511.28 252.57 512.00 L 239.54 512.00 C 234.89 511.00 230.10 511.26 225.45 510.42 C 190.23 506.33 155.90 494.62 125.41 476.51 C 85.71 452.98 52.50 418.59 30.63 377.94 Z" />
</g>
</svg>
