<?xml version="1.0" encoding="UTF-8" ?>
<!DOCTYPE svg PUBLIC "-//W3C//DTD SVG 1.1//EN" "http://www.w3.org/Graphics/SVG/1.1/DTD/svg11.dtd">
<svg width="512pt" height="512pt" viewBox="0 0 512 512" version="1.1" xmlns="http://www.w3.org/2000/svg">
<g id="#273143ff">
<path fill="#273143" opacity="1.00" d=" M 40.62 0.00 L 256.00 0.00 C 256.00 37.67 256.00 75.33 256.00 113.00 C 255.92 118.56 255.77 124.13 256.33 129.67 C 264.20 130.44 272.11 129.85 280.00 130.00 C 357.33 130.01 434.67 130.00 512.00 130.00 L 512.00 471.36 C 510.64 482.32 505.61 492.91 497.30 500.30 C 490.23 506.92 480.91 510.75 471.37 512.00 L 256.00 512.00 C 256.00 398.00 256.00 284.00 256.00 170.00 C 255.86 156.71 256.25 143.42 255.87 130.14 C 226.26 129.79 196.62 130.10 167.00 130.00 C 111.33 130.00 55.67 130.00 0.00 130.00 L 0.00 40.63 C 1.25 31.09 5.08 21.77 11.70 14.69 C 19.08 6.39 29.66 1.37 40.62 0.00 M 71.37 50.50 C 64.57 52.12 59.47 58.99 60.09 66.00 C 60.43 73.94 68.05 80.65 75.99 79.91 C 84.29 79.57 91.15 71.28 89.81 63.05 C 88.92 54.51 79.68 48.14 71.37 50.50 M 121.37 50.50 C 114.21 52.16 109.05 59.66 110.18 66.95 C 111.03 74.87 119.06 81.08 126.95 79.82 C 134.87 78.97 141.08 70.95 139.82 63.05 C 138.94 54.49 129.67 48.14 121.37 50.50 M 171.37 50.50 C 164.88 52.01 159.93 58.32 160.05 65.00 C 159.84 72.98 167.01 80.16 175.00 79.95 C 183.35 80.19 190.72 72.33 189.92 64.01 C 189.61 55.03 180.03 48.01 171.37 50.50 M 284.33 170.34 C 275.18 175.47 268.24 184.40 265.53 194.54 C 262.77 204.56 264.13 215.67 269.34 224.67 C 274.47 233.82 283.40 240.76 293.54 243.46 C 303.08 246.10 313.62 245.00 322.37 240.37 C 330.78 236.08 337.40 228.61 341.04 219.94 C 379.00 220.03 416.97 220.06 454.93 219.93 C 455.07 209.98 455.07 200.02 454.93 190.07 C 416.97 189.94 379.00 189.97 341.04 190.06 C 336.74 179.69 328.05 171.20 317.44 167.46 C 306.68 163.57 294.24 164.60 284.33 170.34 M 397.30 269.30 C 388.60 273.53 381.68 281.14 377.98 290.05 C 340.01 289.98 302.04 289.94 264.07 290.07 C 263.93 300.02 263.93 309.98 264.07 319.93 C 302.04 320.06 340.01 320.02 377.98 319.95 C 382.25 330.32 390.96 338.80 401.57 342.53 C 410.92 345.83 421.52 345.66 430.63 341.66 C 439.77 337.80 447.33 330.40 451.35 321.33 C 456.26 310.66 456.02 297.78 450.70 287.30 C 446.68 279.08 439.69 272.38 431.34 268.65 C 420.66 263.74 407.78 263.98 397.30 269.30 M 343.69 370.71 C 336.17 375.09 330.31 382.08 326.96 390.09 C 306.00 389.93 285.03 389.95 264.07 390.07 C 263.93 400.02 263.93 409.98 264.07 419.93 C 285.03 420.05 306.00 420.07 326.96 419.91 C 330.40 428.14 336.51 435.30 344.33 439.66 C 353.78 445.13 365.56 446.37 375.95 443.03 C 387.23 439.59 396.57 430.78 401.04 419.91 C 419.00 420.07 436.96 420.05 454.92 419.93 C 455.07 409.98 455.06 400.02 454.93 390.07 C 436.97 389.95 419.00 389.93 401.04 390.09 C 396.67 379.46 387.64 370.80 376.69 367.21 C 365.88 363.51 353.48 364.81 343.69 370.71 Z" />
</g>
<g id="#141923ff">
<path fill="#141923" opacity="1.00" d=" M 256.00 0.00 L 474.27 0.00 C 482.90 2.26 491.51 5.71 497.94 12.11 C 505.39 18.78 509.58 28.16 512.00 37.69 L 512.00 130.00 C 434.67 130.00 357.33 130.01 280.00 130.00 C 272.11 129.85 264.20 130.44 256.33 129.67 C 255.77 124.13 255.92 118.56 256.00 113.00 C 256.00 75.33 256.00 37.67 256.00 0.00 Z" />
</g>
<g id="#d13479ff">
<path fill="#d13479" opacity="1.00" d=" M 71.37 50.50 C 79.68 48.14 88.92 54.51 89.81 63.05 C 91.15 71.28 84.29 79.57 75.99 79.91 C 68.05 80.65 60.43 73.94 60.09 66.00 C 59.47 58.99 64.57 52.12 71.37 50.50 Z" />
<path fill="#d13479" opacity="1.00" d=" M 55.96 240.80 L 56.65 241.17 C 71.17 248.87 86.00 255.97 100.60 263.51 C 115.96 271.55 131.60 279.06 146.98 287.05 C 147.04 322.41 146.95 357.76 147.03 393.12 C 123.43 381.83 100.16 369.84 76.68 358.31 C 69.87 354.73 62.74 351.76 56.11 347.85 C 55.81 312.17 56.13 276.48 55.96 240.80 Z" />
</g>
<g id="#ee7a8dff">
<path fill="#ee7a8d" opacity="1.00" d=" M 121.37 50.50 C 129.67 48.14 138.94 54.49 139.82 63.05 C 141.08 70.95 134.87 78.97 126.95 79.82 C 119.06 81.08 111.03 74.87 110.18 66.95 C 109.05 59.66 114.21 52.16 121.37 50.50 Z" />
<path fill="#ee7a8d" opacity="1.00" d=" M 61.95 237.92 C 90.20 223.64 118.14 208.69 146.49 194.61 C 147.12 200.72 147.15 206.87 146.99 213.00 C 147.00 237.68 147.02 262.37 146.98 287.05 C 131.60 279.06 115.96 271.55 100.60 263.51 C 86.00 255.97 71.17 248.87 56.65 241.17 C 58.37 240.01 60.11 238.88 61.95 237.92 Z" />
</g>
<g id="#c0c8d5ff">
<path fill="#c0c8d5" opacity="1.00" d=" M 171.37 50.50 C 180.03 48.01 189.61 55.03 189.92 64.01 C 190.72 72.33 183.35 80.19 175.00 79.95 C 167.01 80.16 159.84 72.98 160.05 65.00 C 159.93 58.32 164.88 52.01 171.37 50.50 Z" />
<path fill="#c0c8d5" opacity="1.00" d=" M 284.33 170.34 C 294.24 164.60 306.68 163.57 317.44 167.46 C 328.05 171.20 336.74 179.69 341.04 190.06 C 344.74 199.59 344.75 210.41 341.04 219.94 C 337.40 228.61 330.78 236.08 322.37 240.37 C 313.62 245.00 303.08 246.10 293.54 243.46 C 283.40 240.76 274.47 233.82 269.34 224.67 C 264.13 215.67 262.77 204.56 265.53 194.54 C 268.24 184.40 275.18 175.47 284.33 170.34 Z" />
</g>
<g id="#4c6185ff">
<path fill="#4c6185" opacity="1.00" d=" M 0.00 130.00 C 55.67 130.00 111.33 130.00 167.00 130.00 C 196.62 130.10 226.26 129.79 255.87 130.14 C 256.25 143.42 255.86 156.71 256.00 170.00 C 256.00 284.00 256.00 398.00 256.00 512.00 L 42.70 512.00 C 30.58 511.02 18.73 505.54 10.89 496.10 C 4.16 488.46 0.63 478.43 0.00 468.35 L 0.00 130.00 M 146.42 193.79 L 146.49 194.61 C 118.14 208.69 90.20 223.64 61.95 237.92 C 60.11 238.88 58.37 240.01 56.65 241.17 L 55.96 240.80 C 56.13 276.48 55.81 312.17 56.11 347.85 C 62.74 351.76 69.87 354.73 76.68 358.31 C 100.16 369.84 123.43 381.83 147.03 393.12 C 152.17 391.06 156.99 388.35 161.96 385.93 C 186.01 374.01 210.00 361.98 234.08 350.13 C 235.38 349.43 236.63 348.65 237.89 347.87 C 238.22 312.18 237.79 276.48 238.10 240.79 L 237.41 241.16 C 235.75 239.93 234.06 238.73 232.22 237.77 C 203.53 223.29 175.15 208.18 146.42 193.79 Z" />
</g>
<g id="#8a98b1ff">
<path fill="#8a98b1" opacity="1.00" d=" M 341.04 190.06 C 379.00 189.97 416.97 189.94 454.93 190.07 C 455.07 200.02 455.07 209.98 454.93 219.93 C 416.97 220.06 379.00 220.03 341.04 219.94 C 344.75 210.41 344.74 199.59 341.04 190.06 Z" />
<path fill="#8a98b1" opacity="1.00" d=" M 264.07 290.07 C 302.04 289.94 340.01 289.98 377.98 290.05 C 374.24 299.59 374.24 310.42 377.98 319.95 C 340.01 320.02 302.04 320.06 264.07 319.93 C 263.93 309.98 263.93 300.02 264.07 290.07 Z" />
<path fill="#8a98b1" opacity="1.00" d=" M 264.07 390.07 C 285.03 389.95 306.00 389.93 326.96 390.09 C 323.26 399.61 323.25 410.39 326.96 419.91 C 306.00 420.07 285.03 420.05 264.07 419.93 C 263.93 409.98 263.93 400.02 264.07 390.07 Z" />
<path fill="#8a98b1" opacity="1.00" d=" M 401.04 390.09 C 419.00 389.93 436.97 389.95 454.93 390.07 C 455.06 400.02 455.07 409.98 454.92 419.93 C 436.96 420.05 419.00 420.07 401.04 419.91 C 404.74 410.39 404.74 399.61 401.04 390.09 Z" />
</g>
<g id="#d74689ff">
<path fill="#d74689" opacity="1.00" d=" M 146.42 193.79 C 175.15 208.18 203.53 223.29 232.22 237.77 C 234.06 238.73 235.75 239.93 237.41 241.16 C 207.35 256.61 177.11 271.73 146.98 287.05 C 147.02 262.37 147.00 237.68 146.99 213.00 C 147.15 206.87 147.12 200.72 146.49 194.61 L 146.42 193.79 Z" />
<path fill="#d74689" opacity="1.00" d=" M 397.30 269.30 C 407.78 263.98 420.66 263.74 431.34 268.65 C 439.69 272.38 446.68 279.08 450.70 287.30 C 456.02 297.78 456.26 310.66 451.35 321.33 C 447.33 330.40 439.77 337.80 430.63 341.66 C 421.52 345.66 410.92 345.83 401.57 342.53 C 390.96 338.80 382.25 330.32 377.98 319.95 C 374.24 310.42 374.24 299.59 377.98 290.05 C 381.68 281.14 388.60 273.53 397.30 269.30 Z" />
</g>
<g id="#7c1d47ff">
<path fill="#7c1d47" opacity="1.00" d=" M 237.41 241.16 L 238.10 240.79 C 237.79 276.48 238.22 312.18 237.89 347.87 C 236.63 348.65 235.38 349.43 234.08 350.13 C 210.00 361.98 186.01 374.01 161.96 385.93 C 156.99 388.35 152.17 391.06 147.03 393.12 C 146.95 357.76 147.04 322.41 146.98 287.05 C 177.11 271.73 207.35 256.61 237.41 241.16 Z" />
</g>
<g id="#dbe0e6ff">
<path fill="#dbe0e6" opacity="1.00" d=" M 343.69 370.71 C 353.48 364.81 365.88 363.51 376.69 367.21 C 387.64 370.80 396.67 379.46 401.04 390.09 C 404.74 399.61 404.74 410.39 401.04 419.91 C 396.57 430.78 387.23 439.59 375.95 443.03 C 365.56 446.37 353.78 445.13 344.33 439.66 C 336.51 435.30 330.40 428.14 326.96 419.91 C 323.25 410.39 323.26 399.61 326.96 390.09 C 330.31 382.08 336.17 375.09 343.69 370.71 Z" />
</g>
</svg>
