<?xml version="1.0" encoding="UTF-8" ?>
<!DOCTYPE svg PUBLIC "-//W3C//DTD SVG 1.1//EN" "http://www.w3.org/Graphics/SVG/1.1/DTD/svg11.dtd">
<svg width="512pt" height="512pt" viewBox="0 0 512 512" version="1.1" xmlns="http://www.w3.org/2000/svg">
<g id="#f6d447ff">
<path fill="#f6d447" opacity="1.00" d=" M 173.31 12.28 C 175.44 6.85 181.03 2.75 186.97 3.04 C 231.29 2.95 275.62 3.04 319.95 2.98 C 323.53 3.01 327.31 2.65 330.66 4.22 C 336.07 6.45 339.72 12.14 339.66 17.98 C 339.68 44.95 339.70 71.93 339.65 98.91 C 339.68 106.36 333.40 113.18 325.91 113.53 C 312.28 113.78 298.63 113.41 284.99 113.68 C 280.21 113.48 277.79 118.00 275.84 121.60 C 271.52 129.07 267.28 136.58 262.89 144.00 C 260.33 148.97 252.41 149.24 249.45 144.53 C 244.45 137.18 241.18 128.80 236.11 121.49 C 234.55 119.24 233.42 116.53 231.07 114.98 C 228.69 113.39 225.71 113.63 222.98 113.57 C 213.34 113.68 203.68 113.45 194.04 113.80 C 189.83 113.75 185.40 114.33 181.43 112.57 C 175.73 110.24 171.93 104.18 172.14 98.04 C 172.16 73.04 172.17 48.03 172.14 23.02 C 172.16 19.43 171.82 15.66 173.31 12.28 M 260.33 21.43 C 257.56 22.69 256.17 25.57 255.53 28.39 C 250.48 47.61 245.16 66.76 240.16 85.99 C 238.63 91.26 243.73 96.78 249.06 95.98 C 252.63 95.53 255.50 92.66 256.21 89.18 C 261.29 70.29 266.30 51.38 271.42 32.51 C 272.18 29.84 272.50 26.76 270.79 24.39 C 268.72 20.88 263.92 19.66 260.33 21.43 M 223.33 34.22 C 219.81 36.26 217.35 39.63 214.40 42.35 C 210.94 45.93 207.21 49.25 203.90 52.96 C 201.11 55.95 201.22 61.03 204.15 63.89 C 209.55 69.46 215.11 74.88 220.60 80.37 C 222.99 82.97 227.06 83.96 230.24 82.21 C 234.28 80.35 236.12 74.88 233.81 71.02 C 230.64 66.10 225.14 62.93 222.03 58.10 C 225.81 53.20 231.64 49.89 234.40 44.25 C 236.87 37.88 229.44 31.19 223.33 34.22 M 280.93 34.84 C 277.17 37.17 275.92 42.77 278.69 46.32 C 282.26 50.57 286.49 54.22 290.33 58.23 C 287.37 61.32 284.34 64.34 281.27 67.32 C 279.44 69.16 277.49 71.21 277.23 73.93 C 276.53 78.82 281.09 83.61 286.03 83.06 C 289.40 82.87 291.70 80.10 293.95 77.93 C 298.51 73.17 303.36 68.70 307.86 63.90 C 310.99 60.85 310.81 55.45 307.69 52.46 C 302.42 47.03 297.00 41.72 291.64 36.37 C 288.99 33.43 284.26 32.61 280.93 34.84 Z" />
</g>
<g id="#f1f7fcff">
<path fill="#f1f7fc" opacity="1.00" d=" M 260.33 21.43 C 263.92 19.66 268.72 20.88 270.79 24.39 C 272.50 26.76 272.18 29.84 271.42 32.51 C 266.30 51.38 261.29 70.29 256.21 89.18 C 255.50 92.66 252.63 95.53 249.06 95.98 C 243.73 96.78 238.63 91.26 240.16 85.99 C 245.16 66.76 250.48 47.61 255.53 28.39 C 256.17 25.57 257.56 22.69 260.33 21.43 Z" />
<path fill="#f1f7fc" opacity="1.00" d=" M 223.33 34.22 C 229.44 31.19 236.87 37.88 234.40 44.25 C 231.64 49.89 225.81 53.20 222.03 58.10 C 225.14 62.93 230.64 66.10 233.81 71.02 C 236.12 74.88 234.28 80.35 230.24 82.21 C 227.06 83.96 222.99 82.97 220.60 80.37 C 215.11 74.88 209.55 69.46 204.15 63.89 C 201.22 61.03 201.11 55.95 203.90 52.96 C 207.21 49.25 210.94 45.93 214.40 42.35 C 217.35 39.63 219.81 36.26 223.33 34.22 Z" />
<path fill="#f1f7fc" opacity="1.00" d=" M 280.93 34.84 C 284.26 32.61 288.99 33.43 291.64 36.37 C 297.00 41.72 302.42 47.03 307.69 52.46 C 310.81 55.45 310.99 60.85 307.86 63.90 C 303.36 68.70 298.51 73.17 293.95 77.93 C 291.70 80.10 289.40 82.87 286.03 83.06 C 281.09 83.61 276.53 78.82 277.23 73.93 C 277.49 71.21 279.44 69.16 281.27 67.32 C 284.34 64.34 287.37 61.32 290.33 58.23 C 286.49 54.22 282.26 50.57 278.69 46.32 C 275.92 42.77 277.17 37.17 280.93 34.84 Z" />
<path fill="#f1f7fc" opacity="1.00" d=" M 250.93 172.63 C 266.76 171.29 283.07 176.53 295.20 186.80 C 307.63 197.19 315.66 212.72 316.79 228.90 C 317.91 242.93 313.86 257.25 305.70 268.70 C 294.31 285.07 274.45 294.98 254.56 294.49 C 250.11 292.96 245.59 291.61 241.19 289.93 C 228.10 284.30 216.94 274.13 210.51 261.37 C 203.85 248.40 201.59 232.97 205.51 218.81 C 210.82 195.70 230.93 177.30 254.13 173.07 C 253.33 172.96 251.73 172.74 250.93 172.63 Z" />
</g>
<g id="#e9554eff">
<path fill="#e9554e" opacity="1.00" d=" M 232.92 130.07 C 234.37 127.37 235.08 124.36 236.11 121.49 C 241.18 128.80 244.45 137.18 249.45 144.53 C 252.41 149.24 260.33 148.97 262.89 144.00 C 267.28 136.58 271.52 129.07 275.84 121.60 C 277.40 125.40 277.55 131.02 282.12 132.55 C 288.13 134.50 294.22 136.30 299.92 139.08 C 304.00 140.67 307.53 143.94 311.99 144.36 C 318.84 142.52 324.52 137.81 331.19 135.48 C 334.62 134.44 337.26 137.35 339.43 139.52 C 343.69 143.90 348.06 148.18 352.42 152.47 C 353.69 154.31 354.80 156.65 353.76 158.88 C 351.61 164.42 348.23 169.39 345.89 174.84 C 345.25 176.34 344.74 178.06 345.47 179.63 C 346.95 183.46 349.29 186.90 350.92 190.67 C 353.04 195.29 354.70 200.10 356.12 204.97 C 356.85 207.24 357.62 209.98 360.11 210.90 C 366.11 213.51 372.72 214.51 378.60 217.42 C 381.31 218.89 381.39 222.31 381.42 225.01 C 381.39 230.67 381.39 236.32 381.42 241.98 C 381.40 244.67 381.27 248.04 378.57 249.50 C 372.69 252.41 366.07 253.42 360.06 256.02 C 357.54 256.95 356.83 259.76 356.09 262.05 C 354.00 269.46 351.09 276.63 347.32 283.35 C 346.19 285.63 344.42 288.16 345.45 290.80 C 347.77 297.44 352.60 303.07 354.20 309.95 C 353.47 315.49 347.69 318.34 344.40 322.37 C 340.47 325.59 337.58 331.45 332.00 331.61 C 325.22 329.63 319.59 324.96 312.89 322.76 C 310.58 322.05 308.42 323.58 306.42 324.50 C 299.72 328.28 292.56 331.24 285.17 333.35 C 282.69 334.19 279.57 334.84 278.54 337.59 C 275.90 343.56 274.91 350.15 272.05 356.04 C 270.46 358.89 266.87 358.86 264.03 358.85 C 257.67 358.69 251.31 359.23 244.96 358.94 C 242.66 358.95 240.41 357.64 239.47 355.52 C 236.91 349.73 235.82 343.39 233.28 337.59 C 232.37 335.10 229.57 334.45 227.34 333.69 C 219.97 331.58 212.75 328.81 206.16 324.87 C 203.96 323.76 201.57 321.93 198.99 322.81 C 192.84 324.96 187.52 328.93 181.53 331.44 C 178.74 332.77 175.90 330.94 173.98 328.99 C 169.47 324.49 164.97 319.97 160.45 315.47 C 158.47 313.63 156.95 310.85 158.04 308.13 C 160.31 302.03 164.24 296.69 166.46 290.56 C 167.33 288.27 165.77 286.07 164.86 284.07 C 160.98 277.17 157.94 269.81 155.79 262.20 C 155.03 260.19 154.60 257.62 152.52 256.54 C 146.42 253.54 139.49 252.66 133.38 249.69 C 130.30 247.99 130.36 244.07 130.34 241.03 C 130.48 235.01 130.22 228.98 130.45 222.96 C 130.47 220.49 131.63 217.90 134.02 216.90 C 139.80 214.42 146.08 213.30 151.83 210.75 C 154.34 209.86 154.99 207.05 155.76 204.82 C 157.16 199.98 158.79 195.21 160.93 190.65 C 162.73 186.37 165.75 182.59 166.81 178.02 C 165.30 170.81 159.96 165.06 157.90 158.02 C 157.28 156.02 158.48 154.12 159.44 152.47 C 164.53 147.52 169.45 142.41 174.51 137.45 C 176.31 135.58 179.08 134.37 181.61 135.53 C 187.26 138.01 192.42 141.52 198.14 143.84 C 200.61 145.09 203.23 143.71 205.39 142.49 C 212.17 138.42 219.57 135.46 227.17 133.31 C 229.21 132.57 231.77 132.13 232.92 130.07 M 250.93 172.63 C 235.10 173.76 219.98 181.67 209.69 193.69 C 200.38 204.50 194.74 218.68 195.08 233.01 C 194.51 249.09 201.33 265.04 212.62 276.37 C 223.55 287.52 238.91 294.28 254.56 294.49 C 274.45 294.98 294.31 285.07 305.70 268.70 C 313.86 257.25 317.91 242.93 316.79 228.90 C 315.66 212.72 307.63 197.19 295.20 186.80 C 283.07 176.53 266.76 171.29 250.93 172.63 Z" />
</g>
<g id="#375171ff">
<path fill="#375171" opacity="1.00" d=" M 46.78 162.90 C 49.88 156.49 56.84 152.27 63.96 152.47 C 95.79 152.45 127.61 152.48 159.44 152.47 C 158.48 154.12 157.28 156.02 157.90 158.02 C 159.96 165.06 165.30 170.81 166.81 178.02 C 165.75 182.59 162.73 186.37 160.93 190.65 C 142.35 190.61 123.76 190.82 105.18 190.54 C 99.71 190.43 94.19 190.07 88.73 190.70 C 82.77 191.37 77.80 196.95 77.99 202.98 C 78.01 266.67 77.99 330.37 78.00 394.06 C 77.87 400.08 82.96 405.74 88.98 406.17 C 94.32 406.67 99.70 406.35 105.06 406.29 C 210.36 406.07 315.66 406.29 420.96 406.18 C 425.18 406.26 429.44 404.29 431.76 400.71 C 434.58 396.72 433.85 391.58 433.96 386.98 C 433.90 325.96 433.97 264.94 433.92 203.92 C 434.06 199.53 432.00 195.07 428.22 192.72 C 425.52 190.83 422.10 190.68 418.93 190.64 C 396.26 190.70 373.59 190.65 350.92 190.67 C 349.29 186.90 346.95 183.46 345.47 179.63 C 344.74 178.06 345.25 176.34 345.89 174.84 C 348.23 169.39 351.61 164.42 353.76 158.88 C 354.80 156.65 353.69 154.31 352.42 152.47 C 381.61 152.47 410.79 152.47 439.98 152.46 C 443.59 152.48 447.21 152.30 450.81 152.65 C 457.43 153.37 463.37 158.04 465.82 164.20 C 467.64 168.57 467.15 173.41 467.21 178.03 C 467.17 268.19 467.22 358.36 467.19 448.53 C 432.17 448.58 397.15 448.29 362.14 448.67 C 333.75 449.14 305.36 448.73 276.97 448.87 C 234.60 448.73 192.23 449.13 149.87 448.67 C 114.87 448.28 79.85 448.59 44.84 448.52 C 44.81 358.35 44.86 268.17 44.82 178.00 C 44.86 172.94 44.34 167.54 46.78 162.90 Z" />
</g>
<g id="#b8e4f8ff">
<path fill="#b8e4f8" opacity="1.00" d=" M 209.69 193.69 C 219.98 181.67 235.10 173.76 250.93 172.63 C 251.73 172.74 253.33 172.96 254.13 173.07 C 230.93 177.30 210.82 195.70 205.51 218.81 C 201.59 232.97 203.85 248.40 210.51 261.37 C 216.94 274.13 228.10 284.30 241.19 289.93 C 245.59 291.61 250.11 292.96 254.56 294.49 C 238.91 294.28 223.55 287.52 212.62 276.37 C 201.33 265.04 194.51 249.09 195.08 233.01 C 194.74 218.68 200.38 204.50 209.69 193.69 Z" />
<path fill="#b8e4f8" opacity="1.00" d=" M 105.18 190.54 C 123.76 190.82 142.35 190.61 160.93 190.65 C 158.79 195.21 157.16 199.98 155.76 204.82 C 154.99 207.05 154.34 209.86 151.83 210.75 C 146.08 213.30 139.80 214.42 134.02 216.90 C 131.63 217.90 130.47 220.49 130.45 222.96 C 130.22 228.98 130.48 235.01 130.34 241.03 C 130.36 244.07 130.30 247.99 133.38 249.69 C 139.49 252.66 146.42 253.54 152.52 256.54 C 154.60 257.62 155.03 260.19 155.79 262.20 C 157.94 269.81 160.98 277.17 164.86 284.07 C 165.77 286.07 167.33 288.27 166.46 290.56 C 164.24 296.69 160.31 302.03 158.04 308.13 C 156.95 310.85 158.47 313.63 160.45 315.47 C 164.97 319.97 169.47 324.49 173.98 328.99 C 175.90 330.94 178.74 332.77 181.53 331.44 C 187.52 328.93 192.84 324.96 198.99 322.81 C 201.57 321.93 203.96 323.76 206.16 324.87 C 212.75 328.81 219.97 331.58 227.34 333.69 C 229.57 334.45 232.37 335.10 233.28 337.59 C 235.82 343.39 236.91 349.73 239.47 355.52 C 240.41 357.64 242.66 358.95 244.96 358.94 C 251.31 359.23 257.67 358.69 264.03 358.85 C 266.87 358.86 270.46 358.89 272.05 356.04 C 274.91 350.15 275.90 343.56 278.54 337.59 C 279.57 334.84 282.69 334.19 285.17 333.35 C 292.56 331.24 299.72 328.28 306.42 324.50 C 308.42 323.58 310.58 322.05 312.89 322.76 C 319.59 324.96 325.22 329.63 332.00 331.61 C 337.58 331.45 340.47 325.59 344.40 322.37 C 347.69 318.34 353.47 315.49 354.20 309.95 C 352.60 303.07 347.77 297.44 345.45 290.80 C 344.42 288.16 346.19 285.63 347.32 283.35 C 351.09 276.63 354.00 269.46 356.09 262.05 C 356.83 259.76 357.54 256.95 360.06 256.02 C 366.07 253.42 372.69 252.41 378.57 249.50 C 381.27 248.04 381.40 244.67 381.42 241.98 C 381.39 236.32 381.39 230.67 381.42 225.01 C 381.39 222.31 381.31 218.89 378.60 217.42 C 372.72 214.51 366.11 213.51 360.11 210.90 C 357.62 209.98 356.85 207.24 356.12 204.97 C 354.70 200.10 353.04 195.29 350.92 190.67 C 373.59 190.65 396.26 190.70 418.93 190.64 C 422.10 190.68 425.52 190.83 428.22 192.72 C 432.00 195.07 434.06 199.53 433.92 203.92 C 433.97 264.94 433.90 325.96 433.96 386.98 C 433.85 391.58 434.58 396.72 431.76 400.71 C 429.44 404.29 425.18 406.26 420.96 406.18 C 315.66 406.29 210.36 406.07 105.06 406.29 C 105.15 334.38 104.91 262.46 105.18 190.54 Z" />
</g>
<g id="#a4cedfff">
<path fill="#a4cedf" opacity="1.00" d=" M 88.73 190.70 C 94.19 190.07 99.71 190.43 105.18 190.54 C 104.91 262.46 105.15 334.38 105.06 406.29 C 99.70 406.35 94.32 406.67 88.98 406.17 C 82.96 405.74 77.87 400.08 78.00 394.06 C 77.99 330.37 78.01 266.67 77.99 202.98 C 77.80 196.95 82.77 191.37 88.73 190.70 Z" />
</g>
<g id="#596f8aff">
<path fill="#596f8a" opacity="1.00" d=" M 0.00 452.67 C 1.51 450.62 3.33 448.36 6.15 448.39 C 19.04 447.98 31.94 448.75 44.84 448.52 C 79.85 448.59 114.87 448.28 149.87 448.67 C 150.18 455.05 148.15 462.77 153.03 467.91 C 156.79 472.14 162.89 471.47 167.99 471.50 C 228.66 471.40 289.34 471.51 350.01 471.44 C 355.28 471.71 360.57 468.14 361.73 462.89 C 362.60 458.20 362.13 453.40 362.14 448.67 C 397.15 448.29 432.17 448.58 467.19 448.53 C 480.12 448.63 493.06 448.36 505.98 448.64 C 508.96 448.55 510.96 451.05 512.00 453.55 L 512.00 479.77 C 511.65 491.52 503.87 502.61 492.90 506.85 C 486.94 509.43 480.34 509.02 474.00 509.00 C 325.67 508.99 177.33 509.02 29.00 508.99 C 14.52 508.98 1.79 496.76 0.00 482.59 L 0.00 452.67 Z" />
</g>
<g id="#283b53ff">
<path fill="#283b53" opacity="1.00" d=" M 149.87 448.67 C 192.23 449.13 234.60 448.73 276.97 448.87 C 305.36 448.73 333.75 449.14 362.14 448.67 C 362.13 453.40 362.60 458.20 361.73 462.89 C 360.57 468.14 355.28 471.71 350.01 471.44 C 289.34 471.51 228.66 471.40 167.99 471.50 C 162.89 471.47 156.79 472.14 153.03 467.91 C 148.15 462.77 150.18 455.05 149.87 448.67 Z" />
</g>
</svg>
