<?xml version="1.0" encoding="UTF-8" ?>
<!DOCTYPE svg PUBLIC "-//W3C//DTD SVG 1.1//EN" "http://www.w3.org/Graphics/SVG/1.1/DTD/svg11.dtd">
<svg width="512pt" height="512pt" viewBox="0 0 512 512" version="1.1" xmlns="http://www.w3.org/2000/svg">
<g id="#5086edff">
<path fill="#5086ed" opacity="1.00" d=" M 6.54 0.00 L 481.05 0.00 C 481.05 14.12 481.35 28.25 480.84 42.36 C 478.68 36.48 473.57 31.40 467.08 30.98 C 458.50 29.90 450.15 37.40 450.19 46.02 C 449.73 54.86 458.21 62.80 467.01 61.76 C 473.44 61.33 478.56 56.36 480.79 50.55 C 481.43 64.60 480.99 78.67 481.08 92.74 C 320.72 92.80 160.36 92.65 0.00 92.81 L 0.00 6.75 C 0.59 3.35 3.20 0.74 6.54 0.00 M 30.92 30.92 C 30.91 41.22 30.92 51.51 30.92 61.81 C 119.16 61.81 207.41 61.83 295.66 61.80 C 295.66 51.52 295.64 41.24 295.67 30.96 C 207.42 30.86 119.17 30.94 30.92 30.92 M 337.39 31.62 C 330.64 33.72 325.79 40.79 326.65 47.87 C 327.30 56.24 335.74 63.01 344.07 61.67 C 352.71 60.69 359.24 51.50 357.09 43.02 C 355.39 34.47 345.68 28.74 337.39 31.62 M 399.41 31.55 C 392.54 33.58 387.58 40.74 388.47 47.91 C 389.13 55.97 396.99 62.60 405.06 61.75 C 413.64 61.25 420.63 52.58 419.10 44.08 C 417.98 35.12 408.03 28.68 399.41 31.55 Z" />
<path fill="#5086ed" opacity="1.00" d=" M 286.91 450.18 C 320.67 450.18 354.43 450.17 388.18 450.18 C 388.47 460.48 388.44 470.78 388.24 481.08 C 354.47 481.10 320.69 481.09 286.91 481.09 C 286.90 470.78 286.90 460.48 286.91 450.18 Z" />
</g>
<g id="#476ed1ff">
<path fill="#476ed1" opacity="1.00" d=" M 481.05 0.00 L 505.28 0.00 C 508.66 0.61 511.24 3.21 512.00 6.53 L 512.00 92.24 C 508.74 93.16 505.34 92.69 502.01 92.73 C 495.03 92.74 488.05 92.73 481.08 92.74 C 480.99 78.67 481.43 64.60 480.79 50.55 C 480.96 47.82 480.98 45.09 480.84 42.36 C 481.35 28.25 481.05 14.12 481.05 0.00 Z" />
<path fill="#476ed1" opacity="1.00" d=" M 388.18 450.18 C 398.54 450.21 408.89 450.19 419.25 450.19 C 419.26 460.48 419.26 470.77 419.25 481.07 C 408.91 481.08 398.58 481.05 388.24 481.08 C 388.44 470.78 388.47 460.48 388.18 450.18 Z" />
</g>
<g id="#ffffffff">
<path fill="#ffffff" opacity="1.00" d=" M 30.92 30.92 C 119.17 30.94 207.42 30.86 295.67 30.96 C 295.64 41.24 295.66 51.52 295.66 61.80 C 207.41 61.83 119.16 61.81 30.92 61.81 C 30.92 51.51 30.91 41.22 30.92 30.92 Z" />
<path fill="#ffffff" opacity="1.00" d=" M 30.93 123.64 C 170.67 123.56 310.41 123.62 450.14 123.61 C 450.15 135.54 450.34 147.47 449.99 159.40 C 448.35 157.00 446.12 154.53 442.95 154.60 C 435.02 154.29 427.07 154.58 419.14 154.50 C 304.75 154.53 190.35 154.54 75.96 154.50 C 71.95 154.68 67.00 153.62 63.95 156.93 C 62.03 158.74 61.82 161.49 61.78 163.96 C 61.83 223.31 61.79 282.65 61.80 342.00 C 51.51 341.98 41.22 342.03 30.94 341.98 C 30.88 269.20 30.90 196.42 30.93 123.64 Z" />
<path fill="#ffffff" opacity="1.00" d=" M 92.75 264.79 C 191.26 264.75 289.78 264.81 388.30 264.75 C 388.41 280.21 388.44 295.66 388.27 311.12 C 289.76 311.08 191.25 311.13 92.74 311.09 C 92.72 295.66 92.72 280.22 92.75 264.79 Z" />
<path fill="#ffffff" opacity="1.00" d=" M 92.75 372.94 C 191.25 372.92 289.76 372.94 388.27 372.93 C 388.45 388.38 388.42 403.83 388.28 419.28 C 289.77 419.25 191.26 419.29 92.74 419.26 C 92.72 403.82 92.72 388.38 92.75 372.94 Z" />
</g>
<g id="#eb5045ff">
<path fill="#eb5045" opacity="1.00" d=" M 337.39 31.62 C 345.68 28.74 355.39 34.47 357.09 43.02 C 359.24 51.50 352.71 60.69 344.07 61.67 C 335.74 63.01 327.30 56.24 326.65 47.87 C 325.79 40.79 330.64 33.72 337.39 31.62 Z" />
</g>
<g id="#f8d27aff">
<path fill="#f8d27a" opacity="1.00" d=" M 399.41 31.55 C 408.03 28.68 417.98 35.12 419.10 44.08 C 420.63 52.58 413.64 61.25 405.06 61.75 C 396.99 62.60 389.13 55.97 388.47 47.91 C 387.58 40.74 392.54 33.58 399.41 31.55 Z" />
<path fill="#f8d27a" opacity="1.00" d=" M 63.95 156.93 C 67.00 153.62 71.95 154.68 75.96 154.50 C 190.35 154.54 304.75 154.53 419.14 154.50 C 419.36 191.25 419.18 228.00 419.23 264.75 C 408.92 264.74 398.61 264.73 388.30 264.75 C 289.78 264.81 191.26 264.75 92.75 264.79 C 92.72 280.22 92.72 295.66 92.74 311.09 C 191.25 311.13 289.76 311.08 388.27 311.12 C 398.59 311.13 408.91 311.12 419.23 311.12 C 419.24 331.73 419.24 352.33 419.23 372.94 C 408.91 372.93 398.59 372.94 388.27 372.93 C 289.76 372.94 191.25 372.92 92.75 372.94 C 92.72 388.38 92.72 403.82 92.74 419.26 C 191.26 419.29 289.77 419.25 388.28 419.28 C 398.60 419.23 408.91 419.27 419.23 419.25 C 419.24 429.56 419.22 439.88 419.25 450.19 C 408.89 450.19 398.54 450.21 388.18 450.18 C 354.43 450.17 320.67 450.18 286.91 450.18 C 286.90 460.48 286.90 470.78 286.91 481.09 C 320.69 481.09 354.47 481.10 388.24 481.08 C 398.58 481.05 408.91 481.08 419.25 481.07 C 419.53 491.37 418.57 501.74 419.77 512.00 L 68.79 512.00 C 64.88 511.51 61.62 508.06 61.85 504.03 C 61.76 460.33 61.85 416.63 61.81 372.93 C 61.79 362.62 61.81 352.31 61.80 342.00 C 61.79 282.65 61.83 223.31 61.78 163.96 C 61.82 161.49 62.03 158.74 63.95 156.93 M 91.20 226.32 C 87.60 226.89 84.84 230.43 85.01 234.05 C 85.02 238.27 88.91 241.80 93.09 241.58 C 146.72 241.65 200.34 241.56 253.97 241.62 C 256.81 241.73 259.98 241.23 261.85 238.86 C 264.77 235.64 264.12 230.05 260.52 227.61 C 258.39 225.91 255.56 226.16 253.03 226.11 C 199.09 226.30 145.13 225.87 91.20 226.32 M 91.35 334.45 C 87.35 335.02 84.38 339.19 85.09 343.16 C 85.57 346.92 89.15 349.90 92.93 349.71 C 146.94 349.78 200.96 349.71 254.97 349.74 C 259.42 350.25 263.86 346.58 263.70 342.01 C 263.86 337.47 259.48 333.84 255.07 334.27 C 203.36 334.25 151.66 334.27 99.95 334.26 C 97.08 334.27 94.20 334.11 91.35 334.45 Z" />
</g>
<g id="#a6e178ff">
<path fill="#a6e178" opacity="1.00" d=" M 450.19 46.02 C 450.15 37.40 458.50 29.90 467.08 30.98 C 473.57 31.40 478.68 36.48 480.84 42.36 C 480.98 45.09 480.96 47.82 480.79 50.55 C 478.56 56.36 473.44 61.33 467.01 61.76 C 458.21 62.80 449.73 54.86 450.19 46.02 Z" />
</g>
<g id="#b4d4deff">
<path fill="#b4d4de" opacity="1.00" d=" M 0.00 92.81 C 160.36 92.65 320.72 92.80 481.08 92.74 C 481.11 103.06 481.08 113.39 481.10 123.71 C 470.78 123.50 460.46 123.68 450.14 123.61 C 310.41 123.62 170.67 123.56 30.93 123.64 C 30.90 196.42 30.88 269.20 30.94 341.98 C 41.22 342.03 51.51 341.98 61.80 342.00 C 61.81 352.31 61.79 362.62 61.81 372.93 C 43.85 372.90 25.89 373.00 7.94 372.89 C 4.05 373.09 0.77 370.05 0.00 366.35 L 0.00 92.81 Z" />
<path fill="#b4d4de" opacity="1.00" d=" M 450.21 341.98 C 460.50 342.02 470.80 341.98 481.09 342.01 C 481.07 352.32 481.11 362.63 481.09 372.94 C 470.79 372.93 460.49 372.94 450.20 372.93 C 450.23 362.61 450.21 352.29 450.21 341.98 Z" />
</g>
<g id="#9ab6bfff">
<path fill="#9ab6bf" opacity="1.00" d=" M 481.08 92.74 C 488.05 92.73 495.03 92.74 502.01 92.73 C 505.34 92.69 508.74 93.16 512.00 92.24 L 512.00 366.14 C 511.37 369.56 508.63 372.67 505.01 372.81 C 497.04 373.13 489.06 372.83 481.09 372.94 C 481.11 362.63 481.07 352.32 481.09 342.01 C 481.11 269.24 481.09 196.48 481.10 123.71 C 481.08 113.39 481.11 103.06 481.08 92.74 Z" />
</g>
<g id="#cdf2fdff">
<path fill="#cdf2fd" opacity="1.00" d=" M 450.14 123.61 C 460.46 123.68 470.78 123.50 481.10 123.71 C 481.09 196.48 481.11 269.24 481.09 342.01 C 470.80 341.98 460.50 342.02 450.21 341.98 C 450.22 284.98 450.21 227.98 450.22 170.98 C 450.33 167.12 450.13 163.26 449.99 159.40 C 450.34 147.47 450.15 135.54 450.14 123.61 Z" />
<path fill="#cdf2fd" opacity="1.00" d=" M 388.30 264.75 C 398.61 264.73 408.92 264.74 419.23 264.75 C 419.23 280.21 419.22 295.66 419.23 311.12 C 408.91 311.12 398.59 311.13 388.27 311.12 C 388.44 295.66 388.41 280.21 388.30 264.75 Z" />
<path fill="#cdf2fd" opacity="1.00" d=" M 388.27 372.93 C 398.59 372.94 408.91 372.93 419.23 372.94 C 419.23 388.37 419.23 403.81 419.23 419.25 C 408.91 419.27 398.60 419.23 388.28 419.28 C 388.42 403.83 388.45 388.38 388.27 372.93 Z" />
</g>
<g id="#f4bb48ff">
<path fill="#f4bb48" opacity="1.00" d=" M 419.14 154.50 C 427.07 154.58 435.02 154.29 442.95 154.60 C 446.12 154.53 448.35 157.00 449.99 159.40 C 450.13 163.26 450.33 167.12 450.22 170.98 C 450.21 227.98 450.22 284.98 450.21 341.98 C 450.21 352.29 450.23 362.61 450.20 372.93 C 450.14 416.62 450.25 460.31 450.14 504.00 C 450.38 507.95 447.28 511.26 443.53 512.00 L 419.77 512.00 C 418.57 501.74 419.53 491.37 419.25 481.07 C 419.26 470.77 419.26 460.48 419.25 450.19 C 419.22 439.88 419.24 429.56 419.23 419.25 C 419.23 403.81 419.23 388.37 419.23 372.94 C 419.24 352.33 419.24 331.73 419.23 311.12 C 419.22 295.66 419.23 280.21 419.23 264.75 C 419.18 228.00 419.36 191.25 419.14 154.50 Z" />
</g>
<g id="#383e99ff">
<path fill="#383e99" opacity="1.00" d=" M 91.20 226.32 C 145.13 225.87 199.09 226.30 253.03 226.11 C 255.56 226.16 258.39 225.91 260.52 227.61 C 264.12 230.05 264.77 235.64 261.85 238.86 C 259.98 241.23 256.81 241.73 253.97 241.62 C 200.34 241.56 146.72 241.65 93.09 241.58 C 88.91 241.80 85.02 238.27 85.01 234.05 C 84.84 230.43 87.60 226.89 91.20 226.32 Z" />
<path fill="#383e99" opacity="1.00" d=" M 91.35 334.45 C 94.20 334.11 97.08 334.27 99.95 334.26 C 151.66 334.27 203.36 334.25 255.07 334.27 C 259.48 333.84 263.86 337.47 263.70 342.01 C 263.86 346.58 259.42 350.25 254.97 349.74 C 200.96 349.71 146.94 349.78 92.93 349.71 C 89.15 349.90 85.57 346.92 85.09 343.16 C 84.38 339.19 87.35 335.02 91.35 334.45 Z" />
</g>
</svg>
