<?xml version="1.0" encoding="UTF-8" ?>
<!DOCTYPE svg PUBLIC "-//W3C//DTD SVG 1.1//EN" "http://www.w3.org/Graphics/SVG/1.1/DTD/svg11.dtd">
<svg width="512pt" height="512pt" viewBox="0 0 512 512" version="1.1" xmlns="http://www.w3.org/2000/svg">
<g id="#42579bff">
<path fill="#42579b" opacity="1.00" d=" M 14.88 10.91 C 20.97 6.50 28.49 4.26 35.98 4.28 C 55.64 4.22 75.30 4.34 94.96 4.21 C 92.92 7.17 90.34 10.21 90.49 14.03 C 90.73 17.67 92.42 21.37 95.31 23.65 C 99.48 24.60 103.79 24.08 108.02 24.13 C 230.70 24.14 353.39 24.11 476.06 24.14 C 482.97 23.92 489.67 28.68 491.49 35.38 C 492.57 40.18 492.14 45.15 492.17 50.03 C 492.14 149.38 492.18 248.72 492.15 348.06 C 371.44 348.03 250.74 348.08 130.03 348.03 C 121.35 335.65 115.82 320.18 118.89 304.98 C 120.18 296.29 124.72 288.68 128.95 281.15 C 129.21 281.06 129.74 280.87 130.00 280.78 C 136.49 278.38 143.05 275.83 148.57 271.56 C 157.14 265.07 163.35 255.53 165.75 245.05 C 167.25 238.82 167.02 232.36 167.01 226.00 C 166.95 213.00 167.08 200.00 166.97 187.00 C 166.99 181.89 165.84 176.89 164.40 172.02 C 169.98 169.13 174.83 164.56 181.00 162.97 C 187.64 163.83 192.70 169.03 198.54 171.97 C 197.07 176.87 195.92 181.90 195.96 187.05 C 195.87 201.04 196.00 215.04 195.91 229.03 C 195.88 234.66 195.92 240.38 197.36 245.86 C 200.02 256.52 206.61 266.13 215.59 272.46 C 226.02 280.21 239.91 280.96 250.11 289.10 C 260.95 297.10 273.48 304.86 287.53 303.74 C 291.82 302.59 296.08 300.46 298.51 296.58 C 303.84 288.46 305.40 278.58 306.53 269.12 C 307.57 254.85 307.37 240.37 304.50 226.31 C 302.17 215.46 299.29 204.37 292.74 195.20 C 289.58 190.80 287.20 185.82 286.40 180.42 C 284.87 171.06 282.47 161.84 278.85 153.06 C 287.55 137.69 296.24 122.31 304.85 106.89 C 305.71 105.44 306.56 103.94 307.78 102.75 C 310.10 102.07 312.55 102.16 314.94 102.13 C 326.30 102.35 337.66 102.06 349.02 102.27 C 352.23 102.24 355.53 102.41 358.65 101.48 C 363.24 99.57 363.69 92.09 359.31 89.66 C 356.73 88.42 353.76 88.60 350.99 88.51 C 335.67 88.73 320.34 88.48 305.02 88.59 C 301.66 88.37 298.50 89.95 297.00 93.02 C 288.32 108.08 279.94 123.33 271.29 138.41 C 265.94 130.22 259.50 122.73 251.90 116.53 C 243.72 109.93 234.29 104.96 224.42 101.41 C 220.51 100.01 216.03 99.34 212.15 101.18 C 207.97 102.85 205.00 106.95 204.60 111.42 C 203.57 127.68 205.60 144.09 203.30 160.28 C 199.78 157.28 195.82 154.76 192.73 151.29 C 190.64 149.10 190.72 145.88 190.57 143.06 C 190.63 124.38 190.65 105.70 190.56 87.01 C 190.35 83.07 192.40 79.57 193.57 75.93 C 194.11 72.00 189.75 68.58 186.04 69.90 C 184.42 70.70 182.97 71.77 181.48 72.76 C 179.99 71.79 178.56 70.75 176.98 69.95 C 173.24 68.50 168.79 71.99 169.33 75.97 C 170.45 79.60 172.60 83.02 172.36 86.96 C 172.27 103.63 172.29 120.30 172.33 136.96 C 172.27 141.17 172.78 145.57 171.34 149.61 C 168.47 154.14 163.59 156.83 159.62 160.29 C 157.79 148.94 158.82 137.41 158.55 125.98 C 158.35 120.11 159.29 114.05 157.61 108.33 C 155.46 101.92 147.79 98.66 141.48 100.54 C 128.23 104.50 115.97 111.65 105.84 121.05 L 105.28 121.58 C 100.70 120.84 95.74 120.08 92.24 116.73 C 87.96 113.15 86.11 107.48 86.18 102.02 C 86.14 85.37 86.26 68.71 86.17 52.05 C 86.18 46.48 85.79 40.76 87.45 35.36 C 88.79 31.13 91.76 27.71 94.45 24.28 C 76.66 23.84 58.85 24.30 41.06 24.03 C 36.66 24.09 31.93 23.75 27.98 26.05 C 22.68 29.00 19.46 34.93 19.85 41.00 C 19.94 143.35 19.80 245.71 19.90 348.06 C 13.27 348.07 6.63 348.06 0.00 348.06 L 0.00 38.38 C 0.44 27.58 6.03 17.15 14.88 10.91 M 348.23 123.28 C 344.26 125.05 343.11 130.80 346.10 133.97 C 347.73 136.05 350.51 136.31 352.97 136.36 C 381.97 136.32 410.97 136.34 439.97 136.34 C 443.61 136.30 447.33 136.68 450.92 135.87 C 455.19 134.50 456.84 128.59 453.93 125.18 C 452.36 122.98 449.54 122.55 447.03 122.52 C 415.68 122.53 384.32 122.54 352.97 122.52 C 351.37 122.62 349.71 122.62 348.23 123.28 M 348.36 150.43 C 344.37 152.13 343.09 157.80 345.97 161.05 C 347.60 163.22 350.45 163.60 352.98 163.56 C 384.68 163.49 416.40 163.58 448.10 163.52 C 451.83 163.73 455.37 160.73 455.41 156.92 C 455.67 152.91 451.98 149.46 448.01 149.83 C 416.36 149.74 384.70 149.86 353.05 149.77 C 351.48 149.87 349.84 149.86 348.36 150.43 M 348.46 177.59 C 344.20 179.32 342.99 185.53 346.36 188.69 C 348.82 191.34 352.75 190.63 355.99 190.77 C 386.68 190.65 417.37 190.80 448.06 190.71 C 451.85 191.01 455.44 187.87 455.41 184.02 C 455.60 180.10 452.00 176.73 448.11 177.05 C 416.74 176.91 385.36 177.09 353.98 176.96 C 352.13 177.03 350.23 176.99 348.46 177.59 M 349.41 204.53 C 344.86 205.52 342.84 211.64 345.77 215.23 C 347.37 217.59 350.32 218.04 352.97 218.01 C 383.97 218.01 414.98 217.96 445.98 218.04 C 448.68 217.99 451.85 217.97 453.69 215.63 C 457.00 212.20 455.23 205.78 450.62 204.57 C 446.80 203.89 442.89 204.24 439.03 204.20 C 410.37 204.19 381.70 204.22 353.04 204.18 C 351.81 204.20 350.60 204.31 349.41 204.53 M 349.45 231.74 C 344.93 232.68 342.85 238.76 345.71 242.36 C 347.29 244.83 350.38 245.24 353.07 245.22 C 367.70 245.21 382.34 245.15 396.98 245.25 C 399.51 245.12 402.46 245.37 404.45 243.46 C 407.43 240.97 407.52 235.95 404.65 233.35 C 402.12 230.84 398.25 231.57 395.03 231.42 C 379.84 231.72 364.61 231.04 349.45 231.74 Z" />
</g>
<g id="#6a88c7ff">
<path fill="#6a88c7" opacity="1.00" d=" M 94.96 4.21 C 218.30 4.34 341.64 4.23 464.97 4.27 C 472.59 4.37 480.44 3.61 487.78 6.11 C 501.51 10.57 511.54 24.02 512.00 38.44 L 512.00 348.08 C 505.38 348.07 498.76 348.07 492.15 348.06 C 492.18 248.72 492.14 149.38 492.17 50.03 C 492.14 45.15 492.57 40.18 491.49 35.38 C 489.67 28.68 482.97 23.92 476.06 24.14 C 353.39 24.11 230.70 24.14 108.02 24.13 C 103.79 24.08 99.48 24.60 95.31 23.65 C 92.42 21.37 90.73 17.67 90.49 14.03 C 90.34 10.21 92.92 7.17 94.96 4.21 Z" />
</g>
<g id="#2f4187ff">
<path fill="#2f4187" opacity="1.00" d=" M 27.98 26.05 C 31.93 23.75 36.66 24.09 41.06 24.03 C 58.85 24.30 76.66 23.84 94.45 24.28 C 91.76 27.71 88.79 31.13 87.45 35.36 C 85.79 40.76 86.18 46.48 86.17 52.05 C 86.26 68.71 86.14 85.37 86.18 102.02 C 86.11 107.48 87.96 113.15 92.24 116.73 C 95.74 120.08 100.70 120.84 105.28 121.58 C 91.39 135.13 82.28 153.10 78.15 171.96 C 76.85 177.64 76.46 183.61 73.94 188.94 C 71.69 193.53 68.31 197.46 66.06 202.06 C 62.32 209.62 60.18 217.87 58.55 226.12 C 55.62 242.12 54.96 258.61 57.28 274.74 C 58.62 282.69 60.35 291.01 65.33 297.57 C 69.69 303.25 77.60 304.52 84.28 303.34 C 95.49 301.36 105.12 294.78 114.12 288.18 C 118.55 284.87 123.71 282.79 128.95 281.15 C 124.72 288.68 120.18 296.29 118.89 304.98 C 115.82 320.18 121.35 335.65 130.03 348.03 C 93.32 348.08 56.61 348.04 19.90 348.06 C 19.80 245.71 19.94 143.35 19.85 41.00 C 19.46 34.93 22.68 29.00 27.98 26.05 Z" />
</g>
<g id="#eca4b1ff">
<path fill="#eca4b1" opacity="1.00" d=" M 169.33 75.97 C 168.79 71.99 173.24 68.50 176.98 69.95 C 178.56 70.75 179.99 71.79 181.48 72.76 C 182.97 71.77 184.42 70.70 186.04 69.90 C 189.75 68.58 194.11 72.00 193.57 75.93 C 192.40 79.57 190.35 83.07 190.56 87.01 C 190.65 105.70 190.63 124.38 190.57 143.06 C 190.72 145.88 190.64 149.10 192.73 151.29 C 195.82 154.76 199.78 157.28 203.30 160.28 C 208.18 164.58 213.71 168.14 218.29 172.76 C 221.71 175.68 218.36 181.81 214.09 180.75 C 208.45 178.76 203.78 174.79 198.54 171.97 C 192.70 169.03 187.64 163.83 181.00 162.97 C 174.83 164.56 169.98 169.13 164.40 172.02 C 159.41 174.73 154.89 178.33 149.62 180.51 C 145.54 182.52 141.17 176.69 144.22 173.34 C 148.73 168.32 154.59 164.75 159.62 160.29 C 163.59 156.83 168.47 154.14 171.34 149.61 C 172.78 145.57 172.27 141.17 172.33 136.96 C 172.29 120.30 172.27 103.63 172.36 86.96 C 172.60 83.02 170.45 79.60 169.33 75.97 Z" />
<path fill="#eca4b1" opacity="1.00" d=" M 288.95 237.97 C 291.89 231.75 298.53 228.85 304.50 226.31 C 307.37 240.37 307.57 254.85 306.53 269.12 C 305.40 278.58 303.84 288.46 298.51 296.58 C 296.08 300.46 291.82 302.59 287.53 303.74 C 282.33 300.29 279.04 294.28 279.21 287.99 C 279.35 276.34 287.24 266.52 288.12 255.00 C 288.54 249.34 286.24 243.34 288.95 237.97 Z" />
</g>
<g id="#526aadff">
<path fill="#526aad" opacity="1.00" d=" M 297.00 93.02 C 298.50 89.95 301.66 88.37 305.02 88.59 C 320.34 88.48 335.67 88.73 350.99 88.51 C 353.76 88.60 356.73 88.42 359.31 89.66 C 363.69 92.09 363.24 99.57 358.65 101.48 C 355.53 102.41 352.23 102.24 349.02 102.27 C 337.66 102.06 326.30 102.35 314.94 102.13 C 312.55 102.16 310.10 102.07 307.78 102.75 C 306.56 103.94 305.71 105.44 304.85 106.89 C 296.24 122.31 287.55 137.69 278.85 153.06 C 273.75 162.04 268.68 171.05 263.58 180.02 C 260.95 184.25 259.15 189.07 255.70 192.73 C 251.52 196.51 244.01 192.66 244.66 187.03 C 246.21 180.96 250.48 176.10 253.11 170.51 C 259.18 159.82 265.23 149.11 271.29 138.41 C 279.94 123.33 288.32 108.08 297.00 93.02 Z" />
</g>
<g id="#ee7988ff">
<path fill="#ee7988" opacity="1.00" d=" M 141.48 100.54 C 147.79 98.66 155.46 101.92 157.61 108.33 C 159.29 114.05 158.35 120.11 158.55 125.98 C 158.82 137.41 157.79 148.94 159.62 160.29 C 154.59 164.75 148.73 168.32 144.22 173.34 C 141.17 176.69 145.54 182.52 149.62 180.51 C 154.89 178.33 159.41 174.73 164.40 172.02 C 165.84 176.89 166.99 181.89 166.97 187.00 C 167.08 200.00 166.95 213.00 167.01 226.00 C 167.02 232.36 167.25 238.82 165.75 245.05 C 163.35 255.53 157.14 265.07 148.57 271.56 C 143.05 275.83 136.49 278.38 130.00 280.78 C 126.49 278.92 122.65 276.98 120.75 273.28 C 117.67 268.05 118.47 261.74 119.17 256.01 C 125.78 253.79 131.55 248.20 132.19 241.00 C 133.11 235.70 130.58 230.76 127.66 226.54 C 133.79 223.25 139.34 218.43 141.94 211.82 C 144.87 204.82 144.83 196.46 141.27 189.68 C 140.09 186.89 138.26 184.10 138.51 180.96 C 139.67 176.08 143.94 172.28 143.96 167.06 C 144.71 158.97 139.09 150.63 131.00 148.99 C 126.91 147.98 122.62 148.82 118.76 150.34 C 115.40 148.49 111.80 146.61 109.74 143.21 C 105.41 136.72 105.34 128.56 105.84 121.05 C 115.97 111.65 128.23 104.50 141.48 100.54 Z" />
<path fill="#ee7988" opacity="1.00" d=" M 241.11 131.11 C 242.96 125.17 247.40 120.61 251.90 116.53 C 259.50 122.73 265.94 130.22 271.29 138.41 C 265.23 149.11 259.18 159.82 253.11 170.51 C 253.21 166.74 253.11 162.87 251.84 159.29 C 250.40 155.35 247.06 152.61 243.95 150.00 C 240.48 144.46 238.86 137.42 241.11 131.11 Z" />
<path fill="#ee7988" opacity="1.00" d=" M 263.58 180.02 C 268.68 171.05 273.75 162.04 278.85 153.06 C 282.47 161.84 284.87 171.06 286.40 180.42 C 287.20 185.82 289.58 190.80 292.74 195.20 C 299.29 204.37 302.17 215.46 304.50 226.31 C 298.53 228.85 291.89 231.75 288.95 237.97 C 286.24 243.34 288.54 249.34 288.12 255.00 C 287.24 266.52 279.35 276.34 279.21 287.99 C 279.04 294.28 282.33 300.29 287.53 303.74 C 273.48 304.86 260.95 297.10 250.11 289.10 C 248.23 283.93 246.33 278.57 246.69 272.98 C 247.00 266.24 250.23 259.82 255.05 255.17 C 260.07 251.99 264.67 247.25 265.09 241.00 C 266.06 235.10 263.06 229.65 259.22 225.42 C 267.95 220.21 274.04 210.45 273.27 200.10 C 273.17 192.30 268.89 185.42 263.58 180.02 Z" />
</g>
<g id="#eb525bff">
<path fill="#eb525b" opacity="1.00" d=" M 212.15 101.18 C 216.03 99.34 220.51 100.01 224.42 101.41 C 234.29 104.96 243.72 109.93 251.90 116.53 C 247.40 120.61 242.96 125.17 241.11 131.11 C 238.86 137.42 240.48 144.46 243.95 150.00 C 239.33 148.67 234.23 147.85 229.63 149.68 C 222.73 152.26 218.33 159.77 218.96 167.04 C 219.02 172.59 223.96 176.60 224.41 182.02 C 223.77 186.79 220.56 190.72 219.52 195.38 C 218.05 202.32 219.18 209.89 223.11 215.86 C 225.96 220.53 230.56 223.70 235.04 226.65 C 232.81 230.43 230.39 234.46 230.58 239.03 C 230.45 245.84 234.86 252.38 241.15 254.95 C 245.54 256.88 250.52 256.26 255.05 255.17 C 250.23 259.82 247.00 266.24 246.69 272.98 C 246.33 278.57 248.23 283.93 250.11 289.10 C 239.91 280.96 226.02 280.21 215.59 272.46 C 206.61 266.13 200.02 256.52 197.36 245.86 C 195.92 240.38 195.88 234.66 195.91 229.03 C 196.00 215.04 195.87 201.04 195.96 187.05 C 195.92 181.90 197.07 176.87 198.54 171.97 C 203.78 174.79 208.45 178.76 214.09 180.75 C 218.36 181.81 221.71 175.68 218.29 172.76 C 213.71 168.14 208.18 164.58 203.30 160.28 C 205.60 144.09 203.57 127.68 204.60 111.42 C 205.00 106.95 207.97 102.85 212.15 101.18 Z" />
<path fill="#eb525b" opacity="1.00" d=" M 105.28 121.58 L 105.84 121.05 C 105.34 128.56 105.41 136.72 109.74 143.21 C 111.80 146.61 115.40 148.49 118.76 150.34 C 115.60 152.60 112.64 155.42 111.15 159.09 C 109.47 163.54 110.64 168.56 108.95 172.99 C 105.82 177.26 100.32 178.87 96.85 182.82 C 88.49 191.53 87.23 205.96 93.88 216.02 C 96.26 219.91 99.92 222.74 103.53 225.43 C 100.88 228.84 98.03 232.52 97.79 237.02 C 96.98 243.87 100.67 250.98 106.79 254.19 C 110.55 256.28 115.00 256.27 119.17 256.01 C 118.47 261.74 117.67 268.05 120.75 273.28 C 122.65 276.98 126.49 278.92 130.00 280.78 C 129.74 280.87 129.21 281.06 128.95 281.15 C 123.71 282.79 118.55 284.87 114.12 288.18 C 105.12 294.78 95.49 301.36 84.28 303.34 C 77.60 304.52 69.69 303.25 65.33 297.57 C 60.35 291.01 58.62 282.69 57.28 274.74 C 54.96 258.61 55.62 242.12 58.55 226.12 C 60.18 217.87 62.32 209.62 66.06 202.06 C 68.31 197.46 71.69 193.53 73.94 188.94 C 76.46 183.61 76.85 177.64 78.15 171.96 C 82.28 153.10 91.39 135.13 105.28 121.58 Z" />
</g>
<g id="#86c1f4ff">
<path fill="#86c1f4" opacity="1.00" d=" M 348.23 123.28 C 349.71 122.62 351.37 122.62 352.97 122.52 C 384.32 122.54 415.68 122.53 447.03 122.52 C 449.54 122.55 452.36 122.98 453.93 125.18 C 456.84 128.59 455.19 134.50 450.92 135.87 C 447.33 136.68 443.61 136.30 439.97 136.34 C 410.97 136.34 381.97 136.32 352.97 136.36 C 350.51 136.31 347.73 136.05 346.10 133.97 C 343.11 130.80 344.26 125.05 348.23 123.28 Z" />
<path fill="#86c1f4" opacity="1.00" d=" M 348.36 150.43 C 349.84 149.86 351.48 149.87 353.05 149.77 C 384.70 149.86 416.36 149.74 448.01 149.83 C 451.98 149.46 455.67 152.91 455.41 156.92 C 455.37 160.73 451.83 163.73 448.10 163.52 C 416.40 163.58 384.68 163.49 352.98 163.56 C 350.45 163.60 347.60 163.22 345.97 161.05 C 343.09 157.80 344.37 152.13 348.36 150.43 Z" />
<path fill="#86c1f4" opacity="1.00" d=" M 348.46 177.59 C 350.23 176.99 352.13 177.03 353.98 176.96 C 385.36 177.09 416.74 176.91 448.11 177.05 C 452.00 176.73 455.60 180.10 455.41 184.02 C 455.44 187.87 451.85 191.01 448.06 190.71 C 417.37 190.80 386.68 190.65 355.99 190.77 C 352.75 190.63 348.82 191.34 346.36 188.69 C 342.99 185.53 344.20 179.32 348.46 177.59 Z" />
<path fill="#86c1f4" opacity="1.00" d=" M 349.41 204.53 C 350.60 204.31 351.81 204.20 353.04 204.18 C 381.70 204.22 410.37 204.19 439.03 204.20 C 442.89 204.24 446.80 203.89 450.62 204.57 C 455.23 205.78 457.00 212.20 453.69 215.63 C 451.85 217.97 448.68 217.99 445.98 218.04 C 414.98 217.96 383.97 218.01 352.97 218.01 C 350.32 218.04 347.37 217.59 345.77 215.23 C 342.84 211.64 344.86 205.52 349.41 204.53 Z" />
<path fill="#86c1f4" opacity="1.00" d=" M 349.45 231.74 C 364.61 231.04 379.84 231.72 395.03 231.42 C 398.25 231.57 402.12 230.84 404.65 233.35 C 407.52 235.95 407.43 240.97 404.45 243.46 C 402.46 245.37 399.51 245.12 396.98 245.25 C 382.34 245.15 367.70 245.21 353.07 245.22 C 350.38 245.24 347.29 244.83 345.71 242.36 C 342.85 238.76 344.93 232.68 349.45 231.74 Z" />
</g>
<g id="#d52e57ff">
<path fill="#d52e57" opacity="1.00" d=" M 118.76 150.34 C 122.62 148.82 126.91 147.98 131.00 148.99 C 139.09 150.63 144.71 158.97 143.96 167.06 C 143.94 172.28 139.67 176.08 138.51 180.96 C 138.26 184.10 140.09 186.89 141.27 189.68 C 144.83 196.46 144.87 204.82 141.94 211.82 C 139.34 218.43 133.79 223.25 127.66 226.54 C 130.58 230.76 133.11 235.70 132.19 241.00 C 131.55 248.20 125.78 253.79 119.17 256.01 C 115.00 256.27 110.55 256.28 106.79 254.19 C 100.67 250.98 96.98 243.87 97.79 237.02 C 98.03 232.52 100.88 228.84 103.53 225.43 C 99.92 222.74 96.26 219.91 93.88 216.02 C 87.23 205.96 88.49 191.53 96.85 182.82 C 100.32 178.87 105.82 177.26 108.95 172.99 C 110.64 168.56 109.47 163.54 111.15 159.09 C 112.64 155.42 115.60 152.60 118.76 150.34 Z" />
<path fill="#d52e57" opacity="1.00" d=" M 229.63 149.68 C 234.23 147.85 239.33 148.67 243.95 150.00 C 247.06 152.61 250.40 155.35 251.84 159.29 C 253.11 162.87 253.21 166.74 253.11 170.51 C 250.48 176.10 246.21 180.96 244.66 187.03 C 244.01 192.66 251.52 196.51 255.70 192.73 C 259.15 189.07 260.95 184.25 263.58 180.02 C 268.89 185.42 273.17 192.30 273.27 200.10 C 274.04 210.45 267.95 220.21 259.22 225.42 C 263.06 229.65 266.06 235.10 265.09 241.00 C 264.67 247.25 260.07 251.99 255.05 255.17 C 250.52 256.26 245.54 256.88 241.15 254.95 C 234.86 252.38 230.45 245.84 230.58 239.03 C 230.39 234.46 232.81 230.43 235.04 226.65 C 230.56 223.70 225.96 220.53 223.11 215.86 C 219.18 209.89 218.05 202.32 219.52 195.38 C 220.56 190.72 223.77 186.79 224.41 182.02 C 223.96 176.60 219.02 172.59 218.96 167.04 C 218.33 159.77 222.73 152.26 229.63 149.68 Z" />
</g>
<g id="#c0c8f3ff">
<path fill="#c0c8f3" opacity="1.00" d=" M 0.00 348.06 C 6.63 348.06 13.27 348.07 19.90 348.06 C 56.61 348.04 93.32 348.08 130.03 348.03 C 120.56 360.64 113.85 376.77 117.32 392.72 C 118.91 401.39 124.27 408.55 129.62 415.28 C 107.85 415.26 86.07 415.26 64.29 415.27 C 53.53 415.12 42.76 415.54 32.02 415.07 C 14.68 413.78 0.11 398.03 0.00 380.66 L 0.00 348.06 Z" />
<path fill="#c0c8f3" opacity="1.00" d=" M 210.29 415.26 C 240.77 415.24 271.25 415.26 301.73 415.26 C 302.52 419.01 303.24 422.77 303.97 426.53 C 291.01 425.18 277.98 426.31 264.98 425.88 C 259.88 425.96 253.38 425.25 250.04 430.03 C 247.33 434.50 246.98 439.90 245.80 444.89 C 244.55 451.96 242.44 458.89 241.80 466.06 C 241.23 470.80 244.72 475.50 249.35 476.50 C 253.20 477.27 257.15 477.02 261.06 477.02 C 276.38 476.88 291.72 477.21 307.04 476.90 C 309.84 477.13 311.90 475.31 313.79 473.52 C 314.78 478.30 315.88 483.07 316.85 487.86 C 293.60 487.89 270.35 487.78 247.09 487.94 C 229.77 487.89 212.45 487.94 195.12 487.89 C 200.25 463.69 205.26 439.47 210.29 415.26 Z" />
</g>
<g id="#e1eefdff">
<path fill="#e1eefd" opacity="1.00" d=" M 130.03 348.03 C 250.74 348.08 371.44 348.03 492.15 348.06 C 498.76 348.07 505.38 348.07 512.00 348.08 L 512.00 380.60 C 511.75 388.34 509.04 396.00 504.14 402.02 C 497.64 410.18 487.41 415.21 476.96 415.25 C 467.21 415.31 457.47 415.23 447.72 415.27 C 399.05 415.25 350.39 415.27 301.73 415.26 C 271.25 415.26 240.77 415.24 210.29 415.26 C 183.40 415.27 156.51 415.24 129.62 415.28 C 124.27 408.55 118.91 401.39 117.32 392.72 C 113.85 376.77 120.56 360.64 130.03 348.03 Z" />
<path fill="#e1eefd" opacity="1.00" d=" M 247.09 487.94 C 270.35 487.78 293.60 487.89 316.85 487.86 C 321.87 487.92 326.94 487.46 331.92 488.27 C 334.92 488.73 336.72 491.49 338.89 493.32 C 308.90 504.09 276.82 508.83 244.99 507.46 C 244.27 504.03 243.14 500.47 243.91 496.95 C 244.62 493.83 245.95 490.91 247.09 487.94 Z" />
</g>
<g id="#ed95cbff">
<path fill="#ed95cb" opacity="1.00" d=" M 64.29 415.27 C 86.07 415.26 107.85 415.26 129.62 415.28 C 156.51 415.24 183.40 415.27 210.29 415.26 C 205.26 439.47 200.25 463.69 195.12 487.89 C 190.11 487.92 185.06 487.47 180.08 488.27 C 177.09 488.72 175.28 491.48 173.12 493.30 C 130.54 478.03 92.50 450.61 64.29 415.27 Z" />
<path fill="#ed95cb" opacity="1.00" d=" M 301.73 415.26 C 350.39 415.27 399.05 415.25 447.72 415.27 C 419.51 450.62 381.48 478.07 338.89 493.32 C 336.72 491.49 334.92 488.73 331.92 488.27 C 326.94 487.46 321.87 487.92 316.85 487.86 C 315.88 483.07 314.78 478.30 313.79 473.52 C 310.30 457.90 307.07 442.23 303.97 426.53 C 303.24 422.77 302.52 419.01 301.73 415.26 Z" />
</g>
<g id="#d5dcf8ff">
<path fill="#d5dcf8" opacity="1.00" d=" M 250.04 430.03 C 253.38 425.25 259.88 425.96 264.98 425.88 C 277.98 426.31 291.01 425.18 303.97 426.53 C 307.07 442.23 310.30 457.90 313.79 473.52 C 311.90 475.31 309.84 477.13 307.04 476.90 C 291.72 477.21 276.38 476.88 261.06 477.02 C 257.15 477.02 253.20 477.27 249.35 476.50 C 244.72 475.50 241.23 470.80 241.80 466.06 C 242.44 458.89 244.55 451.96 245.80 444.89 C 246.98 439.90 247.33 434.50 250.04 430.03 Z" />
<path fill="#d5dcf8" opacity="1.00" d=" M 173.12 493.30 C 175.28 491.48 177.09 488.72 180.08 488.27 C 185.06 487.47 190.11 487.92 195.12 487.89 C 212.45 487.94 229.77 487.89 247.09 487.94 C 245.95 490.91 244.62 493.83 243.91 496.95 C 243.14 500.47 244.27 504.03 244.99 507.46 C 220.51 506.34 196.19 501.57 173.12 493.30 Z" />
</g>
</svg>
