<?xml version="1.0" standalone="no"?><!DOCTYPE svg PUBLIC "-//W3C//DTD SVG 1.1//EN" "http://www.w3.org/Graphics/SVG/1.1/DTD/svg11.dtd"><svg t="1752155527616" class="icon" viewBox="0 0 1024 1024" version="1.1" xmlns="http://www.w3.org/2000/svg" p-id="3266" xmlns:xlink="http://www.w3.org/1999/xlink" width="200" height="200"><path d="M640 64c225.109333 0 320 94.890667 320 320v256c0 225.109333-94.890667 320-320 320H384c-225.109333 0-320-94.890667-320-320V384c0-225.109333 94.890667-320 320-320h256z" fill="#3A78F2" p-id="3267"></path><path d="M384 256c28.16 0 51.2 23.04 51.2 51.2v6.4h179.2v-1.28c0-16.896 13.824-30.72 30.72-30.72h92.16c16.896 0 30.72 13.824 30.72 30.72v40.96c0 16.896-13.824 30.72-30.72 30.72h-92.16a30.805333 30.805333 0 0 1-30.72-30.72v-1.28h-70.4v153.6h70.4v-1.28c0-16.896 13.824-30.72 30.72-30.72h92.16c16.896 0 30.72 13.824 30.72 30.72v40.96c0 16.896-13.824 30.72-30.72 30.72h-92.16a30.805333 30.805333 0 0 1-30.72-30.72v-1.28h-70.4v121.6c0 17.664 14.336 32 32 32h38.4v-1.28c0-16.896 13.824-30.72 30.72-30.72h92.16c16.896 0 30.72 13.824 30.72 30.72v40.96c0 16.896-13.824 30.72-30.72 30.72h-92.16a30.805333 30.805333 0 0 1-30.72-30.72v-1.28h-38.4a70.4 70.4 0 0 1-70.4-70.4V352l-70.4-0.042667V358.4c0 28.16-23.04 51.2-51.2 51.2H307.2C279.04 409.6 256 386.56 256 358.4V307.2C256 279.04 279.04 256 307.2 256H384z" fill="#FFFFFF" p-id="3268"></path></svg>