<?xml version="1.0" encoding="UTF-8" ?>
<!DOCTYPE svg PUBLIC "-//W3C//DTD SVG 1.1//EN" "http://www.w3.org/Graphics/SVG/1.1/DTD/svg11.dtd">
<svg width="512pt" height="512pt" viewBox="0 0 512 512" version="1.1" xmlns="http://www.w3.org/2000/svg">
<g id="#99c8f7ff">
<path fill="#99c8f7" opacity="1.00" d=" M 250.59 0.00 L 256.00 0.00 C 256.00 105.39 256.01 210.77 255.99 316.16 C 250.97 315.99 245.94 316.02 240.92 316.19 C 190.96 316.35 140.99 316.24 91.02 316.25 C 69.91 316.40 48.84 308.91 32.66 295.33 C 13.33 279.48 1.37 255.35 0.00 230.43 L 0.00 222.51 C 0.79 203.88 7.32 185.51 18.80 170.78 C 32.76 152.57 53.86 140.03 76.56 136.56 C 80.12 117.83 91.09 100.68 106.59 89.59 C 120.42 79.42 137.82 74.44 154.94 75.37 C 160.81 55.60 172.62 37.65 188.50 24.48 C 205.83 9.85 228.00 1.41 250.59 0.00 Z" />
</g>
<g id="#6e91daff">
<path fill="#6e91da" opacity="1.00" d=" M 256.00 0.00 L 261.41 0.00 C 284.01 1.42 306.18 9.84 323.53 24.48 C 339.40 37.65 351.18 55.60 357.05 75.36 C 372.96 74.56 389.16 78.66 402.46 87.53 C 419.46 98.55 431.63 116.63 435.43 136.55 C 457.91 140.00 478.82 152.28 492.77 170.23 C 504.15 184.56 510.62 202.43 512.00 220.61 L 512.00 231.34 C 510.50 250.23 503.53 268.75 491.31 283.31 C 474.59 303.86 448.47 316.28 421.98 316.23 C 371.67 316.32 321.36 316.22 271.05 316.28 C 266.03 316.31 261.01 316.30 255.99 316.16 C 256.01 210.77 256.00 105.39 256.00 0.00 Z" />
</g>
<g id="#cfd9f8ff">
<path fill="#cfd9f8" opacity="1.00" d=" M 240.92 316.19 C 245.94 316.02 250.97 315.99 255.99 316.16 C 261.01 316.30 266.03 316.31 271.05 316.28 C 271.07 326.30 271.06 336.32 271.06 346.34 C 321.25 346.32 371.45 346.34 421.65 346.33 C 421.64 366.42 421.64 386.51 421.65 406.60 C 416.72 406.59 411.79 406.61 406.86 406.64 C 401.77 406.67 396.68 406.62 391.60 406.61 C 391.45 396.56 391.56 386.51 391.54 376.46 C 351.38 376.47 311.21 376.47 271.05 376.46 C 271.06 386.51 271.07 396.55 271.05 406.60 C 266.03 406.59 261.01 406.59 255.99 406.61 C 250.98 406.64 245.96 406.64 240.94 406.62 L 240.94 405.86 C 245.92 406.27 250.92 406.26 255.92 406.07 C 256.06 376.33 256.04 346.59 255.93 316.84 C 250.93 316.65 245.92 316.63 240.93 317.02 L 240.92 316.19 Z" />
</g>
<g id="#e8effaff">
<path fill="#e8effa" opacity="1.00" d=" M 240.93 317.02 C 245.92 316.63 250.93 316.65 255.93 316.84 C 256.04 346.59 256.06 376.33 255.92 406.07 C 250.92 406.26 245.92 406.27 240.94 405.86 C 240.94 396.06 240.93 386.26 240.95 376.46 C 200.79 376.46 160.62 376.48 120.46 376.46 C 120.44 386.50 120.55 396.54 120.40 406.57 C 115.31 406.50 110.22 406.53 105.13 406.59 C 100.20 406.64 95.27 406.60 90.35 406.61 C 90.36 386.51 90.36 366.42 90.35 346.33 C 140.55 346.34 190.74 346.33 240.94 346.33 C 240.93 336.56 240.96 326.79 240.93 317.02 Z" />
</g>
<g id="#fcf069ff">
<path fill="#fcf069" opacity="1.00" d=" M 45.17 406.59 C 60.23 406.61 75.29 406.59 90.35 406.61 C 95.27 406.60 100.20 406.64 105.13 406.59 C 105.46 431.46 105.36 456.34 105.16 481.21 L 105.17 482.12 C 85.18 481.54 65.17 481.88 45.17 481.94 C 45.18 456.82 45.18 431.71 45.17 406.59 Z" />
</g>
<g id="#f7ce46ff">
<path fill="#f7ce46" opacity="1.00" d=" M 105.13 406.59 C 110.22 406.53 115.31 406.50 120.40 406.57 C 135.48 406.62 150.57 406.61 165.65 406.58 C 165.62 441.72 165.68 476.86 165.60 512.00 L 165.29 512.00 C 165.34 502.00 165.52 491.99 165.18 481.99 C 151.79 481.77 138.39 481.97 125.00 481.88 C 118.38 481.99 111.73 482.19 105.16 481.21 C 105.36 456.34 105.46 431.46 105.13 406.59 Z" />
<path fill="#f7ce46" opacity="1.00" d=" M 45.17 481.94 C 65.17 481.88 85.18 481.54 105.17 482.12 C 105.44 492.08 105.35 502.04 105.29 512.00 L 45.18 512.00 C 45.17 501.98 45.18 491.96 45.17 481.94 Z" />
</g>
<g id="#ef8d63ff">
<path fill="#ef8d63" opacity="1.00" d=" M 195.77 406.60 C 210.82 406.61 225.88 406.56 240.94 406.62 C 245.96 406.64 250.98 406.64 255.99 406.61 C 256.05 429.42 255.91 452.24 256.08 475.05 C 256.03 477.19 255.94 479.36 255.51 481.48 C 253.38 481.86 251.20 481.91 249.05 481.95 C 231.29 481.82 213.53 481.80 195.77 481.94 C 195.77 456.83 195.77 431.71 195.77 406.60 Z" />
</g>
<g id="#eb515cff">
<path fill="#eb515c" opacity="1.00" d=" M 255.99 406.61 C 261.01 406.59 266.03 406.59 271.05 406.60 C 286.11 406.60 301.17 406.60 316.23 406.60 C 316.23 431.71 316.23 456.83 316.23 481.94 C 296.16 481.77 276.09 481.82 256.02 481.91 C 255.95 491.94 256.02 501.97 255.99 512.00 L 195.76 512.00 C 195.77 501.98 195.77 491.96 195.77 481.94 C 213.53 481.80 231.29 481.82 249.05 481.95 C 251.20 481.91 253.38 481.86 255.51 481.48 C 255.94 479.36 256.03 477.19 256.08 475.05 C 255.91 452.24 256.05 429.42 255.99 406.61 Z" />
</g>
<g id="#7cd6b0ff">
<path fill="#7cd6b0" opacity="1.00" d=" M 346.35 406.58 C 361.43 406.62 376.51 406.57 391.60 406.61 C 396.68 406.62 401.77 406.67 406.86 406.64 C 406.29 431.42 407.04 456.22 406.46 481.01 C 406.46 481.29 406.46 481.85 406.46 482.13 C 386.61 481.61 366.74 481.88 346.88 481.97 C 346.64 491.98 346.66 501.99 346.91 512.00 L 346.41 512.00 C 346.32 476.86 346.38 441.72 346.35 406.58 Z" />
</g>
<g id="#5dbca7ff">
<path fill="#5dbca7" opacity="1.00" d=" M 406.86 406.64 C 411.79 406.61 416.72 406.59 421.65 406.60 C 436.72 406.59 451.78 406.60 466.84 406.60 C 466.81 441.73 466.85 476.87 466.77 512.00 L 466.24 512.00 C 466.37 502.00 466.50 492.00 466.18 482.00 C 452.45 481.78 438.72 481.97 425.00 481.90 C 418.81 482.07 412.57 482.22 406.46 481.01 C 407.04 456.22 406.29 431.42 406.86 406.64 Z" />
<path fill="#5dbca7" opacity="1.00" d=" M 346.88 481.97 C 366.74 481.88 386.61 481.61 406.46 482.13 C 406.62 492.08 407.13 502.06 406.32 512.00 L 346.91 512.00 C 346.66 501.99 346.64 491.98 346.88 481.97 Z" />
</g>
<g id="#f1a243ff">
<path fill="#f1a243" opacity="1.00" d=" M 105.16 481.21 C 111.73 482.19 118.38 481.99 125.00 481.88 C 138.39 481.97 151.79 481.77 165.18 481.99 C 165.52 491.99 165.34 502.00 165.29 512.00 L 105.29 512.00 C 105.35 502.04 105.44 492.08 105.17 482.12 L 105.16 481.21 Z" />
</g>
<g id="#4e9ca4ff">
<path fill="#4e9ca4" opacity="1.00" d=" M 406.46 482.13 C 406.46 481.85 406.46 481.29 406.46 481.01 C 412.57 482.22 418.81 482.07 425.00 481.90 C 438.72 481.97 452.45 481.78 466.18 482.00 C 466.50 492.00 466.37 502.00 466.24 512.00 L 406.32 512.00 C 407.13 502.06 406.62 492.08 406.46 482.13 Z" />
</g>
<g id="#b4254aff">
<path fill="#b4254a" opacity="1.00" d=" M 256.02 481.91 C 276.09 481.82 296.16 481.77 316.23 481.94 C 316.23 491.96 316.22 501.98 316.24 512.00 L 255.99 512.00 C 256.02 501.97 255.95 491.94 256.02 481.91 Z" />
</g>
</svg>
