<?xml version="1.0" encoding="UTF-8" ?>
<!DOCTYPE svg PUBLIC "-//W3C//DTD SVG 1.1//EN" "http://www.w3.org/Graphics/SVG/1.1/DTD/svg11.dtd">
<svg width="512pt" height="512pt" viewBox="0 0 512 512" version="1.1" xmlns="http://www.w3.org/2000/svg">
<g id="#a5c5f6ff">
<path fill="#a5c5f6" opacity="1.00" d=" M 90.95 14.90 C 198.13 8.39 305.69 8.32 412.89 14.38 C 420.20 14.80 427.57 15.04 434.77 16.48 C 453.33 20.03 470.62 29.72 483.41 43.62 C 496.66 57.88 505.06 76.53 506.95 95.91 C 510.12 132.69 511.65 169.60 512.00 206.52 L 512.00 236.33 C 511.20 264.56 510.23 292.81 508.03 320.98 C 507.38 328.68 507.13 336.45 505.46 344.02 C 501.31 364.02 490.07 382.44 474.20 395.29 C 459.81 407.11 441.63 414.17 423.05 415.31 C 405.37 416.33 387.68 417.32 369.98 418.03 C 360.11 418.36 350.42 422.48 343.41 429.44 C 322.74 450.06 302.13 470.75 281.44 491.37 C 275.97 496.98 268.66 500.58 260.94 501.79 C 256.37 499.31 252.51 495.79 249.08 491.93 C 233.25 474.44 217.52 456.85 201.71 439.33 C 195.74 432.94 190.48 425.41 182.38 421.52 C 174.45 417.32 165.25 417.97 156.58 417.51 C 149.88 417.25 143.11 416.55 136.46 417.86 C 127.50 417.66 118.56 416.82 109.59 416.69 C 106.50 415.81 103.38 415.05 100.19 414.64 C 83.44 412.45 67.84 403.93 56.08 391.92 C 40.85 376.54 31.82 355.50 30.05 334.02 C 24.66 262.41 24.13 190.44 28.52 118.77 C 29.56 105.75 29.48 92.51 32.82 79.79 C 38.15 58.86 49.63 39.14 66.65 25.63 C 71.27 21.97 76.43 19.10 81.23 15.70 C 84.45 15.28 87.70 15.09 90.95 14.90 M 151.07 116.96 C 143.79 117.08 136.45 118.55 130.00 122.02 C 117.31 128.54 108.22 141.59 106.70 155.80 C 103.01 195.61 103.32 235.73 106.45 275.57 C 107.83 292.11 119.49 307.19 135.13 312.71 C 145.31 316.49 156.35 315.39 166.97 316.37 C 211.63 318.48 256.41 318.48 301.08 316.38 C 311.67 315.38 322.68 316.51 332.85 312.80 C 348.61 307.30 360.32 292.15 361.77 275.53 C 361.79 270.54 362.49 265.58 362.70 260.60 C 376.99 268.94 391.31 277.22 405.68 285.42 C 416.18 291.44 430.80 287.18 436.66 276.66 C 439.11 272.59 439.96 267.77 439.84 263.08 C 439.80 231.02 439.89 198.96 439.80 166.91 C 439.77 158.00 434.04 149.52 425.85 146.07 C 419.07 143.01 410.91 143.64 404.57 147.48 C 390.62 155.54 376.65 163.59 362.71 171.68 C 362.00 164.13 362.17 156.41 360.14 149.04 C 355.48 131.63 339.13 118.22 321.11 117.18 C 264.50 113.72 207.69 113.66 151.07 116.96 Z" />
</g>
<g id="#8bb3f5ff">
<path fill="#8bb3f5" opacity="1.00" d=" M 34.03 38.00 C 47.09 26.14 63.71 18.06 81.23 15.70 C 76.43 19.10 71.27 21.97 66.65 25.63 C 49.63 39.14 38.15 58.86 32.82 79.79 C 29.48 92.51 29.56 105.75 28.52 118.77 C 24.13 190.44 24.66 262.41 30.05 334.02 C 31.82 355.50 40.85 376.54 56.08 391.92 C 67.84 403.93 83.44 412.45 100.19 414.64 C 103.38 415.05 106.50 415.81 109.59 416.69 C 96.27 415.59 82.64 416.15 69.71 412.17 C 45.30 405.28 24.27 387.52 13.37 364.62 C 7.25 352.33 4.72 338.63 4.09 325.02 C 1.90 296.24 0.48 267.39 0.00 238.53 L 0.00 187.95 C 0.86 156.58 2.18 125.22 5.10 93.97 C 7.56 72.63 18.10 52.38 34.03 38.00 Z" />
<path fill="#8bb3f5" opacity="1.00" d=" M 136.46 417.86 C 143.11 416.55 149.88 417.25 156.58 417.51 C 165.25 417.97 174.45 417.32 182.38 421.52 C 190.48 425.41 195.74 432.94 201.71 439.33 C 217.52 456.85 233.25 474.44 249.08 491.93 C 252.51 495.79 256.37 499.31 260.94 501.79 C 249.87 503.47 238.30 499.54 230.52 491.53 C 210.49 471.54 190.50 451.51 170.50 431.50 C 166.64 427.60 162.35 424.03 157.28 421.82 C 150.83 418.68 143.54 417.99 136.46 417.86 Z" />
</g>
<g id="#2d4479ff">
<path fill="#2d4479" opacity="1.00" d=" M 151.07 116.96 C 207.69 113.66 264.50 113.72 321.11 117.18 C 339.13 118.22 355.48 131.63 360.14 149.04 C 362.17 156.41 362.00 164.13 362.71 171.68 C 364.66 201.27 364.65 231.00 362.70 260.60 C 362.49 265.58 361.79 270.54 361.77 275.53 C 351.86 279.00 341.53 281.33 330.99 281.35 C 265.35 283.52 199.64 283.57 134.01 281.19 C 124.55 281.02 115.37 278.55 106.45 275.57 C 103.32 235.73 103.01 195.61 106.70 155.80 C 108.22 141.59 117.31 128.54 130.00 122.02 C 136.45 118.55 143.79 117.08 151.07 116.96 M 218.44 172.71 C 211.00 174.30 205.04 181.22 204.95 188.89 C 204.87 206.93 204.90 224.98 204.94 243.02 C 204.88 250.58 210.53 257.64 217.84 259.41 C 222.38 260.71 227.33 259.81 231.33 257.38 C 246.55 248.58 261.83 239.85 277.01 230.98 C 282.52 227.81 285.87 221.41 285.41 215.08 C 285.12 209.40 281.78 204.03 276.84 201.23 C 261.64 192.38 246.39 183.62 231.15 174.84 C 227.36 172.58 222.76 171.71 218.44 172.71 Z" />
</g>
<g id="#263767ff">
<path fill="#263767" opacity="1.00" d=" M 404.57 147.48 C 410.91 143.64 419.07 143.01 425.85 146.07 C 434.04 149.52 439.77 158.00 439.80 166.91 C 439.89 198.96 439.80 231.02 439.84 263.08 C 439.96 267.77 439.11 272.59 436.66 276.66 C 430.80 287.18 416.18 291.44 405.68 285.42 C 391.31 277.22 376.99 268.94 362.70 260.60 C 364.65 231.00 364.66 201.27 362.71 171.68 C 376.65 163.59 390.62 155.54 404.57 147.48 Z" />
<path fill="#263767" opacity="1.00" d=" M 106.45 275.57 C 115.37 278.55 124.55 281.02 134.01 281.19 C 199.64 283.57 265.35 283.52 330.99 281.35 C 341.53 281.33 351.86 279.00 361.77 275.53 C 360.32 292.15 348.61 307.30 332.85 312.80 C 322.68 316.51 311.67 315.38 301.08 316.38 C 256.41 318.48 211.63 318.48 166.97 316.37 C 156.35 315.39 145.31 316.49 135.13 312.71 C 119.49 307.19 107.83 292.11 106.45 275.57 Z" />
</g>
<g id="#dd636eff">
<path fill="#dd636e" opacity="1.00" d=" M 218.44 172.71 C 222.76 171.71 227.36 172.58 231.15 174.84 C 246.39 183.62 261.64 192.38 276.84 201.23 C 281.78 204.03 285.12 209.40 285.41 215.08 C 285.87 221.41 282.52 227.81 277.01 230.98 C 261.83 239.85 246.55 248.58 231.33 257.38 C 227.33 259.81 222.38 260.71 217.84 259.41 C 210.53 257.64 204.88 250.58 204.94 243.02 C 204.90 224.98 204.87 206.93 204.95 188.89 C 205.04 181.22 211.00 174.30 218.44 172.71 Z" />
</g>
</svg>
