<?xml version="1.0" encoding="UTF-8" ?>
<!DOCTYPE svg PUBLIC "-//W3C//DTD SVG 1.1//EN" "http://www.w3.org/Graphics/SVG/1.1/DTD/svg11.dtd">
<svg width="512pt" height="512pt" viewBox="0 0 512 512" version="1.1" xmlns="http://www.w3.org/2000/svg">
<g id="#fae18fff">
<path fill="#fae18f" opacity="1.00" d=" M 124.81 24.43 C 126.51 24.21 128.21 23.98 129.93 23.99 C 201.31 24.05 272.69 23.94 344.07 24.04 C 348.73 23.91 352.46 28.38 352.00 32.91 C 351.98 99.58 352.04 166.25 351.97 232.92 C 332.54 235.27 313.66 241.80 296.97 252.03 C 273.29 251.97 249.60 252.03 225.92 251.97 C 222.30 251.75 218.13 253.01 216.70 256.68 C 214.22 261.67 218.30 268.23 223.95 267.93 C 241.11 268.19 258.28 267.81 275.44 268.11 C 273.08 270.86 270.35 273.28 267.95 275.99 C 253.94 276.03 239.93 275.99 225.92 275.97 C 222.56 275.83 218.68 276.74 217.04 280.00 C 214.17 284.63 217.44 291.61 223.03 291.84 C 233.73 292.32 244.47 291.78 255.18 292.07 C 253.44 294.71 251.81 297.40 250.15 300.09 C 242.07 299.97 233.99 299.97 225.92 299.97 C 222.80 299.90 219.22 300.52 217.43 303.38 C 214.20 307.67 216.72 314.87 222.17 315.70 C 228.83 316.48 235.56 315.73 242.25 316.09 C 228.02 350.30 228.73 390.25 244.00 423.99 C 173.64 424.01 103.28 423.99 32.91 424.00 C 30.06 424.13 27.08 423.01 25.46 420.58 C 23.45 417.80 24.11 414.19 23.99 410.99 C 24.02 319.33 23.99 227.67 24.00 136.00 C 24.08 131.95 23.56 127.79 24.88 123.87 C 54.60 124.19 84.34 123.84 114.06 124.07 C 117.99 124.41 121.51 122.66 124.56 120.39 C 130.01 119.72 135.52 120.04 141.00 119.99 C 193.34 120.01 245.67 119.99 298.00 120.00 C 303.27 119.93 308.58 120.45 313.81 119.63 C 316.46 119.23 318.81 117.24 319.44 114.61 C 320.21 111.46 320.05 108.20 320.07 104.99 C 319.92 95.31 320.01 85.64 320.07 75.96 C 319.93 72.68 320.18 68.84 317.69 66.31 C 315.72 64.29 312.72 64.11 310.08 63.98 C 248.43 64.02 186.78 64.00 125.13 63.99 C 124.97 50.81 125.49 37.61 124.81 24.43 M 273.86 138.85 C 271.87 141.05 272.01 144.20 271.96 146.97 C 272.09 167.31 271.89 187.65 272.06 208.00 C 269.35 207.96 266.64 207.96 263.94 208.00 C 264.12 194.66 263.90 181.33 264.04 167.99 C 263.95 164.90 264.34 161.35 262.14 158.85 C 259.17 155.09 252.82 155.09 249.86 158.85 C 247.65 161.34 248.04 164.90 247.96 167.99 C 248.10 181.33 247.87 194.67 248.06 208.00 C 245.36 207.97 242.66 207.96 239.96 207.95 C 240.13 201.30 239.92 194.64 240.05 187.99 C 240.03 184.68 240.35 180.79 237.69 178.31 C 234.55 175.00 228.67 175.26 225.83 178.82 C 223.61 181.33 224.01 184.89 223.95 187.99 C 224.08 194.65 223.87 201.30 224.04 207.95 C 221.35 207.96 218.65 207.96 215.96 207.95 C 216.13 195.96 215.90 183.97 216.05 171.99 C 215.99 168.89 216.37 165.34 214.17 162.83 C 211.33 159.25 205.44 159.00 202.30 162.30 C 199.90 164.51 199.92 167.97 199.95 170.97 C 200.10 183.30 199.88 195.62 200.04 207.95 C 197.34 207.96 194.64 207.97 191.94 208.00 C 192.12 190.66 191.90 173.32 192.04 155.99 C 191.95 152.90 192.34 149.35 190.13 146.85 C 187.17 143.09 180.82 143.09 177.86 146.85 C 175.65 149.35 176.05 152.90 175.96 155.99 C 176.10 173.32 175.88 190.66 176.06 208.00 C 173.36 207.97 170.66 207.96 167.96 207.95 C 168.02 202.30 168.21 196.64 167.89 191.00 C 167.63 187.05 163.90 183.86 160.00 183.96 C 156.09 183.87 152.35 187.05 152.11 191.00 C 151.80 196.64 151.97 202.30 152.04 207.95 C 126.67 208.10 101.30 207.89 75.93 208.05 C 71.99 207.93 68.37 211.15 68.05 215.08 C 67.27 220.08 71.97 224.57 76.92 224.00 C 150.63 224.02 224.35 223.97 298.06 224.02 C 301.20 224.18 304.75 223.45 306.56 220.60 C 309.82 216.31 307.25 209.18 301.86 208.26 C 297.24 207.69 292.57 208.07 287.94 208.00 C 288.11 187.66 287.91 167.31 288.04 146.96 C 287.98 144.20 288.11 141.06 286.13 138.85 C 283.17 135.09 276.82 135.09 273.86 138.85 M 73.36 144.50 C 69.70 145.47 67.84 149.36 68.02 152.92 C 67.89 164.62 68.10 176.32 67.95 188.01 C 68.06 191.30 67.71 195.20 70.33 197.67 C 72.53 200.03 75.99 199.96 78.96 200.04 C 92.99 199.97 107.01 199.98 121.04 200.04 C 124.01 199.96 127.47 200.03 129.67 197.67 C 132.03 195.47 131.96 192.00 132.04 189.03 C 131.98 177.68 131.99 166.32 132.04 154.96 C 131.96 151.99 132.03 148.53 129.67 146.33 C 127.48 143.95 124.00 144.04 121.03 143.95 C 107.35 144.01 93.67 144.04 79.99 143.94 C 77.77 143.98 75.52 143.94 73.36 144.50 M 61.36 240.51 C 58.81 241.23 56.75 243.51 56.32 246.14 C 55.68 250.39 56.04 254.71 55.99 259.00 C 56.00 297.35 56.01 335.71 55.98 374.06 C 55.80 377.65 56.97 381.84 60.65 383.24 C 64.63 384.50 68.89 383.92 73.00 384.02 C 112.02 383.98 151.04 383.99 190.06 384.02 C 193.64 384.19 197.84 383.03 199.24 379.35 C 200.50 375.37 199.92 371.10 200.02 366.99 C 199.98 327.98 200.00 288.95 200.02 249.94 C 199.94 247.27 199.77 244.25 197.67 242.32 C 195.74 240.22 192.72 240.05 190.06 239.98 C 148.69 240.01 107.31 240.01 65.93 239.98 C 64.40 240.03 62.85 240.10 61.36 240.51 Z" />
</g>
<g id="#f7cc4fff">
<path fill="#f7cc4f" opacity="1.00" d=" M 117.23 31.23 C 119.66 28.86 121.85 26.18 124.81 24.43 C 125.49 37.61 124.97 50.81 125.13 63.99 C 125.11 78.66 125.10 93.33 125.15 108.00 C 125.18 112.14 124.92 116.27 124.56 120.39 C 121.51 122.66 117.99 124.41 114.06 124.07 C 84.34 123.84 54.60 124.19 24.88 123.87 C 27.16 121.17 29.73 118.73 32.23 116.24 C 60.57 87.90 88.91 59.58 117.23 31.23 Z" />
</g>
<g id="#91c9c4ff">
<path fill="#91c9c4" opacity="1.00" d=" M 125.13 63.99 C 186.78 64.00 248.43 64.02 310.08 63.98 C 312.72 64.11 315.72 64.29 317.69 66.31 C 320.18 68.84 319.93 72.68 320.07 75.96 C 320.01 85.64 319.92 95.31 320.07 104.99 C 320.05 108.20 320.21 111.46 319.44 114.61 C 318.81 117.24 316.46 119.23 313.81 119.63 C 308.58 120.45 303.27 119.93 298.00 120.00 C 245.67 119.99 193.34 120.01 141.00 119.99 C 135.52 120.04 130.01 119.72 124.56 120.39 C 124.92 116.27 125.18 112.14 125.15 108.00 C 125.10 93.33 125.11 78.66 125.13 63.99 Z" />
<path fill="#91c9c4" opacity="1.00" d=" M 73.36 144.50 C 75.52 143.94 77.77 143.98 79.99 143.94 C 93.67 144.04 107.35 144.01 121.03 143.95 C 124.00 144.04 127.48 143.95 129.67 146.33 C 132.03 148.53 131.96 151.99 132.04 154.96 C 131.99 166.32 131.98 177.68 132.04 189.03 C 131.96 192.00 132.03 195.47 129.67 197.67 C 127.47 200.03 124.01 199.96 121.04 200.04 C 107.01 199.98 92.99 199.97 78.96 200.04 C 75.99 199.96 72.53 200.03 70.33 197.67 C 67.71 195.20 68.06 191.30 67.95 188.01 C 68.10 176.32 67.89 164.62 68.02 152.92 C 67.84 149.36 69.70 145.47 73.36 144.50 Z" />
<path fill="#91c9c4" opacity="1.00" d=" M 61.36 240.51 C 62.85 240.10 64.40 240.03 65.93 239.98 C 107.31 240.01 148.69 240.01 190.06 239.98 C 192.72 240.05 195.74 240.22 197.67 242.32 C 199.77 244.25 199.94 247.27 200.02 249.94 C 200.00 288.95 199.98 327.98 200.02 366.99 C 199.92 371.10 200.50 375.37 199.24 379.35 C 197.84 383.03 193.64 384.19 190.06 384.02 C 151.04 383.99 112.02 383.98 73.00 384.02 C 68.89 383.92 64.63 384.50 60.65 383.24 C 56.97 381.84 55.80 377.65 55.98 374.06 C 56.01 335.71 56.00 297.35 55.99 259.00 C 56.04 254.71 55.68 250.39 56.32 246.14 C 56.75 243.51 58.81 241.23 61.36 240.51 M 128.18 273.19 C 124.54 276.78 124.02 282.06 123.87 286.89 C 120.81 285.61 117.71 283.53 114.24 284.25 C 108.92 285.08 103.70 286.42 98.40 287.33 C 95.01 288.03 90.85 288.57 89.07 291.99 C 87.22 294.98 88.39 298.56 89.36 301.63 C 90.65 305.29 91.57 309.15 93.50 312.55 C 96.12 316.88 103.05 317.07 106.12 313.15 C 108.94 310.09 107.39 305.75 107.14 302.10 C 111.52 300.40 116.77 299.99 120.18 303.84 C 115.32 312.65 109.77 321.06 104.84 329.84 C 101.12 337.61 90.81 337.38 85.44 343.40 C 82.39 347.48 84.47 354.07 89.38 355.55 C 94.20 357.05 98.49 353.50 102.66 351.66 C 107.00 349.14 112.56 347.89 115.35 343.35 C 117.71 339.69 119.62 335.76 122.16 332.21 C 125.16 334.13 128.01 336.30 130.35 339.00 C 129.48 343.21 126.65 347.82 129.06 352.00 C 131.62 356.93 139.60 357.36 142.49 352.55 C 144.63 348.67 145.68 344.31 147.09 340.14 C 148.12 337.13 148.55 333.35 146.07 330.91 C 141.39 326.11 135.38 322.83 130.75 317.97 C 131.93 315.89 132.66 313.06 134.95 311.98 C 140.33 313.96 144.75 317.95 150.24 319.70 C 154.25 320.76 157.72 317.83 160.95 315.92 C 165.26 312.89 170.22 310.73 174.09 307.11 C 178.58 302.41 174.54 293.59 168.00 294.02 C 161.77 294.77 157.47 300.15 151.82 302.41 C 149.63 302.00 147.86 300.51 146.03 299.34 C 148.85 297.11 152.09 295.15 153.91 291.94 C 157.32 286.10 156.46 278.13 151.79 273.22 C 145.90 266.31 134.10 266.33 128.18 273.19 Z" />
</g>
<g id="#a82e26ff">
<path fill="#a82e26" opacity="1.00" d=" M 273.86 138.85 C 276.82 135.09 283.17 135.09 286.13 138.85 C 288.11 141.06 287.98 144.20 288.04 146.96 C 287.91 167.31 288.11 187.66 287.94 208.00 C 282.64 208.04 277.35 208.05 272.06 208.00 C 271.89 187.65 272.09 167.31 271.96 146.97 C 272.01 144.20 271.87 141.05 273.86 138.85 Z" />
<path fill="#a82e26" opacity="1.00" d=" M 177.86 146.85 C 180.82 143.09 187.17 143.09 190.13 146.85 C 192.34 149.35 191.95 152.90 192.04 155.99 C 191.90 173.32 192.12 190.66 191.94 208.00 C 186.64 208.05 181.35 208.05 176.06 208.00 C 175.88 190.66 176.10 173.32 175.96 155.99 C 176.05 152.90 175.65 149.35 177.86 146.85 Z" />
<path fill="#a82e26" opacity="1.00" d=" M 249.86 158.85 C 252.82 155.09 259.17 155.09 262.14 158.85 C 264.34 161.35 263.95 164.90 264.04 167.99 C 263.90 181.33 264.12 194.66 263.94 208.00 C 258.65 208.04 253.35 208.05 248.06 208.00 C 247.87 194.67 248.10 181.33 247.96 167.99 C 248.04 164.90 247.65 161.34 249.86 158.85 Z" />
<path fill="#a82e26" opacity="1.00" d=" M 360.14 343.00 C 360.43 338.74 364.76 335.47 368.93 336.06 C 372.83 336.43 376.02 340.00 375.94 343.93 C 376.09 349.93 376.02 355.93 375.94 361.93 C 370.97 359.41 365.03 359.41 360.06 361.92 C 360.02 355.62 359.81 349.30 360.14 343.00 Z" />
</g>
<g id="#57aeefff">
<path fill="#57aeef" opacity="1.00" d=" M 202.30 162.30 C 205.44 159.00 211.33 159.25 214.17 162.83 C 216.37 165.34 215.99 168.89 216.05 171.99 C 215.90 183.97 216.13 195.96 215.96 207.95 C 210.65 207.91 205.35 207.91 200.04 207.95 C 199.88 195.62 200.10 183.30 199.95 170.97 C 199.92 167.97 199.90 164.51 202.30 162.30 Z" />
<path fill="#57aeef" opacity="1.00" d=" M 225.83 178.82 C 228.67 175.26 234.55 175.00 237.69 178.31 C 240.35 180.79 240.03 184.68 240.05 187.99 C 239.92 194.64 240.13 201.30 239.96 207.95 C 234.65 207.91 229.35 207.91 224.04 207.95 C 223.87 201.30 224.08 194.65 223.95 187.99 C 224.01 184.89 223.61 181.33 225.83 178.82 Z" />
<path fill="#57aeef" opacity="1.00" d=" M 152.11 191.00 C 152.35 187.05 156.09 183.87 160.00 183.96 C 163.90 183.86 167.63 187.05 167.89 191.00 C 168.21 196.64 168.02 202.30 167.96 207.95 C 162.65 207.91 157.35 207.90 152.04 207.95 C 151.97 202.30 151.80 196.64 152.11 191.00 Z" />
<path fill="#57aeef" opacity="1.00" d=" M 349.35 288.49 C 358.48 287.22 367.79 288.36 376.99 287.92 C 381.57 288.11 387.58 286.95 390.58 291.37 C 393.99 295.93 390.91 303.62 385.00 303.82 C 374.00 304.58 362.94 304.49 351.93 303.92 C 348.32 303.97 344.86 301.42 344.21 297.81 C 343.28 294.00 345.47 289.55 349.35 288.49 Z" />
<path fill="#57aeef" opacity="1.00" d=" M 412.70 316.64 C 414.52 312.19 420.76 310.54 424.54 313.50 C 428.27 316.38 431.28 320.07 434.73 323.27 C 437.08 325.69 440.12 328.28 439.98 332.00 C 440.16 336.21 436.33 340.29 432.03 339.88 C 429.71 339.45 427.47 338.71 425.18 338.16 C 422.98 340.09 420.87 342.13 418.77 344.18 C 415.61 339.68 412.00 335.51 408.12 331.61 C 410.10 330.18 412.53 329.06 413.76 326.85 C 413.47 323.45 410.98 320.02 412.70 316.64 Z" />
<path fill="#57aeef" opacity="1.00" d=" M 361.39 328.51 C 370.54 327.31 380.04 328.58 388.38 332.62 C 404.24 339.88 415.37 356.45 415.87 373.92 C 416.32 382.63 414.23 391.40 410.04 399.03 C 402.07 413.80 385.87 423.80 369.04 423.90 C 360.67 424.17 352.30 422.05 344.97 418.03 C 330.52 410.22 320.60 394.55 320.13 378.07 C 319.73 370.12 321.41 362.10 324.94 354.96 C 331.72 340.83 345.85 330.57 361.39 328.51 M 360.14 343.00 C 359.81 349.30 360.02 355.62 360.06 361.92 C 355.96 365.07 352.33 369.63 352.30 375.04 C 351.40 383.75 359.26 392.09 368.00 391.72 C 376.38 392.07 384.06 384.38 383.72 376.00 C 384.02 370.25 380.30 365.26 375.94 361.93 C 376.02 355.93 376.09 349.93 375.94 343.93 C 376.02 340.00 372.83 336.43 368.93 336.06 C 364.76 335.47 360.43 338.74 360.14 343.00 Z" />
</g>
<g id="#2c675cff">
<path fill="#2c675c" opacity="1.00" d=" M 68.05 215.08 C 68.37 211.15 71.99 207.93 75.93 208.05 C 101.30 207.89 126.67 208.10 152.04 207.95 C 157.35 207.90 162.65 207.91 167.96 207.95 C 170.66 207.96 173.36 207.97 176.06 208.00 C 181.35 208.05 186.64 208.05 191.94 208.00 C 194.64 207.97 197.34 207.96 200.04 207.95 C 205.35 207.91 210.65 207.91 215.96 207.95 C 218.65 207.96 221.35 207.96 224.04 207.95 C 229.35 207.91 234.65 207.91 239.96 207.95 C 242.66 207.96 245.36 207.97 248.06 208.00 C 253.35 208.05 258.65 208.04 263.94 208.00 C 266.64 207.96 269.35 207.96 272.06 208.00 C 277.35 208.05 282.64 208.04 287.94 208.00 C 292.57 208.07 297.24 207.69 301.86 208.26 C 307.25 209.18 309.82 216.31 306.56 220.60 C 304.75 223.45 301.20 224.18 298.06 224.02 C 224.35 223.97 150.63 224.02 76.92 224.00 C 71.97 224.57 67.27 220.08 68.05 215.08 Z" />
<path fill="#2c675c" opacity="1.00" d=" M 216.70 256.68 C 218.13 253.01 222.30 251.75 225.92 251.97 C 249.60 252.03 273.29 251.97 296.97 252.03 C 290.80 256.46 284.35 260.57 278.77 265.78 C 277.69 266.56 276.84 267.89 275.44 268.11 C 258.28 267.81 241.11 268.19 223.95 267.93 C 218.30 268.23 214.22 261.67 216.70 256.68 Z" />
<path fill="#2c675c" opacity="1.00" d=" M 128.18 273.19 C 134.10 266.33 145.90 266.31 151.79 273.22 C 156.46 278.13 157.32 286.10 153.91 291.94 C 152.09 295.15 148.85 297.11 146.03 299.34 C 147.86 300.51 149.63 302.00 151.82 302.41 C 157.47 300.15 161.77 294.77 168.00 294.02 C 174.54 293.59 178.58 302.41 174.09 307.11 C 170.22 310.73 165.26 312.89 160.95 315.92 C 157.72 317.83 154.25 320.76 150.24 319.70 C 144.75 317.95 140.33 313.96 134.95 311.98 C 132.66 313.06 131.93 315.89 130.75 317.97 C 135.38 322.83 141.39 326.11 146.07 330.91 C 148.55 333.35 148.12 337.13 147.09 340.14 C 145.68 344.31 144.63 348.67 142.49 352.55 C 139.60 357.36 131.62 356.93 129.06 352.00 C 126.65 347.82 129.48 343.21 130.35 339.00 C 128.01 336.30 125.16 334.13 122.16 332.21 C 119.62 335.76 117.71 339.69 115.35 343.35 C 112.56 347.89 107.00 349.14 102.66 351.66 C 98.49 353.50 94.20 357.05 89.38 355.55 C 84.47 354.07 82.39 347.48 85.44 343.40 C 90.81 337.38 101.12 337.61 104.84 329.84 C 109.77 321.06 115.32 312.65 120.18 303.84 C 116.77 299.99 111.52 300.40 107.14 302.10 C 107.39 305.75 108.94 310.09 106.12 313.15 C 103.05 317.07 96.12 316.88 93.50 312.55 C 91.57 309.15 90.65 305.29 89.36 301.63 C 88.39 298.56 87.22 294.98 89.07 291.99 C 90.85 288.57 95.01 288.03 98.40 287.33 C 103.70 286.42 108.92 285.08 114.24 284.25 C 117.71 283.53 120.81 285.61 123.87 286.89 C 124.02 282.06 124.54 276.78 128.18 273.19 Z" />
<path fill="#2c675c" opacity="1.00" d=" M 217.04 280.00 C 218.68 276.74 222.56 275.83 225.92 275.97 C 239.93 275.99 253.94 276.03 267.95 275.99 C 263.49 281.19 259.38 286.67 255.18 292.07 C 244.47 291.78 233.73 292.32 223.03 291.84 C 217.44 291.61 214.17 284.63 217.04 280.00 Z" />
<path fill="#2c675c" opacity="1.00" d=" M 217.43 303.38 C 219.22 300.52 222.80 299.90 225.92 299.97 C 233.99 299.97 242.07 299.97 250.15 300.09 C 247.49 305.41 245.02 310.83 242.25 316.09 C 235.56 315.73 228.83 316.48 222.17 315.70 C 216.72 314.87 214.20 307.67 217.43 303.38 Z" />
</g>
<g id="#3064baff">
<path fill="#3064ba" opacity="1.00" d=" M 355.47 248.66 C 381.89 245.87 409.22 252.06 431.69 266.29 C 463.57 286.04 485.11 321.45 487.63 358.92 C 490.55 394.28 476.62 430.47 450.82 454.81 C 426.03 478.76 390.56 490.96 356.28 487.41 C 335.26 485.39 314.84 477.64 297.76 465.25 C 279.38 452.01 264.88 433.46 256.51 412.41 C 246.88 388.39 245.42 361.21 252.26 336.26 C 258.86 311.92 273.46 289.89 293.19 274.20 C 310.94 259.97 332.83 250.98 355.47 248.66 M 349.35 288.49 C 345.47 289.55 343.28 294.00 344.21 297.81 C 344.86 301.42 348.32 303.97 351.93 303.92 C 362.94 304.49 374.00 304.58 385.00 303.82 C 390.91 303.62 393.99 295.93 390.58 291.37 C 387.58 286.95 381.57 288.11 376.99 287.92 C 367.79 288.36 358.48 287.22 349.35 288.49 M 412.70 316.64 C 410.98 320.02 413.47 323.45 413.76 326.85 C 412.53 329.06 410.10 330.18 408.12 331.61 C 397.47 321.36 382.59 316.30 368.00 315.73 C 354.95 316.20 341.85 320.37 331.50 328.46 C 319.82 337.34 311.62 350.66 309.05 365.11 C 306.06 380.65 309.70 397.29 318.78 410.23 C 328.03 423.53 342.83 432.89 358.89 435.25 C 374.15 437.68 390.29 433.85 402.82 424.81 C 415.34 415.90 424.25 402.03 426.95 386.89 C 429.69 372.31 426.80 356.67 418.77 344.18 C 420.87 342.13 422.98 340.09 425.18 338.16 C 427.47 338.71 429.71 339.45 432.03 339.88 C 436.33 340.29 440.16 336.21 439.98 332.00 C 440.12 328.28 437.08 325.69 434.73 323.27 C 431.28 320.07 428.27 316.38 424.54 313.50 C 420.76 310.54 414.52 312.19 412.70 316.64 Z" />
<path fill="#3064ba" opacity="1.00" d=" M 360.06 361.92 C 365.03 359.41 370.97 359.41 375.94 361.93 C 380.30 365.26 384.02 370.25 383.72 376.00 C 384.06 384.38 376.38 392.07 368.00 391.72 C 359.26 392.09 351.40 383.75 352.30 375.04 C 352.33 369.63 355.96 365.07 360.06 361.92 Z" />
</g>
<g id="#94d2f6ff">
<path fill="#94d2f6" opacity="1.00" d=" M 331.50 328.46 C 341.85 320.37 354.95 316.20 368.00 315.73 C 382.59 316.30 397.47 321.36 408.12 331.61 C 412.00 335.51 415.61 339.68 418.77 344.18 C 426.80 356.67 429.69 372.31 426.95 386.89 C 424.25 402.03 415.34 415.90 402.82 424.81 C 390.29 433.85 374.15 437.68 358.89 435.25 C 342.83 432.89 328.03 423.53 318.78 410.23 C 309.70 397.29 306.06 380.65 309.05 365.11 C 311.62 350.66 319.82 337.34 331.50 328.46 M 361.39 328.51 C 345.85 330.57 331.72 340.83 324.94 354.96 C 321.41 362.10 319.73 370.12 320.13 378.07 C 320.60 394.55 330.52 410.22 344.97 418.03 C 352.30 422.05 360.67 424.17 369.04 423.90 C 385.87 423.80 402.07 413.80 410.04 399.03 C 414.23 391.40 416.32 382.63 415.87 373.92 C 415.37 356.45 404.24 339.88 388.38 332.62 C 380.04 328.58 370.54 327.31 361.39 328.51 Z" />
</g>
</svg>
