<?xml version="1.0" encoding="UTF-8" ?>
<!DOCTYPE svg PUBLIC "-//W3C//DTD SVG 1.1//EN" "http://www.w3.org/Graphics/SVG/1.1/DTD/svg11.dtd">
<svg width="512pt" height="512pt" viewBox="0 0 512 512" version="1.1" xmlns="http://www.w3.org/2000/svg">
<g id="#e6566aff">
<path fill="#e6566a" opacity="1.00" d=" M 94.47 31.70 C 110.10 27.44 127.74 36.79 133.09 52.05 C 138.90 66.73 132.14 84.84 118.19 92.18 C 105.00 99.75 86.89 96.36 77.32 84.54 C 67.31 73.08 67.13 54.57 76.92 42.91 C 81.36 37.42 87.61 33.40 94.47 31.70 Z" />
<path fill="#e6566a" opacity="1.00" d=" M 44.92 117.92 C 53.44 109.71 65.52 106.90 76.90 105.51 C 85.66 113.05 94.58 120.39 103.31 127.96 C 112.37 120.65 121.11 112.93 130.05 105.47 C 141.88 107.11 154.67 110.67 162.35 120.49 C 170.42 130.75 170.59 144.64 169.53 157.05 C 168.63 167.44 162.51 177.30 153.26 182.26 C 148.93 184.83 143.93 185.63 139.09 186.69 C 116.41 187.11 93.70 186.72 71.00 186.88 C 69.07 186.90 67.12 186.90 65.20 186.67 C 56.13 185.06 47.07 181.12 41.41 173.55 C 35.16 165.87 34.79 155.46 34.85 146.01 C 34.80 135.92 37.41 125.12 44.92 117.92 Z" />
</g>
<g id="#f3bb6bff">
<path fill="#f3bb6b" opacity="1.00" d=" M 248.47 31.60 C 263.30 27.81 279.93 36.06 285.90 50.14 C 292.66 64.49 286.97 83.14 273.34 91.26 C 260.20 99.85 241.19 96.95 231.19 84.85 C 220.85 73.34 220.63 54.43 230.70 42.69 C 235.22 37.20 241.54 33.21 248.47 31.60 Z" />
<path fill="#f3bb6b" opacity="1.00" d=" M 197.78 119.80 C 206.14 110.19 219.26 107.09 231.37 105.46 C 240.28 112.92 249.14 120.44 258.00 127.97 C 266.97 120.58 275.77 112.96 284.67 105.47 C 296.36 107.10 308.86 110.97 316.25 120.79 C 324.00 131.06 324.18 144.69 323.14 156.96 C 322.25 167.29 316.25 177.13 307.08 182.13 C 301.91 185.08 295.93 186.43 290.00 186.40 C 267.65 186.39 245.31 186.37 222.96 186.40 C 212.25 186.52 201.56 181.32 195.32 172.58 C 190.88 166.69 189.82 159.13 189.54 151.97 C 189.00 140.83 190.13 128.56 197.78 119.80 Z" />
<path fill="#f3bb6b" opacity="1.00" d=" M 240.30 355.62 C 239.79 347.40 247.64 340.27 255.63 340.22 C 255.61 343.33 255.60 346.44 255.57 349.56 C 252.58 350.49 250.24 352.50 249.43 355.61 C 246.38 355.61 243.34 355.60 240.30 355.62 Z" />
</g>
<g id="#87d3d3ff">
<path fill="#87d3d3" opacity="1.00" d=" M 401.51 31.74 C 417.55 27.25 435.72 37.21 440.65 53.09 C 446.04 68.12 438.43 86.23 423.96 92.92 C 410.69 99.68 393.20 95.76 384.08 84.00 C 374.84 72.92 374.45 55.65 383.16 44.15 C 387.61 38.07 394.20 33.58 401.51 31.74 Z" />
<path fill="#87d3d3" opacity="1.00" d=" M 353.01 118.04 C 361.50 109.74 373.64 106.97 385.03 105.48 C 393.89 112.98 402.78 120.44 411.60 127.99 C 420.54 120.57 429.36 113.01 438.21 105.49 C 448.91 106.97 460.14 110.21 467.76 118.31 C 474.77 125.67 477.16 136.19 477.15 146.09 C 477.25 154.14 476.91 162.61 472.88 169.80 C 468.94 177.11 461.96 182.67 453.99 184.96 C 449.13 186.49 443.98 186.48 438.94 186.42 C 417.95 186.37 396.95 186.46 375.96 186.39 C 365.08 186.35 354.29 180.77 348.28 171.65 C 343.21 164.15 343.07 154.67 343.07 145.94 C 343.05 135.92 345.61 125.23 353.01 118.04 Z" />
<path fill="#87d3d3" opacity="1.00" d=" M 86.27 355.63 C 86.45 347.59 93.53 340.32 101.63 340.29 C 101.60 343.41 101.60 346.52 101.54 349.64 C 98.86 350.81 96.90 352.89 95.75 355.57 C 92.59 355.59 89.43 355.58 86.27 355.63 Z" />
<path fill="#87d3d3" opacity="1.00" d=" M 400.82 342.96 C 403.40 341.28 406.33 340.22 409.45 340.40 C 409.25 343.40 409.26 346.41 409.39 349.43 C 406.51 350.44 403.66 352.22 403.21 355.52 C 399.90 355.55 396.59 355.52 393.28 355.55 C 394.29 350.73 396.16 345.37 400.82 342.96 Z" />
</g>
<g id="#e4cfc3ff">
<path fill="#e4cfc3" opacity="1.00" d=" M 39.53 189.31 C 47.66 186.06 56.60 186.04 65.20 186.67 C 67.12 186.90 69.07 186.90 71.00 186.88 C 93.70 186.72 116.41 187.11 139.09 186.69 C 141.38 186.45 143.68 186.34 145.99 186.39 C 172.98 186.52 199.99 186.15 226.97 186.64 C 251.98 186.51 276.99 186.87 301.99 186.40 C 349.67 186.22 397.33 186.86 445.00 186.63 C 454.00 186.26 463.34 185.75 471.89 189.10 C 489.14 195.23 501.72 212.61 501.73 230.98 C 501.78 287.30 501.78 343.62 501.72 399.94 C 501.72 416.17 491.58 431.46 477.15 438.61 C 477.17 428.61 474.30 418.14 467.15 410.85 C 459.53 402.95 448.69 399.24 438.12 397.35 C 429.39 404.90 420.54 412.33 411.70 419.76 C 402.71 412.40 393.92 404.80 385.05 397.30 C 373.15 399.40 360.38 402.65 351.95 411.94 C 344.22 420.35 342.65 432.41 343.09 443.39 C 336.57 443.42 330.04 443.38 323.52 443.40 C 323.99 432.72 322.37 421.19 315.27 412.75 C 307.78 403.56 296.03 399.58 284.81 397.24 C 275.80 404.65 267.02 412.35 258.04 419.79 C 249.07 412.31 240.28 404.62 231.25 397.23 C 219.36 399.50 206.55 402.68 198.18 412.10 C 190.53 420.51 189.07 432.48 189.49 443.40 C 182.97 443.40 176.45 443.40 169.93 443.40 C 170.47 432.63 168.68 421.01 161.44 412.58 C 153.59 403.38 141.51 399.37 129.96 397.31 C 121.22 404.85 112.35 412.23 103.58 419.75 C 94.51 412.51 85.78 404.84 76.93 397.34 C 65.23 399.23 52.78 402.51 44.29 411.33 C 37.28 418.50 34.91 428.88 34.85 438.63 C 20.46 431.43 10.26 416.22 10.27 399.98 C 10.22 343.64 10.23 287.30 10.27 230.96 C 10.26 212.79 22.60 195.64 39.53 189.31 M 94.42 324.59 C 88.91 325.94 83.78 328.80 79.70 332.74 C 69.08 342.59 66.51 359.78 73.79 372.30 C 80.39 384.53 95.31 391.44 108.90 388.44 C 120.46 386.26 130.37 377.24 133.69 365.97 C 136.41 357.26 135.27 347.41 130.55 339.59 C 123.51 327.38 108.05 320.90 94.42 324.59 M 248.36 324.48 C 235.88 327.32 225.68 338.14 223.71 350.81 C 221.35 363.42 227.35 377.01 238.20 383.83 C 248.91 391.04 263.90 390.80 274.46 383.43 C 286.89 375.23 292.21 358.09 286.48 344.32 C 280.98 329.45 263.71 320.48 248.36 324.48 M 401.45 324.64 C 393.92 326.52 387.15 331.26 382.72 337.62 C 373.67 350.09 375.33 368.85 386.47 379.52 C 397.47 391.01 417.05 392.28 429.49 382.37 C 441.92 373.23 446.03 354.86 438.69 341.29 C 432.09 328.00 415.77 320.66 401.45 324.64 Z" />
</g>
<g id="#6698f8ff">
<path fill="#6698f8" opacity="1.00" d=" M 94.42 324.59 C 108.05 320.90 123.51 327.38 130.55 339.59 C 135.27 347.41 136.41 357.26 133.69 365.97 C 130.37 377.24 120.46 386.26 108.90 388.44 C 95.31 391.44 80.39 384.53 73.79 372.30 C 66.51 359.78 69.08 342.59 79.70 332.74 C 83.78 328.80 88.91 325.94 94.42 324.59 M 86.27 355.63 C 89.43 355.58 92.59 355.59 95.75 355.57 C 96.90 352.89 98.86 350.81 101.54 349.64 C 101.60 346.52 101.60 343.41 101.63 340.29 C 93.53 340.32 86.45 347.59 86.27 355.63 Z" />
<path fill="#6698f8" opacity="1.00" d=" M 44.29 411.33 C 52.78 402.51 65.23 399.23 76.93 397.34 C 85.78 404.84 94.51 412.51 103.58 419.75 C 112.35 412.23 121.22 404.85 129.96 397.31 C 141.51 399.37 153.59 403.38 161.44 412.58 C 168.68 421.01 170.47 432.63 169.93 443.40 C 169.85 450.81 168.95 458.52 165.02 464.97 C 159.55 474.55 149.00 481.10 137.91 481.24 C 114.58 481.29 91.25 481.25 67.93 481.27 C 57.05 481.39 46.27 475.71 40.32 466.58 C 34.88 458.39 34.85 448.10 34.85 438.63 C 34.91 428.88 37.28 418.50 44.29 411.33 Z" />
</g>
<g id="#adb74cff">
<path fill="#adb74c" opacity="1.00" d=" M 248.36 324.48 C 263.71 320.48 280.98 329.45 286.48 344.32 C 292.21 358.09 286.89 375.23 274.46 383.43 C 263.90 390.80 248.91 391.04 238.20 383.83 C 227.35 377.01 221.35 363.42 223.71 350.81 C 225.68 338.14 235.88 327.32 248.36 324.48 M 240.30 355.62 C 243.34 355.60 246.38 355.61 249.43 355.61 C 250.24 352.50 252.58 350.49 255.57 349.56 C 255.60 346.44 255.61 343.33 255.63 340.22 C 247.64 340.27 239.79 347.40 240.30 355.62 Z" />
<path fill="#adb74c" opacity="1.00" d=" M 198.18 412.10 C 206.55 402.68 219.36 399.50 231.25 397.23 C 240.28 404.62 249.07 412.31 258.04 419.79 C 267.02 412.35 275.80 404.65 284.81 397.24 C 296.03 399.58 307.78 403.56 315.27 412.75 C 322.37 421.19 323.99 432.72 323.52 443.40 C 323.44 450.47 322.67 457.78 319.14 464.05 C 313.74 474.28 302.60 481.29 290.97 481.26 C 267.99 481.27 245.01 481.27 222.03 481.26 C 212.37 481.22 202.88 476.62 196.81 469.13 C 190.76 462.05 189.59 452.36 189.49 443.40 C 189.07 432.48 190.53 420.51 198.18 412.10 Z" />
</g>
<g id="#769484ff">
<path fill="#769484" opacity="1.00" d=" M 401.45 324.64 C 415.77 320.66 432.09 328.00 438.69 341.29 C 446.03 354.86 441.92 373.23 429.49 382.37 C 417.05 392.28 397.47 391.01 386.47 379.52 C 375.33 368.85 373.67 350.09 382.72 337.62 C 387.15 331.26 393.92 326.52 401.45 324.64 M 400.82 342.96 C 396.16 345.37 394.29 350.73 393.28 355.55 C 396.59 355.52 399.90 355.55 403.21 355.52 C 403.66 352.22 406.51 350.44 409.39 349.43 C 409.26 346.41 409.25 343.40 409.45 340.40 C 406.33 340.22 403.40 341.28 400.82 342.96 Z" />
<path fill="#769484" opacity="1.00" d=" M 351.95 411.94 C 360.38 402.65 373.15 399.40 385.05 397.30 C 393.92 404.80 402.71 412.40 411.70 419.76 C 420.54 412.33 429.39 404.90 438.12 397.35 C 448.69 399.24 459.53 402.95 467.15 410.85 C 474.30 418.14 477.17 428.61 477.15 438.61 C 477.15 446.90 477.14 455.65 473.19 463.19 C 468.00 473.76 456.78 481.17 444.93 481.25 C 421.95 481.28 398.96 481.26 375.97 481.26 C 365.10 481.33 354.36 475.60 348.46 466.46 C 343.97 459.69 343.26 451.29 343.09 443.39 C 342.65 432.41 344.22 420.35 351.95 411.94 Z" />
</g>
</svg>
