<?xml version="1.0" encoding="UTF-8" ?>
<!DOCTYPE svg PUBLIC "-//W3C//DTD SVG 1.1//EN" "http://www.w3.org/Graphics/SVG/1.1/DTD/svg11.dtd">
<svg width="512pt" height="512pt" viewBox="0 0 512 512" version="1.1" xmlns="http://www.w3.org/2000/svg">
<g id="#89d5a7ff">
<path fill="#89d5a7" opacity="1.00" d=" M 256.94 0.00 L 259.37 0.00 C 326.66 43.26 393.79 86.79 461.05 130.11 C 462.88 131.00 463.92 132.90 463.69 134.94 C 463.67 195.73 463.70 256.52 463.67 317.31 C 460.81 314.46 456.11 313.43 452.60 315.73 C 449.33 318.03 446.81 321.21 443.89 323.91 C 441.54 322.66 439.21 321.37 436.83 320.17 C 436.86 264.11 436.92 208.05 436.84 151.99 C 437.44 147.62 432.46 146.31 429.67 144.26 C 382.08 113.57 334.53 82.83 286.95 52.12 C 268.22 40.23 249.85 27.77 230.90 16.22 C 239.46 10.63 248.33 5.52 256.94 0.00 Z" />
<path fill="#89d5a7" opacity="1.00" d=" M 377.51 370.69 C 377.56 370.66 377.66 370.60 377.72 370.57 C 377.66 370.60 377.56 370.66 377.51 370.69 Z" />
</g>
<g id="#ace4a4ff">
<path fill="#ace4a4" opacity="1.00" d=" M 45.00 130.82 C 106.92 92.55 169.01 54.55 230.90 16.22 C 249.85 27.77 268.22 40.23 286.95 52.12 C 334.53 82.83 382.08 113.57 429.67 144.26 C 432.46 146.31 437.44 147.62 436.84 151.99 C 436.92 208.05 436.86 264.11 436.83 320.17 C 433.79 318.70 430.67 317.40 427.46 316.36 C 424.89 315.54 422.28 314.84 419.69 314.09 C 419.58 310.20 419.91 306.29 419.43 302.43 C 418.80 298.78 415.54 296.18 412.00 295.61 C 412.01 261.06 412.00 226.52 412.00 191.97 C 415.93 192.55 420.08 189.97 420.66 185.92 C 421.09 180.29 420.67 174.63 420.85 169.00 C 420.75 165.68 421.41 161.76 418.82 159.16 C 416.96 156.83 413.79 156.67 411.05 156.64 C 305.37 156.98 199.68 156.72 94.00 156.82 C 90.33 156.49 86.52 159.14 86.09 162.90 C 85.64 168.59 86.07 174.31 85.89 180.01 C 86.01 183.15 85.39 186.82 87.68 189.37 C 89.30 191.49 92.07 192.00 94.59 192.01 C 94.95 277.87 94.66 363.74 94.77 449.60 C 77.56 449.62 60.36 449.61 43.15 449.61 C 43.15 344.71 43.16 239.82 43.14 134.93 C 43.04 133.33 43.35 131.53 45.00 130.82 M 241.17 70.33 C 237.76 71.60 235.61 75.47 236.40 79.04 C 237.04 82.60 240.42 85.41 244.06 85.26 C 253.37 85.31 262.69 85.32 272.00 85.26 C 275.93 85.38 279.47 82.02 279.68 78.12 C 280.12 73.81 276.34 69.70 272.01 69.83 C 264.68 69.70 257.35 69.83 250.02 69.77 C 247.07 69.88 244.01 69.42 241.17 70.33 M 241.09 101.30 C 238.37 102.35 236.45 105.06 236.27 107.95 C 235.86 112.25 239.63 116.37 243.98 116.19 C 253.29 116.25 262.60 116.24 271.91 116.19 C 276.28 116.39 280.13 112.23 279.68 107.90 C 279.47 103.98 275.91 100.65 271.97 100.76 C 263.65 100.62 255.32 100.77 246.99 100.69 C 245.02 100.75 242.96 100.57 241.09 101.30 Z" />
</g>
<g id="#183e78ff">
<path fill="#183e78" opacity="1.00" d=" M 241.17 70.33 C 244.01 69.42 247.07 69.88 250.02 69.77 C 257.35 69.83 264.68 69.70 272.01 69.83 C 276.34 69.70 280.12 73.81 279.68 78.12 C 279.47 82.02 275.93 85.38 272.00 85.26 C 262.69 85.32 253.37 85.31 244.06 85.26 C 240.42 85.41 237.04 82.60 236.40 79.04 C 235.61 75.47 237.76 71.60 241.17 70.33 Z" />
<path fill="#183e78" opacity="1.00" d=" M 241.09 101.30 C 242.96 100.57 245.02 100.75 246.99 100.69 C 255.32 100.77 263.65 100.62 271.97 100.76 C 275.91 100.65 279.47 103.98 279.68 107.90 C 280.13 112.23 276.28 116.39 271.91 116.19 C 262.60 116.24 253.29 116.25 243.98 116.19 C 239.63 116.37 235.86 112.25 236.27 107.95 C 236.45 105.06 238.37 102.35 241.09 101.30 Z" />
<path fill="#183e78" opacity="1.00" d=" M 94.59 192.01 C 200.39 191.98 306.20 192.02 412.00 191.97 C 412.00 226.52 412.01 261.06 412.00 295.61 C 402.31 295.83 392.62 295.59 382.94 295.57 C 378.89 295.24 374.86 298.02 373.94 302.01 C 373.31 305.92 373.69 309.91 373.67 313.87 C 365.21 316.43 356.98 319.71 349.26 324.05 C 346.47 321.40 344.01 318.40 340.94 316.07 C 337.70 313.75 332.91 314.27 330.16 317.12 C 325.02 322.07 320.06 327.20 314.98 332.20 C 314.95 307.10 314.97 281.99 314.97 256.89 C 315.45 253.61 312.34 250.66 309.12 251.06 C 296.63 250.98 284.15 251.33 271.67 251.19 C 262.73 251.20 253.79 251.21 244.85 251.19 C 232.22 251.26 219.59 251.13 206.96 251.24 C 203.82 251.00 201.22 253.95 201.63 257.03 C 201.60 289.45 201.61 321.86 201.63 354.27 C 197.14 354.26 192.65 354.26 188.17 354.27 C 175.76 354.31 163.36 354.25 150.96 354.28 C 148.46 354.02 145.81 355.45 145.16 357.98 C 144.79 360.63 144.96 363.32 144.95 366.00 C 144.98 393.86 144.91 421.73 144.98 449.59 C 128.24 449.59 111.51 449.58 94.77 449.60 C 94.66 363.74 94.95 277.87 94.59 192.01 Z" />
</g>
<g id="#f1faffff">
<path fill="#f1faff" opacity="1.00" d=" M 86.09 162.90 C 86.52 159.14 90.33 156.49 94.00 156.82 C 199.68 156.72 305.37 156.98 411.05 156.64 C 413.79 156.67 416.96 156.83 418.82 159.16 C 421.41 161.76 420.75 165.68 420.85 169.00 C 420.67 174.63 421.09 180.29 420.66 185.92 C 420.08 189.97 415.93 192.55 412.00 191.97 C 306.20 192.02 200.39 191.98 94.59 192.01 C 92.07 192.00 89.30 191.49 87.68 189.37 C 85.39 186.82 86.01 183.15 85.89 180.01 C 86.07 174.31 85.64 168.59 86.09 162.90 Z" />
<path fill="#f1faff" opacity="1.00" d=" M 244.85 251.19 C 253.79 251.21 262.73 251.20 271.67 251.19 C 271.60 262.16 271.76 273.13 271.61 284.10 C 271.75 285.64 270.64 287.43 268.93 287.32 C 261.97 287.58 254.98 287.46 248.02 287.38 C 246.16 287.55 244.66 285.85 244.88 284.04 C 244.75 273.09 244.86 262.14 244.85 251.19 Z" />
<path fill="#f1faff" opacity="1.00" d=" M 188.17 354.27 C 192.65 354.26 197.14 354.26 201.63 354.27 C 206.10 354.29 210.56 354.27 215.03 354.30 C 215.00 365.21 215.13 376.12 214.98 387.03 C 215.20 388.86 213.73 390.59 211.86 390.47 C 205.20 390.63 198.53 390.55 191.87 390.51 C 189.87 390.76 187.95 389.18 188.22 387.09 C 188.09 376.15 188.24 365.20 188.17 354.27 Z" />
<path fill="#f1faff" opacity="1.00" d=" M 377.72 370.57 C 385.34 366.43 394.33 364.29 402.96 365.93 C 415.00 367.78 425.84 375.84 431.17 386.79 C 438.01 400.41 435.76 418.17 425.30 429.38 C 418.01 437.62 407.03 442.50 396.00 442.11 C 385.94 442.32 376.53 437.32 369.26 430.69 C 359.56 421.22 355.80 406.32 359.58 393.33 C 362.18 383.72 368.88 375.57 377.51 370.69 C 377.56 370.66 377.66 370.60 377.72 370.57 Z" />
</g>
<g id="#f6c25bff">
<path fill="#f6c25b" opacity="1.00" d=" M 201.63 257.03 C 201.22 253.95 203.82 251.00 206.96 251.24 C 219.59 251.13 232.22 251.26 244.85 251.19 C 244.86 262.14 244.75 273.09 244.88 284.04 C 244.66 285.85 246.16 287.55 248.02 287.38 C 254.98 287.46 261.97 287.58 268.93 287.32 C 270.64 287.43 271.75 285.64 271.61 284.10 C 271.76 273.13 271.60 262.16 271.67 251.19 C 284.15 251.33 296.63 250.98 309.12 251.06 C 312.34 250.66 315.45 253.61 314.97 256.89 C 314.97 281.99 314.95 307.10 314.98 332.20 C 311.86 335.65 306.85 338.70 307.28 343.99 C 307.37 348.15 311.06 350.74 313.69 353.46 C 308.89 354.72 303.92 354.08 299.03 354.20 C 287.02 354.38 275.00 354.33 262.99 354.29 C 247.01 353.44 231.02 354.69 215.03 354.30 C 210.56 354.27 206.10 354.29 201.63 354.27 C 201.61 321.86 201.60 289.45 201.63 257.03 Z" />
</g>
<g id="#5085caff">
<path fill="#5085ca" opacity="1.00" d=" M 373.94 302.01 C 374.86 298.02 378.89 295.24 382.94 295.57 C 392.62 295.59 402.31 295.83 412.00 295.61 C 415.54 296.18 418.80 298.78 419.43 302.43 C 419.91 306.29 419.58 310.20 419.69 314.09 C 422.28 314.84 424.89 315.54 427.46 316.36 C 427.75 317.34 428.08 318.35 428.78 319.15 C 453.42 348.66 463.42 389.29 456.84 427.02 C 453.68 445.58 446.35 463.33 435.97 479.01 C 433.10 483.21 429.66 487.00 427.01 491.36 C 424.60 492.09 422.17 492.74 419.75 493.40 C 419.55 497.13 419.83 500.88 419.53 504.61 C 419.12 508.34 415.96 511.07 412.48 512.00 L 380.89 512.00 C 377.52 511.15 374.41 508.62 373.86 505.06 C 373.41 501.22 373.73 497.35 373.65 493.50 C 365.10 491.30 356.96 487.77 349.28 483.45 C 346.60 486.06 344.15 488.92 341.22 491.27 C 337.87 493.90 332.69 493.27 329.85 490.16 C 323.31 483.69 316.83 477.16 310.30 470.67 C 308.67 469.17 307.73 467.14 307.13 465.05 C 306.95 459.11 312.32 455.71 315.73 451.68 C 317.01 450.69 315.69 449.23 315.28 448.17 C 311.49 441.52 308.68 434.33 306.81 426.91 C 302.48 426.43 298.01 427.31 293.77 426.16 C 290.46 424.97 288.08 421.60 288.19 418.06 C 288.09 408.68 288.14 399.29 288.16 389.92 C 287.93 385.84 290.89 381.80 294.96 381.09 C 298.85 380.61 302.79 380.95 306.70 380.84 C 308.92 372.36 312.28 364.20 316.76 356.67 C 315.74 355.59 314.74 354.50 313.69 353.46 C 311.06 350.74 307.37 348.15 307.28 343.99 C 306.85 338.70 311.86 335.65 314.98 332.20 C 320.06 327.20 325.02 322.07 330.16 317.12 C 332.91 314.27 337.70 313.75 340.94 316.07 C 344.01 318.40 346.47 321.40 349.26 324.05 C 356.98 319.71 365.21 316.43 373.67 313.87 C 373.69 309.91 373.31 305.92 373.94 302.01 M 377.72 370.57 C 377.66 370.60 377.56 370.66 377.51 370.69 C 368.88 375.57 362.18 383.72 359.58 393.33 C 355.80 406.32 359.56 421.22 369.26 430.69 C 376.53 437.32 385.94 442.32 396.00 442.11 C 407.03 442.50 418.01 437.62 425.30 429.38 C 435.76 418.17 438.01 400.41 431.17 386.79 C 425.84 375.84 415.00 367.78 402.96 365.93 C 394.33 364.29 385.34 366.43 377.72 370.57 Z" />
</g>
<g id="#5465c9ff">
<path fill="#5465c9" opacity="1.00" d=" M 452.60 315.73 C 456.11 313.43 460.81 314.46 463.67 317.31 C 469.87 323.47 476.02 329.68 482.24 335.82 C 484.15 337.73 486.23 340.02 486.05 342.93 C 486.64 349.26 480.10 352.43 476.72 356.78 C 481.24 364.07 484.27 372.15 486.69 380.34 C 490.84 381.50 495.53 379.98 499.76 381.32 C 502.86 382.52 505.20 385.62 505.16 389.00 C 505.40 397.32 505.15 405.65 505.27 413.97 C 505.24 417.60 505.61 421.89 502.51 424.49 C 498.23 428.42 491.99 426.51 486.78 426.90 C 484.42 435.30 481.12 443.43 476.73 450.98 C 480.27 455.28 486.95 458.62 486.03 465.11 C 486.04 467.96 483.82 470.04 481.99 471.94 C 475.77 478.04 469.69 484.28 463.46 490.37 C 460.53 493.54 455.11 494.06 451.77 491.26 C 449.00 488.91 446.63 486.14 443.97 483.68 C 438.54 486.69 432.97 489.53 427.01 491.36 C 429.66 487.00 433.10 483.21 435.97 479.01 C 446.35 463.33 453.68 445.58 456.84 427.02 C 463.42 389.29 453.42 348.66 428.78 319.15 C 428.08 318.35 427.75 317.34 427.46 316.36 C 430.67 317.40 433.79 318.70 436.83 320.17 C 439.21 321.37 441.54 322.66 443.89 323.91 C 446.81 321.21 449.33 318.03 452.60 315.73 Z" />
<path fill="#5465c9" opacity="1.00" d=" M 315.28 448.17 C 315.69 449.23 317.01 450.69 315.73 451.68 C 312.32 455.71 306.95 459.11 307.13 465.05 C 210.10 465.09 113.06 465.05 16.02 465.08 C 12.36 465.45 8.43 463.48 7.30 459.83 C 5.56 455.31 9.15 449.77 14.02 449.68 C 23.72 449.47 33.44 449.66 43.15 449.61 C 60.36 449.61 77.56 449.62 94.77 449.60 C 111.51 449.58 128.24 449.59 144.98 449.59 C 201.94 449.63 258.91 449.55 315.87 449.64 L 315.28 448.17 Z" />
</g>
<g id="#c98152ff">
<path fill="#c98152" opacity="1.00" d=" M 313.69 353.46 C 314.74 354.50 315.74 355.59 316.76 356.67 C 312.28 364.20 308.92 372.36 306.70 380.84 C 302.79 380.95 298.85 380.61 294.96 381.09 C 290.89 381.80 287.93 385.84 288.16 389.92 C 288.14 399.29 288.09 408.68 288.19 418.06 C 288.08 421.60 290.46 424.97 293.77 426.16 C 298.01 427.31 302.48 426.43 306.81 426.91 C 308.68 434.33 311.49 441.52 315.28 448.17 L 315.87 449.64 C 258.91 449.55 201.94 449.63 144.98 449.59 C 144.91 421.73 144.98 393.86 144.95 366.00 C 144.96 363.32 144.79 360.63 145.16 357.98 C 145.81 355.45 148.46 354.02 150.96 354.28 C 163.36 354.25 175.76 354.31 188.17 354.27 C 188.24 365.20 188.09 376.15 188.22 387.09 C 187.95 389.18 189.87 390.76 191.87 390.51 C 198.53 390.55 205.20 390.63 211.86 390.47 C 213.73 390.59 215.20 388.86 214.98 387.03 C 215.13 376.12 215.00 365.21 215.03 354.30 C 231.02 354.69 247.01 353.44 262.99 354.29 C 275.00 354.33 287.02 354.38 299.03 354.20 C 303.92 354.08 308.89 354.72 313.69 353.46 Z" />
</g>
</svg>
