<?xml version="1.0" encoding="UTF-8" ?>
<!DOCTYPE svg PUBLIC "-//W3C//DTD SVG 1.1//EN" "http://www.w3.org/Graphics/SVG/1.1/DTD/svg11.dtd">
<svg width="512pt" height="512pt" viewBox="0 0 512 512" version="1.1" xmlns="http://www.w3.org/2000/svg">
<g id="#66c37cff">
<path fill="#66c37c" opacity="1.00" d=" M 140.39 34.45 C 192.12 9.77 252.66 4.41 308.01 19.20 C 334.44 26.14 359.52 37.83 382.25 52.96 C 364.49 50.94 346.76 48.77 329.00 46.71 C 324.24 46.14 319.40 46.66 314.77 47.86 C 309.52 49.35 304.79 52.20 300.47 55.47 C 297.11 58.04 293.29 60.07 290.40 63.21 C 282.24 63.43 274.07 63.27 265.91 63.29 C 266.47 56.35 261.16 49.33 254.02 48.97 C 244.04 48.76 234.04 48.85 224.05 48.92 C 217.85 49.01 212.51 54.10 211.62 60.15 C 202.39 60.28 193.15 60.13 183.92 60.22 C 179.48 60.10 175.30 63.61 174.68 68.01 C 174.43 70.38 174.49 72.77 174.50 75.15 L 174.26 74.57 C 174.24 73.27 174.24 71.97 174.26 70.67 C 165.83 70.19 157.34 70.58 148.88 70.48 C 144.78 70.25 140.99 72.28 138.30 75.27 C 129.86 75.70 121.25 74.38 112.94 76.21 C 102.03 78.95 93.37 88.74 92.01 99.91 C 90.14 112.26 97.57 125.16 109.12 129.85 C 116.32 133.13 124.38 131.81 132.02 132.18 C 137.62 132.40 142.51 137.32 142.73 142.92 C 142.89 146.91 142.75 150.92 142.79 154.92 C 137.62 157.58 134.17 163.04 134.01 168.86 C 121.75 168.85 109.50 168.91 97.24 168.83 C 70.10 168.82 42.95 168.58 15.82 168.95 C 20.92 156.42 26.52 144.06 33.46 132.43 C 58.17 90.01 95.97 55.35 140.39 34.45 Z" />
<path fill="#66c37c" opacity="1.00" d=" M 107.69 103.04 C 107.86 96.70 113.57 91.15 119.92 91.20 C 126.39 91.12 132.86 91.22 139.34 91.16 C 141.81 93.10 144.72 94.69 147.95 94.65 C 156.71 94.77 165.47 94.63 174.23 94.71 C 174.11 99.62 177.74 104.79 182.91 104.97 C 192.41 105.03 201.90 105.01 211.40 104.97 C 212.39 111.15 217.71 116.16 224.01 116.47 C 223.97 123.01 224.05 129.55 223.98 136.09 C 224.23 138.45 222.21 140.40 219.96 140.60 C 213.31 141.82 206.68 143.19 200.00 144.15 C 186.99 146.32 174.04 148.81 161.07 151.17 C 160.47 151.25 159.28 151.40 158.68 151.48 C 158.58 146.37 159.10 141.13 157.62 136.16 C 155.09 126.93 147.35 119.39 138.07 117.09 C 131.49 115.40 124.64 116.77 117.97 115.97 C 111.94 115.04 107.23 109.14 107.69 103.04 Z" />
<path fill="#66c37c" opacity="1.00" d=" M 266.04 101.97 C 274.06 101.94 282.09 101.99 290.11 101.95 C 293.27 105.24 297.31 107.45 300.92 110.19 C 305.14 113.36 309.81 116.01 314.91 117.49 C 322.75 119.91 330.91 118.43 338.84 117.45 C 371.96 113.46 405.12 109.79 438.20 105.52 C 465.10 139.65 482.39 181.24 487.94 224.33 C 472.32 224.31 456.69 224.37 441.07 224.30 C 438.12 220.91 433.69 218.48 429.08 219.38 C 424.26 220.03 420.64 223.94 419.16 228.39 C 401.08 228.41 383.01 228.34 364.93 228.43 C 358.10 228.29 352.87 234.93 353.54 241.52 C 344.76 246.09 335.97 250.62 327.20 255.19 C 324.71 256.36 323.23 258.78 322.20 261.22 C 310.94 261.14 299.68 261.30 288.42 261.14 C 284.68 251.09 274.26 244.25 263.55 244.74 C 268.45 241.16 275.90 238.93 276.80 231.98 C 277.02 225.64 276.93 219.28 276.84 212.94 C 276.48 207.49 271.53 203.17 266.13 203.25 C 251.05 203.31 235.96 203.00 220.90 203.42 C 202.26 203.68 183.61 203.45 164.97 203.54 C 164.99 197.33 164.91 191.13 164.99 184.92 C 164.76 183.10 166.40 181.68 168.00 181.22 C 181.39 178.64 194.88 176.55 208.22 173.71 C 219.64 171.51 231.12 169.59 242.54 167.33 C 249.15 165.97 254.32 159.73 254.37 152.97 C 254.50 140.76 254.36 128.55 254.44 116.34 C 261.39 115.60 266.60 108.86 266.04 101.97 Z" />
<path fill="#66c37c" opacity="1.00" d=" M 480.84 250.88 C 483.00 247.93 486.65 246.86 489.78 245.30 C 490.33 255.16 489.65 265.06 489.53 274.90 C 487.34 271.05 483.81 268.29 480.96 264.99 C 477.63 261.07 477.65 254.87 480.84 250.88 Z" />
<path fill="#66c37c" opacity="1.00" d=" M 264.05 361.11 C 274.50 361.11 284.21 354.65 288.47 345.16 C 299.67 345.31 310.88 345.20 322.09 345.22 C 323.14 347.80 324.87 350.22 327.44 351.47 C 335.91 355.76 344.25 360.30 352.77 364.48 C 353.90 366.63 353.46 369.24 354.58 371.41 C 356.45 375.27 360.61 378.20 365.00 377.99 C 383.25 377.99 401.50 377.99 419.75 377.99 C 422.22 382.30 426.89 385.66 432.06 384.96 C 435.96 385.02 438.73 382.09 441.55 379.86 C 446.45 380.04 451.37 379.88 456.28 379.96 C 428.64 427.29 384.61 464.83 333.43 484.48 C 286.09 503.02 232.89 505.93 183.71 493.21 C 155.13 485.92 128.03 473.18 103.86 456.31 L 104.58 455.57 C 147.76 455.50 190.93 455.59 234.11 455.52 C 241.79 455.52 248.64 448.80 248.81 441.12 C 248.91 428.08 248.81 415.04 248.85 402.00 C 255.56 401.92 262.27 402.14 268.97 401.91 C 273.79 400.79 277.13 395.91 276.91 391.04 C 276.80 385.05 277.16 379.04 276.71 373.07 C 275.60 366.58 268.70 364.52 264.05 361.11 Z" />
</g>
<g id="#303b68ff">
<path fill="#303b68" opacity="1.00" d=" M 314.77 47.86 C 319.40 46.66 324.24 46.14 329.00 46.71 C 346.76 48.77 364.49 50.94 382.25 52.96 C 400.19 55.23 418.16 57.20 436.10 59.45 C 443.54 60.25 449.56 66.56 450.78 73.83 C 447.50 79.31 440.99 81.32 434.97 81.72 C 401.96 83.95 368.97 86.38 335.97 88.66 C 329.08 89.50 322.15 88.75 315.25 89.09 C 314.73 98.55 315.39 108.03 314.91 117.49 C 309.81 116.01 305.14 113.36 300.92 110.19 C 297.31 107.45 293.27 105.24 290.11 101.95 C 289.65 95.62 290.14 89.28 289.89 82.95 C 289.77 81.79 289.77 79.64 288.02 79.87 C 280.65 79.52 273.26 79.80 265.88 79.83 C 265.84 74.32 265.84 68.80 265.91 63.29 C 274.07 63.27 282.24 63.43 290.40 63.21 C 290.11 68.68 289.77 74.18 290.35 79.64 C 298.34 82.63 305.98 87.45 314.68 87.94 C 314.90 74.59 314.61 61.22 314.77 47.86 Z" />
<path fill="#303b68" opacity="1.00" d=" M 174.68 68.01 C 175.30 63.61 179.48 60.10 183.92 60.22 C 193.15 60.13 202.39 60.28 211.62 60.15 L 211.56 60.85 C 210.79 68.16 211.29 75.52 211.17 82.86 C 201.90 82.48 192.60 83.20 183.35 82.51 C 179.08 82.28 175.84 79.03 174.50 75.15 C 174.49 72.77 174.43 70.38 174.68 68.01 Z" />
<path fill="#303b68" opacity="1.00" d=" M 15.82 168.95 C 42.95 168.58 70.10 168.82 97.24 168.83 C 93.80 173.04 89.31 176.97 88.57 182.67 C 87.29 190.32 91.63 197.25 95.33 203.55 C 108.22 203.76 121.13 203.63 134.03 203.55 C 144.34 203.51 154.66 203.54 164.97 203.54 C 183.61 203.45 202.26 203.68 220.90 203.42 C 231.66 216.24 242.20 229.26 252.90 242.14 C 254.52 244.08 256.03 246.11 257.48 248.19 C 254.70 250.21 252.79 253.40 252.99 256.92 C 252.93 272.58 252.97 288.25 252.98 303.92 C 252.98 318.96 252.84 334.00 253.05 349.04 C 252.84 352.60 255.35 355.27 257.43 357.83 C 245.29 372.57 233.27 387.44 220.86 401.96 C 181.24 402.04 141.62 401.98 102.00 402.00 C 100.43 401.77 98.34 402.32 97.26 400.83 C 93.13 395.66 89.51 389.24 90.39 382.39 C 90.99 377.20 94.38 373.06 97.27 368.94 C 126.18 368.93 155.09 368.92 184.00 368.94 C 188.29 369.06 192.74 368.65 196.60 366.59 C 203.85 363.03 208.58 355.08 208.32 347.01 C 208.30 317.03 208.39 287.05 208.28 257.07 C 208.09 246.36 198.66 236.90 187.95 236.68 C 157.69 236.46 127.42 236.77 97.17 236.53 L 96.84 236.54 C 94.67 232.59 91.15 229.40 89.97 224.93 C 88.46 220.63 88.98 215.84 90.80 211.72 C 91.90 209.17 93.66 206.87 94.09 204.06 C 91.74 203.77 89.39 203.65 87.03 203.68 C 64.35 203.78 41.68 203.69 19.01 203.73 C 14.48 203.79 9.92 203.93 5.43 203.23 C 8.27 191.64 11.41 180.07 15.82 168.95 Z" />
<path fill="#303b68" opacity="1.00" d=" M 441.07 224.30 C 456.69 224.37 472.32 224.31 487.94 224.33 C 493.93 224.38 499.92 224.26 505.91 224.39 C 508.90 224.34 511.19 226.76 512.00 229.47 L 512.00 231.99 C 511.40 233.85 510.27 235.62 508.42 236.41 C 502.26 239.48 495.99 242.32 489.78 245.30 C 486.65 246.86 483.00 247.93 480.84 250.88 C 477.65 254.87 477.63 261.07 480.96 264.99 C 483.81 268.29 487.34 271.05 489.53 274.90 C 491.06 278.01 492.07 281.42 492.04 284.92 C 492.06 296.27 492.05 307.63 492.04 318.99 C 492.07 323.81 490.42 328.64 487.35 332.36 C 485.43 334.66 483.16 336.63 481.22 338.91 C 473.10 341.16 464.52 344.09 456.07 341.81 C 450.76 340.58 446.10 337.29 442.95 332.88 C 443.02 299.22 442.96 265.57 442.98 231.92 C 443.01 229.25 442.22 226.68 441.07 224.30 Z" />
<path fill="#303b68" opacity="1.00" d=" M 353.54 241.52 C 352.87 234.93 358.10 228.29 364.93 228.43 C 383.01 228.34 401.08 228.41 419.16 228.39 C 418.82 263.31 419.10 298.23 419.02 333.15 C 402.00 333.35 384.98 333.19 367.95 333.28 C 364.83 333.19 361.33 333.35 358.75 331.29 C 355.72 329.19 353.72 325.73 353.87 321.99 C 353.52 295.17 354.21 268.33 353.54 241.52 M 379.32 249.49 C 374.00 250.70 371.10 257.88 374.76 262.17 C 378.21 266.47 384.22 264.98 389.00 265.26 C 392.95 265.45 398.06 265.13 399.87 260.93 C 402.61 256.24 398.98 249.86 393.70 249.40 C 388.92 249.19 384.09 249.09 379.32 249.49 M 378.24 280.27 C 373.11 281.83 371.37 289.11 375.20 292.85 C 378.05 296.35 382.98 295.61 386.97 295.72 C 391.17 295.63 396.61 296.29 399.27 292.21 C 402.80 287.82 399.69 280.26 394.00 279.84 C 388.77 279.72 383.38 279.19 378.24 280.27 M 378.28 310.44 C 373.35 312.14 371.57 319.13 375.02 323.06 C 377.95 326.61 382.96 325.94 387.05 325.98 C 391.11 325.93 396.11 326.62 398.86 322.88 C 403.32 318.33 399.26 309.78 393.02 310.01 C 388.11 310.07 383.13 309.63 378.28 310.44 Z" />
<path fill="#303b68" opacity="1.00" d=" M 288.42 261.14 C 299.68 261.30 310.94 261.14 322.20 261.22 C 321.64 273.75 322.39 286.30 321.84 298.82 C 311.23 299.34 300.59 298.82 289.97 298.95 C 290.07 292.30 289.97 285.65 290.01 279.01 C 289.98 273.03 290.49 266.87 288.42 261.14 Z" />
<path fill="#303b68" opacity="1.00" d=" M 419.15 335.87 C 421.23 340.87 425.92 345.08 431.64 344.53 C 436.92 344.50 440.83 340.41 442.86 335.89 C 443.18 347.93 442.92 359.98 443.04 372.03 C 443.11 374.71 442.62 377.39 441.55 379.86 C 438.73 382.09 435.96 385.02 432.06 384.96 C 426.89 385.66 422.22 382.30 419.75 377.99 C 418.73 374.77 418.93 371.35 418.97 368.02 C 419.13 357.30 418.78 346.58 419.15 335.87 Z" />
<path fill="#303b68" opacity="1.00" d=" M 379.37 340.44 C 383.55 339.84 387.82 340.19 392.04 340.14 C 395.18 339.92 398.14 341.75 399.70 344.42 C 402.37 348.47 399.98 354.97 395.03 355.80 C 390.40 356.38 385.70 356.13 381.05 356.10 C 377.69 356.20 374.38 353.99 373.48 350.70 C 371.89 346.38 375.20 341.62 379.37 340.44 Z" />
</g>
<g id="#404f7eff">
<path fill="#404f7e" opacity="1.00" d=" M 300.47 55.47 C 304.79 52.20 309.52 49.35 314.77 47.86 C 314.61 61.22 314.90 74.59 314.68 87.94 C 305.98 87.45 298.34 82.63 290.35 79.64 C 289.77 74.18 290.11 68.68 290.40 63.21 C 293.29 60.07 297.11 58.04 300.47 55.47 Z" />
<path fill="#404f7e" opacity="1.00" d=" M 211.17 82.86 C 211.29 75.52 210.79 68.16 211.56 60.85 C 212.37 67.88 211.81 74.96 211.98 82.02 C 211.63 88.48 217.87 93.61 223.99 93.83 C 231.64 94.22 239.31 93.78 246.97 93.95 C 251.54 93.94 256.63 94.38 260.48 91.40 C 263.70 89.28 265.36 85.57 265.88 81.85 C 266.09 88.56 265.96 95.27 266.04 101.97 C 266.60 108.86 261.39 115.60 254.44 116.34 C 244.31 116.73 234.15 116.48 224.01 116.47 C 217.71 116.16 212.39 111.15 211.40 104.97 C 210.91 97.61 211.33 90.23 211.17 82.86 Z" />
<path fill="#404f7e" opacity="1.00" d=" M 97.24 168.83 C 109.50 168.91 121.75 168.85 134.01 168.86 C 134.05 180.42 134.01 191.98 134.03 203.55 C 121.13 203.63 108.22 203.76 95.33 203.55 C 91.63 197.25 87.29 190.32 88.57 182.67 C 89.31 176.97 93.80 173.04 97.24 168.83 Z" />
<path fill="#404f7e" opacity="1.00" d=" M 220.90 203.42 C 235.96 203.00 251.05 203.31 266.13 203.25 C 271.53 203.17 276.48 207.49 276.84 212.94 C 276.93 219.28 277.02 225.64 276.80 231.98 C 275.90 238.93 268.45 241.16 263.55 244.74 C 261.61 246.04 259.55 247.12 257.48 248.19 C 256.03 246.11 254.52 244.08 252.90 242.14 C 242.20 229.26 231.66 216.24 220.90 203.42 Z" />
<path fill="#404f7e" opacity="1.00" d=" M 419.16 228.39 C 420.64 223.94 424.26 220.03 429.08 219.38 C 433.69 218.48 438.12 220.91 441.07 224.30 C 442.22 226.68 443.01 229.25 442.98 231.92 C 442.96 265.57 443.02 299.22 442.95 332.88 C 442.93 333.63 442.89 335.14 442.86 335.89 C 440.83 340.41 436.92 344.50 431.64 344.53 C 425.92 345.08 421.23 340.87 419.15 335.87 C 419.12 335.19 419.05 333.83 419.02 333.15 C 419.10 298.23 418.82 263.31 419.16 228.39 Z" />
<path fill="#404f7e" opacity="1.00" d=" M 379.32 249.49 C 384.09 249.09 388.92 249.19 393.70 249.40 C 398.98 249.86 402.61 256.24 399.87 260.93 C 398.06 265.13 392.95 265.45 389.00 265.26 C 384.22 264.98 378.21 266.47 374.76 262.17 C 371.10 257.88 374.00 250.70 379.32 249.49 Z" />
<path fill="#404f7e" opacity="1.00" d=" M 378.24 280.27 C 383.38 279.19 388.77 279.72 394.00 279.84 C 399.69 280.26 402.80 287.82 399.27 292.21 C 396.61 296.29 391.17 295.63 386.97 295.72 C 382.98 295.61 378.05 296.35 375.20 292.85 C 371.37 289.11 373.11 281.83 378.24 280.27 Z" />
<path fill="#404f7e" opacity="1.00" d=" M 269.99 312.42 C 278.49 312.82 286.16 307.27 289.95 299.91 C 290.10 312.27 289.96 324.63 290.03 336.99 C 290.09 339.79 289.34 342.52 288.47 345.16 C 284.21 354.65 274.50 361.11 264.05 361.11 C 268.70 364.52 275.60 366.58 276.71 373.07 C 277.16 379.04 276.80 385.05 276.91 391.04 C 277.13 395.91 273.79 400.79 268.97 401.91 C 262.27 402.14 255.56 401.92 248.85 402.00 C 239.52 401.97 230.19 402.04 220.86 401.96 C 233.27 387.44 245.29 372.57 257.43 357.83 C 255.35 355.27 252.84 352.60 253.05 349.04 C 252.84 334.00 252.98 318.96 252.98 303.92 C 257.31 308.75 263.24 312.70 269.99 312.42 Z" />
<path fill="#404f7e" opacity="1.00" d=" M 378.28 310.44 C 383.13 309.63 388.11 310.07 393.02 310.01 C 399.26 309.78 403.32 318.33 398.86 322.88 C 396.11 326.62 391.11 325.93 387.05 325.98 C 382.96 325.94 377.95 326.61 375.02 323.06 C 371.57 319.13 373.35 312.14 378.28 310.44 Z" />
</g>
<g id="#506392ff">
<path fill="#506392" opacity="1.00" d=" M 211.62 60.15 C 212.51 54.10 217.85 49.01 224.05 48.92 C 234.04 48.85 244.04 48.76 254.02 48.97 C 261.16 49.33 266.47 56.35 265.91 63.29 C 265.84 68.80 265.84 74.32 265.88 79.83 C 265.88 80.34 265.88 81.35 265.88 81.85 C 265.36 85.57 263.70 89.28 260.48 91.40 C 256.63 94.38 251.54 93.94 246.97 93.95 C 239.31 93.78 231.64 94.22 223.99 93.83 C 217.87 93.61 211.63 88.48 211.98 82.02 C 211.81 74.96 212.37 67.88 211.56 60.85 L 211.62 60.15 Z" />
<path fill="#506392" opacity="1.00" d=" M 257.48 248.19 C 259.55 247.12 261.61 246.04 263.55 244.74 C 274.26 244.25 284.68 251.09 288.42 261.14 C 290.49 266.87 289.98 273.03 290.01 279.01 C 289.97 285.65 290.07 292.30 289.97 298.95 L 289.95 299.91 C 286.16 307.27 278.49 312.82 269.99 312.42 C 263.24 312.70 257.31 308.75 252.98 303.92 C 252.97 288.25 252.93 272.58 252.99 256.92 C 252.79 253.40 254.70 250.21 257.48 248.19 Z" />
</g>
<g id="#f7d67aff">
<path fill="#f7d67a" opacity="1.00" d=" M 138.30 75.27 C 140.99 72.28 144.78 70.25 148.88 70.48 C 157.34 70.58 165.83 70.19 174.26 70.67 C 174.24 71.97 174.24 73.27 174.26 74.57 C 174.19 81.28 174.24 88.00 174.23 94.71 C 165.47 94.63 156.71 94.77 147.95 94.65 C 144.72 94.69 141.81 93.10 139.34 91.16 C 135.42 86.82 134.91 80.07 138.30 75.27 Z" />
</g>
<g id="#242d58ff">
<path fill="#242d58" opacity="1.00" d=" M 450.78 73.83 C 451.23 78.88 450.86 83.97 450.98 89.03 C 451.11 96.58 445.48 103.66 438.20 105.52 C 405.12 109.79 371.96 113.46 338.84 117.45 C 330.91 118.43 322.75 119.91 314.91 117.49 C 315.39 108.03 314.73 98.55 315.25 89.09 C 322.15 88.75 329.08 89.50 335.97 88.66 C 368.97 86.38 401.96 83.95 434.97 81.72 C 440.99 81.32 447.50 79.31 450.78 73.83 Z" />
<path fill="#242d58" opacity="1.00" d=" M 174.26 74.57 L 174.50 75.15 C 175.84 79.03 179.08 82.28 183.35 82.51 C 192.60 83.20 201.90 82.48 211.17 82.86 C 211.33 90.23 210.91 97.61 211.40 104.97 C 201.90 105.01 192.41 105.03 182.91 104.97 C 177.74 104.79 174.11 99.62 174.23 94.71 C 174.24 88.00 174.19 81.28 174.26 74.57 Z" />
<path fill="#242d58" opacity="1.00" d=" M 265.88 79.83 C 273.26 79.80 280.65 79.52 288.02 79.87 C 289.77 79.64 289.77 81.79 289.89 82.95 C 290.14 89.28 289.65 95.62 290.11 101.95 C 282.09 101.99 274.06 101.94 266.04 101.97 C 265.96 95.27 266.09 88.56 265.88 81.85 C 265.88 81.35 265.88 80.34 265.88 79.83 Z" />
<path fill="#242d58" opacity="1.00" d=" M 0.00 244.40 C 0.81 230.56 2.66 216.80 5.43 203.23 C 9.92 203.93 14.48 203.79 19.01 203.73 C 41.68 203.69 64.35 203.78 87.03 203.68 C 89.39 203.65 91.74 203.77 94.09 204.06 C 93.66 206.87 91.90 209.17 90.80 211.72 C 88.98 215.84 88.46 220.63 89.97 224.93 C 91.15 229.40 94.67 232.59 96.84 236.54 C 80.89 236.21 64.94 236.48 48.99 236.40 C 40.08 236.24 31.41 241.95 28.36 250.37 C 26.45 254.67 27.11 259.45 27.01 264.01 C 27.00 292.01 27.01 320.00 27.00 348.00 C 26.84 359.10 36.85 369.15 47.96 369.00 C 64.06 368.96 80.16 369.07 96.25 368.94 L 97.27 368.94 C 94.38 373.06 90.99 377.20 90.39 382.39 C 89.51 389.24 93.13 395.66 97.26 400.83 C 98.34 402.32 100.43 401.77 102.00 402.00 C 141.62 401.98 181.24 402.04 220.86 401.96 C 230.19 402.04 239.52 401.97 248.85 402.00 C 248.81 415.04 248.91 428.08 248.81 441.12 C 248.64 448.80 241.79 455.52 234.11 455.52 C 190.93 455.59 147.76 455.50 104.58 455.57 L 103.86 456.31 C 100.18 453.68 96.67 450.83 92.97 448.24 C 91.62 443.83 89.78 439.54 89.05 434.97 C 87.67 426.85 88.83 418.19 92.87 410.96 C 94.41 408.10 96.34 405.39 97.15 402.20 C 86.45 401.69 75.72 402.16 65.01 402.00 C 59.45 402.01 53.86 401.78 48.32 402.39 C 23.48 369.02 7.17 329.27 1.95 287.98 C 0.97 281.53 0.67 275.00 0.00 268.51 L 0.00 244.40 M 198.28 421.32 C 193.16 422.96 191.36 430.12 195.05 434.02 C 198.53 438.07 204.31 436.37 208.95 436.73 C 212.53 437.13 216.37 435.30 217.72 431.84 C 219.95 427.09 216.17 420.99 210.93 420.86 C 206.73 420.95 202.39 420.32 198.28 421.32 Z" />
<path fill="#242d58" opacity="1.00" d=" M 327.20 255.19 C 335.97 250.62 344.76 246.09 353.54 241.52 C 354.21 268.33 353.52 295.17 353.87 321.99 C 353.72 325.73 355.72 329.19 358.75 331.29 C 361.33 333.35 364.83 333.19 367.95 333.28 C 384.98 333.19 402.00 333.35 419.02 333.15 C 419.05 333.83 419.12 335.19 419.15 335.87 C 418.78 346.58 419.13 357.30 418.97 368.02 C 418.93 371.35 418.73 374.77 419.75 377.99 C 401.50 377.99 383.25 377.99 365.00 377.99 C 360.61 378.20 356.45 375.27 354.58 371.41 C 353.46 369.24 353.90 366.63 352.77 364.48 C 353.73 355.34 353.00 346.12 353.23 336.95 C 353.13 332.35 353.54 327.73 353.02 323.15 C 352.22 321.82 350.60 321.37 349.35 320.60 C 342.19 317.20 335.33 313.23 328.23 309.72 C 325.61 308.52 323.89 306.16 322.07 304.04 C 321.98 317.76 321.88 331.49 322.09 345.22 C 310.88 345.20 299.67 345.31 288.47 345.16 C 289.34 342.52 290.09 339.79 290.03 336.99 C 289.96 324.63 290.10 312.27 289.95 299.91 L 289.97 298.95 C 300.59 298.82 311.23 299.34 321.84 298.82 C 322.39 286.30 321.64 273.75 322.20 261.22 C 323.23 258.78 324.71 256.36 327.20 255.19 M 379.37 340.44 C 375.20 341.62 371.89 346.38 373.48 350.70 C 374.38 353.99 377.69 356.20 381.05 356.10 C 385.70 356.13 390.40 356.38 395.03 355.80 C 399.98 354.97 402.37 348.47 399.70 344.42 C 398.14 341.75 395.18 339.92 392.04 340.14 C 387.82 340.19 383.55 339.84 379.37 340.44 Z" />
<path fill="#242d58" opacity="1.00" d=" M 442.95 332.88 C 446.10 337.29 450.76 340.58 456.07 341.81 C 464.52 344.09 473.10 341.16 481.22 338.91 C 476.80 344.15 478.31 353.22 484.65 356.21 C 492.56 359.99 500.50 363.70 508.41 367.51 C 510.08 368.21 511.18 369.72 512.00 371.29 L 512.00 375.31 C 511.04 377.76 508.82 379.89 506.08 379.94 C 489.48 380.00 472.88 379.95 456.28 379.96 C 451.37 379.88 446.45 380.04 441.55 379.86 C 442.62 377.39 443.11 374.71 443.04 372.03 C 442.92 359.98 443.18 347.93 442.86 335.89 C 442.89 335.14 442.93 333.63 442.95 332.88 Z" />
</g>
<g id="#eaeffeff">
<path fill="#eaeffe" opacity="1.00" d=" M 112.94 76.21 C 121.25 74.38 129.86 75.70 138.30 75.27 C 134.91 80.07 135.42 86.82 139.34 91.16 C 132.86 91.22 126.39 91.12 119.92 91.20 C 113.57 91.15 107.86 96.70 107.69 103.04 C 107.23 109.14 111.94 115.04 117.97 115.97 C 124.64 116.77 131.49 115.40 138.07 117.09 C 147.35 119.39 155.09 126.93 157.62 136.16 C 159.10 141.13 158.58 146.37 158.68 151.48 C 159.28 151.40 160.47 151.25 161.07 151.17 C 155.00 152.55 148.82 153.36 142.79 154.92 C 142.75 150.92 142.89 146.91 142.73 142.92 C 142.51 137.32 137.62 132.40 132.02 132.18 C 124.38 131.81 116.32 133.13 109.12 129.85 C 97.57 125.16 90.14 112.26 92.01 99.91 C 93.37 88.74 102.03 78.95 112.94 76.21 Z" />
<path fill="#eaeffe" opacity="1.00" d=" M 224.01 116.47 C 234.15 116.48 244.31 116.73 254.44 116.34 C 254.36 128.55 254.50 140.76 254.37 152.97 C 254.32 159.73 249.15 165.97 242.54 167.33 C 231.12 169.59 219.64 171.51 208.22 173.71 C 202.89 170.54 197.17 166.43 195.84 159.96 C 194.46 154.33 197.18 148.85 200.00 144.15 C 206.68 143.19 213.31 141.82 219.96 140.60 C 222.21 140.40 224.23 138.45 223.98 136.09 C 224.05 129.55 223.97 123.01 224.01 116.47 Z" />
<path fill="#eaeffe" opacity="1.00" d=" M 83.10 270.11 C 85.75 265.70 90.90 262.55 96.16 263.55 C 101.46 264.71 105.19 269.84 105.39 275.15 C 105.64 285.93 105.52 296.72 105.45 307.50 C 109.74 307.88 113.78 311.40 113.45 315.96 C 113.44 320.28 109.52 323.52 105.40 323.77 C 105.26 327.51 105.43 331.26 105.21 335.00 C 104.95 339.44 100.48 342.77 96.14 342.16 C 92.93 341.45 90.02 338.97 89.57 335.60 C 89.22 331.63 89.60 327.63 89.49 323.65 C 81.66 323.55 73.83 323.72 66.00 323.57 C 62.58 323.56 59.34 321.19 58.43 317.87 C 57.32 314.88 58.94 311.92 60.42 309.41 C 67.88 296.26 74.98 282.88 83.10 270.11 M 79.62 307.72 C 82.95 307.73 86.27 307.76 89.60 307.70 C 89.68 301.79 89.67 295.88 89.68 289.97 C 86.20 295.81 82.80 301.71 79.62 307.72 Z" />
<path fill="#eaeffe" opacity="1.00" d=" M 125.28 270.86 C 125.38 266.83 129.03 263.31 133.07 263.37 C 137.24 263.18 141.05 266.82 141.11 270.98 C 141.20 275.68 141.10 280.38 141.15 285.08 C 148.16 278.76 155.00 272.26 162.03 265.96 C 165.36 263.04 171.02 263.79 173.48 267.47 C 175.95 270.68 175.25 275.61 172.18 278.19 C 163.75 285.96 155.31 293.72 146.85 301.46 C 156.03 310.52 165.43 319.37 174.65 328.38 C 177.92 331.28 178.08 336.87 174.87 339.86 C 172.04 342.83 166.91 342.95 163.95 340.12 C 156.30 332.87 148.83 325.42 141.15 318.20 C 141.08 323.80 141.24 329.41 141.08 335.01 C 140.77 339.76 135.58 343.34 131.02 341.89 C 127.59 340.96 125.11 337.55 125.24 334.00 C 125.24 312.96 125.18 291.91 125.28 270.86 Z" />
</g>
<g id="#c0c8f3ff">
<path fill="#c0c8f3" opacity="1.00" d=" M 161.07 151.17 C 174.04 148.81 186.99 146.32 200.00 144.15 C 197.18 148.85 194.46 154.33 195.84 159.96 C 197.17 166.43 202.89 170.54 208.22 173.71 C 194.88 176.55 181.39 178.64 168.00 181.22 C 166.40 181.68 164.76 183.10 164.99 184.92 C 164.91 191.13 164.99 197.33 164.97 203.54 C 154.66 203.54 144.34 203.51 134.03 203.55 C 134.01 191.98 134.05 180.42 134.01 168.86 C 134.17 163.04 137.62 157.58 142.79 154.92 C 148.82 153.36 155.00 152.55 161.07 151.17 Z" />
</g>
<g id="#eb525bff">
<path fill="#eb525b" opacity="1.00" d=" M 28.36 250.37 C 31.41 241.95 40.08 236.24 48.99 236.40 C 64.94 236.48 80.89 236.21 96.84 236.54 L 97.17 236.53 C 95.02 237.34 92.68 238.29 91.49 240.40 C 89.38 243.67 90.22 248.36 93.23 250.79 C 95.09 252.39 97.68 252.51 100.02 252.60 C 128.69 252.60 157.36 252.58 186.03 252.60 C 189.23 252.18 192.56 254.59 192.33 258.00 C 192.51 287.00 192.31 316.00 192.43 345.00 C 192.33 347.24 192.58 350.00 190.64 351.59 C 189.12 352.98 186.95 352.95 185.03 353.02 C 155.74 353.01 126.45 352.96 97.17 353.03 C 96.61 349.43 96.37 345.79 96.14 342.16 C 100.48 342.77 104.95 339.44 105.21 335.00 C 105.43 331.26 105.26 327.51 105.40 323.77 C 109.52 323.52 113.44 320.28 113.45 315.96 C 113.78 311.40 109.74 307.88 105.45 307.50 C 105.52 296.72 105.64 285.93 105.39 275.15 C 105.19 269.84 101.46 264.71 96.16 263.55 C 96.37 260.03 96.69 256.52 96.89 253.00 C 80.90 252.91 64.90 253.01 48.91 252.98 C 46.18 252.54 43.82 254.65 43.34 257.25 C 42.81 260.80 43.13 264.41 43.07 267.99 C 43.02 293.34 43.13 318.70 43.02 344.05 C 43.10 346.49 42.90 349.35 44.79 351.23 C 46.40 352.85 48.84 352.95 50.98 353.01 C 66.02 353.03 81.07 352.93 96.11 353.05 C 92.96 354.46 90.12 357.30 90.31 361.00 C 90.16 364.73 93.15 367.45 96.25 368.94 C 80.16 369.07 64.06 368.96 47.96 369.00 C 36.85 369.15 26.84 359.10 27.00 348.00 C 27.01 320.00 27.00 292.01 27.01 264.01 C 27.11 259.45 26.45 254.67 28.36 250.37 M 125.28 270.86 C 125.18 291.91 125.24 312.96 125.24 334.00 C 125.11 337.55 127.59 340.96 131.02 341.89 C 135.58 343.34 140.77 339.76 141.08 335.01 C 141.24 329.41 141.08 323.80 141.15 318.20 C 148.83 325.42 156.30 332.87 163.95 340.12 C 166.91 342.95 172.04 342.83 174.87 339.86 C 178.08 336.87 177.92 331.28 174.65 328.38 C 165.43 319.37 156.03 310.52 146.85 301.46 C 155.31 293.72 163.75 285.96 172.18 278.19 C 175.25 275.61 175.95 270.68 173.48 267.47 C 171.02 263.79 165.36 263.04 162.03 265.96 C 155.00 272.26 148.16 278.76 141.15 285.08 C 141.10 280.38 141.20 275.68 141.11 270.98 C 141.05 266.82 137.24 263.18 133.07 263.37 C 129.03 263.31 125.38 266.83 125.28 270.86 Z" />
<path fill="#eb525b" opacity="1.00" d=" M 198.28 421.32 C 202.39 420.32 206.73 420.95 210.93 420.86 C 216.17 420.99 219.95 427.09 217.72 431.84 C 216.37 435.30 212.53 437.13 208.95 436.73 C 204.31 436.37 198.53 438.07 195.05 434.02 C 191.36 430.12 193.16 422.96 198.28 421.32 Z" />
</g>
<g id="#ee7988ff">
<path fill="#ee7988" opacity="1.00" d=" M 91.49 240.40 C 92.68 238.29 95.02 237.34 97.17 236.53 C 127.42 236.77 157.69 236.46 187.95 236.68 C 198.66 236.90 208.09 246.36 208.28 257.07 C 208.39 287.05 208.30 317.03 208.32 347.01 C 208.58 355.08 203.85 363.03 196.60 366.59 C 192.74 368.65 188.29 369.06 184.00 368.94 C 155.09 368.92 126.18 368.93 97.27 368.94 L 96.25 368.94 C 93.15 367.45 90.16 364.73 90.31 361.00 C 90.12 357.30 92.96 354.46 96.11 353.05 L 97.17 353.03 C 126.45 352.96 155.74 353.01 185.03 353.02 C 186.95 352.95 189.12 352.98 190.64 351.59 C 192.58 350.00 192.33 347.24 192.43 345.00 C 192.31 316.00 192.51 287.00 192.33 258.00 C 192.56 254.59 189.23 252.18 186.03 252.60 C 157.36 252.58 128.69 252.60 100.02 252.60 C 97.68 252.51 95.09 252.39 93.23 250.79 C 90.22 248.36 89.38 243.67 91.49 240.40 Z" />
</g>
<g id="#d52e57ff">
<path fill="#d52e57" opacity="1.00" d=" M 43.34 257.25 C 43.82 254.65 46.18 252.54 48.91 252.98 C 64.90 253.01 80.90 252.91 96.89 253.00 C 96.69 256.52 96.37 260.03 96.16 263.55 C 90.90 262.55 85.75 265.70 83.10 270.11 C 74.98 282.88 67.88 296.26 60.42 309.41 C 58.94 311.92 57.32 314.88 58.43 317.87 C 59.34 321.19 62.58 323.56 66.00 323.57 C 73.83 323.72 81.66 323.55 89.49 323.65 C 89.60 327.63 89.22 331.63 89.57 335.60 C 90.02 338.97 92.93 341.45 96.14 342.16 C 96.37 345.79 96.61 349.43 97.17 353.03 L 96.11 353.05 C 81.07 352.93 66.02 353.03 50.98 353.01 C 48.84 352.95 46.40 352.85 44.79 351.23 C 42.90 349.35 43.10 346.49 43.02 344.05 C 43.13 318.70 43.02 293.34 43.07 267.99 C 43.13 264.41 42.81 260.80 43.34 257.25 Z" />
<path fill="#d52e57" opacity="1.00" d=" M 79.62 307.72 C 82.80 301.71 86.20 295.81 89.68 289.97 C 89.67 295.88 89.68 301.79 89.60 307.70 C 86.27 307.76 82.95 307.73 79.62 307.72 Z" />
</g>
<g id="#111b3fff">
<path fill="#111b3f" opacity="1.00" d=" M 322.07 304.04 C 323.89 306.16 325.61 308.52 328.23 309.72 C 335.33 313.23 342.19 317.20 349.35 320.60 C 350.60 321.37 352.22 321.82 353.02 323.15 C 353.54 327.73 353.13 332.35 353.23 336.95 C 353.00 346.12 353.73 355.34 352.77 364.48 C 344.25 360.30 335.91 355.76 327.44 351.47 C 324.87 350.22 323.14 347.80 322.09 345.22 C 321.88 331.49 321.98 317.76 322.07 304.04 Z" />
<path fill="#111b3f" opacity="1.00" d=" M 48.32 402.39 C 53.86 401.78 59.45 402.01 65.01 402.00 C 75.72 402.16 86.45 401.69 97.15 402.20 C 96.34 405.39 94.41 408.10 92.87 410.96 C 88.83 418.19 87.67 426.85 89.05 434.97 C 89.78 439.54 91.62 443.83 92.97 448.24 C 76.12 435.05 61.20 419.45 48.32 402.39 Z" />
</g>
</svg>
