<?xml version="1.0" encoding="UTF-8" ?>
<!DOCTYPE svg PUBLIC "-//W3C//DTD SVG 1.1//EN" "http://www.w3.org/Graphics/SVG/1.1/DTD/svg11.dtd">
<svg width="512pt" height="512pt" viewBox="0 0 512 512" version="1.1" xmlns="http://www.w3.org/2000/svg">
<g id="#4293f6ff">
<path fill="#4293f6" opacity="1.00" d=" M 137.90 0.00 L 277.22 0.00 C 286.42 0.55 294.57 8.19 295.44 17.40 C 295.81 23.51 295.47 29.63 295.63 35.75 C 295.64 41.11 295.75 46.48 295.59 51.85 C 295.21 59.39 290.09 66.45 283.00 69.06 C 279.20 70.61 275.02 70.39 271.01 70.38 C 227.02 70.35 183.03 70.42 139.05 70.34 C 129.62 70.29 121.04 62.47 120.10 53.10 C 119.77 47.32 120.04 41.53 119.96 35.74 C 120.09 29.45 119.69 23.13 120.18 16.85 C 121.28 8.00 129.08 0.81 137.90 0.00 Z" />
<path fill="#4293f6" opacity="1.00" d=" M 389.25 326.48 C 414.61 320.95 442.15 326.61 463.27 341.70 C 480.36 353.76 493.23 371.65 499.23 391.69 C 505.00 410.64 504.47 431.42 497.85 450.09 C 491.56 468.06 479.51 483.92 463.95 494.89 C 449.77 505.07 432.66 510.73 415.31 512.00 L 406.10 512.00 C 382.17 510.75 358.81 500.37 342.29 482.95 C 328.36 468.57 319.25 449.62 316.68 429.78 C 313.79 407.51 319.07 384.22 331.66 365.59 C 344.84 345.77 365.95 331.39 389.25 326.48 M 399.66 416.63 C 393.24 410.17 386.90 403.62 380.45 397.18 C 372.17 405.39 363.84 413.55 355.56 421.76 C 366.23 432.63 376.88 443.51 387.61 454.32 C 392.28 459.03 399.76 460.67 405.88 457.95 C 411.45 455.95 414.93 450.94 419.04 447.00 C 433.71 431.84 448.53 416.83 463.17 401.65 C 454.83 393.52 446.53 385.36 438.17 377.27 C 425.27 390.33 412.54 403.55 399.66 416.63 Z" />
</g>
<g id="#414d69ff">
<path fill="#414d69" opacity="1.00" d=" M 21.50 29.52 C 29.04 22.23 39.50 18.13 49.97 18.20 C 63.10 18.20 76.23 18.19 89.36 18.21 C 89.39 24.05 89.36 29.89 89.38 35.74 C 89.37 41.58 89.39 47.42 89.36 53.25 C 83.91 53.28 78.46 53.26 73.01 53.27 C 65.05 53.31 57.08 53.17 49.12 53.33 C 45.80 53.46 43.45 56.85 43.82 60.03 C 43.82 191.01 43.83 321.98 43.82 452.96 C 43.90 455.62 43.56 458.34 44.13 460.97 C 44.97 463.86 48.10 465.37 50.96 465.07 C 131.28 465.07 211.59 465.06 291.91 465.07 C 291.93 471.02 291.90 476.98 291.92 482.93 C 291.91 488.66 291.93 494.39 291.91 500.12 C 211.62 500.14 131.34 500.13 51.06 500.13 C 40.41 500.36 29.70 496.47 21.91 489.15 C 13.56 481.51 8.69 470.28 8.77 458.97 C 8.74 325.98 8.76 192.99 8.76 60.00 C 8.53 48.64 13.21 37.30 21.50 29.52 Z" />
<path fill="#414d69" opacity="1.00" d=" M 329.09 18.20 C 341.39 18.20 353.70 18.19 366.01 18.21 C 375.98 18.18 385.88 22.01 393.24 28.74 C 401.99 36.54 407.02 48.22 406.80 59.93 C 406.82 139.18 406.82 218.42 406.80 297.66 C 400.96 297.67 395.12 297.66 389.28 297.67 C 383.43 297.65 377.58 297.70 371.74 297.64 C 371.74 218.39 371.75 139.13 371.74 59.88 C 372.09 56.58 369.44 53.23 366.04 53.29 C 353.72 53.21 341.40 53.30 329.09 53.26 C 329.06 47.42 329.08 41.58 329.07 35.73 C 329.08 29.89 329.06 24.05 329.09 18.20 Z" />
<path fill="#414d69" opacity="1.00" d=" M 165.52 121.76 C 174.30 129.48 182.78 137.54 191.43 145.40 C 170.73 168.05 149.92 190.58 129.19 213.20 C 122.60 220.72 109.76 221.55 102.65 214.30 C 95.51 206.69 88.51 198.96 81.47 191.27 C 77.10 186.55 72.74 181.83 68.42 177.07 C 71.37 174.32 74.38 171.64 77.35 168.91 C 82.96 163.72 88.61 158.58 94.24 153.41 C 101.32 161.06 108.32 168.78 115.39 176.44 C 132.09 158.21 148.86 140.03 165.52 121.76 Z" />
<path fill="#414d69" opacity="1.00" d=" M 213.68 162.64 C 255.87 162.62 298.07 162.62 340.26 162.64 C 340.20 174.34 340.42 186.05 340.15 197.74 C 297.99 197.64 255.83 197.76 213.67 197.68 C 213.68 186.00 213.65 174.32 213.68 162.64 Z" />
<path fill="#414d69" opacity="1.00" d=" M 116.61 281.49 C 132.94 263.69 149.27 245.88 165.62 228.10 C 174.23 235.99 182.87 243.86 191.43 251.81 C 173.11 271.77 154.77 291.72 136.44 311.67 C 131.78 316.26 128.14 322.48 121.59 324.58 C 114.90 327.21 106.87 325.30 102.00 320.04 C 90.80 307.84 79.58 295.65 68.41 283.42 C 77.05 275.57 85.62 267.65 94.25 259.79 C 101.33 267.43 108.31 275.16 115.39 282.80 C 115.69 282.47 116.31 281.82 116.61 281.49 Z" />
<path fill="#414d69" opacity="1.00" d=" M 213.68 268.17 C 255.87 268.16 298.07 268.16 340.26 268.17 C 340.28 279.85 340.28 291.54 340.26 303.22 C 298.07 303.24 255.87 303.24 213.68 303.22 C 213.66 291.54 213.66 279.85 213.68 268.17 Z" />
<path fill="#414d69" opacity="1.00" d=" M 160.00 339.41 C 161.87 337.37 163.73 335.32 165.61 333.29 C 174.24 341.18 182.85 349.08 191.45 357.00 C 189.45 359.19 187.44 361.37 185.43 363.55 C 166.62 384.04 147.79 404.51 128.98 425.00 C 122.26 432.42 109.35 433.06 102.39 425.62 C 91.02 413.34 79.73 400.98 68.41 388.65 C 77.03 380.77 85.63 372.88 94.24 364.99 C 101.32 372.63 108.31 380.35 115.37 388.01 C 130.28 371.83 145.12 355.60 160.00 339.41 Z" />
<path fill="#414d69" opacity="1.00" d=" M 213.67 373.70 C 233.65 373.67 253.63 373.69 273.61 373.69 C 273.66 385.38 273.63 397.07 273.63 408.75 C 268.21 408.78 262.80 408.76 257.39 408.76 C 242.82 408.76 228.25 408.78 213.69 408.75 C 213.56 397.07 213.83 385.39 213.67 373.70 Z" />
</g>
<g id="#ffffffff">
<path fill="#ffffff" opacity="1.00" d=" M 89.38 35.74 C 99.57 35.73 109.76 35.73 119.96 35.74 C 120.04 41.53 119.77 47.32 120.10 53.10 C 121.04 62.47 129.62 70.29 139.05 70.34 C 183.03 70.42 227.02 70.35 271.01 70.38 C 275.02 70.39 279.20 70.61 283.00 69.06 C 290.09 66.45 295.21 59.39 295.59 51.85 C 295.75 46.48 295.64 41.11 295.63 35.75 C 306.77 35.72 317.92 35.74 329.07 35.73 C 329.08 41.58 329.06 47.42 329.09 53.26 C 341.40 53.30 353.72 53.21 366.04 53.29 C 369.44 53.23 372.09 56.58 371.74 59.88 C 371.75 139.13 371.74 218.39 371.74 297.64 C 377.58 297.70 383.43 297.65 389.28 297.67 C 389.27 307.27 389.31 316.88 389.25 326.48 C 365.95 331.39 344.84 345.77 331.66 365.59 C 319.07 384.22 313.79 407.51 316.68 429.78 C 298.54 425.60 280.84 419.57 263.73 412.25 C 261.50 411.30 259.41 410.08 257.39 408.76 C 262.80 408.76 268.21 408.78 273.63 408.75 C 273.63 397.07 273.66 385.38 273.61 373.69 C 253.63 373.69 233.65 373.67 213.67 373.70 C 213.35 377.18 213.20 380.67 212.97 384.16 C 203.22 378.10 194.25 370.87 185.43 363.55 C 187.44 361.37 189.45 359.19 191.45 357.00 C 182.85 349.08 174.24 341.18 165.61 333.29 C 163.73 335.32 161.87 337.37 160.00 339.41 C 151.50 330.74 143.77 321.35 136.44 311.67 C 154.77 291.72 173.11 271.77 191.43 251.81 C 182.87 243.86 174.23 235.99 165.62 228.10 C 149.27 245.88 132.94 263.69 116.61 281.49 C 113.26 276.62 110.61 271.33 107.91 266.09 C 97.60 246.12 89.51 225.00 83.68 203.30 C 82.62 199.36 81.37 195.40 81.47 191.27 C 88.51 198.96 95.51 206.69 102.65 214.30 C 109.76 221.55 122.60 220.72 129.19 213.20 C 149.92 190.58 170.73 168.05 191.43 145.40 C 182.78 137.54 174.30 129.48 165.52 121.76 C 148.86 140.03 132.09 158.21 115.39 176.44 C 108.32 168.78 101.32 161.06 94.24 153.41 C 88.61 158.58 82.96 163.72 77.35 168.91 C 76.57 167.00 75.93 165.02 75.69 162.96 C 73.86 148.38 72.95 133.69 73.04 119.00 C 73.03 97.09 73.08 75.18 73.01 53.27 C 78.46 53.26 83.91 53.28 89.36 53.25 C 89.39 47.42 89.37 41.58 89.38 35.74 M 213.68 162.64 C 213.65 174.32 213.68 186.00 213.67 197.68 C 255.83 197.76 297.99 197.64 340.15 197.74 C 340.42 186.05 340.20 174.34 340.26 162.64 C 298.07 162.62 255.87 162.62 213.68 162.64 M 213.68 268.17 C 213.66 279.85 213.66 291.54 213.68 303.22 C 255.87 303.24 298.07 303.24 340.26 303.22 C 340.28 291.54 340.28 279.85 340.26 268.17 C 298.07 268.16 255.87 268.16 213.68 268.17 Z" />
<path fill="#ffffff" opacity="1.00" d=" M 399.66 416.63 C 412.54 403.55 425.27 390.33 438.17 377.27 C 446.53 385.36 454.83 393.52 463.17 401.65 C 448.53 416.83 433.71 431.84 419.04 447.00 C 414.93 450.94 411.45 455.95 405.88 457.95 C 399.76 460.67 392.28 459.03 387.61 454.32 C 376.88 443.51 366.23 432.63 355.56 421.76 C 363.84 413.55 372.17 405.39 380.45 397.18 C 386.90 403.62 393.24 410.17 399.66 416.63 Z" />
</g>
<g id="#e6e7e8ff">
<path fill="#e6e7e8" opacity="1.00" d=" M 43.82 60.03 C 43.45 56.85 45.80 53.46 49.12 53.33 C 57.08 53.17 65.05 53.31 73.01 53.27 C 73.08 75.18 73.03 97.09 73.04 119.00 C 72.95 133.69 73.86 148.38 75.69 162.96 C 75.93 165.02 76.57 167.00 77.35 168.91 C 74.38 171.64 71.37 174.32 68.42 177.07 C 72.74 181.83 77.10 186.55 81.47 191.27 C 81.37 195.40 82.62 199.36 83.68 203.30 C 89.51 225.00 97.60 246.12 107.91 266.09 C 110.61 271.33 113.26 276.62 116.61 281.49 C 116.31 281.82 115.69 282.47 115.39 282.80 C 108.31 275.16 101.33 267.43 94.25 259.79 C 85.62 267.65 77.05 275.57 68.41 283.42 C 79.58 295.65 90.80 307.84 102.00 320.04 C 106.87 325.30 114.90 327.21 121.59 324.58 C 128.14 322.48 131.78 316.26 136.44 311.67 C 143.77 321.35 151.50 330.74 160.00 339.41 C 145.12 355.60 130.28 371.83 115.37 388.01 C 108.31 380.35 101.32 372.63 94.24 364.99 C 85.63 372.88 77.03 380.77 68.41 388.65 C 79.73 400.98 91.02 413.34 102.39 425.62 C 109.35 433.06 122.26 432.42 128.98 425.00 C 147.79 404.51 166.62 384.04 185.43 363.55 C 194.25 370.87 203.22 378.10 212.97 384.16 C 213.20 380.67 213.35 377.18 213.67 373.70 C 213.83 385.39 213.56 397.07 213.69 408.75 C 228.25 408.78 242.82 408.76 257.39 408.76 C 259.41 410.08 261.50 411.30 263.73 412.25 C 280.84 419.57 298.54 425.60 316.68 429.78 C 319.25 449.62 328.36 468.57 342.29 482.95 C 325.50 482.90 308.71 482.94 291.92 482.93 C 291.90 476.98 291.93 471.02 291.91 465.07 C 211.59 465.06 131.28 465.07 50.96 465.07 C 48.10 465.37 44.97 463.86 44.13 460.97 C 43.56 458.34 43.90 455.62 43.82 452.96 C 43.83 321.98 43.82 191.01 43.82 60.03 Z" />
</g>
</svg>
