<?xml version="1.0" encoding="UTF-8" ?>
<!DOCTYPE svg PUBLIC "-//W3C//DTD SVG 1.1//EN" "http://www.w3.org/Graphics/SVG/1.1/DTD/svg11.dtd">
<svg width="512pt" height="512pt" viewBox="0 0 512 512" version="1.1" xmlns="http://www.w3.org/2000/svg">
<g id="#5380beff">
<path fill="#5380be" opacity="1.00" d=" M 8.60 32.96 C 8.84 19.77 20.79 8.31 33.97 8.55 C 141.99 8.51 250.00 8.54 358.02 8.54 C 371.39 8.03 383.69 19.56 383.93 32.95 C 384.10 47.51 383.95 62.08 384.00 76.64 C 258.84 76.67 133.68 76.64 8.52 76.65 C 8.60 62.09 8.43 47.52 8.60 32.96 M 40.32 34.45 C 34.32 35.88 32.03 44.24 36.45 48.53 C 40.63 53.37 49.49 51.17 50.90 44.93 C 52.89 38.82 46.39 32.40 40.32 34.45 M 74.33 34.52 C 68.18 36.08 66.21 44.89 71.07 48.94 C 75.35 53.22 83.53 50.92 84.95 45.04 C 87.08 38.88 80.44 32.34 74.33 34.52 M 109.31 34.30 C 103.00 35.22 100.11 43.85 104.61 48.37 C 108.68 53.33 117.63 51.27 119.11 45.02 C 121.09 39.20 115.25 32.88 109.31 34.30 M 279.33 34.46 C 275.23 35.48 272.41 39.91 273.21 44.07 C 273.80 48.24 277.85 51.42 282.04 51.17 C 304.35 51.23 326.67 51.19 348.98 51.19 C 353.33 51.56 357.67 48.41 358.26 44.01 C 359.22 39.11 355.02 34.07 350.02 34.19 C 328.02 34.05 306.01 34.21 284.01 34.11 C 282.44 34.14 280.86 34.13 279.33 34.46 Z" />
<path fill="#5380be" opacity="1.00" d=" M 71.37 124.32 C 75.72 116.15 84.76 110.80 94.02 110.95 C 190.68 110.91 287.34 110.94 384.00 110.93 C 396.03 111.01 408.06 110.77 420.08 111.05 C 432.45 111.66 443.16 122.57 443.64 134.93 C 443.85 149.63 443.67 164.33 443.73 179.04 C 423.71 179.08 403.68 179.03 383.66 179.06 C 278.52 178.91 173.39 179.04 68.26 179.00 C 68.27 165.33 68.26 151.66 68.25 137.99 C 68.18 133.27 69.03 128.47 71.37 124.32 M 99.19 137.14 C 93.48 139.18 92.01 147.55 96.69 151.41 C 101.14 155.81 109.60 153.14 110.72 146.99 C 112.55 140.58 105.25 134.36 99.19 137.14 M 133.22 137.23 C 127.65 139.33 126.21 147.47 130.77 151.31 C 135.21 155.81 143.79 153.09 144.85 146.86 C 146.56 140.45 139.20 134.35 133.22 137.23 M 167.21 137.27 C 161.50 139.51 160.38 148.07 165.33 151.70 C 170.15 155.98 178.66 152.48 179.11 146.07 C 180.18 139.79 172.91 134.44 167.21 137.27 M 337.44 137.49 C 334.67 138.91 332.80 141.89 332.82 145.01 C 332.66 149.83 337.14 153.95 341.91 153.58 C 364.29 153.60 386.68 153.61 409.07 153.58 C 413.83 153.93 418.28 149.78 418.11 144.98 C 418.18 140.20 413.73 136.15 408.98 136.55 C 387.34 136.51 365.69 136.59 344.04 136.52 C 341.83 136.58 339.45 136.41 337.44 137.49 Z" />
<path fill="#5380be" opacity="1.00" d=" M 143.45 215.43 C 149.27 212.76 155.82 213.37 162.04 213.33 C 255.93 213.34 349.83 213.34 443.72 213.33 C 455.79 213.40 467.86 213.18 479.93 213.44 C 492.49 214.15 503.26 225.42 503.41 238.00 C 503.55 252.46 503.41 266.92 503.48 281.38 C 483.44 281.42 463.39 281.22 443.36 281.49 C 338.24 281.37 233.12 281.48 128.00 281.43 C 128.02 267.29 127.96 253.16 128.02 239.02 C 127.84 228.99 134.21 219.30 143.45 215.43 M 159.31 239.40 C 153.09 241.24 151.61 250.41 156.85 254.18 C 161.54 258.23 169.69 255.12 170.53 248.98 C 171.95 242.84 165.16 237.04 159.31 239.40 M 193.31 239.49 C 189.84 240.71 187.46 244.37 187.80 248.04 C 187.96 252.66 192.47 256.47 197.05 255.94 C 201.81 255.60 205.58 250.75 204.64 246.05 C 203.95 240.97 198.07 237.50 193.31 239.49 M 227.36 239.50 C 221.40 241.46 219.98 250.23 224.96 254.01 C 229.60 258.25 237.97 255.18 238.78 248.95 C 240.19 242.74 233.21 236.95 227.36 239.50 M 398.29 239.41 C 394.04 240.77 391.50 245.77 392.94 250.00 C 394.04 253.84 398.03 256.29 401.94 255.99 C 424.30 255.99 446.67 256.04 469.03 255.97 C 473.85 256.26 478.21 251.83 477.82 247.02 C 477.71 242.50 473.50 238.69 468.99 238.96 C 447.00 238.88 425.00 238.98 403.00 238.91 C 401.42 238.96 399.81 238.93 398.29 239.41 Z" />
</g>
<g id="#ec8a75ff">
<path fill="#ec8a75" opacity="1.00" d=" M 40.32 34.45 C 46.39 32.40 52.89 38.82 50.90 44.93 C 49.49 51.17 40.63 53.37 36.45 48.53 C 32.03 44.24 34.32 35.88 40.32 34.45 Z" />
<path fill="#ec8a75" opacity="1.00" d=" M 74.33 34.52 C 80.44 32.34 87.08 38.88 84.95 45.04 C 83.53 50.92 75.35 53.22 71.07 48.94 C 66.21 44.89 68.18 36.08 74.33 34.52 Z" />
<path fill="#ec8a75" opacity="1.00" d=" M 99.19 137.14 C 105.25 134.36 112.55 140.58 110.72 146.99 C 109.60 153.14 101.14 155.81 96.69 151.41 C 92.01 147.55 93.48 139.18 99.19 137.14 Z" />
<path fill="#ec8a75" opacity="1.00" d=" M 133.22 137.23 C 139.20 134.35 146.56 140.45 144.85 146.86 C 143.79 153.09 135.21 155.81 130.77 151.31 C 126.21 147.47 127.65 139.33 133.22 137.23 Z" />
<path fill="#ec8a75" opacity="1.00" d=" M 159.31 239.40 C 165.16 237.04 171.95 242.84 170.53 248.98 C 169.69 255.12 161.54 258.23 156.85 254.18 C 151.61 250.41 153.09 241.24 159.31 239.40 Z" />
<path fill="#ec8a75" opacity="1.00" d=" M 193.31 239.49 C 198.07 237.50 203.95 240.97 204.64 246.05 C 205.58 250.75 201.81 255.60 197.05 255.94 C 192.47 256.47 187.96 252.66 187.80 248.04 C 187.46 244.37 189.84 240.71 193.31 239.49 Z" />
<path fill="#ec8a75" opacity="1.00" d=" M 167.33 316.43 C 171.76 315.08 176.49 315.98 181.05 315.73 C 185.51 315.85 191.10 314.78 194.26 318.80 C 198.37 323.30 195.65 331.47 189.63 332.55 C 183.40 333.10 177.12 332.72 170.87 332.76 C 166.85 332.93 163.04 329.90 162.32 325.94 C 161.47 322.10 163.69 317.90 167.33 316.43 Z" />
<path fill="#ec8a75" opacity="1.00" d=" M 167.43 350.51 C 172.17 349.22 177.19 350.14 182.05 349.86 C 186.38 349.83 191.83 349.23 194.60 353.37 C 198.43 358.14 195.12 366.22 188.99 366.77 C 182.98 367.11 176.94 366.89 170.92 366.90 C 167.12 367.05 163.46 364.40 162.47 360.72 C 161.24 356.69 163.51 352.04 167.43 350.51 Z" />
<path fill="#ec8a75" opacity="1.00" d=" M 167.48 384.62 C 171.85 383.41 176.48 384.23 180.97 384.00 C 185.40 384.13 190.88 383.03 194.12 386.90 C 198.07 391.04 196.16 398.70 190.72 400.50 C 186.25 401.62 181.56 400.85 177.01 401.08 C 172.81 400.95 167.73 401.92 164.54 398.45 C 160.35 394.43 162.00 386.59 167.48 384.62 Z" />
<path fill="#ec8a75" opacity="1.00" d=" M 168.33 418.48 C 174.52 417.73 180.82 418.28 187.06 418.15 C 191.20 417.84 195.31 420.79 196.06 424.93 C 197.13 429.49 193.71 434.55 189.01 435.03 C 183.68 435.43 178.33 435.07 172.99 435.22 C 169.49 435.45 165.54 434.59 163.59 431.39 C 160.32 426.90 162.92 419.80 168.33 418.48 Z" />
<path fill="#ec8a75" opacity="1.00" d=" M 168.41 452.59 C 174.60 451.88 180.89 452.42 187.12 452.28 C 191.20 452.00 195.24 454.88 196.04 458.94 C 197.32 463.91 193.16 469.34 188.00 469.26 C 182.34 469.42 176.68 469.34 171.03 469.30 C 166.83 469.53 162.78 466.29 162.26 462.10 C 161.51 457.96 164.34 453.61 168.41 452.59 Z" />
</g>
<g id="#85dabbff">
<path fill="#85dabb" opacity="1.00" d=" M 109.31 34.30 C 115.25 32.88 121.09 39.20 119.11 45.02 C 117.63 51.27 108.68 53.33 104.61 48.37 C 100.11 43.85 103.00 35.22 109.31 34.30 Z" />
<path fill="#85dabb" opacity="1.00" d=" M 167.21 137.27 C 172.91 134.44 180.18 139.79 179.11 146.07 C 178.66 152.48 170.15 155.98 165.33 151.70 C 160.38 148.07 161.50 139.51 167.21 137.27 Z" />
<path fill="#85dabb" opacity="1.00" d=" M 227.36 239.50 C 233.21 236.95 240.19 242.74 238.78 248.95 C 237.97 255.18 229.60 258.25 224.96 254.01 C 219.98 250.23 221.40 241.46 227.36 239.50 Z" />
</g>
<g id="#ffffffff">
<path fill="#ffffff" opacity="1.00" d=" M 279.33 34.46 C 280.86 34.13 282.44 34.14 284.01 34.11 C 306.01 34.21 328.02 34.05 350.02 34.19 C 355.02 34.07 359.22 39.11 358.26 44.01 C 357.67 48.41 353.33 51.56 348.98 51.19 C 326.67 51.19 304.35 51.23 282.04 51.17 C 277.85 51.42 273.80 48.24 273.21 44.07 C 272.41 39.91 275.23 35.48 279.33 34.46 Z" />
<path fill="#ffffff" opacity="1.00" d=" M 337.44 137.49 C 339.45 136.41 341.83 136.58 344.04 136.52 C 365.69 136.59 387.34 136.51 408.98 136.55 C 413.73 136.15 418.18 140.20 418.11 144.98 C 418.28 149.78 413.83 153.93 409.07 153.58 C 386.68 153.61 364.29 153.60 341.91 153.58 C 337.14 153.95 332.66 149.83 332.82 145.01 C 332.80 141.89 334.67 138.91 337.44 137.49 Z" />
<path fill="#ffffff" opacity="1.00" d=" M 398.29 239.41 C 399.81 238.93 401.42 238.96 403.00 238.91 C 425.00 238.98 447.00 238.88 468.99 238.96 C 473.50 238.69 477.71 242.50 477.82 247.02 C 478.21 251.83 473.85 256.26 469.03 255.97 C 446.67 256.04 424.30 255.99 401.94 255.99 C 398.03 256.29 394.04 253.84 392.94 250.00 C 391.50 245.77 394.04 240.77 398.29 239.41 Z" />
</g>
<g id="#b7d2edff">
<path fill="#b7d2ed" opacity="1.00" d=" M 8.53 76.80 C 133.69 76.81 258.84 76.82 384.00 76.80 C 384.00 88.18 384.00 99.56 384.00 110.93 C 287.34 110.94 190.68 110.91 94.02 110.95 C 84.76 110.80 75.72 116.15 71.37 124.32 C 69.03 128.47 68.18 133.27 68.25 137.99 C 68.26 151.66 68.27 165.33 68.26 179.00 C 68.25 218.89 68.23 258.78 68.27 298.67 C 56.21 298.59 44.13 298.82 32.07 298.55 C 19.15 297.83 8.22 285.95 8.55 273.01 C 8.52 207.61 8.54 142.21 8.53 76.80 Z" />
<path fill="#b7d2ed" opacity="1.00" d=" M 128.00 281.43 C 233.12 281.48 338.24 281.37 443.36 281.49 C 463.39 281.77 483.44 281.53 503.48 281.61 C 503.44 347.06 503.50 412.51 503.45 477.97 C 503.54 488.34 496.62 498.27 486.88 501.80 C 481.83 503.84 476.30 503.45 470.98 503.47 C 367.30 503.47 263.62 503.46 159.95 503.47 C 155.41 503.45 150.75 503.75 146.35 502.40 C 138.37 500.09 131.75 493.65 129.25 485.72 C 127.74 481.32 128.00 476.60 128.00 472.03 C 128.00 448.37 128.00 424.72 128.00 401.06 C 128.00 361.19 128.00 321.31 128.00 281.43 M 167.33 316.43 C 163.69 317.90 161.47 322.10 162.32 325.94 C 163.04 329.90 166.85 332.93 170.87 332.76 C 177.12 332.72 183.40 333.10 189.63 332.55 C 195.65 331.47 198.37 323.30 194.26 318.80 C 191.10 314.78 185.51 315.85 181.05 315.73 C 176.49 315.98 171.76 315.08 167.33 316.43 M 218.39 316.48 C 213.91 318.37 211.92 324.35 214.52 328.50 C 216.09 331.56 219.58 333.00 222.90 332.82 C 270.25 332.84 317.61 332.79 364.96 332.84 C 367.62 332.84 370.53 332.54 372.57 330.64 C 376.22 327.57 376.43 321.31 372.83 318.13 C 370.80 316.04 367.77 315.74 365.03 315.73 C 320.02 315.78 275.00 315.74 229.98 315.74 C 226.13 315.86 222.11 315.23 218.39 316.48 M 398.24 316.26 C 393.94 317.60 391.46 322.69 392.99 326.92 C 394.12 330.75 398.14 333.04 402.01 332.81 C 415.00 332.87 428.00 332.76 440.99 332.86 C 443.96 332.86 447.30 332.76 449.53 330.50 C 453.19 327.25 453.05 320.88 449.27 317.78 C 447.05 315.75 443.86 315.77 441.04 315.71 C 429.02 315.76 417.00 315.77 404.98 315.71 C 402.73 315.74 400.43 315.66 398.24 316.26 M 167.43 350.51 C 163.51 352.04 161.24 356.69 162.47 360.72 C 163.46 364.40 167.12 367.05 170.92 366.90 C 176.94 366.89 182.98 367.11 188.99 366.77 C 195.12 366.22 198.43 358.14 194.60 353.37 C 191.83 349.23 186.38 349.83 182.05 349.86 C 177.19 350.14 172.17 349.22 167.43 350.51 M 219.26 350.31 C 213.71 351.80 211.50 359.38 215.19 363.72 C 217.22 366.50 220.83 367.06 224.04 366.96 C 248.70 366.89 273.37 366.98 298.03 366.91 C 302.95 367.28 307.61 362.93 307.15 357.93 C 307.08 353.24 302.64 349.54 298.04 349.90 C 273.69 349.79 249.33 349.97 224.97 349.83 C 223.06 349.86 221.12 349.85 219.26 350.31 M 167.48 384.62 C 162.00 386.59 160.35 394.43 164.54 398.45 C 167.73 401.92 172.81 400.95 177.01 401.08 C 181.56 400.85 186.25 401.62 190.72 400.50 C 196.16 398.70 198.07 391.04 194.12 386.90 C 190.88 383.03 185.40 384.13 180.97 384.00 C 176.48 384.23 171.85 383.41 167.48 384.62 M 219.31 384.42 C 214.31 385.81 211.74 392.19 214.42 396.65 C 216.21 400.17 220.36 401.34 224.05 401.09 C 257.37 401.00 290.69 401.16 324.01 401.02 C 328.46 401.22 332.68 397.47 332.76 392.97 C 333.21 388.16 328.79 383.79 324.02 384.05 C 290.69 383.91 257.36 384.08 224.03 383.97 C 222.45 384.01 220.85 384.02 219.31 384.42 M 356.24 384.34 C 350.89 385.47 348.10 392.30 351.08 396.87 C 352.85 400.04 356.55 401.30 360.02 401.08 C 393.01 401.07 426.00 401.04 459.00 401.09 C 461.95 401.16 465.22 400.61 467.18 398.17 C 470.94 394.19 469.42 386.82 464.32 384.76 C 461.02 383.59 457.42 384.07 453.99 383.98 C 422.64 384.02 391.29 384.00 359.95 383.99 C 358.69 383.99 357.46 384.11 356.24 384.34 M 168.33 418.48 C 162.92 419.80 160.32 426.90 163.59 431.39 C 165.54 434.59 169.49 435.45 172.99 435.22 C 178.33 435.07 183.68 435.43 189.01 435.03 C 193.71 434.55 197.13 429.49 196.06 424.93 C 195.31 420.79 191.20 417.84 187.06 418.15 C 180.82 418.28 174.52 417.73 168.33 418.48 M 220.24 418.37 C 214.76 419.08 211.60 425.91 214.34 430.63 C 216.10 434.22 220.30 435.49 224.04 435.22 C 271.37 435.15 318.71 435.22 366.04 435.19 C 370.75 435.56 375.47 431.84 375.42 426.96 C 375.77 421.89 370.99 417.73 366.06 418.13 C 332.04 418.08 298.02 418.12 263.99 418.11 C 249.41 418.30 234.80 417.74 220.24 418.37 M 168.41 452.59 C 164.34 453.61 161.51 457.96 162.26 462.10 C 162.78 466.29 166.83 469.53 171.03 469.30 C 176.68 469.34 182.34 469.42 188.00 469.26 C 193.16 469.34 197.32 463.91 196.04 458.94 C 195.24 454.88 191.20 452.00 187.12 452.28 C 180.89 452.42 174.60 451.88 168.41 452.59 M 220.33 452.48 C 215.23 453.16 211.86 459.20 213.96 463.91 C 215.29 467.55 219.19 469.60 222.96 469.32 C 298.95 469.32 374.95 469.31 450.94 469.33 C 454.43 469.53 458.19 468.07 459.78 464.78 C 462.52 460.09 459.40 453.24 453.97 452.49 C 448.35 451.92 442.69 452.38 437.06 452.25 C 378.05 452.25 319.04 452.25 260.03 452.25 C 246.80 452.42 233.54 451.92 220.33 452.48 Z" />
</g>
<g id="#99b9ddff">
<path fill="#99b9dd" opacity="1.00" d=" M 68.26 179.00 C 173.39 179.04 278.52 178.91 383.66 179.06 C 403.68 179.39 423.71 179.14 443.74 179.19 C 443.71 190.57 443.75 201.95 443.72 213.33 C 349.83 213.34 255.93 213.34 162.04 213.33 C 155.82 213.37 149.27 212.76 143.45 215.43 C 134.21 219.30 127.84 228.99 128.02 239.02 C 127.96 253.16 128.02 267.29 128.00 281.43 C 128.00 321.31 128.00 361.19 128.00 401.06 C 116.01 400.99 104.01 401.22 92.02 400.96 C 79.51 400.36 68.64 389.26 68.32 376.74 C 68.20 350.72 68.30 324.69 68.27 298.67 C 68.23 258.78 68.25 218.89 68.26 179.00 Z" />
<path fill="#99b9dd" opacity="1.00" d=" M 218.39 316.48 C 222.11 315.23 226.13 315.86 229.98 315.74 C 275.00 315.74 320.02 315.78 365.03 315.73 C 367.77 315.74 370.80 316.04 372.83 318.13 C 376.43 321.31 376.22 327.57 372.57 330.64 C 370.53 332.54 367.62 332.84 364.96 332.84 C 317.61 332.79 270.25 332.84 222.90 332.82 C 219.58 333.00 216.09 331.56 214.52 328.50 C 211.92 324.35 213.91 318.37 218.39 316.48 Z" />
<path fill="#99b9dd" opacity="1.00" d=" M 398.24 316.26 C 400.43 315.66 402.73 315.74 404.98 315.71 C 417.00 315.77 429.02 315.76 441.04 315.71 C 443.86 315.77 447.05 315.75 449.27 317.78 C 453.05 320.88 453.19 327.25 449.53 330.50 C 447.30 332.76 443.96 332.86 440.99 332.86 C 428.00 332.76 415.00 332.87 402.01 332.81 C 398.14 333.04 394.12 330.75 392.99 326.92 C 391.46 322.69 393.94 317.60 398.24 316.26 Z" />
<path fill="#99b9dd" opacity="1.00" d=" M 219.26 350.31 C 221.12 349.85 223.06 349.86 224.97 349.83 C 249.33 349.97 273.69 349.79 298.04 349.90 C 302.64 349.54 307.08 353.24 307.15 357.93 C 307.61 362.93 302.95 367.28 298.03 366.91 C 273.37 366.98 248.70 366.89 224.04 366.96 C 220.83 367.06 217.22 366.50 215.19 363.72 C 211.50 359.38 213.71 351.80 219.26 350.31 Z" />
<path fill="#99b9dd" opacity="1.00" d=" M 219.31 384.42 C 220.85 384.02 222.45 384.01 224.03 383.97 C 257.36 384.08 290.69 383.91 324.02 384.05 C 328.79 383.79 333.21 388.16 332.76 392.97 C 332.68 397.47 328.46 401.22 324.01 401.02 C 290.69 401.16 257.37 401.00 224.05 401.09 C 220.36 401.34 216.21 400.17 214.42 396.65 C 211.74 392.19 214.31 385.81 219.31 384.42 Z" />
<path fill="#99b9dd" opacity="1.00" d=" M 356.24 384.34 C 357.46 384.11 358.69 383.99 359.95 383.99 C 391.29 384.00 422.64 384.02 453.99 383.98 C 457.42 384.07 461.02 383.59 464.32 384.76 C 469.42 386.82 470.94 394.19 467.18 398.17 C 465.22 400.61 461.95 401.16 459.00 401.09 C 426.00 401.04 393.01 401.07 360.02 401.08 C 356.55 401.30 352.85 400.04 351.08 396.87 C 348.10 392.30 350.89 385.47 356.24 384.34 Z" />
<path fill="#99b9dd" opacity="1.00" d=" M 220.24 418.37 C 234.80 417.74 249.41 418.30 263.99 418.11 C 298.02 418.12 332.04 418.08 366.06 418.13 C 370.99 417.73 375.77 421.89 375.42 426.96 C 375.47 431.84 370.75 435.56 366.04 435.19 C 318.71 435.22 271.37 435.15 224.04 435.22 C 220.30 435.49 216.10 434.22 214.34 430.63 C 211.60 425.91 214.76 419.08 220.24 418.37 Z" />
<path fill="#99b9dd" opacity="1.00" d=" M 220.33 452.48 C 233.54 451.92 246.80 452.42 260.03 452.25 C 319.04 452.25 378.05 452.25 437.06 452.25 C 442.69 452.38 448.35 451.92 453.97 452.49 C 459.40 453.24 462.52 460.09 459.78 464.78 C 458.19 468.07 454.43 469.53 450.94 469.33 C 374.95 469.31 298.95 469.32 222.96 469.32 C 219.19 469.60 215.29 467.55 213.96 463.91 C 211.86 459.20 215.23 453.16 220.33 452.48 Z" />
</g>
</svg>
