<?xml version="1.0" encoding="UTF-8" ?>
<!DOCTYPE svg PUBLIC "-//W3C//DTD SVG 1.1//EN" "http://www.w3.org/Graphics/SVG/1.1/DTD/svg11.dtd">
<svg width="512pt" height="512pt" viewBox="0 0 512 512" version="1.1" xmlns="http://www.w3.org/2000/svg">
<g id="#de5133fc">
<path fill="#de5133" opacity="1.00" d=" M 428.23 4.17 C 434.20 0.59 443.31 -0.39 448.76 4.41 C 449.08 5.37 449.68 6.09 450.59 6.57 C 451.47 7.53 452.42 8.44 453.45 9.25 C 458.06 14.75 458.75 24.63 453.48 30.06 C 452.33 31.20 451.20 32.36 450.11 33.55 C 447.71 35.96 444.23 38.13 440.70 37.24 C 439.55 36.74 437.75 36.38 437.24 37.93 C 437.12 38.15 436.86 38.59 436.73 38.82 C 434.25 37.55 431.75 36.32 429.24 35.13 C 429.14 33.69 428.38 32.87 426.95 32.65 C 425.35 31.73 423.77 30.79 422.18 29.88 C 421.73 27.34 421.24 24.81 421.12 22.24 C 421.09 20.74 421.05 19.23 421.00 17.73 C 420.99 15.08 421.55 12.34 423.02 10.10 C 424.55 7.96 426.29 5.96 428.23 4.17 Z" />
</g>
<g id="#2e100a34">
<path fill="#2e100a" opacity="0.20" d=" M 423.88 5.88 C 425.32 5.30 426.77 4.73 428.23 4.17 C 426.29 5.96 424.55 7.96 423.02 10.10 C 423.29 8.69 423.58 7.28 423.88 5.88 Z" />
</g>
<g id="#ad3f27c5">
<path fill="#ad3f27" opacity="0.77" d=" M 448.76 4.41 C 450.54 4.11 451.15 4.83 450.59 6.57 C 449.68 6.09 449.08 5.37 448.76 4.41 Z" />
</g>
<g id="#bb442ad4">
<path fill="#bb442a" opacity="0.83" d=" M 450.59 6.57 C 452.10 5.10 454.87 7.64 453.45 9.25 C 452.42 8.44 451.47 7.53 450.59 6.57 Z" />
</g>
<g id="#68251776">
<path fill="#682517" opacity="0.46" d=" M 421.12 22.24 C 418.89 22.38 418.78 17.70 421.00 17.73 C 421.05 19.23 421.09 20.74 421.12 22.24 Z" />
</g>
<g id="#cfc7c1f9">
<path fill="#cfc7c1" opacity="0.98" d=" M 422.18 29.88 C 423.77 30.79 425.35 31.73 426.95 32.65 C 427.08 34.06 427.84 34.88 429.24 35.13 C 431.75 36.32 434.25 37.55 436.73 38.82 C 417.60 66.84 399.63 95.64 380.96 123.97 C 375.13 133.23 368.58 142.09 363.59 151.85 C 361.15 146.17 355.16 143.45 349.58 141.73 C 373.67 104.38 398.08 67.23 422.18 29.88 Z" />
<path fill="#cfc7c1" opacity="0.98" d=" M 90.64 175.91 L 91.13 176.07 C 112.01 186.58 132.59 197.76 152.99 209.19 C 148.72 213.61 146.71 219.55 145.87 225.54 C 138.18 218.91 128.66 215.08 119.88 210.19 C 107.65 203.49 95.22 197.19 83.06 190.36 L 83.42 189.94 C 84.87 188.24 86.27 186.49 87.52 184.64 C 88.80 182.77 89.87 180.77 91.02 178.83 C 91.81 177.74 91.68 176.76 90.64 175.91 Z" />
</g>
<g id="#290e092f">
<path fill="#290e09" opacity="0.18" d=" M 450.11 33.55 C 451.20 32.36 452.33 31.20 453.48 30.06 C 455.09 31.96 452.06 35.12 450.11 33.55 Z" />
</g>
<g id="#db755cff">
<path fill="#db755c" opacity="1.00" d=" M 426.95 32.65 C 428.38 32.87 429.14 33.69 429.24 35.13 C 427.84 34.88 427.08 34.06 426.95 32.65 Z" />
</g>
<g id="#762b1a85">
<path fill="#762b1a" opacity="0.52" d=" M 437.24 37.93 C 437.75 36.38 439.55 36.74 440.70 37.24 C 439.75 38.62 438.60 38.86 437.24 37.93 Z" />
</g>
<g id="#1a391c4f">
<path fill="#1a391c" opacity="0.31" d=" M 253.67 95.08 C 253.24 92.90 257.74 92.87 257.34 95.06 C 256.11 95.09 254.89 95.10 253.67 95.08 Z" />
</g>
<g id="#56bc5efd">
<path fill="#56bc5e" opacity="1.00" d=" M 246.25 97.08 C 248.51 95.85 251.10 95.22 253.67 95.08 C 254.89 95.10 256.11 95.09 257.34 95.06 C 259.89 95.19 262.57 95.85 264.58 97.52 C 265.12 98.38 265.90 98.91 266.90 99.11 C 267.85 99.47 268.51 100.14 268.87 101.12 C 269.11 102.11 269.68 102.85 270.59 103.34 C 272.27 104.73 272.91 107.11 272.83 109.23 C 272.54 110.22 272.65 111.16 273.17 112.05 C 273.37 112.52 273.76 113.45 273.95 113.92 L 274.36 114.92 C 273.03 115.73 272.86 116.75 273.84 117.99 C 271.46 121.35 269.34 124.91 266.60 128.01 C 264.14 130.28 260.66 130.94 257.42 131.02 C 256.42 131.03 255.42 131.11 254.44 131.27 C 253.85 131.33 252.65 131.45 252.06 131.51 L 251.40 131.18 C 246.75 128.69 241.82 126.03 239.12 121.29 C 238.86 120.83 238.33 119.90 238.07 119.44 C 237.90 118.93 237.54 117.89 237.37 117.38 C 237.36 114.53 237.43 111.68 237.58 108.84 C 238.09 106.89 239.09 105.08 240.33 103.50 C 242.26 101.32 244.22 99.17 246.25 97.08 Z" />
</g>
<g id="#3c8341b1">
<path fill="#3c8341" opacity="0.69" d=" M 240.33 103.50 C 241.86 101.00 243.84 98.78 246.25 97.08 C 244.22 99.17 242.26 101.32 240.33 103.50 Z" />
</g>
<g id="#3f8a44ba">
<path fill="#3f8a44" opacity="0.73" d=" M 264.58 97.52 C 266.24 96.79 267.01 97.32 266.90 99.11 C 265.90 98.91 265.12 98.38 264.58 97.52 Z" />
</g>
<g id="#46984bcf">
<path fill="#46984b" opacity="0.81" d=" M 268.87 101.12 C 270.65 100.91 271.22 101.64 270.59 103.34 C 269.68 102.85 269.11 102.11 268.87 101.12 Z" />
</g>
<g id="#316c3592">
<path fill="#316c35" opacity="0.57" d=" M 237.37 117.38 C 237.26 114.53 237.32 111.68 237.58 108.84 C 237.43 111.68 237.36 114.53 237.37 117.38 Z" />
</g>
<g id="#3d8542b4">
<path fill="#3d8542" opacity="0.71" d=" M 272.83 109.23 C 274.46 109.95 274.57 110.89 273.17 112.05 C 272.65 111.16 272.54 110.22 272.83 109.23 Z" />
</g>
<g id="#cfc8c1fa">
<path fill="#cfc8c1" opacity="0.98" d=" M 273.95 113.92 C 295.17 123.33 315.35 134.87 336.12 145.20 C 331.92 149.10 328.88 154.23 328.63 160.05 C 307.98 149.32 287.00 139.23 266.60 128.01 C 269.34 124.91 271.46 121.35 273.84 117.99 C 274.73 117.06 274.90 116.04 274.36 114.92 L 273.95 113.92 Z" />
</g>
<g id="#7fc38cff">
<path fill="#7fc38c" opacity="1.00" d=" M 273.84 117.99 C 272.86 116.75 273.03 115.73 274.36 114.92 C 274.90 116.04 274.73 117.06 273.84 117.99 Z" />
</g>
<g id="#31413156">
<path fill="#314131" opacity="0.34" d=" M 238.07 119.44 C 238.33 119.90 238.86 120.83 239.12 121.29 C 238.60 121.40 237.56 121.62 237.04 121.74 C 236.27 120.45 236.61 119.68 238.07 119.44 Z" />
</g>
<g id="#d2cac5fd">
<path fill="#d2cac5" opacity="1.00" d=" M 237.04 121.74 C 237.56 121.62 238.60 121.40 239.12 121.29 C 241.82 126.03 246.75 128.69 251.40 131.18 C 250.97 131.51 250.11 132.18 249.67 132.52 C 248.77 133.02 248.21 133.78 247.98 134.79 C 247.71 135.32 247.15 136.38 246.87 136.92 C 245.92 137.24 245.20 137.84 244.72 138.72 C 243.78 139.16 243.19 139.88 242.93 140.88 C 242.64 141.41 242.06 142.47 241.77 143.00 C 240.80 143.28 240.03 143.84 239.46 144.67 C 238.48 145.26 238.07 146.10 238.22 147.17 L 238.34 148.62 C 237.33 148.23 236.45 148.49 235.71 149.38 C 234.79 149.90 234.23 150.67 234.01 151.69 C 233.72 152.25 233.16 153.37 232.87 153.92 C 231.93 154.24 231.21 154.84 230.72 155.72 C 229.78 156.16 229.19 156.88 228.93 157.88 C 228.64 158.41 228.06 159.47 227.77 160.00 C 226.80 160.28 226.03 160.84 225.46 161.67 C 224.48 162.26 224.07 163.10 224.21 164.17 L 224.32 165.64 C 223.30 165.28 222.42 165.54 221.67 166.44 C 220.74 166.92 220.10 167.66 219.74 168.64 C 218.78 169.06 218.13 169.76 217.78 170.75 C 217.49 171.22 216.92 172.17 216.64 172.64 C 215.65 173.60 214.75 174.65 214.01 175.82 L 213.45 176.57 C 212.57 177.06 211.92 177.76 211.50 178.67 C 210.52 179.25 210.09 180.08 210.23 181.16 L 210.33 182.62 C 209.32 182.23 208.45 182.48 207.71 183.38 C 206.79 183.90 206.23 184.67 206.01 185.69 C 205.72 186.25 205.16 187.37 204.87 187.92 C 203.93 188.25 203.21 188.84 202.72 189.72 C 201.78 190.16 201.19 190.89 200.93 191.88 C 200.65 192.40 200.08 193.42 199.80 193.94 C 198.86 194.29 198.16 194.91 197.68 195.79 C 196.76 196.28 196.18 197.03 195.93 198.04 L 195.56 198.87 C 194.53 199.74 193.55 200.66 192.62 201.62 C 191.60 202.17 191.15 202.98 191.26 204.07 L 191.33 205.60 C 190.32 205.22 189.45 205.48 188.71 206.38 C 187.79 206.89 187.23 207.66 187.01 208.69 C 186.71 209.27 186.12 210.42 185.83 211.00 C 184.85 211.25 184.08 211.78 183.50 212.61 C 182.53 213.15 182.08 213.96 182.15 215.02 C 182.15 216.46 182.13 217.91 182.10 219.35 C 179.22 213.48 174.69 208.21 168.58 205.62 L 169.58 205.31 C 170.76 205.05 171.24 204.32 171.03 203.13 L 170.91 201.53 C 171.95 201.85 172.80 201.51 173.44 200.53 C 174.44 199.57 175.29 198.47 175.99 197.27 L 176.50 196.51 C 177.33 195.95 177.90 195.20 178.20 194.25 C 179.15 193.84 179.77 193.14 180.05 192.14 C 180.35 191.61 180.95 190.54 181.25 190.01 C 182.20 189.71 182.97 189.15 183.53 188.31 C 184.52 187.75 184.96 186.93 184.87 185.86 L 184.82 184.44 C 185.87 184.80 186.73 184.49 187.40 183.52 C 188.44 182.58 189.30 181.47 190.00 180.26 L 190.54 179.47 C 191.37 178.91 191.93 178.15 192.24 177.20 C 193.18 176.73 193.78 176.00 194.05 175.00 L 194.44 174.18 C 195.39 173.29 196.30 172.35 197.17 171.37 C 198.11 170.93 198.72 170.21 199.00 169.21 C 199.31 168.66 199.93 167.56 200.24 167.00 C 201.20 166.71 201.97 166.16 202.54 165.33 C 203.51 164.73 203.93 163.90 203.78 162.83 L 203.66 161.38 C 204.67 161.76 205.54 161.51 206.29 160.62 C 207.20 160.10 207.77 159.33 207.99 158.31 C 208.28 157.75 208.84 156.63 209.13 156.08 C 210.07 155.75 210.79 155.15 211.28 154.28 C 212.21 153.83 212.81 153.11 213.07 152.12 C 213.36 151.59 213.94 150.53 214.23 150.00 C 215.19 149.71 215.96 149.15 216.53 148.32 C 217.51 147.75 217.96 146.93 217.86 145.86 L 217.82 144.44 C 218.86 144.80 219.72 144.50 220.40 143.52 C 221.43 142.58 222.29 141.48 222.99 140.27 L 223.51 139.51 C 224.33 138.95 224.90 138.20 225.20 137.25 C 226.15 136.84 226.77 136.14 227.06 135.14 C 227.35 134.61 227.95 133.54 228.24 133.01 C 229.20 132.71 229.96 132.14 230.53 131.31 C 231.51 130.75 231.97 129.94 231.90 128.87 L 231.89 127.42 C 232.93 127.80 233.81 127.51 234.51 126.56 C 235.54 125.63 236.62 124.58 236.74 123.11 L 237.04 121.74 Z" />
</g>
<g id="#b1a9a4d5">
<path fill="#b1a9a4" opacity="0.84" d=" M 234.51 126.56 C 233.41 125.21 235.02 122.39 236.74 123.11 C 236.62 124.58 235.54 125.63 234.51 126.56 Z" />
</g>
<g id="#2d2b2a37">
<path fill="#2d2b2a" opacity="0.22" d=" M 231.89 127.42 C 232.30 125.84 233.18 125.55 234.51 126.56 C 233.81 127.51 232.93 127.80 231.89 127.42 Z" />
</g>
<g id="#45170f58">
<path fill="#45170f" opacity="0.35" d=" M 411.73 127.78 C 417.93 127.41 424.15 127.61 430.38 127.55 L 429.67 127.58 C 428.48 127.61 427.29 127.65 426.11 127.72 C 421.30 127.80 416.52 127.65 411.73 127.78 Z" />
</g>
<g id="#35130b3e">
<path fill="#35130b" opacity="0.24" d=" M 430.38 127.55 C 442.30 127.09 454.29 126.68 466.18 128.05 C 454.01 127.79 441.84 127.79 429.67 127.58 L 430.38 127.55 Z" />
</g>
<g id="#b63828fe">
<path fill="#b63828" opacity="1.00" d=" M 394.95 138.95 C 397.98 132.62 404.79 128.36 411.73 127.78 C 416.52 127.65 421.30 127.80 426.11 127.72 C 419.90 131.15 412.36 135.66 411.62 143.45 C 410.14 177.84 411.10 212.31 411.37 246.73 C 410.55 325.15 411.21 403.57 411.00 481.99 C 405.35 482.09 399.71 482.27 394.08 482.52 C 393.75 447.23 394.46 411.94 393.58 376.65 C 394.10 329.36 394.64 282.02 393.27 234.73 C 392.86 209.82 392.95 184.90 392.89 159.98 C 393.17 152.96 392.76 145.72 394.95 138.95 Z" />
</g>
<g id="#e15232fe">
<path fill="#e15232" opacity="1.00" d=" M 426.11 127.72 C 427.29 127.65 428.48 127.61 429.67 127.58 C 441.84 127.79 454.01 127.79 466.18 128.05 C 469.45 128.47 472.56 129.63 475.68 130.66 C 475.65 132.05 476.31 132.92 477.69 133.26 C 478.10 134.88 479.34 136.61 481.25 136.23 C 482.23 138.48 483.28 140.71 484.38 142.91 C 484.26 143.61 484.03 145.02 483.92 145.73 C 484.32 168.93 483.60 192.15 484.49 215.36 C 483.76 236.68 483.79 258.03 484.49 279.36 C 483.76 300.68 483.80 322.03 484.49 343.35 C 483.88 361.32 483.70 379.31 484.64 397.27 C 484.98 412.08 485.06 426.90 485.45 441.72 C 485.19 455.13 484.97 468.55 484.99 481.98 C 483.30 482.03 479.93 482.13 478.24 482.18 C 456.16 482.12 434.08 481.88 412.00 481.98 C 412.02 414.98 411.95 347.99 412.05 281.00 C 412.04 269.57 411.91 258.14 411.37 246.73 C 411.10 212.31 410.14 177.84 411.62 143.45 C 412.36 135.66 419.90 131.15 426.11 127.72 Z" />
</g>
<g id="#b1aba5d6">
<path fill="#b1aba5" opacity="0.84" d=" M 230.53 131.31 C 229.76 129.77 230.22 128.96 231.90 128.87 C 231.97 129.94 231.51 130.75 230.53 131.31 Z" />
</g>
<g id="#3d3b3a4a">
<path fill="#3d3b3a" opacity="0.29" d=" M 228.24 133.01 C 228.04 131.19 228.80 130.62 230.53 131.31 C 229.96 132.14 229.20 132.71 228.24 133.01 Z" />
</g>
<g id="#201f1e27">
<path fill="#201f1e" opacity="0.15" d=" M 251.40 131.18 L 252.06 131.51 C 251.86 133.17 251.06 133.50 249.67 132.52 C 250.11 132.18 250.97 131.51 251.40 131.18 Z" />
</g>
<g id="#11261334">
<path fill="#112613" opacity="0.20" d=" M 254.44 131.27 C 255.42 131.11 256.42 131.03 257.42 131.02 C 258.16 133.00 254.01 133.35 254.44 131.27 Z" />
</g>
<g id="#993822af">
<path fill="#993822" opacity="0.69" d=" M 475.68 130.66 C 477.08 130.95 477.75 131.82 477.69 133.26 C 476.31 132.92 475.65 132.05 475.68 130.66 Z" />
</g>
<g id="#948e8ab3">
<path fill="#948e8a" opacity="0.70" d=" M 247.98 134.79 C 248.21 133.78 248.77 133.02 249.67 132.52 C 250.31 134.20 249.75 134.96 247.98 134.79 Z" />
</g>
<g id="#b24127cb">
<path fill="#b24127" opacity="0.80" d=" M 477.69 133.26 C 479.30 133.57 480.85 134.52 481.25 136.23 C 479.34 136.61 478.10 134.88 477.69 133.26 Z" />
</g>
<g id="#aba5a0ce">
<path fill="#aba5a0" opacity="0.81" d=" M 225.20 137.25 C 224.69 135.53 225.31 134.83 227.06 135.14 C 226.77 136.14 226.15 136.84 225.20 137.25 Z" />
</g>
<g id="#36343241">
<path fill="#363432" opacity="0.25" d=" M 223.51 139.51 C 222.80 137.80 223.36 137.04 225.20 137.25 C 224.90 138.20 224.33 138.95 223.51 139.51 Z" />
</g>
<g id="#2725232e">
<path fill="#272523" opacity="0.18" d=" M 244.72 138.72 C 245.20 137.84 245.92 137.24 246.87 136.92 C 247.17 138.72 246.46 139.32 244.72 138.72 Z" />
</g>
<g id="#9c9591bc">
<path fill="#9c9591" opacity="0.74" d=" M 242.93 140.88 C 243.19 139.88 243.78 139.16 244.72 138.72 C 245.28 140.42 244.69 141.14 242.93 140.88 Z" />
</g>
<g id="#b2aba6d6">
<path fill="#b2aba6" opacity="0.84" d=" M 220.40 143.52 C 219.12 142.03 221.25 139.23 222.99 140.27 C 222.29 141.48 221.43 142.58 220.40 143.52 Z" />
</g>
<g id="#472e104c">
<path fill="#472e10" opacity="0.30" d=" M 344.76 142.19 C 344.16 140.06 348.63 139.61 348.43 141.81 C 347.21 141.97 345.98 142.09 344.76 142.19 Z" />
</g>
<g id="#ed9c37fc">
<path fill="#ed9c37" opacity="1.00" d=" M 336.12 145.20 C 338.73 143.58 341.73 142.62 344.76 142.19 C 345.98 142.09 347.21 141.97 348.43 141.81 L 349.58 141.73 C 355.16 143.45 361.15 146.17 363.59 151.85 C 364.53 154.01 364.96 156.38 365.00 158.73 C 364.97 160.25 364.97 161.76 365.00 163.27 C 364.98 165.60 364.51 168.03 363.10 169.94 C 361.43 171.72 359.69 173.42 357.91 175.06 C 355.33 177.29 351.81 178.10 348.48 178.01 C 347.49 177.97 346.50 177.98 345.52 178.03 C 342.53 178.11 338.90 177.53 337.17 174.79 C 336.82 173.83 336.17 173.15 335.23 172.77 C 334.98 172.52 334.48 172.02 334.23 171.77 C 333.84 170.82 333.16 170.18 332.21 169.83 C 329.34 167.59 328.82 163.46 328.63 160.05 C 328.88 154.23 331.92 149.10 336.12 145.20 Z" />
</g>
<g id="#2f2d2b39">
<path fill="#2f2d2b" opacity="0.22" d=" M 217.82 144.44 C 218.20 142.84 219.06 142.54 220.40 143.52 C 219.72 144.50 218.86 144.80 217.82 144.44 Z" />
</g>
<g id="#2d2c2a36">
<path fill="#2d2c2a" opacity="0.21" d=" M 239.46 144.67 C 240.03 143.84 240.80 143.28 241.77 143.00 C 241.94 144.82 241.17 145.37 239.46 144.67 Z" />
</g>
<g id="#581f1465">
<path fill="#581f14" opacity="0.40" d=" M 484.38 142.91 C 485.30 143.98 485.38 145.08 484.61 146.22 L 483.92 145.73 C 484.03 145.02 484.26 143.61 484.38 142.91 Z" />
</g>
<g id="#a39d98c4">
<path fill="#a39d98" opacity="0.77" d=" M 238.22 147.17 C 238.07 146.10 238.48 145.26 239.46 144.67 C 240.29 146.16 239.88 146.99 238.22 147.17 Z" />
</g>
<g id="#b3aca7d8">
<path fill="#b3aca7" opacity="0.85" d=" M 216.53 148.32 C 215.74 146.80 216.19 145.98 217.86 145.86 C 217.96 146.93 217.51 147.75 216.53 148.32 Z" />
</g>
<g id="#a83c25bf">
<path fill="#a83c25" opacity="0.75" d=" M 483.92 145.73 L 484.61 146.22 C 485.32 169.02 485.15 191.84 484.51 214.64 L 484.49 215.36 C 483.60 192.15 484.32 168.93 483.92 145.73 Z" />
</g>
<g id="#3f3d3a4c">
<path fill="#3f3d3a" opacity="0.30" d=" M 214.23 150.00 C 214.04 148.18 214.81 147.62 216.53 148.32 C 215.96 149.15 215.19 149.71 214.23 150.00 Z" />
</g>
<g id="#1f1e1d26">
<path fill="#1f1e1d" opacity="0.15" d=" M 235.71 149.38 C 236.45 148.49 237.33 148.23 238.34 148.62 C 237.87 150.21 237.00 150.47 235.71 149.38 Z" />
</g>
<g id="#928d89b1">
<path fill="#928d89" opacity="0.69" d=" M 234.01 151.69 C 234.23 150.67 234.79 149.90 235.71 149.38 C 236.33 151.07 235.76 151.84 234.01 151.69 Z" />
</g>
<g id="#ada7a2d0">
<path fill="#ada7a2" opacity="0.82" d=" M 211.28 154.28 C 210.71 152.58 211.31 151.85 213.07 152.12 C 212.81 153.11 212.21 153.83 211.28 154.28 Z" />
</g>
<g id="#38353443">
<path fill="#383534" opacity="0.26" d=" M 209.13 156.08 C 208.82 154.27 209.54 153.67 211.28 154.28 C 210.79 155.15 210.07 155.75 209.13 156.08 Z" />
</g>
<g id="#2524232d">
<path fill="#252423" opacity="0.18" d=" M 230.72 155.72 C 231.21 154.84 231.93 154.24 232.87 153.92 C 233.17 155.73 232.45 156.32 230.72 155.72 Z" />
</g>
<g id="#15171b4a">
<path fill="#15171b" opacity="0.29" d=" M 69.87 157.11 C 69.94 154.84 75.05 154.84 75.13 157.11 C 73.81 157.11 71.18 157.11 69.87 157.11 Z" />
</g>
<g id="#9b9590ba">
<path fill="#9b9590" opacity="0.73" d=" M 228.93 157.88 C 229.19 156.88 229.78 156.16 230.72 155.72 C 231.28 157.42 230.69 158.14 228.93 157.88 Z" />
</g>
<g id="#49525efc">
<path fill="#49525e" opacity="1.00" d=" M 59.12 163.11 C 60.99 159.25 65.92 157.88 69.87 157.11 C 71.18 157.11 73.81 157.11 75.13 157.11 C 77.43 157.35 79.79 158.01 81.63 159.47 C 82.09 160.38 82.79 160.99 83.76 161.32 C 84.02 161.58 84.54 162.12 84.80 162.38 C 85.54 163.45 86.38 164.45 87.30 165.38 C 88.94 167.18 89.93 169.55 89.97 172.00 C 89.99 173.30 90.01 174.61 90.07 175.92 C 90.30 176.64 90.78 178.10 91.02 178.83 C 89.87 180.77 88.80 182.77 87.52 184.64 C 86.19 186.44 84.81 188.19 83.42 189.94 L 83.06 190.36 C 80.44 192.45 76.91 193.02 73.64 193.00 C 73.07 193.00 71.92 193.00 71.35 193.01 C 68.03 193.10 64.03 192.53 62.18 189.40 C 61.70 188.33 60.92 187.90 59.83 188.10 L 58.71 188.25 L 58.91 187.13 C 59.17 186.05 58.78 185.25 57.73 184.73 C 55.88 183.66 54.64 181.86 54.99 179.64 C 55.08 178.46 54.91 177.28 54.57 176.15 C 54.53 175.62 54.44 174.57 54.39 174.04 C 55.00 173.20 55.23 172.28 55.08 171.27 C 55.19 169.15 55.70 166.75 57.42 165.34 C 58.32 164.85 58.88 164.11 59.12 163.11 Z" />
</g>
<g id="#a7a09cc9">
<path fill="#a7a09c" opacity="0.79" d=" M 206.29 160.62 C 205.66 158.93 206.23 158.16 207.99 158.31 C 207.77 159.33 207.20 160.10 206.29 160.62 Z" />
</g>
<g id="#6b461973">
<path fill="#6b4619" opacity="0.45" d=" M 365.00 158.73 C 367.20 158.66 367.21 163.34 365.00 163.27 C 364.97 161.76 364.97 160.25 365.00 158.73 Z" />
</g>
<g id="#31373faa">
<path fill="#31373f" opacity="0.67" d=" M 81.63 159.47 C 83.36 158.91 84.07 159.53 83.76 161.32 C 82.79 160.99 82.09 160.38 81.63 159.47 Z" />
</g>
<g id="#312f2e3b">
<path fill="#312f2e" opacity="0.23" d=" M 203.66 161.38 C 204.12 159.78 205.00 159.53 206.29 160.62 C 205.54 161.51 204.67 161.76 203.66 161.38 Z" />
</g>
<g id="#2c2b2835">
<path fill="#2c2b28" opacity="0.21" d=" M 225.46 161.67 C 226.03 160.84 226.80 160.28 227.77 160.00 C 227.94 161.82 227.17 162.37 225.46 161.67 Z" />
</g>
<g id="#3a414bca">
<path fill="#3a414b" opacity="0.79" d=" M 84.80 162.38 C 86.48 161.05 88.87 163.95 87.30 165.38 C 86.38 164.45 85.54 163.45 84.80 162.38 Z" />
</g>
<g id="#a29c97c3">
<path fill="#a29c97" opacity="0.76" d=" M 224.21 164.17 C 224.07 163.10 224.48 162.26 225.46 161.67 C 226.29 163.16 225.87 163.99 224.21 164.17 Z" />
</g>
<g id="#3f4751da">
<path fill="#3f4751" opacity="0.85" d=" M 57.42 165.34 C 56.77 163.65 57.34 162.91 59.12 163.11 C 58.88 164.11 58.32 164.85 57.42 165.34 Z" />
</g>
<g id="#b4aea8d9">
<path fill="#b4aea8" opacity="0.85" d=" M 202.54 165.33 C 201.71 163.84 202.12 163.01 203.78 162.83 C 203.93 163.90 203.51 164.73 202.54 165.33 Z" />
</g>
<g id="#413f3d4e">
<path fill="#413f3d" opacity="0.31" d=" M 200.24 167.00 C 200.05 165.18 200.82 164.62 202.54 165.33 C 201.97 166.16 201.20 166.71 200.24 167.00 Z" />
</g>
<g id="#1f1d1c25">
<path fill="#1f1d1c" opacity="0.15" d=" M 221.67 166.44 C 222.42 165.54 223.30 165.28 224.32 165.64 C 223.87 167.24 222.99 167.50 221.67 166.44 Z" />
</g>
<g id="#928c88b0">
<path fill="#928c88" opacity="0.69" d=" M 219.74 168.64 C 220.10 167.66 220.74 166.92 221.67 166.44 C 222.16 168.18 221.51 168.91 219.74 168.64 Z" />
<path fill="#928c88" opacity="0.69" d=" M 391.00 509.98 C 408.22 509.91 425.44 509.96 442.65 510.42 L 443.37 510.44 C 425.91 510.98 408.46 511.13 391.00 511.02 L 391.00 509.98 Z" />
</g>
<g id="#afa8a3d2">
<path fill="#afa8a3" opacity="0.82" d=" M 197.17 171.37 C 196.64 169.65 197.25 168.93 199.00 169.21 C 198.72 170.21 198.11 170.93 197.17 171.37 Z" />
</g>
<g id="#bbb4aee2">
<path fill="#bbb4ae" opacity="0.89" d=" M 217.78 170.75 C 218.13 169.76 218.78 169.06 219.74 168.64 C 219.43 169.24 218.81 170.43 218.51 171.03 L 217.78 170.75 Z" />
</g>
<g id="#ca852fd7">
<path fill="#ca852f" opacity="0.84" d=" M 332.21 169.83 C 333.16 170.18 333.84 170.82 334.23 171.77 C 332.49 172.23 331.81 171.58 332.21 169.83 Z" />
</g>
<g id="#53361358">
<path fill="#533613" opacity="0.35" d=" M 357.91 175.06 C 359.69 173.42 361.43 171.72 363.10 169.94 C 361.57 171.85 359.84 173.57 357.91 175.06 Z" />
</g>
<g id="#373d47bd">
<path fill="#373d47" opacity="0.74" d=" M 54.39 174.04 C 53.14 172.71 53.37 171.78 55.08 171.27 C 55.23 172.28 55.00 173.20 54.39 174.04 Z" />
</g>
<g id="#393c4295">
<path fill="#393c42" opacity="0.58" d=" M 89.97 172.00 C 91.72 171.67 92.47 175.12 91.13 176.07 L 90.64 175.91 L 90.07 175.92 C 90.01 174.61 89.99 173.30 89.97 172.00 Z" />
</g>
<g id="#2b292833">
<path fill="#2b2928" opacity="0.20" d=" M 194.44 174.18 C 192.92 172.62 195.56 169.92 197.17 171.37 C 196.30 172.35 195.39 173.29 194.44 174.18 Z" />
</g>
<g id="#2423222c">
<path fill="#242322" opacity="0.17" d=" M 217.78 170.75 L 218.51 171.03 C 218.83 172.71 218.21 173.24 216.64 172.64 C 216.92 172.17 217.49 171.22 217.78 170.75 Z" />
</g>
<g id="#a9a29ecb">
<path fill="#a9a29e" opacity="0.80" d=" M 214.01 175.82 C 214.75 174.65 215.65 173.60 216.64 172.64 C 217.97 174.14 215.73 176.95 214.01 175.82 Z" />
</g>
<g id="#ce8730db">
<path fill="#ce8730" opacity="0.86" d=" M 335.23 172.77 C 336.17 173.15 336.82 173.83 337.17 174.79 C 335.41 175.18 334.77 174.50 335.23 172.77 Z" />
</g>
<g id="#a8a19dcb">
<path fill="#a8a19d" opacity="0.80" d=" M 192.24 177.20 C 191.69 175.49 192.29 174.76 194.05 175.00 C 193.78 176.00 193.18 176.73 192.24 177.20 Z" />
</g>
<g id="#2d333a9f">
<path fill="#2d333a" opacity="0.62" d=" M 54.57 176.15 C 54.91 177.28 55.08 178.46 54.99 179.64 C 53.09 179.83 52.86 176.58 54.57 176.15 Z" />
</g>
<g id="#919194ff">
<path fill="#919194" opacity="1.00" d=" M 90.07 175.92 L 90.64 175.91 C 91.68 176.76 91.81 177.74 91.02 178.83 C 90.78 178.10 90.30 176.64 90.07 175.92 Z" />
<path fill="#919194" opacity="1.00" d=" M 44.71 482.49 C 69.22 481.68 93.76 481.72 118.27 482.49 L 117.58 482.52 C 93.53 483.27 69.46 483.28 45.41 482.51 L 44.71 482.49 Z" />
</g>
<g id="#32302f3d">
<path fill="#32302f" opacity="0.24" d=" M 190.54 179.47 C 189.84 177.75 190.41 176.99 192.24 177.20 C 191.93 178.15 191.37 178.91 190.54 179.47 Z" />
</g>
<g id="#2b292834">
<path fill="#2b2928" opacity="0.20" d=" M 211.50 178.67 C 211.92 177.76 212.57 177.06 213.45 176.57 C 213.97 178.35 213.32 179.05 211.50 178.67 Z" />
</g>
<g id="#31200b35">
<path fill="#31200b" opacity="0.21" d=" M 345.52 178.03 C 346.50 177.98 347.49 177.97 348.48 178.01 C 349.10 180.08 344.90 180.10 345.52 178.03 Z" />
</g>
<g id="#a19b96c2">
<path fill="#a19b96" opacity="0.76" d=" M 210.23 181.16 C 210.09 180.08 210.52 179.25 211.50 178.67 C 212.31 180.16 211.89 180.99 210.23 181.16 Z" />
</g>
<g id="#afa8a3d3">
<path fill="#afa8a3" opacity="0.83" d=" M 187.40 183.52 C 186.14 182.02 188.26 179.23 190.00 180.26 C 189.30 181.47 188.44 182.58 187.40 183.52 Z" />
</g>
<g id="#1d1c1b24">
<path fill="#1d1c1b" opacity="0.14" d=" M 207.71 183.38 C 208.45 182.48 209.32 182.23 210.33 182.62 C 209.87 184.21 209.00 184.46 207.71 183.38 Z" />
</g>
<g id="#2b2a2835">
<path fill="#2b2a28" opacity="0.21" d=" M 184.82 184.44 C 185.20 182.84 186.06 182.54 187.40 183.52 C 186.73 184.49 185.87 184.80 184.82 184.44 Z" />
</g>
<g id="#918c87ae">
<path fill="#918c87" opacity="0.68" d=" M 206.01 185.69 C 206.23 184.67 206.79 183.90 207.71 183.38 C 208.33 185.07 207.76 185.84 206.01 185.69 Z" />
</g>
<g id="#393f48c4">
<path fill="#393f48" opacity="0.77" d=" M 57.73 184.73 C 58.78 185.25 59.17 186.05 58.91 187.13 C 57.27 186.95 56.88 186.15 57.73 184.73 Z" />
</g>
<g id="#7f8186ff">
<path fill="#7f8186" opacity="1.00" d=" M 83.42 189.94 C 84.81 188.19 86.19 186.44 87.52 184.64 C 86.27 186.49 84.87 188.24 83.42 189.94 Z" />
</g>
<g id="#b0a9a5d4">
<path fill="#b0a9a5" opacity="0.83" d=" M 183.53 188.31 C 182.75 186.79 183.19 185.97 184.87 185.86 C 184.96 186.93 184.52 187.75 183.53 188.31 Z" />
</g>
<g id="#39404ac9">
<path fill="#39404a" opacity="0.79" d=" M 59.83 188.10 C 60.92 187.90 61.70 188.33 62.18 189.40 C 60.71 190.18 59.93 189.75 59.83 188.10 Z" />
</g>
<g id="#3b393748">
<path fill="#3b3937" opacity="0.28" d=" M 181.25 190.01 C 181.04 188.19 181.81 187.62 183.53 188.31 C 182.97 189.15 182.20 189.71 181.25 190.01 Z" />
</g>
<g id="#2422212b">
<path fill="#242221" opacity="0.17" d=" M 202.72 189.72 C 203.21 188.84 203.93 188.25 204.87 187.92 C 205.17 189.72 204.46 190.32 202.72 189.72 Z" />
</g>
<g id="#99928eb7">
<path fill="#99928e" opacity="0.72" d=" M 200.93 191.88 C 201.19 190.89 201.78 190.16 202.72 189.72 C 203.28 191.42 202.69 192.14 200.93 191.88 Z" />
</g>
<g id="#a9a39ecd">
<path fill="#a9a39e" opacity="0.80" d=" M 178.20 194.25 C 177.69 192.53 178.31 191.83 180.05 192.14 C 179.77 193.14 179.15 193.84 178.20 194.25 Z" />
</g>
<g id="#0f101234">
<path fill="#0f1012" opacity="0.20" d=" M 71.35 193.01 C 71.92 193.00 73.07 193.00 73.64 193.00 C 74.40 194.88 70.60 194.90 71.35 193.01 Z" />
</g>
<g id="#3432303f">
<path fill="#343230" opacity="0.25" d=" M 176.50 196.51 C 175.80 194.79 176.37 194.04 178.20 194.25 C 177.90 195.20 177.33 195.95 176.50 196.51 Z" />
</g>
<g id="#2a282733">
<path fill="#2a2827" opacity="0.20" d=" M 197.68 195.79 C 198.16 194.91 198.86 194.29 199.80 193.94 C 200.14 195.74 199.43 196.35 197.68 195.79 Z" />
</g>
<g id="#a09994c1">
<path fill="#a09994" opacity="0.76" d=" M 195.93 198.04 C 196.18 197.03 196.76 196.28 197.68 195.79 C 198.28 197.48 197.70 198.23 195.93 198.04 Z" />
</g>
<g id="#b0aaa5d4">
<path fill="#b0aaa5" opacity="0.83" d=" M 173.44 200.53 C 172.12 199.05 174.24 196.21 175.99 197.27 C 175.29 198.47 174.44 199.57 173.44 200.53 Z" />
</g>
<g id="#2322212b">
<path fill="#232221" opacity="0.17" d=" M 192.62 201.62 C 193.55 200.66 194.53 199.74 195.56 198.87 C 196.95 200.53 194.19 203.02 192.62 201.62 Z" />
</g>
<g id="#2e2b2a37">
<path fill="#2e2b2a" opacity="0.22" d=" M 170.91 201.53 C 171.21 199.91 172.06 199.58 173.44 200.53 C 172.80 201.51 171.95 201.85 170.91 201.53 Z" />
</g>
<g id="#a7a09bc9">
<path fill="#a7a09b" opacity="0.79" d=" M 191.26 204.07 C 191.15 202.98 191.60 202.17 192.62 201.62 C 193.37 203.14 192.91 203.96 191.26 204.07 Z" />
</g>
<g id="#b1aaa5d6">
<path fill="#b1aaa5" opacity="0.84" d=" M 169.58 205.31 C 168.97 203.84 169.45 203.11 171.03 203.13 C 171.24 204.32 170.76 205.05 169.58 205.31 Z" />
</g>
<g id="#141f3438">
<path fill="#141f34" opacity="0.22" d=" M 161.82 206.22 C 161.53 204.01 166.19 203.57 166.30 205.77 C 164.81 205.95 163.31 206.09 161.82 206.22 Z" />
</g>
<g id="#2321202a">
<path fill="#232120" opacity="0.16" d=" M 188.71 206.38 C 189.45 205.48 190.32 205.22 191.33 205.60 C 190.88 207.20 190.00 207.46 188.71 206.38 Z" />
</g>
<g id="#5c8ceafc">
<path fill="#5c8cea" opacity="1.00" d=" M 152.99 209.19 C 155.69 207.60 158.73 206.64 161.82 206.22 C 163.31 206.09 164.81 205.95 166.30 205.77 C 166.87 205.73 168.01 205.66 168.58 205.62 C 174.69 208.21 179.22 213.48 182.10 219.35 C 182.10 219.94 182.11 221.11 182.12 221.70 C 182.03 223.22 181.99 224.74 181.98 226.27 C 181.87 228.90 181.47 231.64 180.14 233.97 C 178.49 235.78 176.77 237.51 174.97 239.17 C 172.32 241.30 168.82 242.09 165.47 242.01 C 164.49 241.97 163.50 241.97 162.52 242.02 C 159.00 242.21 155.48 240.91 152.93 238.50 C 151.80 237.34 150.66 236.20 149.51 235.07 C 147.16 232.51 145.65 229.06 145.87 225.54 C 146.71 219.55 148.72 213.61 152.99 209.19 Z" />
</g>
<g id="#97918cb6">
<path fill="#97918c" opacity="0.71" d=" M 187.01 208.69 C 187.23 207.66 187.79 206.89 188.71 206.38 C 189.33 208.06 188.76 208.83 187.01 208.69 Z" />
</g>
<g id="#29272632">
<path fill="#292726" opacity="0.20" d=" M 183.50 212.61 C 184.08 211.78 184.85 211.25 185.83 211.00 C 185.97 212.82 185.19 213.35 183.50 212.61 Z" />
</g>
<g id="#9f9994bf">
<path fill="#9f9994" opacity="0.75" d=" M 182.15 215.02 C 182.08 213.96 182.53 213.15 183.50 212.61 C 184.30 214.13 183.85 214.94 182.15 215.02 Z" />
</g>
<g id="#b84229d1">
<path fill="#b84229" opacity="0.82" d=" M 484.49 215.36 L 484.51 214.64 C 485.21 235.97 485.23 257.32 484.51 278.64 L 484.49 279.36 C 483.79 258.03 483.76 236.68 484.49 215.36 Z" />
</g>
<g id="#1a284348">
<path fill="#1a2843" opacity="0.28" d=" M 182.12 221.70 C 184.30 221.71 184.16 226.37 181.98 226.27 C 181.99 224.74 182.03 223.22 182.12 221.70 Z" />
</g>
<g id="#397e3ebd">
<path fill="#397e3e" opacity="0.74" d=" M 227.74 221.85 C 233.36 221.51 238.99 221.52 244.62 221.47 L 245.36 221.49 C 244.56 221.52 242.95 221.58 242.15 221.61 C 237.34 221.75 232.54 221.67 227.74 221.85 Z" />
</g>
<g id="#2f67338d">
<path fill="#2f6733" opacity="0.55" d=" M 244.62 221.47 C 257.33 220.98 270.06 220.91 282.78 221.44 L 283.24 222.15 C 270.61 221.72 257.98 221.94 245.36 221.49 L 244.62 221.47 Z" />
</g>
<g id="#17331946">
<path fill="#173319" opacity="0.27" d=" M 282.78 221.44 C 283.95 220.69 285.04 220.83 286.06 221.85 C 285.35 221.93 283.94 222.08 283.24 222.15 L 282.78 221.44 Z" />
</g>
<g id="#49a250fe">
<path fill="#49a250" opacity="1.00" d=" M 218.10 225.07 C 220.85 222.97 224.34 222.11 227.74 221.85 C 232.54 221.67 237.34 221.75 242.15 221.61 C 234.74 225.76 227.27 232.77 228.17 242.02 C 227.70 322.00 228.16 402.01 228.00 482.00 C 221.99 481.98 216.00 481.99 210.00 482.00 C 209.78 438.39 210.44 394.77 209.67 351.17 C 209.79 350.47 210.03 349.06 210.15 348.35 C 209.77 337.00 209.86 325.63 209.61 314.28 C 209.87 301.40 209.86 288.52 209.43 275.65 C 209.87 264.03 209.63 252.39 209.88 240.77 C 210.19 237.08 211.18 233.35 213.23 230.23 C 214.78 228.44 216.41 226.72 218.10 225.07 Z" />
</g>
<g id="#56bc5dfe">
<path fill="#56bc5d" opacity="1.00" d=" M 242.15 221.61 C 242.95 221.58 244.56 221.52 245.36 221.49 C 257.98 221.94 270.61 221.72 283.24 222.15 C 283.94 222.08 285.35 221.93 286.06 221.85 C 287.99 222.57 289.94 223.27 291.93 223.82 C 291.97 225.45 292.79 226.07 294.40 225.68 C 293.65 228.04 295.40 230.35 297.88 230.27 C 299.10 232.54 300.37 234.80 301.73 237.01 C 301.52 237.65 301.10 238.93 300.89 239.57 C 300.98 255.18 301.05 270.79 301.49 286.40 C 300.79 306.93 300.95 327.47 301.01 348.01 C 300.97 371.13 300.77 394.24 301.51 417.35 C 300.82 439.07 300.99 460.80 300.92 482.53 C 276.62 481.51 252.31 482.15 228.00 482.00 C 228.16 402.01 227.70 322.00 228.17 242.02 C 227.27 232.77 234.74 225.76 242.15 221.61 Z" />
</g>
<g id="#1b3a1d4f">
<path fill="#1b3a1d" opacity="0.31" d=" M 291.93 223.82 C 293.10 223.96 293.93 224.57 294.40 225.68 C 292.79 226.07 291.97 225.45 291.93 223.82 Z" />
</g>
<g id="#2552287d">
<path fill="#255228" opacity="0.49" d=" M 213.23 230.23 C 214.57 228.27 216.23 226.53 218.10 225.07 C 216.41 226.72 214.78 228.44 213.23 230.23 Z" />
</g>
<g id="#4aa150da">
<path fill="#4aa150" opacity="0.85" d=" M 294.40 225.68 C 295.78 227.02 297.09 228.48 297.88 230.27 C 295.40 230.35 293.65 228.04 294.40 225.68 Z" />
</g>
<g id="#10192a2d">
<path fill="#10192a" opacity="0.18" d=" M 174.97 239.17 C 176.77 237.51 178.49 235.78 180.14 233.97 C 178.72 235.98 176.97 237.74 174.97 239.17 Z" />
</g>
<g id="#0c132023">
<path fill="#0c1320" opacity="0.14" d=" M 149.51 235.07 C 150.66 236.20 151.80 237.34 152.93 238.50 C 151.00 240.10 147.90 237.00 149.51 235.07 Z" />
</g>
<g id="#b63c27f3">
<path fill="#b63c27" opacity="0.95" d=" M 393.27 234.73 C 394.64 282.02 394.10 329.36 393.58 376.65 L 393.56 377.37 C 392.43 346.31 393.36 315.24 392.91 284.17 C 392.81 267.69 393.15 251.21 393.27 234.73 Z" />
</g>
<g id="#152e173f">
<path fill="#152e17" opacity="0.25" d=" M 301.73 237.01 C 302.46 238.08 302.37 239.12 301.48 240.13 L 300.89 239.57 C 301.10 238.93 301.52 237.65 301.73 237.01 Z" />
</g>
<g id="#2f68338e">
<path fill="#2f6833" opacity="0.56" d=" M 300.89 239.57 L 301.48 240.13 C 302.15 254.43 302.31 268.77 301.68 283.09 C 301.64 283.74 301.56 285.05 301.52 285.70 L 301.49 286.40 C 301.05 270.79 300.98 255.18 300.89 239.57 Z" />
</g>
<g id="#0a190b24">
<path fill="#0a190b" opacity="0.14" d=" M 209.42 276.38 C 209.01 264.51 208.89 252.61 209.88 240.77 C 209.63 252.39 209.87 264.03 209.43 275.65 L 209.42 276.38 Z" />
</g>
<g id="#1622393d">
<path fill="#162239" opacity="0.24" d=" M 162.52 242.02 C 163.50 241.97 164.49 241.97 165.47 242.01 C 166.10 244.08 161.90 244.09 162.52 242.02 Z" />
</g>
<g id="#d64b30ff">
<path fill="#d64b30" opacity="1.00" d=" M 411.37 246.73 C 411.91 258.14 412.04 269.57 412.05 281.00 C 411.95 347.99 412.02 414.98 412.00 481.98 L 411.00 481.99 C 411.21 403.57 410.55 325.15 411.37 246.73 Z" />
</g>
<g id="#aa6625bd">
<path fill="#aa6625" opacity="0.74" d=" M 319.73 268.79 C 325.59 268.50 331.47 268.55 337.35 268.49 L 336.64 268.51 C 335.43 268.53 334.23 268.55 333.03 268.58 C 328.58 268.66 324.15 268.62 319.73 268.79 Z" />
</g>
<g id="#83561e8c">
<path fill="#83561e" opacity="0.55" d=" M 337.35 268.49 C 349.98 268.01 362.65 267.69 375.27 268.79 C 362.39 268.77 349.51 268.82 336.64 268.51 L 337.35 268.49 Z" />
</g>
<g id="#df8030fe">
<path fill="#df8030" opacity="1.00" d=" M 301.68 283.09 C 305.00 275.97 311.48 269.19 319.73 268.79 C 324.15 268.62 328.58 268.66 333.03 268.58 C 327.45 273.17 320.24 277.77 319.90 285.79 C 319.03 295.83 318.92 305.92 318.91 316.00 C 319.09 371.33 318.96 426.67 319.00 482.00 C 313.23 482.11 307.48 482.32 301.73 482.56 C 302.20 460.59 302.19 438.60 301.52 416.64 C 302.23 393.76 302.01 370.87 302.00 347.99 C 302.11 327.22 302.03 306.46 301.52 285.70 C 301.56 285.05 301.64 283.74 301.68 283.09 Z" />
</g>
<g id="#f09d38fe">
<path fill="#f09d38" opacity="1.00" d=" M 333.03 268.58 C 334.23 268.55 335.43 268.53 336.64 268.51 C 349.51 268.82 362.39 268.77 375.27 268.79 C 378.65 269.18 381.89 270.47 384.88 272.05 C 386.57 273.71 388.18 275.45 389.72 277.25 C 391.13 279.38 392.08 281.77 392.91 284.17 C 393.36 315.24 392.43 346.31 393.56 377.37 C 392.58 412.42 392.93 447.50 393.23 482.56 C 368.83 481.58 344.41 482.07 320.00 481.98 C 319.98 416.59 320.06 351.18 319.90 285.79 C 320.24 277.77 327.45 273.17 333.03 268.58 Z" />
</g>
<g id="#714a1a79">
<path fill="#714a1a" opacity="0.47" d=" M 384.88 272.05 C 386.77 273.50 388.39 275.27 389.72 277.25 C 388.18 275.45 386.57 273.71 384.88 272.05 Z" />
</g>
<g id="#050c0512">
<path fill="#050c05" opacity="0.07" d=" M 209.42 276.38 L 209.43 275.65 C 209.86 288.52 209.87 301.40 209.61 314.28 C 209.10 301.65 209.06 289.01 209.42 276.38 Z" />
</g>
<g id="#c6482ce2">
<path fill="#c6482c" opacity="0.89" d=" M 484.49 279.36 L 484.51 278.64 C 485.21 299.97 485.24 321.31 484.51 342.64 L 484.49 343.35 C 483.80 322.03 483.76 300.68 484.49 279.36 Z" />
</g>
<g id="#2e3640c1">
<path fill="#2e3640" opacity="0.76" d=" M 43.78 284.01 C 49.83 283.34 55.91 283.14 61.98 282.93 L 61.99 283.88 C 61.27 283.90 59.82 283.92 59.10 283.93 C 53.99 283.98 48.89 283.78 43.78 284.01 Z" />
</g>
<g id="#292f3694">
<path fill="#292f36" opacity="0.58" d=" M 61.98 282.93 C 74.65 282.85 87.33 283.28 100.00 283.04 L 100.08 283.89 C 87.39 283.73 74.69 283.93 61.99 283.88 L 61.98 282.93 Z" />
</g>
<g id="#14171a47">
<path fill="#14171a" opacity="0.28" d=" M 100.00 283.04 C 101.23 282.63 102.24 282.96 103.02 284.05 C 102.29 284.01 100.82 283.93 100.08 283.89 L 100.00 283.04 Z" />
</g>
<g id="#39434ffe">
<path fill="#39434f" opacity="1.00" d=" M 35.75 285.56 C 38.42 285.03 41.07 284.33 43.78 284.01 C 48.89 283.78 53.99 283.98 59.10 283.93 C 52.43 287.37 45.27 292.60 44.92 300.79 C 44.18 309.17 43.97 317.58 43.93 326.00 C 43.99 378.15 44.11 430.30 43.90 482.46 C 38.20 482.29 32.50 482.25 26.80 482.27 C 27.12 467.73 26.91 453.19 26.47 438.66 C 27.01 424.98 27.03 411.30 26.51 397.63 C 27.09 382.30 27.12 366.96 26.51 351.63 C 27.15 335.02 26.76 318.40 26.94 301.79 C 27.26 298.36 28.48 295.10 29.79 291.94 C 31.17 292.13 32.06 291.60 32.46 290.34 C 32.78 289.40 33.11 288.46 33.43 287.53 C 34.96 287.75 35.73 287.10 35.75 285.56 Z" />
</g>
<g id="#4a525efe">
<path fill="#4a525e" opacity="1.00" d=" M 59.10 283.93 C 59.82 283.92 61.27 283.90 61.99 283.88 C 74.69 283.93 87.39 283.73 100.08 283.89 C 100.82 283.93 102.29 284.01 103.02 284.05 C 105.01 284.67 107.00 285.29 108.99 285.88 C 108.95 287.53 110.12 289.04 111.80 289.22 C 111.89 290.95 113.43 292.25 115.15 292.09 C 116.33 295.25 117.62 298.41 118.15 301.76 C 118.12 317.96 118.01 334.16 118.53 350.35 C 117.53 394.39 117.95 438.45 118.27 482.49 C 93.76 481.72 69.22 481.68 44.71 482.49 C 45.37 421.93 44.86 361.35 44.92 300.79 C 45.27 292.60 52.43 287.37 59.10 283.93 Z" />
</g>
<g id="#13161a4e">
<path fill="#13161a" opacity="0.31" d=" M 33.43 287.53 C 33.71 286.29 34.48 285.64 35.75 285.56 C 35.73 287.10 34.96 287.75 33.43 287.53 Z" />
</g>
<g id="#23272d79">
<path fill="#23272d" opacity="0.47" d=" M 108.99 285.88 C 110.67 286.06 111.90 287.54 111.80 289.22 C 110.12 289.04 108.95 287.53 108.99 285.88 Z" />
</g>
<g id="#748433d8">
<path fill="#748433" opacity="0.85" d=" M 301.49 286.40 L 301.52 285.70 C 302.03 306.46 302.11 327.22 302.00 347.99 L 301.01 348.01 C 300.95 327.47 300.79 306.93 301.49 286.40 Z" />
</g>
<g id="#e58a33ff">
<path fill="#e58a33" opacity="1.00" d=" M 318.91 316.00 C 318.92 305.92 319.03 295.83 319.90 285.79 C 320.06 351.18 319.98 416.59 320.00 481.98 L 319.00 482.00 C 318.96 426.67 319.09 371.33 318.91 316.00 Z" />
</g>
<g id="#373e47c1">
<path fill="#373e47" opacity="0.76" d=" M 111.80 289.22 C 113.46 289.25 114.82 290.48 115.15 292.09 C 113.43 292.25 111.89 290.95 111.80 289.22 Z" />
</g>
<g id="#2e363fc4">
<path fill="#2e363f" opacity="0.77" d=" M 29.79 291.94 C 30.19 290.51 31.08 289.98 32.46 290.34 C 32.06 291.60 31.17 292.13 29.79 291.94 Z" />
</g>
<g id="#3c4753ff">
<path fill="#3c4753" opacity="1.00" d=" M 43.93 326.00 C 43.97 317.58 44.18 309.17 44.92 300.79 C 44.86 361.35 45.37 421.93 44.71 482.49 L 43.90 482.46 C 44.11 430.30 43.99 378.15 43.93 326.00 Z" />
</g>
<g id="#1c202570">
<path fill="#1c2025" opacity="0.44" d=" M 26.49 352.37 C 25.95 335.51 25.32 318.61 26.94 301.79 C 26.76 318.40 27.15 335.02 26.51 351.63 L 26.49 352.37 Z" />
</g>
<g id="#1b1f2560">
<path fill="#1b1f25" opacity="0.38" d=" M 118.15 301.76 C 119.69 316.48 119.20 331.34 118.76 346.10 C 118.67 347.28 118.60 348.47 118.56 349.67 L 118.53 350.35 C 118.01 334.16 118.12 317.96 118.15 301.76 Z" />
</g>
<g id="#36769bad">
<path fill="#36769b" opacity="0.68" d=" M 136.72 332.82 C 142.59 332.51 148.48 332.56 154.36 332.50 L 153.67 332.52 C 152.49 332.55 151.30 332.60 150.12 332.68 C 145.65 332.78 141.19 332.69 136.72 332.82 Z" />
</g>
<g id="#2a5b767c">
<path fill="#2a5b76" opacity="0.49" d=" M 154.36 332.50 C 166.49 332.07 178.64 331.98 190.77 332.44 L 191.26 333.14 C 178.73 332.80 166.20 332.69 153.67 332.52 L 154.36 332.50 Z" />
</g>
<g id="#18354448">
<path fill="#183544" opacity="0.28" d=" M 190.77 332.44 C 191.92 331.66 193.02 331.76 194.08 332.71 C 193.37 332.82 191.96 333.03 191.26 333.14 L 190.77 332.44 Z" />
</g>
<g id="#4aa4dcfe">
<path fill="#4aa4dc" opacity="1.00" d=" M 118.76 346.10 C 122.15 339.12 128.71 333.23 136.72 332.82 C 141.19 332.69 145.65 332.78 150.12 332.68 C 143.95 336.07 137.87 341.41 136.84 348.77 C 134.81 393.28 136.66 437.88 135.91 482.43 C 130.31 482.26 124.71 482.27 119.11 482.46 C 118.69 438.20 119.49 393.92 118.56 349.67 C 118.60 348.47 118.67 347.28 118.76 346.10 Z" />
</g>
<g id="#59bcf4fe">
<path fill="#59bcf4" opacity="1.00" d=" M 150.12 332.68 C 151.30 332.60 152.49 332.55 153.67 332.52 C 166.20 332.69 178.73 332.80 191.26 333.14 C 191.96 333.03 193.37 332.82 194.08 332.71 C 196.68 333.87 199.32 334.95 202.01 335.90 C 202.39 338.01 204.04 339.62 206.16 339.95 C 207.19 342.61 208.33 345.23 209.50 347.84 C 208.68 348.96 208.74 350.07 209.67 351.17 C 210.44 394.77 209.78 438.39 210.00 482.00 C 185.57 482.10 161.14 481.61 136.72 482.46 C 137.33 437.90 136.91 393.33 136.84 348.77 C 137.87 341.41 143.95 336.07 150.12 332.68 Z" />
</g>
<g id="#0e1d2628">
<path fill="#0e1d26" opacity="0.16" d=" M 202.01 335.90 C 204.12 336.28 205.72 337.85 206.16 339.95 C 204.04 339.62 202.39 338.01 202.01 335.90 Z" />
</g>
<g id="#d44d2ff1">
<path fill="#d44d2f" opacity="0.95" d=" M 484.49 343.35 L 484.51 342.64 C 485.11 360.84 485.07 379.06 484.64 397.27 C 483.70 379.31 483.88 361.32 484.49 343.35 Z" />
</g>
<g id="#428cb5be">
<path fill="#428cb5" opacity="0.75" d=" M 209.50 347.84 L 210.15 348.35 C 210.03 349.06 209.79 350.47 209.67 351.17 C 208.74 350.07 208.68 348.96 209.50 347.84 Z" />
</g>
<g id="#658a38d9">
<path fill="#658a38" opacity="0.85" d=" M 301.01 348.01 L 302.00 347.99 C 302.01 370.87 302.23 393.76 301.52 416.64 L 301.51 417.35 C 300.77 394.24 300.97 371.13 301.01 348.01 Z" />
</g>
<g id="#53b2eaff">
<path fill="#53b2ea" opacity="1.00" d=" M 135.91 482.43 C 136.66 437.88 134.81 393.28 136.84 348.77 C 136.91 393.33 137.33 437.90 136.72 482.46 L 135.91 482.43 Z" />
</g>
<g id="#3d82a9e0">
<path fill="#3d82a9" opacity="0.88" d=" M 118.53 350.35 L 118.56 349.67 C 119.49 393.92 118.69 438.20 119.11 482.46 L 118.27 482.49 C 117.95 438.45 117.53 394.39 118.53 350.35 Z" />
</g>
<g id="#171a205e">
<path fill="#171a20" opacity="0.37" d=" M 26.49 352.37 L 26.51 351.63 C 27.12 366.96 27.09 382.30 26.51 397.63 L 26.49 398.37 C 25.89 383.04 25.92 367.69 26.49 352.37 Z" />
</g>
<g id="#b34326e8">
<path fill="#b34326" opacity="0.91" d=" M 393.56 377.37 L 393.58 376.65 C 394.46 411.94 393.75 447.23 394.08 482.52 L 393.23 482.56 C 392.93 447.50 392.58 412.42 393.56 377.37 Z" />
</g>
<g id="#1215194b">
<path fill="#121519" opacity="0.29" d=" M 26.49 398.37 L 26.51 397.63 C 27.03 411.30 27.01 424.98 26.47 438.66 L 26.45 439.38 C 25.97 425.71 26.00 412.03 26.49 398.37 Z" />
</g>
<g id="#57923fdc">
<path fill="#57923f" opacity="0.86" d=" M 301.51 417.35 L 301.52 416.64 C 302.19 438.60 302.20 460.59 301.73 482.56 L 300.92 482.53 C 300.99 460.80 300.82 439.07 301.51 417.35 Z" />
</g>
<g id="#0e0f1238">
<path fill="#0e0f12" opacity="0.22" d=" M 26.45 439.38 L 26.47 438.66 C 26.91 453.19 27.12 467.73 26.80 482.27 L 25.95 482.24 C 25.66 467.95 26.10 453.66 26.45 439.38 Z" />
</g>
<g id="#58545274">
<path fill="#585452" opacity="0.45" d=" M 11.89 483.10 C 16.53 482.38 21.26 482.39 25.95 482.24 L 26.80 482.27 L 27.39 482.29 C 22.22 482.56 17.04 482.62 11.89 483.10 Z" />
</g>
<g id="#7f8185ff">
<path fill="#7f8185" opacity="1.00" d=" M 26.80 482.27 C 32.50 482.25 38.20 482.29 43.90 482.46 L 44.71 482.49 L 45.41 482.51 C 39.40 482.48 33.39 482.48 27.39 482.29 L 26.80 482.27 Z" />
</g>
<g id="#89b9cdfe">
<path fill="#89b9cd" opacity="1.00" d=" M 118.27 482.49 L 119.11 482.46 C 124.71 482.27 130.31 482.26 135.91 482.43 L 136.72 482.46 L 137.42 482.48 C 130.80 482.53 124.19 482.55 117.58 482.52 L 118.27 482.49 Z" />
</g>
<g id="#9cc5d6ff">
<path fill="#9cc5d6" opacity="1.00" d=" M 136.72 482.46 C 161.14 481.61 185.57 482.10 210.00 482.00 L 210.00 483.00 C 185.81 482.94 161.61 483.35 137.42 482.48 L 136.72 482.46 Z" />
</g>
<g id="#a1c5a4fe">
<path fill="#a1c5a4" opacity="1.00" d=" M 210.00 482.00 C 216.00 481.99 221.99 481.98 228.00 482.00 C 252.31 482.15 276.62 481.51 300.92 482.53 L 301.73 482.56 L 302.41 482.59 C 271.61 483.29 240.80 482.92 210.00 483.00 L 210.00 482.00 Z" />
</g>
<g id="#d8c1a1fe">
<path fill="#d8c1a1" opacity="1.00" d=" M 301.73 482.56 C 307.48 482.32 313.23 482.11 319.00 482.00 L 320.00 481.98 C 344.41 482.07 368.83 481.58 393.23 482.56 L 392.54 482.58 C 362.50 483.19 332.45 483.32 302.41 482.59 L 301.73 482.56 Z" />
</g>
<g id="#d3bdb4fe">
<path fill="#d3bdb4" opacity="1.00" d=" M 393.23 482.56 L 394.08 482.52 C 399.71 482.27 405.35 482.09 411.00 481.99 L 412.00 481.98 C 434.08 481.88 456.16 482.12 478.24 482.18 C 449.69 483.56 421.10 483.16 392.54 482.58 L 393.23 482.56 Z" />
</g>
<g id="#d3cbc5fe">
<path fill="#d3cbc5" opacity="1.00" d=" M 478.24 482.18 C 479.93 482.13 483.30 482.03 484.99 481.98 L 486.02 481.96 C 492.00 482.29 498.36 481.58 503.97 484.09 C 508.80 485.69 510.19 491.00 512.00 495.21 L 512.00 500.28 C 511.44 501.57 510.85 502.85 510.26 504.13 C 507.98 504.13 506.08 505.80 506.05 508.12 C 504.37 509.01 502.71 509.93 501.06 510.87 C 500.42 510.65 499.14 510.21 498.50 509.99 C 479.88 510.02 461.26 509.92 442.65 510.42 C 425.44 509.96 408.22 509.91 391.00 509.98 C 373.67 510.00 356.33 510.01 339.00 509.97 C 322.88 509.88 306.77 510.05 290.66 510.53 C 275.65 509.92 260.64 509.95 245.64 510.49 C 228.98 509.85 212.30 509.88 195.64 510.50 C 178.69 509.87 161.71 509.84 144.76 510.70 C 129.41 510.85 114.04 510.79 98.73 511.95 C 84.91 510.83 71.04 510.88 57.22 511.97 C 47.44 511.49 37.66 510.97 27.86 511.14 C 23.34 507.05 16.87 503.13 18.03 495.97 C 17.89 489.86 23.19 485.85 27.39 482.29 C 33.39 482.48 39.40 482.48 45.41 482.51 C 69.46 483.28 93.53 483.27 117.58 482.52 C 124.19 482.55 130.80 482.53 137.42 482.48 C 161.61 483.35 185.81 482.94 210.00 483.00 C 240.80 482.92 271.61 483.29 302.41 482.59 C 332.45 483.32 362.50 483.19 392.54 482.58 C 421.10 483.16 449.69 483.56 478.24 482.18 Z" />
</g>
<g id="#c0b8b3fc">
<path fill="#c0b8b3" opacity="1.00" d=" M 5.84 484.70 C 7.84 484.09 9.83 483.45 11.89 483.10 C 17.04 482.62 22.22 482.56 27.39 482.29 C 23.19 485.85 17.89 489.86 18.03 495.97 C 16.87 503.13 23.34 507.05 27.86 511.14 C 23.17 511.26 18.49 511.60 13.79 511.75 C 11.08 511.12 8.44 510.23 5.82 509.31 C 5.46 507.17 3.81 505.53 1.67 505.21 C 1.09 503.60 0.51 501.99 0.00 500.37 L 0.00 496.43 C 0.57 493.87 1.22 491.42 1.86 488.92 C 3.89 488.37 5.42 486.75 5.84 484.70 Z" />
</g>
<g id="#2e2c2a3c">
<path fill="#2e2c2a" opacity="0.24" d=" M 1.86 488.92 C 2.08 486.76 3.69 485.02 5.84 484.70 C 5.42 486.75 3.89 488.37 1.86 488.92 Z" />
</g>
<g id="#7d787596">
<path fill="#7d7875" opacity="0.59" d=" M 506.05 508.12 C 506.08 505.80 507.98 504.13 510.26 504.13 C 509.59 506.09 507.86 507.32 506.05 508.12 Z" />
</g>
<g id="#1312121a">
<path fill="#131212" opacity="0.10" d=" M 1.67 505.21 C 3.81 505.53 5.46 507.17 5.82 509.31 C 3.73 508.88 2.13 507.28 1.67 505.21 Z" />
</g>
<g id="#c7bfb9f0">
<path fill="#c7bfb9" opacity="0.94" d=" M 144.76 510.70 C 161.71 509.84 178.69 509.87 195.64 510.50 L 196.37 510.52 C 179.17 511.10 161.96 511.09 144.76 510.70 Z" />
</g>
<g id="#bcb5afe3">
<path fill="#bcb5af" opacity="0.89" d=" M 195.64 510.50 C 212.30 509.88 228.98 509.85 245.64 510.49 L 246.36 510.51 C 229.70 511.10 213.03 511.14 196.37 510.52 L 195.64 510.50 Z" />
</g>
<g id="#b3ada7d8">
<path fill="#b3ada7" opacity="0.85" d=" M 245.64 510.49 C 260.64 509.95 275.65 509.92 290.66 510.53 L 291.37 510.55 C 276.37 511.04 261.36 511.07 246.36 510.51 L 245.64 510.49 Z" />
</g>
<g id="#a9a39ecc">
<path fill="#a9a39e" opacity="0.80" d=" M 290.66 510.53 C 306.77 510.05 322.88 509.88 339.00 509.97 L 339.00 511.02 C 323.12 511.08 307.24 511.00 291.37 510.55 L 290.66 510.53 Z" />
</g>
<g id="#9e9893bf">
<path fill="#9e9893" opacity="0.75" d=" M 339.00 509.97 C 356.33 510.01 373.67 510.00 391.00 509.98 L 391.00 511.02 C 373.66 510.98 356.33 510.99 339.00 511.02 L 339.00 509.97 Z" />
</g>
<g id="#847f7b9f">
<path fill="#847f7b" opacity="0.62" d=" M 442.65 510.42 C 461.26 509.92 479.88 510.02 498.50 509.99 L 497.94 510.56 C 479.75 511.41 461.54 511.02 443.37 510.44 L 442.65 510.42 Z" />
</g>
<g id="#5854526a">
<path fill="#585452" opacity="0.42" d=" M 498.50 509.99 C 499.14 510.21 500.42 510.65 501.06 510.87 C 499.96 511.56 498.92 511.46 497.94 510.56 L 498.50 509.99 Z" />
</g>
<g id="#1413121a">
<path fill="#141312" opacity="0.10" d=" M 13.79 511.75 C 18.49 511.60 23.17 511.26 27.86 511.14 C 37.66 510.97 47.44 511.49 57.22 511.97 L 56.34 512.00 L 14.88 512.00 L 13.79 511.75 Z" />
</g>
<g id="#0909080c">
<path fill="#090908" opacity="0.05" d=" M 57.22 511.97 C 71.04 510.88 84.91 510.83 98.73 511.95 L 99.67 512.00 L 56.34 512.00 L 57.22 511.97 Z" />
</g>
</svg>
