<?xml version="1.0" encoding="UTF-8" ?>
<!DOCTYPE svg PUBLIC "-//W3C//DTD SVG 1.1//EN" "http://www.w3.org/Graphics/SVG/1.1/DTD/svg11.dtd">
<svg width="512pt" height="512pt" viewBox="0 0 512 512" version="1.1" xmlns="http://www.w3.org/2000/svg">
<g id="#514570ff">
<path fill="#514570" opacity="1.00" d=" M 255.25 0.00 L 255.65 0.00 C 255.81 2.33 255.97 4.67 256.04 7.01 C 256.12 35.45 255.91 63.89 256.14 92.32 C 250.40 92.73 245.96 96.80 241.03 99.31 C 241.06 83.63 240.99 67.95 241.07 52.27 C 235.90 56.34 228.24 57.28 222.71 53.38 C 215.26 48.76 213.82 37.28 219.89 30.96 C 228.19 22.23 236.59 13.61 244.93 4.92 C 247.57 1.97 251.35 0.36 255.25 0.00 Z" />
<path fill="#514570" opacity="1.00" d=" M 116.64 260.89 C 130.43 253.75 144.30 246.75 158.14 239.70 C 158.35 245.25 157.66 250.88 158.54 256.39 C 160.08 262.17 166.51 263.88 170.96 266.83 C 157.37 273.72 143.86 280.75 130.21 287.52 C 132.86 289.15 135.70 290.83 137.29 293.63 C 141.03 299.32 140.17 307.53 135.20 312.23 C 131.12 316.48 124.57 317.57 119.12 315.62 C 107.89 312.16 96.63 308.82 85.42 305.32 C 77.93 303.01 73.37 294.15 75.89 286.71 C 79.66 275.49 83.63 264.33 87.44 253.13 C 88.69 249.24 91.29 245.73 94.96 243.85 C 101.20 240.39 109.70 242.27 113.89 248.04 C 116.80 251.65 117.22 256.46 116.64 260.89 Z" />
</g>
<g id="#3f3557ff">
<path fill="#3f3557" opacity="1.00" d=" M 255.65 0.00 L 258.94 0.00 C 262.05 0.88 265.03 2.35 267.25 4.75 C 275.50 13.20 283.60 21.80 291.82 30.29 C 294.88 33.37 296.46 37.73 296.04 42.06 C 295.85 49.76 288.66 56.32 281.01 56.04 C 277.32 56.30 274.05 54.41 271.03 52.54 C 271.10 68.24 271.10 83.94 271.03 99.64 C 266.49 97.19 262.23 94.14 257.33 92.42 C 257.03 92.39 256.43 92.35 256.14 92.32 C 255.91 63.89 256.12 35.45 256.04 7.01 C 255.97 4.67 255.81 2.33 255.65 0.00 Z" />
<path fill="#3f3557" opacity="1.00" d=" M 353.93 239.64 C 367.73 246.78 381.65 253.68 395.42 260.88 C 395.14 257.43 394.91 253.76 396.63 250.60 C 399.58 244.13 407.50 240.56 414.31 242.71 C 418.99 244.05 422.80 247.81 424.35 252.41 C 427.95 262.63 431.39 272.90 435.01 283.11 C 436.13 286.27 437.27 289.61 436.72 293.01 C 436.02 298.90 431.56 304.03 425.86 305.61 C 414.81 309.00 403.75 312.35 392.70 315.70 C 388.88 316.92 384.59 316.92 380.95 315.12 C 374.38 312.12 370.78 303.99 373.14 297.12 C 374.38 292.72 377.97 289.60 381.87 287.52 C 368.27 280.69 354.76 273.69 341.17 266.84 C 345.56 263.95 351.76 262.20 353.45 256.64 C 354.47 251.04 353.70 245.30 353.93 239.64 Z" />
</g>
<g id="#f5c15aff">
<path fill="#f5c15a" opacity="1.00" d=" M 241.03 99.31 C 245.96 96.80 250.40 92.73 256.14 92.32 C 256.43 92.35 257.03 92.39 257.33 92.42 C 256.47 94.15 255.81 95.99 255.95 97.97 C 256.10 124.97 255.99 151.98 256.02 178.98 C 255.92 187.26 256.49 195.57 255.41 203.81 C 249.43 199.58 242.95 196.14 236.64 192.44 C 210.94 177.49 185.06 162.83 159.44 147.74 C 160.72 146.22 162.20 144.85 163.93 143.87 C 189.65 129.04 215.33 114.15 241.03 99.31 Z" />
<path fill="#f5c15a" opacity="1.00" d=" M 334.39 158.44 C 340.55 154.93 346.51 151.02 353.05 148.22 C 354.28 152.38 353.90 156.74 353.93 161.02 C 353.92 187.23 353.92 213.43 353.93 239.64 C 353.70 245.30 354.47 251.04 353.45 256.64 C 351.76 262.20 345.56 263.95 341.17 266.84 C 325.77 275.71 310.39 284.62 294.99 293.50 C 285.19 299.22 275.34 304.84 265.53 310.53 C 262.36 312.36 259.20 314.19 256.02 315.99 C 255.99 278.77 255.92 241.55 256.00 204.33 C 263.98 198.59 272.78 194.18 281.18 189.14 C 298.91 178.89 316.65 168.68 334.39 158.44 Z" />
</g>
<g id="#f2a354ff">
<path fill="#f2a354" opacity="1.00" d=" M 255.95 97.97 C 255.81 95.99 256.47 94.15 257.33 92.42 C 262.23 94.14 266.49 97.19 271.03 99.64 C 296.79 114.34 322.57 129.02 348.33 143.73 C 350.29 144.76 351.84 146.39 353.05 148.22 C 346.51 151.02 340.55 154.93 334.39 158.44 C 316.65 168.68 298.91 178.89 281.18 189.14 C 272.78 194.18 263.98 198.59 256.00 204.33 C 255.86 204.20 255.56 203.94 255.41 203.81 C 256.49 195.57 255.92 187.26 256.02 178.98 C 255.99 151.98 256.10 124.97 255.95 97.97 Z" />
</g>
<g id="#fae060ff">
<path fill="#fae060" opacity="1.00" d=" M 159.44 147.74 C 185.06 162.83 210.94 177.49 236.64 192.44 C 242.95 196.14 249.43 199.58 255.41 203.81 C 255.56 203.94 255.86 204.20 256.00 204.33 C 255.92 241.55 255.99 278.77 256.02 315.99 C 252.90 314.16 249.77 312.34 246.63 310.53 C 236.57 304.72 226.47 298.94 216.43 293.09 C 201.29 284.31 186.11 275.59 170.96 266.83 C 166.51 263.88 160.08 262.17 158.54 256.39 C 157.66 250.88 158.35 245.25 158.14 239.70 C 158.15 211.11 158.15 182.52 158.14 153.93 C 158.09 151.79 158.64 149.70 159.44 147.74 Z" />
</g>
<g id="#7789f7ff">
<path fill="#7789f7" opacity="1.00" d=" M 216.43 293.09 C 226.47 298.94 236.57 304.72 246.63 310.53 C 239.59 314.66 232.41 318.54 225.34 322.61 C 235.45 328.63 245.73 334.37 256.01 340.11 C 256.10 332.07 256.04 324.03 256.02 315.99 C 259.20 314.19 262.36 312.36 265.53 310.53 C 272.40 314.62 279.39 318.53 286.11 322.87 C 276.29 329.24 265.77 334.45 256.05 340.95 C 256.07 352.15 255.74 363.36 256.24 374.55 C 266.21 380.69 276.66 386.05 286.39 392.57 C 276.45 398.69 266.14 404.20 256.16 410.26 C 255.84 421.46 255.98 432.67 256.10 443.88 C 266.28 450.38 277.08 455.83 287.28 462.30 C 277.12 468.67 266.29 473.90 256.11 480.23 C 255.85 490.82 256.05 501.41 256.10 512.00 L 255.50 512.00 C 250.74 511.40 246.84 508.49 242.79 506.21 C 186.18 473.52 129.58 440.82 72.97 408.15 C 68.85 405.74 64.04 403.64 61.81 399.12 C 57.86 392.15 60.76 382.43 67.93 378.83 C 117.43 350.25 166.93 321.66 216.43 293.09 M 165.31 357.28 C 174.74 363.13 184.50 368.42 194.04 374.08 C 195.69 375.47 197.49 373.66 199.02 372.99 C 207.74 367.69 216.83 363.00 225.39 357.45 C 215.31 351.63 205.32 345.64 195.10 340.05 C 185.17 345.79 175.20 351.45 165.31 357.28 M 105.16 392.03 C 114.84 397.70 124.55 403.33 134.30 408.88 C 135.56 409.86 136.90 408.75 138.04 408.19 C 147.08 402.84 156.25 397.71 165.30 392.37 C 155.46 386.13 145.23 380.51 135.11 374.75 C 125.08 380.43 115.10 386.20 105.16 392.03 M 225.70 392.24 C 235.77 398.24 245.98 403.99 256.13 409.83 C 255.92 398.22 256.15 386.60 256.00 374.98 C 245.86 380.67 235.74 386.39 225.70 392.24 M 193.65 410.65 C 184.51 416.02 175.26 421.21 166.12 426.59 C 166.48 427.90 167.97 428.30 168.97 429.02 C 178.03 434.05 186.91 439.41 195.95 444.46 C 205.96 438.77 215.96 433.06 225.85 427.16 C 217.11 421.83 208.11 416.93 199.33 411.68 C 197.59 410.75 195.53 408.97 193.65 410.65 M 226.02 461.85 C 236.00 467.81 245.99 473.75 256.03 479.61 C 256.04 467.94 256.09 456.27 256.00 444.60 C 245.95 450.25 235.97 456.02 226.02 461.85 Z" />
<path fill="#7789f7" opacity="1.00" d=" M 285.85 357.62 C 295.64 351.58 305.67 345.91 315.72 340.30 C 325.86 345.94 335.85 351.85 345.90 357.64 C 336.18 363.80 326.10 369.42 316.05 375.02 C 305.89 369.39 295.85 363.53 285.85 357.62 Z" />
<path fill="#7789f7" opacity="1.00" d=" M 346.15 392.53 C 356.01 386.59 366.06 380.95 376.04 375.21 C 386.33 380.91 396.61 386.69 406.58 392.93 C 396.95 399.02 386.96 404.58 377.01 410.13 C 366.54 404.60 356.45 398.37 346.15 392.53 Z" />
<path fill="#7789f7" opacity="1.00" d=" M 286.35 427.13 C 296.13 421.20 306.04 415.48 316.04 409.93 C 326.32 415.52 336.39 421.49 346.46 427.43 C 344.36 429.07 342.14 430.57 339.78 431.83 C 332.10 436.05 324.67 440.70 316.97 444.87 C 306.63 439.20 296.40 433.30 286.35 427.13 Z" />
</g>
<g id="#6666f6ff">
<path fill="#6666f6" opacity="1.00" d=" M 265.53 310.53 C 275.34 304.84 285.19 299.22 294.99 293.50 C 344.02 321.57 392.84 350.00 441.81 378.17 C 444.69 379.81 447.71 381.56 449.54 384.43 C 453.54 390.21 452.77 398.78 447.69 403.68 C 444.85 406.31 441.28 407.91 438.00 409.90 C 383.43 441.38 328.90 472.92 274.33 504.40 C 269.53 507.02 265.03 510.30 259.78 512.00 L 256.10 512.00 C 256.05 501.41 255.85 490.82 256.11 480.23 C 266.29 473.90 277.12 468.67 287.28 462.30 C 277.08 455.83 266.28 450.38 256.10 443.88 C 255.98 432.67 255.84 421.46 256.16 410.26 C 266.14 404.20 276.45 398.69 286.39 392.57 C 276.66 386.05 266.21 380.69 256.24 374.55 C 255.74 363.36 256.07 352.15 256.05 340.95 C 265.77 334.45 276.29 329.24 286.11 322.87 C 279.39 318.53 272.40 314.62 265.53 310.53 M 285.85 357.62 C 295.85 363.53 305.89 369.39 316.05 375.02 C 326.10 369.42 336.18 363.80 345.90 357.64 C 335.85 351.85 325.86 345.94 315.72 340.30 C 305.67 345.91 295.64 351.58 285.85 357.62 M 346.15 392.53 C 356.45 398.37 366.54 404.60 377.01 410.13 C 386.96 404.58 396.95 399.02 406.58 392.93 C 396.61 386.69 386.33 380.91 376.04 375.21 C 366.06 380.95 356.01 386.59 346.15 392.53 M 286.35 427.13 C 296.40 433.30 306.63 439.20 316.97 444.87 C 324.67 440.70 332.10 436.05 339.78 431.83 C 342.14 430.57 344.36 429.07 346.46 427.43 C 336.39 421.49 326.32 415.52 316.04 409.93 C 306.04 415.48 296.13 421.20 286.35 427.13 Z" />
</g>
<g id="#a0bafaff">
<path fill="#a0bafa" opacity="1.00" d=" M 246.63 310.53 C 249.77 312.34 252.90 314.16 256.02 315.99 C 256.04 324.03 256.10 332.07 256.01 340.11 C 245.73 334.37 235.45 328.63 225.34 322.61 C 232.41 318.54 239.59 314.66 246.63 310.53 Z" />
<path fill="#a0bafa" opacity="1.00" d=" M 165.31 357.28 C 175.20 351.45 185.17 345.79 195.10 340.05 C 205.32 345.64 215.31 351.63 225.39 357.45 C 216.83 363.00 207.74 367.69 199.02 372.99 C 197.49 373.66 195.69 375.47 194.04 374.08 C 184.50 368.42 174.74 363.13 165.31 357.28 Z" />
<path fill="#a0bafa" opacity="1.00" d=" M 105.16 392.03 C 115.10 386.20 125.08 380.43 135.11 374.75 C 145.23 380.51 155.46 386.13 165.30 392.37 C 156.25 397.71 147.08 402.84 138.04 408.19 C 136.90 408.75 135.56 409.86 134.30 408.88 C 124.55 403.33 114.84 397.70 105.16 392.03 Z" />
<path fill="#a0bafa" opacity="1.00" d=" M 225.70 392.24 C 235.74 386.39 245.86 380.67 256.00 374.98 C 256.15 386.60 255.92 398.22 256.13 409.83 C 245.98 403.99 235.77 398.24 225.70 392.24 Z" />
<path fill="#a0bafa" opacity="1.00" d=" M 193.65 410.65 C 195.53 408.97 197.59 410.75 199.33 411.68 C 208.11 416.93 217.11 421.83 225.85 427.16 C 215.96 433.06 205.96 438.77 195.95 444.46 C 186.91 439.41 178.03 434.05 168.97 429.02 C 167.97 428.30 166.48 427.90 166.12 426.59 C 175.26 421.21 184.51 416.02 193.65 410.65 Z" />
<path fill="#a0bafa" opacity="1.00" d=" M 226.02 461.85 C 235.97 456.02 245.95 450.25 256.00 444.60 C 256.09 456.27 256.04 467.94 256.03 479.61 C 245.99 473.75 236.00 467.81 226.02 461.85 Z" />
</g>
</svg>
