<?xml version="1.0" encoding="UTF-8" ?>
<!DOCTYPE svg PUBLIC "-//W3C//DTD SVG 1.1//EN" "http://www.w3.org/Graphics/SVG/1.1/DTD/svg11.dtd">
<svg width="512pt" height="512pt" viewBox="0 0 512 512" version="1.1" xmlns="http://www.w3.org/2000/svg">
<g id="#2e46bfff">
<path fill="#2e46bf" opacity="1.00" d=" M 83.87 84.09 C 92.79 71.71 107.73 63.96 123.01 64.01 C 211.68 63.99 300.35 63.99 389.01 64.01 C 404.29 63.95 419.22 71.70 428.12 84.08 C 380.41 84.41 332.70 84.10 284.99 84.21 C 217.95 84.12 150.91 84.37 83.87 84.09 Z" />
</g>
<g id="#2437acff">
<path fill="#2437ac" opacity="1.00" d=" M 83.87 84.09 C 150.91 84.37 217.95 84.12 284.99 84.21 C 332.70 84.10 380.41 84.41 428.12 84.08 C 433.63 91.68 436.81 100.90 437.24 110.28 C 430.78 107.77 423.90 106.40 416.97 106.44 C 310.65 106.42 204.33 106.44 98.00 106.43 C 90.02 106.31 82.02 107.77 74.72 111.04 C 75.02 101.41 78.20 91.89 83.87 84.09 Z" />
</g>
<g id="#4476e4ff">
<path fill="#4476e4" opacity="1.00" d=" M 74.72 111.04 C 82.02 107.77 90.02 106.31 98.00 106.43 C 204.33 106.44 310.65 106.42 416.97 106.44 C 423.90 106.40 430.78 107.77 437.24 110.28 C 443.87 112.96 449.86 117.13 454.85 122.24 C 449.98 123.53 444.93 123.15 439.96 123.11 C 317.65 123.08 195.34 123.15 73.02 123.09 C 68.17 123.22 63.29 123.27 58.47 122.55 C 63.11 117.75 68.60 113.74 74.72 111.04 Z" />
</g>
<g id="#3b6ae4ff">
<path fill="#3b6ae4" opacity="1.00" d=" M 454.85 122.24 C 464.59 132.26 469.82 146.32 469.33 160.26 C 459.73 153.20 447.96 149.14 436.01 149.31 C 316.00 149.31 195.99 149.32 75.98 149.30 C 64.69 149.20 53.45 152.75 44.21 159.23 C 44.11 145.77 49.13 132.31 58.47 122.55 C 63.29 123.27 68.17 123.22 73.02 123.09 C 195.34 123.15 317.65 123.08 439.96 123.11 C 444.93 123.15 449.98 123.53 454.85 122.24 Z" />
<path fill="#3b6ae4" opacity="1.00" d=" M 21.34 397.02 C 177.77 397.13 334.22 396.97 490.66 397.10 C 490.72 404.07 490.80 411.15 488.98 417.94 C 485.45 432.15 475.81 444.70 463.00 451.78 C 454.53 456.64 444.70 458.80 434.98 458.66 C 319.32 458.66 203.67 458.66 88.02 458.66 C 81.00 458.54 73.93 459.06 66.96 457.97 C 48.72 455.26 32.42 442.46 25.48 425.37 C 21.58 416.46 21.05 406.61 21.34 397.02 Z" />
</g>
<g id="#578ce4ff">
<path fill="#578ce4" opacity="1.00" d=" M 44.21 159.23 C 53.45 152.75 64.69 149.20 75.98 149.30 C 195.99 149.32 316.00 149.31 436.01 149.31 C 447.96 149.14 459.73 153.20 469.33 160.26 C 481.63 169.70 489.71 184.51 490.51 200.04 C 490.83 208.32 490.57 216.61 490.66 224.89 C 411.10 224.97 331.56 224.95 252.01 224.92 C 248.77 224.76 245.54 225.07 242.40 225.82 C 236.20 222.47 230.30 218.04 223.13 217.08 C 213.20 215.28 202.71 218.71 195.45 225.63 C 189.69 224.48 183.81 224.97 177.99 224.93 C 125.77 224.92 73.55 224.86 21.34 224.95 C 21.75 213.03 20.12 200.85 23.23 189.19 C 26.44 177.16 34.02 166.38 44.21 159.23 Z" />
</g>
<g id="#fbfcfcff">
<path fill="#fbfcfc" opacity="1.00" d=" M 195.45 225.63 C 202.71 218.71 213.20 215.28 223.13 217.08 C 230.30 218.04 236.20 222.47 242.40 225.82 C 271.46 242.61 300.54 259.39 329.59 276.22 C 327.10 276.71 324.57 277.11 322.03 277.12 C 276.58 276.97 231.14 277.13 185.69 277.03 C 185.78 266.60 185.52 256.16 185.81 245.73 C 186.66 238.19 189.96 230.93 195.45 225.63 Z" />
</g>
<g id="#4f83e4ff">
<path fill="#4f83e4" opacity="1.00" d=" M 21.34 224.95 C 73.55 224.86 125.77 224.92 177.99 224.93 C 183.81 224.97 189.69 224.48 195.45 225.63 C 189.96 230.93 186.66 238.19 185.81 245.73 C 184.06 255.39 185.34 265.29 184.92 275.06 C 130.39 275.05 75.86 274.91 21.34 275.05 C 21.34 258.35 21.32 241.65 21.34 224.95 Z" />
</g>
<g id="#4e82e4ff">
<path fill="#4e82e4" opacity="1.00" d=" M 242.40 225.82 C 245.54 225.07 248.77 224.76 252.01 224.92 C 331.56 224.95 411.10 224.97 490.66 224.89 C 490.67 251.24 490.65 277.59 490.65 303.93 C 442.35 303.87 394.04 303.88 345.73 303.92 C 345.69 292.68 339.40 281.75 329.59 276.22 C 300.54 259.39 271.46 242.61 242.40 225.82 Z" />
</g>
<g id="#4172e4ff">
<path fill="#4172e4" opacity="1.00" d=" M 184.92 275.06 C 185.34 265.29 184.06 255.39 185.81 245.73 C 185.52 256.16 185.78 266.60 185.69 277.03 C 185.69 301.68 185.74 326.32 185.74 350.96 C 185.59 358.90 185.42 367.30 189.48 374.43 C 195.00 385.11 206.99 392.02 219.00 391.39 C 224.79 391.19 230.38 389.22 235.31 386.25 C 255.36 374.63 275.46 363.11 295.50 351.49 C 302.53 347.44 309.53 343.37 316.57 339.35 C 318.70 339.67 320.84 339.96 323.01 340.04 C 378.89 340.08 434.77 340.01 490.66 340.06 C 490.67 359.08 490.65 378.09 490.66 397.10 C 334.22 396.97 177.77 397.13 21.34 397.02 C 21.34 375.71 21.32 354.39 21.34 333.08 C 67.55 332.98 113.77 333.11 159.99 333.07 C 168.23 332.90 176.50 333.47 184.72 332.75 C 184.90 313.52 184.98 294.29 184.92 275.06 Z" />
</g>
<g id="#497ce4ff">
<path fill="#497ce4" opacity="1.00" d=" M 21.34 275.05 C 75.86 274.91 130.39 275.05 184.92 275.06 C 184.98 294.29 184.90 313.52 184.72 332.75 C 176.50 333.47 168.23 332.90 159.99 333.07 C 113.77 333.11 67.55 332.98 21.34 333.08 C 21.34 313.73 21.32 294.39 21.34 275.05 Z" />
</g>
<g id="#f4f6f7ff">
<path fill="#f4f6f7" opacity="1.00" d=" M 329.59 276.22 C 339.40 281.75 345.69 292.68 345.73 303.92 C 345.74 314.17 340.59 324.30 332.11 330.11 C 327.11 333.48 321.72 336.22 316.57 339.35 C 309.53 343.37 302.53 347.44 295.50 351.49 C 291.03 350.91 286.53 350.80 282.03 350.92 C 249.93 350.94 217.83 350.88 185.74 350.96 C 185.74 326.32 185.69 301.68 185.69 277.03 C 231.14 277.13 276.58 276.97 322.03 277.12 C 324.57 277.11 327.10 276.71 329.59 276.22 Z" />
</g>
<g id="#4779e4ff">
<path fill="#4779e4" opacity="1.00" d=" M 345.73 303.92 C 394.04 303.88 442.35 303.87 490.65 303.93 C 490.66 315.98 490.65 328.02 490.66 340.06 C 434.77 340.01 378.89 340.08 323.01 340.04 C 320.84 339.96 318.70 339.67 316.57 339.35 C 321.72 336.22 327.11 333.48 332.11 330.11 C 340.59 324.30 345.74 314.17 345.73 303.92 Z" />
</g>
<g id="#eef1f2ff">
<path fill="#eef1f2" opacity="1.00" d=" M 185.74 350.96 C 217.83 350.88 249.93 350.94 282.03 350.92 C 286.53 350.80 291.03 350.91 295.50 351.49 C 275.46 363.11 255.36 374.63 235.31 386.25 C 230.38 389.22 224.79 391.19 219.00 391.39 C 206.99 392.02 195.00 385.11 189.48 374.43 C 185.42 367.30 185.59 358.90 185.74 350.96 Z" />
</g>
</svg>
