<?xml version="1.0" encoding="UTF-8" ?>
<!DOCTYPE svg PUBLIC "-//W3C//DTD SVG 1.1//EN" "http://www.w3.org/Graphics/SVG/1.1/DTD/svg11.dtd">
<svg width="512pt" height="512pt" viewBox="0 0 512 512" version="1.1" xmlns="http://www.w3.org/2000/svg">
<g id="#7d767fff">
<path fill="#7d767f" opacity="1.00" d=" M 197.44 0.00 L 251.40 0.00 C 264.29 1.08 276.28 10.33 279.79 22.90 C 281.05 27.82 276.50 32.72 271.57 32.50 C 240.38 32.59 209.17 32.54 177.97 32.53 C 173.23 32.96 168.95 29.13 168.71 24.40 C 170.23 18.09 173.89 12.48 178.60 8.08 C 183.80 3.42 190.53 0.74 197.44 0.00 Z" />
<path fill="#7d767f" opacity="1.00" d=" M 432.21 155.17 C 436.56 152.98 442.41 155.53 443.59 160.30 C 450.75 185.19 457.83 210.10 464.95 235.00 C 466.17 239.50 468.85 245.04 465.16 249.10 C 461.29 254.12 452.44 252.16 451.09 245.97 C 443.43 219.49 435.95 192.96 428.32 166.47 C 426.64 162.38 427.94 157.04 432.21 155.17 Z" />
</g>
<g id="#d2d0d3ff">
<path fill="#d2d0d3" opacity="1.00" d=" M 51.06 9.61 C 57.54 7.70 64.37 8.16 71.04 8.11 C 106.89 8.09 142.75 8.16 178.60 8.08 C 173.89 12.48 170.23 18.09 168.71 24.40 C 133.13 24.43 97.54 24.40 61.96 24.41 C 54.55 24.33 47.26 27.90 42.72 33.75 C 34.73 43.43 36.24 59.12 45.91 67.12 C 51.75 72.55 60.04 73.66 67.70 73.09 C 66.24 78.57 64.66 84.02 63.05 89.46 C 48.48 89.82 34.05 81.91 26.81 69.22 C 20.56 58.71 19.54 45.30 24.07 33.94 C 28.60 22.20 38.92 12.90 51.06 9.61 Z" />
<path fill="#d2d0d3" opacity="1.00" d=" M 45.67 325.09 C 51.06 325.19 56.46 325.18 61.86 325.09 C 61.97 371.14 61.88 417.20 61.92 463.26 C 191.94 463.27 321.96 463.26 451.99 463.26 C 452.01 417.20 451.94 371.15 452.03 325.09 C 457.43 325.18 462.82 325.18 468.21 325.09 C 468.28 384.39 468.23 443.68 468.24 502.98 C 468.65 507.26 465.54 511.17 461.38 512.00 L 459.16 512.00 C 455.32 511.43 451.99 508.11 452.03 504.12 C 451.89 495.90 452.05 487.68 451.97 479.46 C 321.96 479.49 191.95 479.47 61.94 479.47 C 61.82 487.67 62.03 495.88 61.85 504.08 C 61.89 508.05 58.62 511.33 54.83 512.00 L 52.70 512.00 C 48.42 511.33 45.20 507.31 45.63 502.97 C 45.65 443.68 45.57 384.38 45.67 325.09 Z" />
</g>
<g id="#eece95ff">
<path fill="#eece95" opacity="1.00" d=" M 67.70 73.09 C 68.29 68.58 72.08 64.54 76.87 65.01 C 196.91 65.00 316.96 64.99 437.00 65.01 C 441.26 64.63 445.12 67.86 445.87 72.00 C 466.73 145.23 487.77 218.42 508.56 291.67 C 509.21 299.74 508.67 307.88 508.84 315.98 C 509.32 320.50 505.69 325.02 501.03 324.99 C 490.10 325.20 479.15 324.97 468.21 325.09 C 462.82 325.18 457.43 325.18 452.03 325.09 C 321.98 325.05 191.92 325.06 61.86 325.09 C 56.46 325.18 51.06 325.19 45.67 325.09 C 34.74 324.97 23.81 325.19 12.89 324.99 C 8.73 325.03 5.00 321.32 5.09 317.15 C 4.92 311.44 5.10 305.73 5.03 300.03 C 5.07 296.70 4.71 293.29 5.70 290.06 C 24.85 223.20 43.88 156.31 63.05 89.46 C 64.66 84.02 66.24 78.57 67.70 73.09 M 139.29 98.37 C 136.74 99.54 135.30 102.14 134.69 104.76 C 122.54 147.48 110.27 190.16 98.12 232.88 C 96.93 236.18 98.05 240.14 100.92 242.19 C 103.78 244.39 107.58 243.68 110.92 243.81 C 208.28 243.79 305.63 243.79 402.99 243.81 C 406.16 243.67 409.69 244.34 412.50 242.49 C 415.62 240.57 416.97 236.48 415.80 233.04 C 403.86 191.04 391.79 149.07 379.85 107.07 C 379.01 104.24 378.44 100.95 375.83 99.15 C 373.04 96.93 369.27 97.65 365.97 97.53 C 293.33 97.55 220.68 97.55 148.03 97.53 C 145.12 97.65 142.01 97.08 139.29 98.37 M 432.21 155.17 C 427.94 157.04 426.64 162.38 428.32 166.47 C 435.95 192.96 443.43 219.49 451.09 245.97 C 452.44 252.16 461.29 254.12 465.16 249.10 C 468.85 245.04 466.17 239.50 464.95 235.00 C 457.83 210.10 450.75 185.19 443.59 160.30 C 442.41 155.53 436.56 152.98 432.21 155.17 Z" />
</g>
<g id="#accbfbff">
<path fill="#accbfb" opacity="1.00" d=" M 139.29 98.37 C 142.01 97.08 145.12 97.65 148.03 97.53 C 220.68 97.55 293.33 97.55 365.97 97.53 C 369.27 97.65 373.04 96.93 375.83 99.15 C 378.44 100.95 379.01 104.24 379.85 107.07 C 391.79 149.07 403.86 191.04 415.80 233.04 C 416.97 236.48 415.62 240.57 412.50 242.49 C 409.69 244.34 406.16 243.67 402.99 243.81 C 305.63 243.79 208.28 243.79 110.92 243.81 C 107.58 243.68 103.78 244.39 100.92 242.19 C 98.05 240.14 96.93 236.18 98.12 232.88 C 110.27 190.16 122.54 147.48 134.69 104.76 C 135.30 102.14 136.74 99.54 139.29 98.37 M 250.26 122.36 C 243.73 124.13 242.89 134.25 249.01 137.11 C 284.72 155.72 320.52 174.19 356.25 192.77 C 358.84 194.10 361.77 195.74 364.77 194.70 C 368.93 193.58 371.74 188.90 370.38 184.73 C 364.99 165.78 359.62 146.83 354.13 127.91 C 353.23 124.31 349.68 121.79 345.99 121.95 C 315.64 121.89 285.28 121.95 254.93 121.91 C 253.37 121.95 251.78 121.94 250.26 122.36 M 162.35 130.37 C 159.44 131.23 157.25 133.73 156.62 136.67 C 149.82 160.48 143.03 184.29 136.20 208.09 C 135.04 211.34 135.75 215.26 138.53 217.47 C 140.52 219.39 143.44 219.39 146.03 219.41 C 199.35 219.30 252.68 219.47 306.00 219.32 C 311.26 219.48 315.16 213.57 313.40 208.73 C 312.40 205.48 309.18 203.94 306.41 202.47 C 260.70 178.87 215.09 155.08 169.38 131.49 C 167.25 130.35 164.74 129.64 162.35 130.37 Z" />
<path fill="#accbfb" opacity="1.00" d=" M 286.86 138.31 C 304.57 137.89 322.29 138.24 340.00 138.12 C 342.44 144.92 344.03 152.00 346.14 158.92 C 347.21 162.75 348.57 166.52 349.12 170.47 C 347.37 169.76 345.63 169.01 343.97 168.11 C 324.97 158.12 305.76 148.51 286.86 138.31 Z" />
<path fill="#accbfb" opacity="1.00" d=" M 169.60 150.28 C 172.15 150.86 174.36 152.34 176.68 153.49 C 206.91 169.24 237.21 184.87 267.47 200.58 C 268.81 201.28 270.08 202.12 271.35 202.96 C 269.24 203.12 267.14 203.24 265.03 203.23 C 228.27 203.14 191.51 203.33 154.75 203.13 C 159.26 185.40 164.76 167.93 169.60 150.28 Z" />
</g>
<g id="#deeafdff">
<path fill="#deeafd" opacity="1.00" d=" M 250.26 122.36 C 251.78 121.94 253.37 121.95 254.93 121.91 C 285.28 121.95 315.64 121.89 345.99 121.95 C 349.68 121.79 353.23 124.31 354.13 127.91 C 359.62 146.83 364.99 165.78 370.38 184.73 C 371.74 188.90 368.93 193.58 364.77 194.70 C 361.77 195.74 358.84 194.10 356.25 192.77 C 320.52 174.19 284.72 155.72 249.01 137.11 C 242.89 134.25 243.73 124.13 250.26 122.36 M 286.86 138.31 C 305.76 148.51 324.97 158.12 343.97 168.11 C 345.63 169.01 347.37 169.76 349.12 170.47 C 348.57 166.52 347.21 162.75 346.14 158.92 C 344.03 152.00 342.44 144.92 340.00 138.12 C 322.29 138.24 304.57 137.89 286.86 138.31 Z" />
<path fill="#deeafd" opacity="1.00" d=" M 162.35 130.37 C 164.74 129.64 167.25 130.35 169.38 131.49 C 215.09 155.08 260.70 178.87 306.41 202.47 C 309.18 203.94 312.40 205.48 313.40 208.73 C 315.16 213.57 311.26 219.48 306.00 219.32 C 252.68 219.47 199.35 219.30 146.03 219.41 C 143.44 219.39 140.52 219.39 138.53 217.47 C 135.75 215.26 135.04 211.34 136.20 208.09 C 143.03 184.29 149.82 160.48 156.62 136.67 C 157.25 133.73 159.44 131.23 162.35 130.37 M 169.60 150.28 C 164.76 167.93 159.26 185.40 154.75 203.13 C 191.51 203.33 228.27 203.14 265.03 203.23 C 267.14 203.24 269.24 203.12 271.35 202.96 C 270.08 202.12 268.81 201.28 267.47 200.58 C 237.21 184.87 206.91 169.24 176.68 153.49 C 174.36 152.34 172.15 150.86 169.60 150.28 Z" />
</g>
</svg>
