<?xml version="1.0" encoding="UTF-8" ?>
<!DOCTYPE svg PUBLIC "-//W3C//DTD SVG 1.1//EN" "http://www.w3.org/Graphics/SVG/1.1/DTD/svg11.dtd">
<svg width="512pt" height="512pt" viewBox="0 0 512 512" version="1.1" xmlns="http://www.w3.org/2000/svg">
<g id="#97addeff">
<path fill="#97adde" opacity="1.00" d=" M 73.11 4.01 C 76.84 2.28 80.80 0.81 84.99 1.01 C 167.67 0.99 250.36 1.01 333.04 1.00 C 342.82 0.70 352.15 7.35 355.58 16.42 C 357.27 20.40 357.09 24.78 357.12 29.01 C 357.09 44.65 357.15 60.28 357.09 75.92 C 345.90 80.68 333.56 77.93 321.81 78.84 C 321.82 76.24 321.58 73.35 319.52 71.48 C 316.76 68.68 312.52 69.25 308.95 69.16 C 241.28 69.22 173.62 69.18 105.95 69.17 C 103.10 69.13 99.88 69.64 98.04 72.07 C 96.34 73.95 96.31 76.59 96.30 78.97 C 88.86 77.76 81.41 74.31 77.39 67.65 C 72.26 60.12 73.62 50.66 73.47 42.07 C 73.29 29.51 73.87 16.93 73.14 4.38 L 73.11 4.01 M 102.36 30.54 C 97.48 31.38 94.74 37.46 97.22 41.71 C 98.80 44.90 102.57 46.04 105.90 45.86 C 174.62 45.84 243.34 45.84 312.06 45.86 C 314.92 45.93 318.11 45.37 320.01 43.00 C 322.74 39.88 322.23 34.61 318.96 32.06 C 315.87 29.61 311.71 30.36 308.06 30.23 C 240.70 30.26 173.34 30.25 105.98 30.24 C 104.76 30.24 103.56 30.34 102.36 30.54 Z" />
</g>
<g id="#718fd2ff">
<path fill="#718fd2" opacity="1.00" d=" M 61.06 25.92 C 60.99 17.26 65.45 8.61 73.14 4.38 C 73.87 16.93 73.29 29.51 73.47 42.07 C 73.62 50.66 72.26 60.12 77.39 67.65 C 81.41 74.31 88.86 77.76 96.30 78.97 C 97.77 82.43 101.05 85.03 104.96 84.72 C 174.32 84.78 243.69 84.77 313.05 84.73 C 317.01 85.03 320.40 82.43 321.81 78.84 C 333.56 77.93 345.90 80.68 357.09 75.92 C 356.64 84.35 358.49 93.48 354.19 101.22 C 350.04 109.31 341.01 114.32 331.97 113.99 C 250.30 114.01 168.63 113.99 86.96 114.01 C 82.46 114.04 77.86 113.37 73.87 111.16 C 66.12 107.19 61.06 98.70 61.07 90.00 C 60.99 68.64 61.02 47.28 61.06 25.92 Z" />
</g>
<g id="#304b8cff">
<path fill="#304b8c" opacity="1.00" d=" M 102.36 30.54 C 103.56 30.34 104.76 30.24 105.98 30.24 C 173.34 30.25 240.70 30.26 308.06 30.23 C 311.71 30.36 315.87 29.61 318.96 32.06 C 322.23 34.61 322.74 39.88 320.01 43.00 C 318.11 45.37 314.92 45.93 312.06 45.86 C 243.34 45.84 174.62 45.84 105.90 45.86 C 102.57 46.04 98.80 44.90 97.22 41.71 C 94.74 37.46 97.48 31.38 102.36 30.54 Z" />
<path fill="#304b8c" opacity="1.00" d=" M 98.04 72.07 C 99.88 69.64 103.10 69.13 105.95 69.17 C 173.62 69.18 241.28 69.22 308.95 69.16 C 312.52 69.25 316.76 68.68 319.52 71.48 C 321.58 73.35 321.82 76.24 321.81 78.84 C 320.40 82.43 317.01 85.03 313.05 84.73 C 243.69 84.77 174.32 84.78 104.96 84.72 C 101.05 85.03 97.77 82.43 96.30 78.97 C 96.31 76.59 96.34 73.95 98.04 72.07 Z" />
</g>
<g id="#919196ff">
<path fill="#919196" opacity="1.00" d=" M 5.44 67.38 C 11.75 57.20 23.69 50.71 35.69 51.32 C 41.10 51.75 44.20 58.58 41.18 63.03 C 39.34 66.37 35.24 66.59 31.90 67.03 C 24.64 67.89 18.30 73.52 16.37 80.55 C 15.27 84.61 15.60 88.85 15.56 93.01 C 15.56 135.69 15.58 178.36 15.54 221.03 C 15.07 227.81 16.78 235.20 22.30 239.63 C 27.34 244.29 34.51 244.51 40.98 244.26 C 62.68 244.23 84.37 244.27 106.07 244.23 C 108.47 244.25 111.09 244.42 113.04 246.02 C 116.40 248.56 116.88 253.92 114.08 257.06 C 112.19 259.44 108.96 259.91 106.11 259.86 C 84.42 259.84 62.72 259.84 41.03 259.86 C 33.31 260.05 25.22 259.51 18.36 255.61 C 7.41 249.92 0.34 238.04 0.00 225.75 L 0.00 85.65 C 0.32 79.24 1.88 72.79 5.44 67.38 Z" />
<path fill="#919196" opacity="1.00" d=" M 472.59 243.48 C 469.15 239.30 471.84 232.17 477.20 231.36 C 486.85 230.52 496.62 234.82 503.13 241.90 C 508.71 247.82 511.65 255.83 512.00 263.90 L 512.00 424.90 C 511.67 432.07 509.43 439.26 504.90 444.90 C 498.96 452.64 489.49 457.48 479.73 457.71 C 468.81 457.97 457.88 457.71 446.96 457.84 C 443.91 457.77 440.44 458.13 437.91 456.08 C 434.71 453.68 434.02 448.67 436.46 445.50 C 438.10 443.06 441.17 442.23 443.97 442.26 C 453.65 442.22 463.32 442.25 473.00 442.26 C 477.74 442.27 482.81 442.53 487.09 440.09 C 492.94 437.05 496.55 430.54 496.42 423.99 C 496.45 371.00 496.44 318.01 496.42 265.02 C 496.73 256.85 490.85 248.83 482.75 247.24 C 479.26 246.47 474.85 246.81 472.59 243.48 Z" />
</g>
<g id="#e59936ff">
<path fill="#e59936" opacity="1.00" d=" M 158.97 152.64 C 166.23 152.12 173.52 152.56 180.80 152.40 L 180.80 152.67 C 180.80 218.76 180.92 284.86 180.74 350.95 C 174.17 351.05 167.60 350.98 161.03 351.00 C 151.48 351.26 142.01 345.94 137.26 337.65 C 134.16 332.71 133.41 326.75 133.32 321.03 C 133.36 274.34 133.31 227.65 133.35 180.96 C 133.44 173.62 135.78 166.19 141.03 160.90 C 145.69 156.01 152.21 152.97 158.97 152.64 Z" />
<path fill="#e59936" opacity="1.00" d=" M 207.37 181.49 C 210.57 181.00 213.82 181.26 217.05 181.22 C 281.38 181.23 345.71 181.21 410.04 181.23 C 412.84 181.20 415.91 182.10 417.55 184.53 C 420.10 187.88 419.16 193.26 415.59 195.51 C 413.68 196.87 411.25 196.88 409.02 196.93 C 342.67 196.88 276.32 196.94 209.98 196.90 C 206.16 197.19 202.18 194.81 201.32 190.95 C 200.16 186.80 203.12 182.17 207.37 181.49 Z" />
<path fill="#e59936" opacity="1.00" d=" M 206.38 223.52 C 209.51 222.77 212.77 223.11 215.96 223.05 C 280.64 223.07 345.33 223.04 410.01 223.07 C 414.60 222.52 419.29 226.25 418.98 231.04 C 419.10 235.71 414.48 239.11 410.04 238.72 C 343.68 238.75 277.31 238.71 210.95 238.74 C 207.60 238.92 203.79 237.91 202.13 234.72 C 199.62 230.72 201.87 224.87 206.38 223.52 Z" />
<path fill="#e59936" opacity="1.00" d=" M 206.29 265.36 C 209.80 264.52 213.46 264.91 217.04 264.84 C 281.03 264.84 345.01 264.86 408.99 264.83 C 411.45 264.91 414.23 264.89 416.17 266.67 C 419.56 269.29 419.96 274.83 416.99 277.91 C 415.29 279.93 412.55 280.47 410.04 280.52 C 343.68 280.56 277.32 280.51 210.96 280.55 C 207.93 280.59 204.46 280.02 202.64 277.30 C 199.43 273.41 201.48 266.82 206.29 265.36 Z" />
<path fill="#e59936" opacity="1.00" d=" M 205.40 307.54 C 207.13 306.73 209.08 306.71 210.95 306.63 C 276.97 306.64 343.00 306.64 409.02 306.63 C 412.28 306.54 416.02 307.23 417.78 310.31 C 420.96 314.81 417.57 321.98 411.98 322.12 C 400.01 322.53 388.02 322.16 376.04 322.28 C 321.04 322.29 266.03 322.27 211.03 322.30 C 208.27 322.27 205.13 322.06 203.23 319.76 C 199.62 316.28 200.87 309.61 205.40 307.54 Z" />
</g>
<g id="#f7cf7fff">
<path fill="#f7cf7f" opacity="1.00" d=" M 197.06 152.42 C 272.33 152.51 347.60 152.34 422.87 152.50 C 433.82 152.44 444.37 159.42 448.28 169.69 C 450.51 174.86 450.12 180.58 450.18 186.07 C 450.14 223.05 450.24 260.03 450.13 297.01 C 379.09 296.83 308.06 296.99 237.02 296.93 C 230.68 296.84 224.25 297.42 217.99 296.13 C 208.98 294.25 201.33 287.27 198.44 278.56 C 197.03 274.53 196.95 270.21 196.92 265.99 C 197.08 228.21 196.80 190.44 197.05 152.66 L 197.06 152.42 M 207.37 181.49 C 203.12 182.17 200.16 186.80 201.32 190.95 C 202.18 194.81 206.16 197.19 209.98 196.90 C 276.32 196.94 342.67 196.88 409.02 196.93 C 411.25 196.88 413.68 196.87 415.59 195.51 C 419.16 193.26 420.10 187.88 417.55 184.53 C 415.91 182.10 412.84 181.20 410.04 181.23 C 345.71 181.21 281.38 181.23 217.05 181.22 C 213.82 181.26 210.57 181.00 207.37 181.49 M 206.38 223.52 C 201.87 224.87 199.62 230.72 202.13 234.72 C 203.79 237.91 207.60 238.92 210.95 238.74 C 277.31 238.71 343.68 238.75 410.04 238.72 C 414.48 239.11 419.10 235.71 418.98 231.04 C 419.29 226.25 414.60 222.52 410.01 223.07 C 345.33 223.04 280.64 223.07 215.96 223.05 C 212.77 223.11 209.51 222.77 206.38 223.52 M 206.29 265.36 C 201.48 266.82 199.43 273.41 202.64 277.30 C 204.46 280.02 207.93 280.59 210.96 280.55 C 277.32 280.51 343.68 280.56 410.04 280.52 C 412.55 280.47 415.29 279.93 416.99 277.91 C 419.96 274.83 419.56 269.29 416.17 266.67 C 414.23 264.89 411.45 264.91 408.99 264.83 C 345.01 264.86 281.03 264.84 217.04 264.84 C 213.46 264.91 209.80 264.52 206.29 265.36 Z" />
</g>
<g id="#f5c364ff">
<path fill="#f5c364" opacity="1.00" d=" M 180.80 152.67 C 186.22 152.64 191.63 152.66 197.05 152.66 C 196.80 190.44 197.08 228.21 196.92 265.99 C 196.95 270.21 197.03 274.53 198.44 278.56 C 201.33 287.27 208.98 294.25 217.99 296.13 C 224.25 297.42 230.68 296.84 237.02 296.93 C 308.06 296.99 379.09 296.83 450.13 297.01 C 449.92 306.68 450.36 316.38 449.89 326.05 C 449.22 336.84 441.28 346.66 430.90 349.65 C 425.44 351.34 419.64 350.83 414.01 350.91 C 336.25 350.94 258.50 350.85 180.74 350.95 C 180.92 284.86 180.80 218.76 180.80 152.67 M 205.40 307.54 C 200.87 309.61 199.62 316.28 203.23 319.76 C 205.13 322.06 208.27 322.27 211.03 322.30 C 266.03 322.27 321.04 322.29 376.04 322.28 C 388.02 322.16 400.01 322.53 411.98 322.12 C 417.57 321.98 420.96 314.81 417.78 310.31 C 416.02 307.23 412.28 306.54 409.02 306.63 C 343.00 306.64 276.97 306.64 210.95 306.63 C 209.08 306.71 207.13 306.73 205.40 307.54 Z" />
</g>
<g id="#71df9eff">
<path fill="#71df9e" opacity="1.00" d=" M 14.50 394.44 C 19.94 390.05 26.96 387.71 33.95 387.95 C 150.28 387.94 266.61 387.92 382.94 387.96 C 399.11 387.53 413.87 401.82 413.98 417.98 C 414.03 433.26 413.98 448.53 414.00 463.81 C 410.42 465.77 406.82 467.81 402.83 468.83 C 397.66 470.17 392.26 470.00 386.97 470.01 C 374.82 469.83 362.66 470.12 350.51 469.79 C 360.92 454.12 371.59 438.62 381.97 422.94 C 384.49 419.52 383.86 414.24 380.21 411.90 C 376.72 409.26 371.48 410.55 369.23 414.17 C 359.59 428.05 350.46 442.29 340.75 456.13 C 338.02 452.20 335.42 448.19 332.74 444.23 C 331.25 442.10 329.56 439.73 326.86 439.12 C 322.69 437.88 317.94 440.90 317.31 445.21 C 316.69 448.11 318.35 450.77 319.86 453.09 C 323.53 458.50 327.21 463.90 330.81 469.36 C 323.26 470.37 315.64 469.89 308.05 469.94 C 307.23 467.61 306.78 464.86 304.60 463.36 C 302.76 461.85 300.27 461.80 298.02 461.71 C 214.00 461.73 129.97 461.71 45.94 461.72 C 41.76 461.27 37.86 463.70 36.52 467.70 C 28.45 466.62 22.42 460.05 18.44 453.41 C 14.20 446.35 14.65 437.86 14.71 429.95 C 14.66 418.11 14.92 406.27 14.50 394.44 M 41.33 423.44 C 37.68 424.85 35.59 429.26 36.91 432.96 C 38.00 436.85 42.23 438.69 46.01 438.39 C 130.01 438.38 214.02 438.38 298.02 438.39 C 300.54 438.36 303.33 438.10 305.20 436.20 C 308.47 433.33 308.40 427.70 305.10 424.88 C 303.23 423.01 300.45 422.82 297.97 422.80 C 215.98 422.83 134.00 422.81 52.02 422.81 C 48.46 422.90 44.79 422.42 41.33 423.44 Z" />
</g>
<g id="#65d38fff">
<path fill="#65d38f" opacity="1.00" d=" M 2.38 419.11 C 2.40 409.54 7.14 400.45 14.50 394.44 C 14.92 406.27 14.66 418.11 14.71 429.95 C 14.65 437.86 14.20 446.35 18.44 453.41 C 22.42 460.05 28.45 466.62 36.52 467.70 C 36.58 470.09 36.66 472.77 38.44 474.59 C 40.26 476.81 43.26 477.26 45.96 477.29 C 129.98 477.30 214.00 477.29 298.01 477.30 C 300.26 477.19 302.72 477.10 304.57 475.65 C 306.42 474.26 307.05 471.91 308.05 469.94 C 315.64 469.89 323.26 470.37 330.81 469.36 C 333.27 473.02 335.91 478.02 341.03 477.86 C 345.72 477.74 348.18 473.19 350.51 469.79 C 362.66 470.12 374.82 469.83 386.97 470.01 C 392.26 470.00 397.66 470.17 402.83 468.83 C 406.82 467.81 410.42 465.77 414.00 463.81 C 413.83 471.22 414.44 478.67 413.47 486.04 C 411.35 500.14 398.47 511.55 384.22 512.00 L 31.94 512.00 C 22.79 511.51 13.99 506.84 8.58 499.44 C 4.10 493.66 2.23 486.29 2.31 479.07 C 2.35 459.08 2.21 439.09 2.38 419.11 Z" />
</g>
<g id="#489967ff">
<path fill="#489967" opacity="1.00" d=" M 369.23 414.17 C 371.48 410.55 376.72 409.26 380.21 411.90 C 383.86 414.24 384.49 419.52 381.97 422.94 C 371.59 438.62 360.92 454.12 350.51 469.79 C 348.18 473.19 345.72 477.74 341.03 477.86 C 335.91 478.02 333.27 473.02 330.81 469.36 C 327.21 463.90 323.53 458.50 319.86 453.09 C 318.35 450.77 316.69 448.11 317.31 445.21 C 317.94 440.90 322.69 437.88 326.86 439.12 C 329.56 439.73 331.25 442.10 332.74 444.23 C 335.42 448.19 338.02 452.20 340.75 456.13 C 350.46 442.29 359.59 428.05 369.23 414.17 Z" />
<path fill="#489967" opacity="1.00" d=" M 41.33 423.44 C 44.79 422.42 48.46 422.90 52.02 422.81 C 134.00 422.81 215.98 422.83 297.97 422.80 C 300.45 422.82 303.23 423.01 305.10 424.88 C 308.40 427.70 308.47 433.33 305.20 436.20 C 303.33 438.10 300.54 438.36 298.02 438.39 C 214.02 438.38 130.01 438.38 46.01 438.39 C 42.23 438.69 38.00 436.85 36.91 432.96 C 35.59 429.26 37.68 424.85 41.33 423.44 Z" />
<path fill="#489967" opacity="1.00" d=" M 36.52 467.70 C 37.86 463.70 41.76 461.27 45.94 461.72 C 129.97 461.71 214.00 461.73 298.02 461.71 C 300.27 461.80 302.76 461.85 304.60 463.36 C 306.78 464.86 307.23 467.61 308.05 469.94 C 307.05 471.91 306.42 474.26 304.57 475.65 C 302.72 477.10 300.26 477.19 298.01 477.30 C 214.00 477.29 129.98 477.30 45.96 477.29 C 43.26 477.26 40.26 476.81 38.44 474.59 C 36.66 472.77 36.58 470.09 36.52 467.70 Z" />
</g>
</svg>
